<svg width="150" height="150" viewBox="0 0 150 150" fill="none" xmlns="http://www.w3.org/2000/svg">
<path d="M61.2803 38.8301C61.2025 38.5955 61.1624 38.3484 61.1624 38.1012V35.7952C61.1624 34.5214 60.1302 33.488 58.8564 33.488C57.5827 33.488 56.5504 34.5214 56.5504 35.7952V38.1012C56.5504 38.3483 56.5104 38.5955 56.4314 38.8301L55.1371 42.7132H62.5747L61.2803 38.8301Z" fill="#B89B6E"/>
<path d="M70.2217 57.9405H70.1416C69.2753 57.9359 68.4604 58.3444 67.9455 59.0402C67.1295 60.1366 67.2382 61.6644 68.2007 62.635L75.0008 69.4339L81.7997 62.6338C82.7621 61.6633 82.8708 60.1356 82.056 59.0391C81.5205 58.3249 80.6713 57.9153 79.7798 57.9404C78.8872 57.9656 78.0632 58.4211 77.5677 59.1638L76.9188 60.1365C76.4919 60.7786 75.7709 61.1631 75.0008 61.1631C74.2294 61.1631 73.5096 60.7786 73.0816 60.1365L72.4327 59.1638C71.9417 58.4165 71.1143 57.9599 70.2217 57.9405Z" fill="#B89B6E"/>
<path d="M72.6914 21.2813V56.5518H77.3033L77.3044 21.2813L84.1754 14.4103C84.8747 13.7202 85.2706 12.7806 85.2741 11.7987C85.2775 10.8168 84.8896 9.87383 84.1949 9.17918C83.5002 8.48566 82.5584 8.09657 81.5765 8.1C80.5946 8.10343 79.6539 8.4994 78.9649 9.19863L77.3216 10.842C76.0387 12.1249 73.9571 12.1249 72.6742 10.842L71.0308 9.19863C69.5923 7.75895 67.2588 7.7601 65.8204 9.19863C64.3807 10.6372 64.3807 12.9706 65.8204 14.4103L72.6914 21.2813Z" fill="#B89B6E"/>
<path d="M61.1631 26.5693C61.1631 27.8431 60.1309 28.8753 58.8571 28.8753C57.5834 28.8753 56.5511 27.8431 56.5511 26.5693C56.5511 25.2956 57.5834 24.2622 58.8571 24.2622C60.1309 24.2622 61.1631 25.2956 61.1631 26.5693Z" fill="#B89B6E"/>
<path d="M93.4511 79.6114C94.8805 79.6091 96.2755 79.1651 97.4428 78.3399C98.6113 77.5137 99.4948 76.3464 99.9731 74.9995H86.9281C87.4065 76.3465 88.2899 77.5138 89.4584 78.3399C90.6257 79.1651 92.0206 79.6091 93.4511 79.6114Z" fill="#B89B6E"/>
<path d="M93.4511 26.5693C93.4511 27.8431 92.4177 28.8753 91.144 28.8753C89.8703 28.8753 88.838 27.8431 88.838 26.5693C88.838 25.2956 89.8703 24.2622 91.144 24.2622C92.4177 24.2622 93.4511 25.2956 93.4511 26.5693Z" fill="#B89B6E"/>
<path d="M56.5488 47.3262H61.1607V51.9381H56.5488V47.3262Z" fill="#B89B6E"/>
<path d="M93.4511 35.7949C93.4511 34.5212 92.4177 33.4878 91.144 33.4878C89.8703 33.4878 88.838 34.5212 88.838 35.7949V40.4068H93.4499L93.4511 35.7949Z" fill="#B89B6E"/>
<path d="M85.0606 65.8946L80.5676 70.3876H95.7563V56.5507H85.9351C86.893 57.9686 87.329 59.6749 87.1699 61.3788C87.0108 63.0828 86.2645 64.6782 85.0606 65.8946Z" fill="#B89B6E"/>
<path d="M88.8369 45.0176H93.4488V51.9366H88.8369V45.0176Z" fill="#B89B6E"/>
<path d="M75 79.6114C76.4294 79.6091 77.8244 79.1651 78.9917 78.3399C80.1602 77.5137 81.0436 76.3464 81.522 74.9995H68.4781C68.9554 76.3465 69.84 77.5138 71.0073 78.3399C72.1746 79.1651 73.5695 79.6091 75 79.6114Z" fill="#B89B6E"/>
<path d="M109.594 104.974C107.149 106.813 104.072 107.604 101.044 107.171C98.0144 106.738 95.2828 105.118 93.4506 102.668C91.2751 105.576 87.8566 107.288 84.2256 107.288C80.5945 107.288 77.175 105.576 75.0006 102.668C72.8251 105.576 69.4066 107.288 65.7756 107.288C62.1445 107.288 58.725 105.576 56.5506 102.668C54.7184 105.118 51.9855 106.739 48.9574 107.171C45.9281 107.604 42.852 106.813 40.4062 104.974V111.899H109.594V104.974Z" fill="#B89B6E"/>
<path d="M79.6113 134.962H70.3863C68.9558 134.963 67.5608 135.407 66.3934 136.233C65.225 137.06 64.3415 138.226 63.8632 139.574H86.1355H86.1344C85.656 138.226 84.7725 137.06 83.6041 136.233C82.4368 135.407 81.0418 134.963 79.6113 134.962Z" fill="#B89B6E"/>
<path d="M72.6914 125.736H77.3033V130.348H72.6914V125.736Z" fill="#B89B6E"/>
<path d="M33.4863 116.514V116.618C33.4886 117.813 33.9636 118.959 34.8093 119.804C35.6538 120.65 36.7994 121.124 37.9953 121.126H112.002C113.198 121.124 114.344 120.65 115.189 119.804C116.034 118.959 116.51 117.813 116.511 116.618V116.514H33.4863Z" fill="#B89B6E"/>
<path d="M64.9394 65.8946C63.7355 64.6781 62.9894 63.0828 62.8303 61.3788C62.6712 59.6748 63.1072 57.9683 64.0651 56.5507H54.2439V70.3876H69.4326L64.9394 65.8946Z" fill="#B89B6E"/>
<path d="M47.3262 102.674C49.1607 102.673 50.9186 101.943 52.2161 100.646C53.5127 99.3482 54.2429 97.5903 54.244 95.7561C54.244 94.4823 55.2774 93.4501 56.5511 93.4501H40.4071V95.7561C40.4094 97.5905 41.1384 99.3484 42.4361 100.646C43.7328 101.943 45.4919 102.673 47.3262 102.674Z" fill="#B89B6E"/>
<path d="M95.7569 95.7569C95.7569 98.2288 97.0752 100.513 99.2166 101.749C101.357 102.984 103.995 102.984 106.134 101.749C108.276 100.513 109.594 98.2287 109.594 95.7569V93.4509H93.4509C94.062 93.4509 94.6491 93.6935 95.0817 94.1261C95.5132 94.5587 95.7569 95.1447 95.7569 95.7569Z" fill="#B89B6E"/>
<path d="M56.5488 79.6114C57.9782 79.6091 59.3732 79.1651 60.5405 78.3399C61.709 77.5137 62.5925 76.3464 63.0708 74.9995H50.027C50.5053 76.3465 51.3888 77.5138 52.5561 78.3399C53.7234 79.1651 55.1183 79.6091 56.5488 79.6114Z" fill="#B89B6E"/>
<path d="M58.8545 95.7569C58.8545 98.2288 60.1729 100.513 62.3142 101.749C64.4543 102.984 67.0922 102.984 69.2333 101.749C71.3733 100.513 72.6917 98.2287 72.6917 95.7569C72.6917 94.4832 73.7251 93.4509 74.9989 93.4509H56.5486C57.1597 93.4509 57.7468 93.6935 58.1794 94.1261C58.612 94.5587 58.8545 95.1447 58.8545 95.7569Z" fill="#B89B6E"/>
<path d="M77.3056 95.7569C77.3056 98.2288 78.624 100.513 80.7653 101.749C82.9053 102.984 85.5433 102.984 87.6831 101.749C89.8243 100.513 91.1428 98.2287 91.1428 95.7569C91.1428 94.4832 92.1762 93.4509 93.45 93.4509H88.9306V88.8378H102.674V79.6046C100.499 82.5126 97.081 84.2247 93.45 84.2247C89.8177 84.2247 86.3994 82.5127 84.2249 79.6046C82.0494 82.5126 78.631 84.2247 74.9999 84.2247C71.3689 84.2247 67.9494 82.5127 65.7749 79.6046C63.5994 82.5126 60.181 84.2247 56.5499 84.2247C52.9186 84.2247 49.4994 82.5127 47.325 79.6046V88.8378H84.1951V93.4497L74.9997 93.4509C75.6108 93.4509 76.1978 93.6935 76.6304 94.1261C77.063 94.5587 77.3056 95.1446 77.3056 95.7569Z" fill="#B89B6E"/>
</svg>
