<svg width="1185" height="274" viewBox="0 0 1185 274" fill="none" xmlns="http://www.w3.org/2000/svg">
<path d="M18 52.1001C16.5333 53.0334 15.0333 53.9334 13.5 54.8001C11.9667 55.6668 10.5 56.6001 9.10001 57.6001C7.90001 58.4668 6.80001 59.5334 5.80001 60.8001C4.80001 62.0668 4.10001 63.4334 3.70001 64.9001C3.30001 66.3001 3.30001 67.7001 3.70001 69.1001C4.03335 70.5001 4.93335 71.7334 6.40001 72.8001C8.53335 74.4001 11.4667 75.5334 15.2 76.2001C18.9333 76.8001 23.1 77.0001 27.7 76.8001C32.3667 76.6668 37.3333 76.2001 42.6 75.4001C47.9333 74.5334 53.2667 73.4001 58.6 72.0001C63.9333 70.6001 69.1 68.9668 74.1 67.1001C79.1667 65.2334 83.7334 63.2334 87.8 61.1001C91.9333 58.9668 95.4334 56.7334 98.3 54.4001C101.233 52.0001 103.233 49.5668 104.3 47.1001C104.3 45.7668 103.967 44.8334 103.3 44.3001C102.633 43.7001 101.8 43.1334 100.8 42.6001C97.2 40.5334 93.2 39.1334 88.8 38.4001C84.4667 37.6001 80.2333 37.1668 76.1 37.1001C67.0333 36.9668 58 36.9001 49 36.9001C40.0667 36.9001 31.0667 37.1334 22 37.6001C20.2667 37.7334 18.5333 37.7334 16.8 37.6001C15.1333 37.4668 13.4667 37.2001 11.8 36.8001C10.4 36.4668 9.43335 35.9334 8.90001 35.2001C8.36668 34.4001 8.13335 33.5334 8.20001 32.6001C8.33335 31.6668 8.66668 30.7334 9.20001 29.8001C9.80001 28.8001 10.5 27.9334 11.3 27.2001C13.8333 24.8668 17.1 22.6334 21.1 20.5001C25.1667 18.3668 29.6333 16.3668 34.5 14.5001C39.4333 12.5668 44.6 10.8001 50 9.2001C55.4 7.6001 60.6667 6.2001 65.8 5.0001C71 3.73343 75.9 2.7001 80.5 1.90009C85.1667 1.03343 89.2 0.433426 92.6 0.100093C93.4667 0.0334273 94.5667 0.0334273 95.9 0.100093C97.3 0.100093 98.6667 0.233427 100 0.500094C101.4 0.766761 102.7 1.13343 103.9 1.60009C105.1 2.00009 106 2.53343 106.6 3.20009C107.333 4.00009 107.8 4.83343 108 5.70009C108.2 6.56676 108.2 7.43343 108 8.30009C107.8 9.16676 107.433 10.0001 106.9 10.8001C106.433 11.6001 105.867 12.3334 105.2 13.0001C104 14.1334 102.4 15.3001 100.4 16.5001C98.4 17.6334 96.1334 18.7334 93.6 19.8001C91.1333 20.8668 88.5 21.9001 85.7 22.9001C82.9667 23.8334 80.2667 24.7001 77.6 25.5001C75 26.2334 72.5 26.8668 70.1 27.4001C67.7667 27.8668 65.8 28.2001 64.2 28.4001L63.7 26.9001L63.8 25.3001C65.4667 24.8334 67.4667 24.2668 69.8 23.6001C72.2 22.9334 74.7334 22.2001 77.4 21.4001C80.0667 20.5334 82.7667 19.6001 85.5 18.6001C88.2334 17.6001 90.8 16.5334 93.2 15.4001C95.6667 14.2668 97.8667 13.1001 99.8 11.9001C101.8 10.6334 103.333 9.33343 104.4 8.00009C103.867 6.73343 103.067 6.00009 102 5.8001C100.933 5.53343 99.8333 5.36676 98.7 5.30009C92.7 5.10009 86.3333 5.53343 79.6 6.60009C72.9333 7.66676 66.2333 9.13343 59.5 11.0001C52.8333 12.8668 46.3333 15.0668 40 17.6001C33.6667 20.0668 27.8667 22.6334 22.6 25.3001C22 25.6334 21.2333 26.0334 20.3 26.5001C19.3667 26.9668 18.4 27.5001 17.4 28.1001C16.4667 28.7001 15.5667 29.3001 14.7 29.9001C13.9 30.5001 13.3 31.0334 12.9 31.5001C12.9 32.2334 13.2 32.6334 13.8 32.7001C14.4 32.7001 14.9333 32.7001 15.4 32.7001C21.4667 32.5668 27.4333 32.4334 33.3 32.3001C39.2333 32.1668 45.2333 32.0001 51.3 31.8001C53.3667 31.7334 55.9333 31.6668 59 31.6001C62.0667 31.5334 65.3333 31.5668 68.8 31.7001C72.2667 31.7668 75.8 31.9668 79.4 32.3001C83.0667 32.5668 86.5333 33.0001 89.8 33.6001C93.0667 34.2001 96.0334 35.0001 98.7 36.0001C101.367 37.0001 103.433 38.2668 104.9 39.8001C106.1 41.0001 106.9 42.3001 107.3 43.7001C107.7 45.1001 107.8 46.5334 107.6 48.0001C107.4 49.4001 106.933 50.7668 106.2 52.1001C105.467 53.4334 104.567 54.6668 103.5 55.8001C100.233 59.3334 96.0333 62.5334 90.9 65.4001C85.8333 68.2668 80.4 70.8001 74.6 73.0001C68.8667 75.1334 63.1 76.9334 57.3 78.4001C51.5667 79.9334 46.4 81.0334 41.8 81.7001C36.7333 82.5001 31.7333 82.8334 26.8 82.7001C21.8667 82.6334 16.9333 81.8668 12 80.4001C8.06668 79.2001 5.13335 77.5001 3.20001 75.3001C1.26668 73.1001 0.266678 70.7001 0.200012 68.1001C0.0666786 65.5001 0.866678 62.8668 2.60001 60.2001C4.26668 57.4668 6.76668 55.0001 10.1 52.8001C11.1667 52.0668 12.2 51.4668 13.2 51.0001C14.2 50.5334 15.3333 50.2001 16.6 50.0001L18 52.1001ZM149.24 64.3001C146.24 66.1001 143.273 67.8668 140.34 69.6001C137.473 71.3334 134.34 72.7334 130.94 73.8001C127.54 74.8001 124.807 74.9334 122.74 74.2001C120.74 73.4001 119.373 72.1001 118.64 70.3001C117.84 68.5001 117.673 66.4001 118.14 64.0001C118.54 61.5334 119.507 59.2001 121.04 57.0001C121.773 55.9334 122.64 54.9334 123.64 54.0001C124.64 53.0001 125.74 52.1334 126.94 51.4001L129.94 54.3001C129.007 55.1001 128.04 56.0668 127.04 57.2001C126.107 58.3334 125.273 59.5668 124.54 60.9001C123.807 62.2334 123.207 63.6334 122.74 65.1001C122.273 66.5001 122.107 67.9001 122.24 69.3001C123.64 69.9668 125.273 70.1668 127.14 69.9001C129.007 69.5668 130.873 69.0334 132.74 68.3001C134.673 67.5001 136.473 66.6001 138.14 65.6001C139.873 64.5334 141.307 63.5668 142.44 62.7001C138.507 60.9001 135.74 58.9668 134.14 56.9001C132.607 54.7668 131.907 52.7001 132.04 50.7001C132.24 48.6334 133.073 46.7334 134.54 45.0001C136.073 43.2668 137.907 41.8668 140.04 40.8001C142.24 39.7334 144.573 39.1334 147.04 39.0001C149.573 38.8001 151.907 39.2334 154.04 40.3001C156.707 41.7001 158.44 43.2334 159.24 44.9001C160.04 46.5001 160.24 48.2001 159.84 50.0001C159.44 51.7334 158.607 53.5001 157.34 55.3001C156.14 57.0334 154.907 58.7001 153.64 60.3001C157.907 60.3001 162.24 60.2668 166.64 60.2001C171.04 60.0668 175.44 59.8668 179.84 59.6001C184.24 59.2668 188.607 58.8001 192.94 58.2001C197.273 57.6001 201.54 56.7668 205.74 55.7001L205.24 59.0001C204.507 59.6668 203.173 60.2668 201.24 60.8001C199.307 61.2668 197.04 61.7334 194.44 62.2001C191.84 62.6001 189.04 62.9668 186.04 63.3001C183.107 63.5668 180.24 63.8001 177.44 64.0001C174.707 64.2001 172.173 64.4001 169.84 64.6001C167.573 64.7334 165.807 64.8334 164.54 64.9001C162.073 65.1001 159.507 65.1001 156.84 64.9001C154.24 64.7001 151.707 64.5001 149.24 64.3001ZM146.54 59.4001C147.607 58.6668 148.707 57.8334 149.84 56.9001C150.973 55.9668 151.973 54.9334 152.84 53.8001C153.773 52.6668 154.507 51.4668 155.04 50.2001C155.64 48.9334 155.973 47.6001 156.04 46.2001C155.44 44.8668 154.473 44.0001 153.14 43.6001C151.873 43.1334 150.44 43.0001 148.84 43.2001C147.307 43.4001 145.74 43.8668 144.14 44.6001C142.54 45.3334 141.107 46.2001 139.84 47.2001C138.573 48.2001 137.607 49.3001 136.94 50.5001C136.34 51.7001 136.207 52.8668 136.54 54.0001C136.873 55.1334 137.807 56.2001 139.34 57.2001C140.94 58.1334 143.34 58.8668 146.54 59.4001ZM201.941 70.9001C201.474 70.3668 200.974 69.8668 200.441 69.4001C199.907 68.8668 199.474 68.3334 199.141 67.8001C198.741 67.2001 198.541 66.6001 198.541 66.0001C198.474 65.3334 198.707 64.6001 199.241 63.8001C200.107 62.4668 201.241 61.1668 202.641 59.9001C204.041 58.5668 205.607 57.2668 207.341 56.0001C209.674 54.2668 212.107 52.7001 214.641 51.3001C217.174 49.9001 219.407 48.7334 221.341 47.8001C222.941 47.0668 224.241 46.8334 225.241 47.1001C226.241 47.3001 227.141 48.2334 227.941 49.9001L227.441 51.5001C225.574 51.7001 223.807 52.1668 222.141 52.9001C220.474 53.5668 218.874 54.4001 217.341 55.4001C215.807 56.4001 214.307 57.4668 212.841 58.6001C211.374 59.7334 209.907 60.8334 208.441 61.9001C208.907 62.4334 209.941 62.4001 211.541 61.8001C213.207 61.1334 215.007 60.2668 216.941 59.2001C218.874 58.1334 220.741 57.0668 222.541 56.0001C224.341 54.9334 225.607 54.2334 226.341 53.9001C227.607 53.3668 228.574 53.3668 229.241 53.9001C229.974 54.3668 230.674 55.1668 231.341 56.3001C231.207 57.4334 230.874 58.4668 230.341 59.4001C229.807 60.3334 229.241 61.3001 228.641 62.3001C228.107 63.2334 227.607 64.2001 227.141 65.2001C226.741 66.1334 226.574 67.1668 226.641 68.3001C227.441 69.0334 228.341 69.4001 229.341 69.4001C230.407 69.3334 231.441 69.2001 232.441 69.0001C241.374 67.2668 250.174 65.2668 258.841 63.0001C267.507 60.7334 276.274 58.6334 285.141 56.7001C285.474 57.1668 285.774 57.6334 286.041 58.1001C286.307 58.5001 286.607 58.9334 286.941 59.4001C285.674 60.0001 283.541 60.7668 280.541 61.7001C277.607 62.6334 274.207 63.6334 270.341 64.7001C266.474 65.7668 262.374 66.8334 258.041 67.9001C253.774 68.9668 249.674 69.9334 245.741 70.8001C241.807 71.6001 238.274 72.2668 235.141 72.8001C232.074 73.3334 229.841 73.5668 228.441 73.5001C226.574 73.4334 225.207 72.9668 224.341 72.1001C223.474 71.2334 222.941 70.1668 222.741 68.9001C222.541 67.5668 222.574 66.2001 222.841 64.8001C223.107 63.3334 223.407 62.0334 223.741 60.9001C221.941 61.7001 220.141 62.6334 218.341 63.7001C216.607 64.7001 214.874 65.7001 213.141 66.7001C211.407 67.6334 209.607 68.5001 207.741 69.3001C205.874 70.0334 203.941 70.5668 201.941 70.9001ZM292.796 47.4001C292.996 47.7334 293.463 48.1668 294.196 48.7001C294.929 49.1668 295.463 49.9334 295.796 51.0001C294.929 52.1334 294.163 53.1668 293.496 54.1001C292.829 54.9668 292.229 55.8668 291.696 56.8001C291.229 57.6668 290.796 58.6001 290.396 59.6001C289.996 60.5334 289.663 61.6334 289.396 62.9001C289.196 63.9001 289.096 64.7668 289.096 65.5001C289.429 66.6334 290.129 67.2668 291.196 67.4001C292.329 67.4668 293.563 67.2334 294.896 66.7001C298.629 65.4334 302.163 63.8001 305.496 61.8001C308.829 59.8001 311.996 57.6334 314.996 55.3001C318.063 52.9001 321.029 50.4001 323.896 47.8001C326.763 45.2001 329.596 42.6334 332.396 40.1001C332.863 40.5668 333.263 41.0001 333.596 41.4001C333.996 41.8001 334.529 42.4668 335.196 43.4001C333.263 45.4668 330.863 47.8001 327.996 50.4001C325.196 53.0001 322.096 55.5668 318.696 58.1001C315.363 60.6334 311.863 63.0334 308.196 65.3001C304.529 67.5668 300.929 69.4334 297.396 70.9001C296.196 71.3668 294.996 71.7334 293.796 72.0001C292.596 72.2668 291.496 72.3334 290.496 72.2001C289.496 72.0001 288.596 71.6001 287.796 71.0001C286.996 70.4001 286.363 69.4334 285.896 68.1001C285.629 67.5001 285.463 66.8334 285.396 66.1001C285.063 64.7001 285.029 63.0668 285.296 61.2001C285.496 59.3334 285.963 57.5001 286.696 55.7001C287.363 53.9001 288.229 52.2668 289.296 50.8001C290.363 49.2668 291.529 48.1334 292.796 47.4001ZM380.805 47.7001C380.539 48.6334 379.705 49.5668 378.305 50.5001C376.972 51.4334 375.305 52.3334 373.305 53.2001C371.305 54.0001 369.139 54.7668 366.805 55.5001C364.472 56.1668 362.172 56.7668 359.905 57.3001C357.705 57.8334 355.672 58.2668 353.805 58.6001C352.005 58.8668 350.639 59.0001 349.705 59.0001C348.572 59.0001 347.472 59.0001 346.405 59.0001C345.339 58.9334 344.239 58.9334 343.105 59.0001C342.172 59.7334 341.505 60.6668 341.105 61.8001C340.705 62.8668 340.339 63.9334 340.005 65.0001C340.472 65.3334 340.872 65.7001 341.205 66.1001C341.605 66.5001 342.072 66.7668 342.605 66.9001C344.605 67.3668 347.105 67.6001 350.105 67.6001C353.105 67.5334 356.372 67.3334 359.905 67.0001C363.439 66.6001 367.105 66.1001 370.905 65.5001C374.705 64.9001 378.405 64.2668 382.005 63.6001C385.605 62.9334 389.005 62.3001 392.205 61.7001C395.405 61.1001 398.139 60.6334 400.405 60.3001C403.472 59.8334 406.639 59.1668 409.905 58.3001C413.172 57.4334 416.339 56.8668 419.405 56.6001C420.139 56.5334 420.772 56.6334 421.305 56.9001C421.905 57.1001 422.272 57.6001 422.405 58.4001C421.605 58.8668 420.339 59.3668 418.605 59.9001C416.872 60.3668 414.905 60.8668 412.705 61.4001C410.505 61.9334 408.139 62.4668 405.605 63.0001C403.139 63.4668 400.739 63.9001 398.405 64.3001C396.072 64.7001 393.905 65.1001 391.905 65.5001C389.972 65.8334 388.405 66.1001 387.205 66.3001C385.472 66.6334 383.372 67.0668 380.905 67.6001C378.439 68.0668 375.772 68.5668 372.905 69.1001C370.105 69.5668 367.172 70.0334 364.105 70.5001C361.105 70.9001 358.205 71.2001 355.405 71.4001C352.672 71.5334 350.105 71.5001 347.705 71.3001C345.372 71.1001 343.472 70.6334 342.005 69.9001C339.472 68.6334 337.839 67.1001 337.105 65.3001C336.305 63.4334 336.539 61.2334 337.805 58.7001C338.805 56.6334 340.505 54.7001 342.905 52.9001C345.305 51.1001 348.005 49.5334 351.005 48.2001C354.005 46.8001 357.139 45.7001 360.405 44.9001C363.739 44.0334 366.805 43.5668 369.605 43.5001C372.472 43.3668 374.905 43.6334 376.905 44.3001C378.972 44.9668 380.272 46.1001 380.805 47.7001ZM346.805 55.4001C348.672 55.4001 350.872 55.2334 353.405 54.9001C356.005 54.5668 358.605 54.0668 361.205 53.4001C363.805 52.6668 366.272 51.8001 368.605 50.8001C371.005 49.8001 372.905 48.6668 374.305 47.4001C371.972 47.4001 369.572 47.5334 367.105 47.8001C364.639 48.0668 362.205 48.5334 359.805 49.2001C357.472 49.8001 355.172 50.6334 352.905 51.7001C350.705 52.7001 348.672 53.9334 346.805 55.4001ZM526.335 42.7001C520.469 44.3668 514.602 46.0001 508.735 47.6001C502.869 49.1334 497.002 50.7001 491.135 52.3001C487.135 57.5001 483.335 62.8334 479.735 68.3001C476.202 73.7001 473.469 79.6668 471.535 86.2001C469.935 86.5334 468.969 85.7668 468.635 83.9001C468.302 81.5668 468.535 79.1334 469.335 76.6001C470.202 74.1334 471.335 71.7001 472.735 69.3001C474.135 66.9001 475.602 64.5668 477.135 62.3001C478.735 59.9668 480.069 57.8334 481.135 55.9001C476.469 57.4334 471.802 58.9334 467.135 60.4001C462.535 61.8668 458.035 63.7001 453.635 65.9001L453.535 69.3001C452.202 69.7001 451.035 69.7001 450.035 69.3001C448.969 68.9001 447.969 68.1334 447.035 67.0001C447.035 66.2668 447.435 65.5001 448.235 64.7001C448.969 63.9001 450.002 63.1001 451.335 62.3001C452.602 61.5001 454.102 60.7334 455.835 60.0001C457.502 59.2001 459.302 58.4334 461.235 57.7001C463.369 56.9001 465.535 56.1334 467.735 55.4001C469.935 54.6668 472.002 54.0001 473.935 53.4001C475.869 52.8001 477.569 52.3001 479.035 51.9001C480.569 51.4334 481.702 51.1001 482.435 50.9001C484.969 50.0334 487.235 48.4334 489.235 46.1001C492.635 42.1668 496.069 38.4001 499.535 34.8001C503.069 31.1334 506.735 27.7001 510.535 24.5001C514.335 21.2334 518.302 18.2001 522.435 15.4001C526.569 12.6001 530.935 10.1001 535.535 7.90009C537.802 6.70009 540.369 5.93343 543.235 5.60009C544.502 5.46676 545.602 5.6001 546.535 6.00009C547.535 6.33343 548.335 6.86676 548.935 7.60009C549.535 8.33343 549.935 9.23343 550.135 10.3001C550.402 11.3668 550.402 12.5334 550.135 13.8001C549.869 15.0001 549.269 16.6334 548.335 18.7001C547.469 20.7001 546.469 22.8001 545.335 25.0001C544.202 27.1334 543.035 29.1668 541.835 31.1001C540.702 33.0334 539.735 34.5001 538.935 35.5001C539.802 35.5001 540.969 35.5001 542.435 35.5001C543.902 35.4334 545.402 35.4334 546.935 35.5001C548.535 35.5668 550.035 35.7001 551.435 35.9001C552.835 36.1001 553.902 36.3668 554.635 36.7001C555.169 36.9668 555.702 37.4334 556.235 38.1001C556.769 38.7001 557.235 39.2001 557.635 39.6001C556.902 39.9334 556.235 40.1001 555.635 40.1001C555.035 40.0334 554.435 39.9334 553.835 39.8001C553.235 39.6001 552.635 39.4668 552.035 39.4001C551.502 39.2668 550.935 39.2334 550.335 39.3001C547.802 39.7668 545.269 40.1001 542.735 40.3001C540.202 40.4334 537.635 40.7001 535.035 41.1001C528.902 49.4334 522.769 57.7334 516.635 66.0001C510.502 74.2668 504.335 82.5668 498.135 90.9001L495.935 88.9001C496.002 87.9668 496.669 86.3668 497.935 84.1001C499.269 81.8334 500.935 79.2668 502.935 76.4001C505.002 73.4668 507.235 70.3668 509.635 67.1001C512.102 63.8334 514.469 60.7001 516.735 57.7001C519.002 54.6334 521.035 51.8668 522.835 49.4001C524.635 46.8668 525.935 44.9001 526.735 43.5001L526.335 42.7001ZM546.435 9.80009C544.569 9.26676 542.235 9.56676 539.435 10.7001C536.702 11.7668 533.735 13.3668 530.535 15.5001C527.402 17.5668 524.169 19.9668 520.835 22.7001C517.502 25.4334 514.335 28.1668 511.335 30.9001C508.335 33.6334 505.635 36.2001 503.235 38.6001C500.902 41.0001 499.135 42.8668 497.935 44.2001L497.535 45.9001C501.335 44.9668 505.069 43.8668 508.735 42.6001C512.402 41.3334 516.135 40.3001 519.935 39.5001C521.735 39.0334 523.535 38.6668 525.335 38.4001C527.202 38.0668 529.035 37.7001 530.835 37.3001C532.235 35.5668 533.769 33.6001 535.435 31.4001C537.102 29.2001 538.702 26.9001 540.235 24.5001C541.835 22.1001 543.202 19.6668 544.335 17.2001C545.469 14.6668 546.169 12.2001 546.435 9.80009ZM576.39 17.6001C576.057 18.3334 575.657 18.9668 575.19 19.5001C573.79 21.1668 572.123 23.1001 570.19 25.3001C568.257 27.4334 566.257 29.7334 564.19 32.2001C562.19 34.6668 560.223 37.2668 558.29 40.0001C556.357 42.6668 554.657 45.3668 553.19 48.1001C551.723 50.7668 550.557 53.4334 549.69 56.1001C548.89 58.7001 548.59 61.1334 548.79 63.4001C549.923 64.9334 551.623 66.0334 553.89 66.7001C556.223 67.3001 558.957 67.6001 562.09 67.6001C565.223 67.5334 568.623 67.2334 572.29 66.7001C576.023 66.1668 579.823 65.5001 583.69 64.7001C587.557 63.9001 591.39 63.0334 595.19 62.1001C599.057 61.1001 602.657 60.2001 605.99 59.4001C609.39 58.5334 612.457 57.8334 615.19 57.3001C617.923 56.7001 620.09 56.3334 621.69 56.2001L623.09 58.1001L622.09 59.4001C618.557 60.7334 615.023 61.9001 611.49 62.9001C607.957 63.9001 604.39 64.8001 600.79 65.6001C597.19 66.3334 593.557 67.0334 589.89 67.7001C586.29 68.3668 582.657 69.0668 578.99 69.8001C576.99 70.2001 574.59 70.6001 571.79 71.0001C568.99 71.3334 566.123 71.5001 563.19 71.5001C560.323 71.5001 557.523 71.2668 554.79 70.8001C552.057 70.2668 549.79 69.3334 547.99 68.0001C546.19 66.6668 545.023 64.8668 544.49 62.6001C543.89 60.2668 544.257 57.3001 545.59 53.7001C546.79 50.5668 548.39 47.2334 550.39 43.7001C552.457 40.1668 554.723 36.6668 557.19 33.2001C559.657 29.7334 562.223 26.4668 564.89 23.4001C567.623 20.3334 570.257 17.7001 572.79 15.5001L574.79 14.9001L576.39 17.6001ZM665.266 47.7001C665 48.6334 664.166 49.5668 662.766 50.5001C661.433 51.4334 659.766 52.3334 657.766 53.2001C655.766 54.0001 653.6 54.7668 651.266 55.5001C648.933 56.1668 646.633 56.7668 644.366 57.3001C642.166 57.8334 640.133 58.2668 638.266 58.6001C636.466 58.8668 635.1 59.0001 634.166 59.0001C633.033 59.0001 631.933 59.0001 630.866 59.0001C629.8 58.9334 628.7 58.9334 627.566 59.0001C626.633 59.7334 625.966 60.6668 625.566 61.8001C625.166 62.8668 624.8 63.9334 624.466 65.0001C624.933 65.3334 625.333 65.7001 625.666 66.1001C626.066 66.5001 626.533 66.7668 627.066 66.9001C629.066 67.3668 631.566 67.6001 634.566 67.6001C637.566 67.5334 640.833 67.3334 644.366 67.0001C647.9 66.6001 651.566 66.1001 655.366 65.5001C659.166 64.9001 662.866 64.2668 666.466 63.6001C670.066 62.9334 673.466 62.3001 676.666 61.7001C679.866 61.1001 682.6 60.6334 684.866 60.3001C687.933 59.8334 691.1 59.1668 694.366 58.3001C697.633 57.4334 700.8 56.8668 703.866 56.6001C704.6 56.5334 705.233 56.6334 705.766 56.9001C706.366 57.1001 706.733 57.6001 706.866 58.4001C706.066 58.8668 704.8 59.3668 703.066 59.9001C701.333 60.3668 699.366 60.8668 697.166 61.4001C694.966 61.9334 692.6 62.4668 690.066 63.0001C687.6 63.4668 685.2 63.9001 682.866 64.3001C680.533 64.7001 678.366 65.1001 676.366 65.5001C674.433 65.8334 672.866 66.1001 671.666 66.3001C669.933 66.6334 667.833 67.0668 665.366 67.6001C662.9 68.0668 660.233 68.5668 657.366 69.1001C654.566 69.5668 651.633 70.0334 648.566 70.5001C645.566 70.9001 642.666 71.2001 639.866 71.4001C637.133 71.5334 634.566 71.5001 632.166 71.3001C629.833 71.1001 627.933 70.6334 626.466 69.9001C623.933 68.6334 622.3 67.1001 621.566 65.3001C620.766 63.4334 621 61.2334 622.266 58.7001C623.266 56.6334 624.966 54.7001 627.366 52.9001C629.766 51.1001 632.466 49.5334 635.466 48.2001C638.466 46.8001 641.6 45.7001 644.866 44.9001C648.2 44.0334 651.266 43.5668 654.066 43.5001C656.933 43.3668 659.366 43.6334 661.366 44.3001C663.433 44.9668 664.733 46.1001 665.266 47.7001ZM631.266 55.4001C633.133 55.4001 635.333 55.2334 637.866 54.9001C640.466 54.5668 643.066 54.0668 645.666 53.4001C648.266 52.6668 650.733 51.8001 653.066 50.8001C655.466 49.8001 657.366 48.6668 658.766 47.4001C656.433 47.4001 654.033 47.5334 651.566 47.8001C649.1 48.0668 646.666 48.5334 644.266 49.2001C641.933 49.8001 639.633 50.6334 637.366 51.7001C635.166 52.7001 633.133 53.9334 631.266 55.4001ZM824.152 58.5001C822.752 59.4334 820.718 60.3668 818.052 61.3001C815.385 62.2334 812.385 63.1001 809.052 63.9001C805.718 64.7001 802.218 65.4334 798.552 66.1001C794.885 66.7668 791.318 67.3334 787.852 67.8001C784.452 68.2668 781.318 68.6334 778.452 68.9001C775.585 69.1001 773.318 69.1668 771.652 69.1001C768.985 68.9668 766.818 68.5334 765.152 67.8001C763.485 67.0668 762.085 66.0334 760.952 64.7001C759.418 62.9001 758.285 61.3001 757.552 59.9001C756.885 58.4334 756.118 57.3668 755.252 56.7001C754.452 55.9668 753.252 55.7334 751.652 56.0001C750.118 56.2001 747.718 57.0668 744.452 58.6001C742.718 59.4001 740.952 60.3001 739.152 61.3001C737.418 62.2334 735.752 63.1668 734.152 64.1001C732.618 65.0334 731.218 65.9001 729.952 66.7001C728.752 67.4334 727.818 68.0334 727.152 68.5001C725.418 67.7001 724.285 67.0001 723.752 66.4001C723.218 65.7334 723.018 65.0668 723.152 64.4001C723.352 63.6668 723.685 62.8668 724.152 62.0001C724.685 61.0668 725.152 59.9001 725.552 58.5001C725.752 57.8334 725.818 57.1668 725.752 56.5001C725.685 55.7668 725.718 55.0334 725.852 54.3001C723.118 55.1668 720.685 56.2668 718.552 57.6001C716.485 58.9334 714.485 60.4001 712.552 62.0001C710.685 63.6001 708.852 65.3001 707.052 67.1001C705.185 68.9001 703.218 70.6668 701.152 72.4001C700.618 72.1334 700.085 71.8334 699.552 71.5001C699.018 71.1668 698.452 70.8668 697.852 70.6001C697.985 70.1334 698.485 69.2001 699.352 67.8001C700.152 66.3334 701.185 64.6668 702.452 62.8001C703.652 60.8668 704.985 58.8334 706.452 56.7001C707.852 54.5668 709.218 52.5668 710.552 50.7001C711.885 48.7668 713.052 47.1334 714.052 45.8001C715.118 44.4668 715.885 43.6001 716.352 43.2001C716.885 43.5334 717.418 43.9334 717.952 44.4001C718.485 44.8001 719.018 45.1668 719.552 45.5001C719.218 46.1668 718.818 46.8334 718.352 47.5001C717.885 48.1001 717.418 48.7334 716.952 49.4001C716.485 50.0001 716.052 50.6334 715.652 51.3001C715.252 51.9668 715.018 52.6668 714.952 53.4001C717.618 52.3334 720.085 51.5334 722.352 51.0001C724.685 50.4001 726.618 50.2668 728.152 50.6001C729.752 50.8668 730.852 51.7001 731.452 53.1001C732.052 54.5001 732.052 56.6334 731.452 59.5001C733.185 59.1001 734.918 58.5001 736.652 57.7001C738.452 56.9001 740.185 56.0668 741.852 55.2001C743.585 54.3334 745.285 53.5001 746.952 52.7001C748.618 51.9001 750.218 51.3668 751.752 51.1001C753.285 50.7668 754.718 50.8001 756.052 51.2001C757.385 51.5334 758.618 52.3668 759.752 53.7001C761.552 55.9668 762.852 57.8668 763.652 59.4001C764.518 60.8668 765.485 62.0001 766.552 62.8001C767.685 63.6001 769.218 64.1334 771.152 64.4001C773.085 64.6001 776.052 64.5334 780.052 64.2001C783.985 63.8668 787.985 63.3668 792.052 62.7001C796.118 62.0334 800.052 61.3334 803.852 60.6001C807.652 59.8668 811.185 59.1334 814.452 58.4001C817.785 57.6668 820.652 57.0334 823.052 56.5001L824.152 58.5001ZM820.081 70.9001C819.615 70.3668 819.115 69.8668 818.581 69.4001C818.048 68.8668 817.615 68.3334 817.281 67.8001C816.881 67.2001 816.681 66.6001 816.681 66.0001C816.615 65.3334 816.848 64.6001 817.381 63.8001C818.248 62.4668 819.381 61.1668 820.781 59.9001C822.181 58.5668 823.748 57.2668 825.481 56.0001C827.815 54.2668 830.248 52.7001 832.781 51.3001C835.315 49.9001 837.548 48.7334 839.481 47.8001C841.081 47.0668 842.381 46.8334 843.381 47.1001C844.381 47.3001 845.281 48.2334 846.081 49.9001L845.581 51.5001C843.715 51.7001 841.948 52.1668 840.281 52.9001C838.615 53.5668 837.015 54.4001 835.481 55.4001C833.948 56.4001 832.448 57.4668 830.981 58.6001C829.515 59.7334 828.048 60.8334 826.581 61.9001C827.048 62.4334 828.081 62.4001 829.681 61.8001C831.348 61.1334 833.148 60.2668 835.081 59.2001C837.015 58.1334 838.881 57.0668 840.681 56.0001C842.481 54.9334 843.748 54.2334 844.481 53.9001C845.748 53.3668 846.715 53.3668 847.381 53.9001C848.115 54.3668 848.815 55.1668 849.481 56.3001C849.348 57.4334 849.015 58.4668 848.481 59.4001C847.948 60.3334 847.381 61.3001 846.781 62.3001C846.248 63.2334 845.748 64.2001 845.281 65.2001C844.881 66.1334 844.715 67.1668 844.781 68.3001C845.581 69.0334 846.481 69.4001 847.481 69.4001C848.548 69.3334 849.581 69.2001 850.581 69.0001C859.515 67.2668 868.315 65.2668 876.981 63.0001C885.648 60.7334 894.415 58.6334 903.281 56.7001C903.615 57.1668 903.915 57.6334 904.181 58.1001C904.448 58.5001 904.748 58.9334 905.081 59.4001C903.815 60.0001 901.681 60.7668 898.681 61.7001C895.748 62.6334 892.348 63.6334 888.481 64.7001C884.615 65.7668 880.515 66.8334 876.181 67.9001C871.915 68.9668 867.815 69.9334 863.881 70.8001C859.948 71.6001 856.415 72.2668 853.281 72.8001C850.215 73.3334 847.981 73.5668 846.581 73.5001C844.715 73.4334 843.348 72.9668 842.481 72.1001C841.615 71.2334 841.081 70.1668 840.881 68.9001C840.681 67.5668 840.715 66.2001 840.981 64.8001C841.248 63.3334 841.548 62.0334 841.881 60.9001C840.081 61.7001 838.281 62.6334 836.481 63.7001C834.748 64.7001 833.015 65.7001 831.281 66.7001C829.548 67.6334 827.748 68.5001 825.881 69.3001C824.015 70.0334 822.081 70.5668 820.081 70.9001ZM1002.54 57.7001L1001.24 59.5001C997.237 61.0334 993.203 62.5001 989.137 63.9001C985.07 65.3001 981.07 66.4668 977.137 67.4001C973.27 68.2668 969.57 68.8334 966.037 69.1001C962.503 69.3001 959.27 69.0001 956.337 68.2001C953.403 67.3334 950.87 65.8668 948.737 63.8001C946.603 61.7334 944.97 58.8668 943.837 55.2001C943.037 52.6001 941.737 50.9334 939.937 50.2001C938.137 49.4001 936.103 49.2001 933.837 49.6001C931.57 50.0001 929.203 50.8334 926.737 52.1001C924.27 53.3001 921.97 54.5334 919.837 55.8001C918.57 56.5334 916.903 57.7334 914.837 59.4001C912.77 61.0668 910.67 62.7668 908.537 64.5001C906.47 66.2334 904.537 67.8001 902.737 69.2001C900.87 70.6001 899.57 71.4334 898.837 71.7001C898.237 71.3668 897.637 71.0334 897.037 70.7001C896.437 70.3668 895.837 70.0334 895.237 69.7001C895.103 68.9668 895.437 68.0001 896.237 66.8001C896.97 65.5334 897.97 64.1668 899.237 62.7001C900.437 61.2334 901.803 59.7001 903.337 58.1001C904.87 56.4334 906.337 54.8668 907.737 53.4001C909.137 51.8668 910.403 50.4668 911.537 49.2001C912.67 47.9334 913.47 46.9001 913.937 46.1001C915.737 45.8334 917.337 46.4334 918.737 47.9001C918.603 48.3001 918.337 48.6668 917.937 49.0001C917.537 49.3334 917.137 49.6668 916.737 50.0001C916.403 50.2668 916.103 50.6001 915.837 51.0001C915.637 51.3334 915.603 51.7668 915.737 52.3001C916.803 51.7668 918.17 51.0668 919.837 50.2001C921.57 49.3334 923.437 48.4668 925.437 47.6001C927.437 46.7334 929.47 46.0001 931.537 45.4001C933.67 44.7334 935.67 44.4001 937.537 44.4001C939.47 44.3334 941.203 44.6668 942.737 45.4001C944.27 46.1334 945.47 47.4334 946.337 49.3001C946.87 50.5668 947.437 52.0001 948.037 53.6001C948.637 55.1334 949.303 56.6668 950.037 58.2001C950.837 59.6668 951.77 61.0001 952.837 62.2001C953.903 63.3334 955.17 64.1001 956.637 64.5001C959.17 65.2334 962.337 65.4334 966.137 65.1001C969.937 64.7001 973.903 64.0334 978.037 63.1001C982.237 62.1001 986.337 61.0001 990.337 59.8001C994.337 58.6001 997.803 57.5001 1000.74 56.5001L1002.54 57.7001ZM1099.87 57.7001L1098.57 59.5001C1094.57 61.0334 1090.54 62.5001 1086.47 63.9001C1082.41 65.3001 1078.41 66.4668 1074.47 67.4001C1070.61 68.2668 1066.91 68.8334 1063.37 69.1001C1059.84 69.3001 1056.61 69.0001 1053.67 68.2001C1050.74 67.3334 1048.21 65.8668 1046.07 63.8001C1043.94 61.7334 1042.31 58.8668 1041.17 55.2001C1040.37 52.6001 1039.07 50.9334 1037.27 50.2001C1035.47 49.4001 1033.44 49.2001 1031.17 49.6001C1028.91 50.0001 1026.54 50.8334 1024.07 52.1001C1021.61 53.3001 1019.31 54.5334 1017.17 55.8001C1015.91 56.5334 1014.24 57.7334 1012.17 59.4001C1010.11 61.0668 1008.01 62.7668 1005.87 64.5001C1003.81 66.2334 1001.87 67.8001 1000.07 69.2001C998.206 70.6001 996.906 71.4334 996.173 71.7001C995.573 71.3668 994.973 71.0334 994.373 70.7001C993.773 70.3668 993.173 70.0334 992.573 69.7001C992.439 68.9668 992.773 68.0001 993.573 66.8001C994.306 65.5334 995.306 64.1668 996.573 62.7001C997.773 61.2334 999.139 59.7001 1000.67 58.1001C1002.21 56.4334 1003.67 54.8668 1005.07 53.4001C1006.47 51.8668 1007.74 50.4668 1008.87 49.2001C1010.01 47.9334 1010.81 46.9001 1011.27 46.1001C1013.07 45.8334 1014.67 46.4334 1016.07 47.9001C1015.94 48.3001 1015.67 48.6668 1015.27 49.0001C1014.87 49.3334 1014.47 49.6668 1014.07 50.0001C1013.74 50.2668 1013.44 50.6001 1013.17 51.0001C1012.97 51.3334 1012.94 51.7668 1013.07 52.3001C1014.14 51.7668 1015.51 51.0668 1017.17 50.2001C1018.91 49.3334 1020.77 48.4668 1022.77 47.6001C1024.77 46.7334 1026.81 46.0001 1028.87 45.4001C1031.01 44.7334 1033.01 44.4001 1034.87 44.4001C1036.81 44.3334 1038.54 44.6668 1040.07 45.4001C1041.61 46.1334 1042.81 47.4334 1043.67 49.3001C1044.21 50.5668 1044.77 52.0001 1045.37 53.6001C1045.97 55.1334 1046.64 56.6668 1047.37 58.2001C1048.17 59.6668 1049.11 61.0001 1050.17 62.2001C1051.24 63.3334 1052.51 64.1001 1053.97 64.5001C1056.51 65.2334 1059.67 65.4334 1063.47 65.1001C1067.27 64.7001 1071.24 64.0334 1075.37 63.1001C1079.57 62.1001 1083.67 61.0001 1087.67 59.8001C1091.67 58.6001 1095.14 57.5001 1098.07 56.5001L1099.87 57.7001ZM1128.21 64.3001C1125.21 66.1001 1122.24 67.8668 1119.31 69.6001C1116.44 71.3334 1113.31 72.7334 1109.91 73.8001C1106.51 74.8001 1103.78 74.9334 1101.71 74.2001C1099.71 73.4001 1098.34 72.1001 1097.61 70.3001C1096.81 68.5001 1096.64 66.4001 1097.11 64.0001C1097.51 61.5334 1098.48 59.2001 1100.01 57.0001C1100.74 55.9334 1101.61 54.9334 1102.61 54.0001C1103.61 53.0001 1104.71 52.1334 1105.91 51.4001L1108.91 54.3001C1107.98 55.1001 1107.01 56.0668 1106.01 57.2001C1105.08 58.3334 1104.24 59.5668 1103.51 60.9001C1102.78 62.2334 1102.18 63.6334 1101.71 65.1001C1101.24 66.5001 1101.08 67.9001 1101.21 69.3001C1102.61 69.9668 1104.24 70.1668 1106.11 69.9001C1107.98 69.5668 1109.84 69.0334 1111.71 68.3001C1113.64 67.5001 1115.44 66.6001 1117.11 65.6001C1118.84 64.5334 1120.28 63.5668 1121.41 62.7001C1117.48 60.9001 1114.71 58.9668 1113.11 56.9001C1111.58 54.7668 1110.88 52.7001 1111.01 50.7001C1111.21 48.6334 1112.04 46.7334 1113.51 45.0001C1115.04 43.2668 1116.88 41.8668 1119.01 40.8001C1121.21 39.7334 1123.54 39.1334 1126.01 39.0001C1128.54 38.8001 1130.88 39.2334 1133.01 40.3001C1135.68 41.7001 1137.41 43.2334 1138.21 44.9001C1139.01 46.5001 1139.21 48.2001 1138.81 50.0001C1138.41 51.7334 1137.58 53.5001 1136.31 55.3001C1135.11 57.0334 1133.88 58.7001 1132.61 60.3001C1136.88 60.3001 1141.21 60.2668 1145.61 60.2001C1150.01 60.0668 1154.41 59.8668 1158.81 59.6001C1163.21 59.2668 1167.58 58.8001 1171.91 58.2001C1176.24 57.6001 1180.51 56.7668 1184.71 55.7001L1184.21 59.0001C1183.48 59.6668 1182.14 60.2668 1180.21 60.8001C1178.28 61.2668 1176.01 61.7334 1173.41 62.2001C1170.81 62.6001 1168.01 62.9668 1165.01 63.3001C1162.08 63.5668 1159.21 63.8001 1156.41 64.0001C1153.68 64.2001 1151.14 64.4001 1148.81 64.6001C1146.54 64.7334 1144.78 64.8334 1143.51 64.9001C1141.04 65.1001 1138.48 65.1001 1135.81 64.9001C1133.21 64.7001 1130.68 64.5001 1128.21 64.3001ZM1125.51 59.4001C1126.58 58.6668 1127.68 57.8334 1128.81 56.9001C1129.94 55.9668 1130.94 54.9334 1131.81 53.8001C1132.74 52.6668 1133.48 51.4668 1134.01 50.2001C1134.61 48.9334 1134.94 47.6001 1135.01 46.2001C1134.41 44.8668 1133.44 44.0001 1132.11 43.6001C1130.84 43.1334 1129.41 43.0001 1127.81 43.2001C1126.28 43.4001 1124.71 43.8668 1123.11 44.6001C1121.51 45.3334 1120.08 46.2001 1118.81 47.2001C1117.54 48.2001 1116.58 49.3001 1115.91 50.5001C1115.31 51.7001 1115.18 52.8668 1115.51 54.0001C1115.84 55.1334 1116.78 56.2001 1118.31 57.2001C1119.91 58.1334 1122.31 58.8668 1125.51 59.4001ZM141.159 169.7C142.492 168.5 143.759 167.167 144.959 165.7C146.159 164.233 147.326 162.7 148.459 161.1C149.659 159.5 150.792 157.9 151.859 156.3C152.926 154.7 153.959 153.167 154.959 151.7C157.026 148.833 159.292 145.733 161.759 142.4C164.292 139 166.992 135.6 169.859 132.2C172.726 128.733 175.692 125.3 178.759 121.9C181.892 118.5 185.092 115.3 188.359 112.3C191.626 109.3 194.926 106.6 198.259 104.2C201.592 101.733 204.926 99.7001 208.259 98.1001C209.792 97.3668 211.392 96.6334 213.059 95.9001C214.792 95.1001 216.492 94.5668 218.159 94.3001C219.892 94.0334 221.492 94.2001 222.959 94.8001C224.492 95.3334 225.826 96.5334 226.959 98.4001L225.659 99.3001C223.792 98.5668 221.959 98.4001 220.159 98.8001C218.426 99.1334 216.692 99.7334 214.959 100.6C210.759 102.667 206.659 105.067 202.659 107.8C198.659 110.533 194.892 113.433 191.359 116.5C186.892 120.367 182.726 124.5 178.859 128.9C174.992 133.233 171.292 137.7 167.759 142.3C164.226 146.9 160.759 151.6 157.359 156.4C153.959 161.2 150.526 165.933 147.059 170.6C146.126 171.867 145.226 173.033 144.359 174.1C143.492 175.167 142.226 175.867 140.559 176.2C138.826 175.8 137.526 174.9 136.659 173.5C135.792 172.1 135.359 170.567 135.359 168.9C135.359 165.833 135.592 162.8 136.059 159.8C136.526 156.733 137.126 153.7 137.859 150.7C138.592 147.633 139.359 144.6 140.159 141.6C141.026 138.6 141.859 135.633 142.659 132.7C142.859 131.9 143.026 131.133 143.159 130.4C143.359 129.6 143.026 128.9 142.159 128.3C140.826 129.1 139.592 130.1 138.459 131.3C137.392 132.433 136.326 133.567 135.259 134.7C132.126 137.967 129.092 141.3 126.159 144.7C123.226 148.1 120.259 151.5 117.259 154.9C114.326 158.233 111.259 161.5 108.059 164.7C104.926 167.833 101.559 170.8 97.959 173.6C96.6257 174.533 95.5257 175.1 94.659 175.3C93.7923 175.5 92.659 175.067 91.259 174C89.9257 173 89.059 171.933 88.659 170.8C88.1923 169.6 88.0923 168.2 88.359 166.6C88.6923 164.933 89.0923 163.333 89.559 161.8C90.0923 160.267 90.6923 158.733 91.359 157.2C93.159 152.867 94.959 148.733 96.759 144.8C98.6257 140.8 100.892 136.833 103.559 132.9C103.959 132.3 104.526 131.433 105.259 130.3C106.059 129.1 106.959 127.833 107.959 126.5C108.959 125.1 109.992 123.733 111.059 122.4C112.192 121 113.326 119.8 114.459 118.8C115.592 117.733 116.659 116.967 117.659 116.5C118.726 116.033 119.659 116 120.459 116.4C120.792 116.533 121.126 116.867 121.459 117.4C121.792 117.867 122.059 118.233 122.259 118.5C118.926 121.167 115.959 124.2 113.359 127.6C110.759 131 108.426 134.567 106.359 138.3C104.292 142.033 102.392 145.9 100.659 149.9C98.9257 153.833 97.259 157.7 95.659 161.5C95.1257 162.633 94.6257 163.7 94.159 164.7C93.759 165.633 93.6923 166.767 93.959 168.1C94.4257 168.633 94.8257 168.9 95.159 168.9C95.559 168.833 95.9923 168.6 96.459 168.2C98.9923 165.933 101.492 163.633 103.959 161.3C106.426 158.967 108.826 156.567 111.159 154.1C112.226 152.967 113.626 151.4 115.359 149.4C117.092 147.4 118.992 145.233 121.059 142.9C123.126 140.5 125.259 138.067 127.459 135.6C129.726 133.133 131.926 130.867 134.059 128.8C136.192 126.733 138.192 125 140.059 123.6C141.926 122.133 143.492 121.267 144.759 121C146.559 121.733 147.659 122.733 148.059 124C148.526 125.2 148.592 126.667 148.259 128.4C147.526 131.733 146.726 135.1 145.859 138.5C144.992 141.833 144.159 145.2 143.359 148.6C142.559 152 141.859 155.4 141.259 158.8C140.659 162.2 140.292 165.6 140.159 169L141.159 169.7ZM225.921 144.7C225.654 145.633 224.821 146.567 223.421 147.5C222.087 148.433 220.421 149.333 218.421 150.2C216.421 151 214.254 151.767 211.921 152.5C209.587 153.167 207.287 153.767 205.021 154.3C202.821 154.833 200.787 155.267 198.921 155.6C197.121 155.867 195.754 156 194.821 156C193.687 156 192.587 156 191.521 156C190.454 155.933 189.354 155.933 188.221 156C187.287 156.733 186.621 157.667 186.221 158.8C185.821 159.867 185.454 160.933 185.121 162C185.587 162.333 185.987 162.7 186.321 163.1C186.721 163.5 187.187 163.767 187.721 163.9C189.721 164.367 192.221 164.6 195.221 164.6C198.221 164.533 201.487 164.333 205.021 164C208.554 163.6 212.221 163.1 216.021 162.5C219.821 161.9 223.521 161.267 227.121 160.6C230.721 159.933 234.121 159.3 237.321 158.7C240.521 158.1 243.254 157.633 245.521 157.3C248.587 156.833 251.754 156.167 255.021 155.3C258.287 154.433 261.454 153.867 264.521 153.6C265.254 153.533 265.887 153.633 266.421 153.9C267.021 154.1 267.387 154.6 267.521 155.4C266.721 155.867 265.454 156.367 263.721 156.9C261.987 157.367 260.021 157.867 257.821 158.4C255.621 158.933 253.254 159.467 250.721 160C248.254 160.467 245.854 160.9 243.521 161.3C241.187 161.7 239.021 162.1 237.021 162.5C235.087 162.833 233.521 163.1 232.321 163.3C230.587 163.633 228.487 164.067 226.021 164.6C223.554 165.067 220.887 165.567 218.021 166.1C215.221 166.567 212.287 167.033 209.221 167.5C206.221 167.9 203.321 168.2 200.521 168.4C197.787 168.533 195.221 168.5 192.821 168.3C190.487 168.1 188.587 167.633 187.121 166.9C184.587 165.633 182.954 164.1 182.221 162.3C181.421 160.433 181.654 158.233 182.921 155.7C183.921 153.633 185.621 151.7 188.021 149.9C190.421 148.1 193.121 146.533 196.121 145.2C199.121 143.8 202.254 142.7 205.521 141.9C208.854 141.033 211.921 140.567 214.721 140.5C217.587 140.367 220.021 140.633 222.021 141.3C224.087 141.967 225.387 143.1 225.921 144.7ZM191.921 152.4C193.787 152.4 195.987 152.233 198.521 151.9C201.121 151.567 203.721 151.067 206.321 150.4C208.921 149.667 211.387 148.8 213.721 147.8C216.121 146.8 218.021 145.667 219.421 144.4C217.087 144.4 214.687 144.533 212.221 144.8C209.754 145.067 207.321 145.533 204.921 146.2C202.587 146.8 200.287 147.633 198.021 148.7C195.821 149.7 193.787 150.933 191.921 152.4ZM266.306 192.1C269.039 186.3 272.139 180.767 275.606 175.5C279.139 170.233 282.606 164.9 286.006 159.5C284.473 159.5 282.806 160.033 281.006 161.1C279.273 162.167 277.506 163.2 275.706 164.2C273.906 165.133 272.139 165.733 270.406 166C268.673 166.2 267.039 165.5 265.506 163.9C263.973 162.233 263.373 160.533 263.706 158.8C263.973 157 264.839 155.267 266.306 153.6C267.773 151.933 269.639 150.333 271.906 148.8C274.173 147.267 276.473 145.9 278.806 144.7C281.206 143.433 283.473 142.367 285.606 141.5C287.739 140.633 289.406 140.033 290.606 139.7C292.139 139.233 293.706 139 295.306 139C296.906 139 298.506 138.933 300.106 138.8C301.639 136.6 303.473 134 305.606 131C307.806 127.933 310.106 124.867 312.506 121.8C314.906 118.667 317.306 115.767 319.706 113.1C322.173 110.367 324.406 108.233 326.406 106.7C327.606 105.833 328.673 105.433 329.606 105.5C330.606 105.5 331.373 105.833 331.906 106.5C332.439 107.167 332.706 108.067 332.706 109.2C332.773 110.333 332.406 111.533 331.606 112.8C329.273 116.733 326.539 120.4 323.406 123.8C320.273 127.133 317.039 130.433 313.706 133.7C310.439 136.967 307.206 140.267 304.006 143.6C300.806 146.933 297.973 150.533 295.506 154.4C291.106 161.2 286.606 167.9 282.006 174.5C277.473 181.167 273.173 188 269.106 195L266.306 192.1ZM295.506 143.2C294.039 143.6 291.839 144.433 288.906 145.7C286.039 146.9 283.139 148.333 280.206 150C277.273 151.6 274.706 153.333 272.506 155.2C270.306 157.067 269.173 158.867 269.106 160.6C271.306 160.4 273.639 159.7 276.106 158.5C278.639 157.233 281.106 155.733 283.506 154C285.906 152.267 288.139 150.433 290.206 148.5C292.339 146.567 294.106 144.8 295.506 143.2ZM315.986 192.1C318.719 186.3 321.819 180.767 325.286 175.5C328.819 170.233 332.286 164.9 335.686 159.5C334.152 159.5 332.486 160.033 330.686 161.1C328.952 162.167 327.186 163.2 325.386 164.2C323.586 165.133 321.819 165.733 320.086 166C318.352 166.2 316.719 165.5 315.186 163.9C313.652 162.233 313.052 160.533 313.386 158.8C313.652 157 314.519 155.267 315.986 153.6C317.452 151.933 319.319 150.333 321.586 148.8C323.852 147.267 326.152 145.9 328.486 144.7C330.886 143.433 333.152 142.367 335.286 141.5C337.419 140.633 339.086 140.033 340.286 139.7C341.819 139.233 343.386 139 344.986 139C346.586 139 348.186 138.933 349.786 138.8C351.319 136.6 353.152 134 355.286 131C357.486 127.933 359.786 124.867 362.186 121.8C364.586 118.667 366.986 115.767 369.386 113.1C371.852 110.367 374.086 108.233 376.086 106.7C377.286 105.833 378.352 105.433 379.286 105.5C380.286 105.5 381.052 105.833 381.586 106.5C382.119 107.167 382.386 108.067 382.386 109.2C382.452 110.333 382.086 111.533 381.286 112.8C378.952 116.733 376.219 120.4 373.086 123.8C369.952 127.133 366.719 130.433 363.386 133.7C360.119 136.967 356.886 140.267 353.686 143.6C350.486 146.933 347.652 150.533 345.186 154.4C340.786 161.2 336.286 167.9 331.686 174.5C327.152 181.167 322.852 188 318.786 195L315.986 192.1ZM345.186 143.2C343.719 143.6 341.519 144.433 338.586 145.7C335.719 146.9 332.819 148.333 329.886 150C326.952 151.6 324.386 153.333 322.186 155.2C319.986 157.067 318.852 158.867 318.786 160.6C320.986 160.4 323.319 159.7 325.786 158.5C328.319 157.233 330.786 155.733 333.186 154C335.586 152.267 337.819 150.433 339.886 148.5C342.019 146.567 343.786 144.8 345.186 143.2ZM377.665 143.6C378.532 144.133 379.132 144.767 379.465 145.5C379.865 146.233 379.699 147.067 378.965 148C378.299 148.8 377.799 149.433 377.465 149.9C377.199 150.3 376.932 150.7 376.665 151.1C376.399 151.5 376.065 151.9 375.665 152.3C375.332 152.7 374.799 153.233 374.065 153.9C371.065 156.633 369.132 158.833 368.265 160.5C367.465 162.1 367.365 163.367 367.965 164.3C368.632 165.167 369.832 165.7 371.565 165.9C373.299 166.1 375.265 166.133 377.465 166C379.732 165.867 382.032 165.6 384.365 165.2C386.699 164.8 388.799 164.433 390.665 164.1C394.332 163.433 397.799 162.633 401.065 161.7C404.332 160.767 407.665 159.8 411.065 158.8C414.465 157.8 418.065 156.833 421.865 155.9C425.665 154.9 429.899 154.067 434.565 153.4L435.665 155L435.065 156.3C434.465 156.633 433.865 156.867 433.265 157C432.665 157.133 432.065 157.267 431.465 157.4C424.532 159.133 417.799 161.033 411.265 163.1C404.732 165.167 398.132 166.833 391.465 168.1C390.265 168.3 388.632 168.6 386.565 169C384.565 169.333 382.365 169.6 379.965 169.8C377.632 170 375.265 170.1 372.865 170.1C370.465 170.033 368.365 169.733 366.565 169.2C365.232 168.8 364.132 168.233 363.265 167.5C362.332 166.767 361.765 165.833 361.565 164.7C361.299 163.567 361.465 162.233 362.065 160.7C362.665 159.167 363.799 157.433 365.465 155.5C367.799 152.767 369.932 150.433 371.865 148.5C373.799 146.567 375.732 144.933 377.665 143.6ZM393.365 133.6C393.365 133.8 392.965 134.233 392.165 134.9C391.365 135.5 390.465 136.167 389.465 136.9C388.465 137.633 387.499 138.333 386.565 139C385.632 139.6 384.965 140 384.565 140.2C383.899 139.333 383.632 138.4 383.765 137.4C383.965 136.4 384.365 135.467 384.965 134.6C385.565 133.667 386.332 132.867 387.265 132.2C388.199 131.533 389.099 131.1 389.965 130.9C390.832 130.7 391.599 130.8 392.265 131.2C392.932 131.6 393.299 132.4 393.365 133.6ZM534.16 154.7L532.86 156.5C528.86 158.033 524.826 159.5 520.76 160.9C516.693 162.3 512.693 163.467 508.76 164.4C504.893 165.267 501.193 165.833 497.66 166.1C494.126 166.3 490.893 166 487.96 165.2C485.026 164.333 482.493 162.867 480.36 160.8C478.226 158.733 476.593 155.867 475.46 152.2C474.66 149.6 473.36 147.933 471.56 147.2C469.76 146.4 467.726 146.2 465.46 146.6C463.193 147 460.826 147.833 458.36 149.1C455.893 150.3 453.593 151.533 451.46 152.8C450.193 153.533 448.526 154.733 446.46 156.4C444.393 158.067 442.293 159.767 440.16 161.5C438.093 163.233 436.16 164.8 434.36 166.2C432.493 167.6 431.193 168.433 430.46 168.7C429.86 168.367 429.26 168.033 428.66 167.7C428.06 167.367 427.46 167.033 426.86 166.7C426.726 165.967 427.06 165 427.86 163.8C428.593 162.533 429.593 161.167 430.86 159.7C432.06 158.233 433.426 156.7 434.96 155.1C436.493 153.433 437.96 151.867 439.36 150.4C440.76 148.867 442.026 147.467 443.16 146.2C444.293 144.933 445.093 143.9 445.56 143.1C447.36 142.833 448.96 143.433 450.36 144.9C450.226 145.3 449.96 145.667 449.56 146C449.16 146.333 448.76 146.667 448.36 147C448.026 147.267 447.726 147.6 447.46 148C447.26 148.333 447.226 148.767 447.36 149.3C448.426 148.767 449.793 148.067 451.46 147.2C453.193 146.333 455.06 145.467 457.06 144.6C459.06 143.733 461.093 143 463.16 142.4C465.293 141.733 467.293 141.4 469.16 141.4C471.093 141.333 472.826 141.667 474.36 142.4C475.893 143.133 477.093 144.433 477.96 146.3C478.493 147.567 479.06 149 479.66 150.6C480.26 152.133 480.926 153.667 481.66 155.2C482.46 156.667 483.393 158 484.46 159.2C485.526 160.333 486.793 161.1 488.26 161.5C490.793 162.233 493.96 162.433 497.76 162.1C501.56 161.7 505.526 161.033 509.66 160.1C513.86 159.1 517.96 158 521.96 156.8C525.96 155.6 529.426 154.5 532.36 153.5L534.16 154.7ZM564.896 144.7C566.229 143.967 567.529 143.3 568.796 142.7C570.062 142.033 571.362 141.333 572.696 140.6C573.229 141.133 573.762 141.667 574.296 142.2C574.896 142.667 575.462 143.167 575.996 143.7C573.596 147.833 570.729 152.5 567.396 157.7C564.062 162.833 560.429 167.933 556.496 173C552.629 178 548.562 182.733 544.296 187.2C540.096 191.667 535.962 195.267 531.896 198C528.562 200.2 525.129 201.9 521.596 203.1C518.062 204.3 514.596 204.8 511.196 204.6C507.796 204.467 504.562 203.533 501.496 201.8C498.362 200.067 495.562 197.4 493.096 193.8C492.162 192.467 491.696 191.267 491.696 190.2C491.696 189.133 491.862 187.833 492.196 186.3C493.196 186.167 493.929 186.3 494.396 186.7C494.862 187.167 495.162 187.867 495.296 188.8C495.696 191.133 496.562 193.133 497.896 194.8C499.229 196.467 500.829 197.733 502.696 198.6C504.496 199.533 506.529 200.067 508.796 200.2C510.996 200.4 513.229 200.2 515.496 199.6C520.696 198.133 525.562 195.667 530.096 192.2C534.562 188.733 538.762 184.8 542.696 180.4C546.696 176.067 550.429 171.533 553.896 166.8C557.362 162 560.629 157.567 563.696 153.5C563.029 153.1 561.796 153.4 559.996 154.4C558.262 155.333 556.229 156.567 553.896 158.1C551.562 159.633 549.062 161.2 546.396 162.8C543.796 164.4 541.262 165.633 538.796 166.5C536.329 167.367 534.096 167.633 532.096 167.3C530.096 166.967 528.562 165.633 527.496 163.3C527.429 161.833 527.929 160.267 528.996 158.6C530.062 156.933 531.462 155.267 533.196 153.6C534.929 151.933 536.896 150.333 539.096 148.8C541.296 147.2 543.496 145.767 545.696 144.5C547.962 143.233 550.096 142.167 552.096 141.3C554.162 140.433 555.896 139.867 557.296 139.6C558.296 139.4 559.362 139.4 560.496 139.6C561.629 139.8 562.596 140.133 563.396 140.6C564.262 141.067 564.862 141.667 565.196 142.4C565.596 143.067 565.496 143.833 564.896 144.7ZM547.896 148.9C544.896 150.9 542.096 153.133 539.496 155.6C536.896 158.067 534.929 160.467 533.596 162.8L534.096 163C536.362 162.4 538.696 161.533 541.096 160.4C543.562 159.2 545.996 157.867 548.396 156.4C550.796 154.933 553.096 153.433 555.296 151.9C557.562 150.3 559.596 148.8 561.396 147.4C561.196 145.667 560.562 144.633 559.496 144.3C558.496 143.967 557.296 144.033 555.896 144.5C554.562 144.967 553.162 145.667 551.696 146.6C550.229 147.467 548.962 148.233 547.896 148.9ZM686.344 165.7C687.211 166.5 688.177 167.033 689.244 167.3C690.311 167.567 691.377 167.8 692.444 168C693.577 168.133 694.677 168.333 695.744 168.6C696.877 168.8 697.911 169.233 698.844 169.9C697.177 170.433 695.644 170.667 694.244 170.6C692.911 170.533 691.611 170.367 690.344 170.1C689.077 169.833 687.777 169.533 686.444 169.2C685.177 168.867 683.777 168.633 682.244 168.5C678.244 170.567 674.244 172.533 670.244 174.4C666.311 176.333 662.111 177.767 657.644 178.7C655.444 179.167 653.077 179.533 650.544 179.8C648.077 180.067 645.611 180.067 643.144 179.8C640.744 179.6 638.411 179.067 636.144 178.2C633.877 177.4 631.877 176.133 630.144 174.4C627.811 172.133 626.644 169.767 626.644 167.3C626.577 164.833 627.244 162.367 628.644 159.9C630.044 157.367 631.977 154.933 634.444 152.6C636.977 150.2 639.577 148 642.244 146C644.977 143.933 647.611 142.1 650.144 140.5C652.677 138.833 654.711 137.533 656.244 136.6C656.444 132 657.511 127.767 659.444 123.9C661.377 120.033 663.877 116.6 666.944 113.6C670.011 110.6 673.511 108.133 677.444 106.2C681.444 104.2 685.611 102.833 689.944 102.1C693.011 102.767 695.044 103.767 696.044 105.1C697.044 106.367 697.311 107.833 696.844 109.5C696.377 111.1 695.277 112.833 693.544 114.7C691.811 116.567 689.777 118.467 687.444 120.4C685.177 122.333 682.711 124.233 680.044 126.1C677.377 127.967 674.811 129.667 672.344 131.2C669.944 132.733 667.777 134.067 665.844 135.2C663.977 136.333 662.677 137.167 661.944 137.7C662.411 143.633 664.377 148.867 667.844 153.4C671.311 157.933 675.744 161.367 681.144 163.7C682.677 162.833 684.611 161.6 686.944 160C689.277 158.333 691.477 156.467 693.544 154.4C695.677 152.333 697.411 150.2 698.744 148C700.144 145.733 700.711 143.6 700.444 141.6C699.777 140.6 698.744 140 697.344 139.8C696.011 139.6 694.477 139.667 692.744 140C691.011 140.333 689.177 140.9 687.244 141.7C685.311 142.433 683.444 143.233 681.644 144.1C679.911 144.9 678.311 145.733 676.844 146.6C675.444 147.4 674.411 148.067 673.744 148.6C673.411 148.867 673.077 149.1 672.744 149.3C672.411 149.433 672.077 149.567 671.744 149.7L669.944 148.4C670.144 147.2 670.877 146.033 672.144 144.9C673.477 143.7 675.077 142.6 676.944 141.6C678.811 140.533 680.877 139.633 683.144 138.9C685.477 138.1 687.777 137.5 690.044 137.1C692.311 136.7 694.444 136.567 696.444 136.7C698.511 136.833 700.211 137.3 701.544 138.1C702.877 138.833 703.777 139.967 704.244 141.5C704.777 143.033 704.611 145 703.744 147.4C703.411 148.467 702.911 149.467 702.244 150.4C701.644 151.333 700.977 152.233 700.244 153.1C698.111 155.5 695.877 157.7 693.544 159.7C691.211 161.7 688.811 163.7 686.344 165.7ZM677.244 166.1C674.111 164.3 671.477 162.633 669.344 161.1C667.277 159.5 665.477 157.767 663.944 155.9C662.411 154.033 661.077 151.933 659.944 149.6C658.811 147.2 657.611 144.3 656.344 140.9C655.277 141.5 653.877 142.367 652.144 143.5C650.411 144.567 648.544 145.833 646.544 147.3C644.611 148.7 642.677 150.267 640.744 152C638.811 153.667 637.077 155.367 635.544 157.1C634.077 158.833 632.911 160.533 632.044 162.2C631.244 163.867 630.977 165.433 631.244 166.9C630.977 168.633 631.177 170.167 631.844 171.5C632.511 172.833 633.611 173.9 635.144 174.7C637.077 175.7 639.211 176.333 641.544 176.6C643.944 176.867 646.411 176.833 648.944 176.5C651.477 176.233 654.044 175.733 656.644 175C659.311 174.267 661.877 173.433 664.344 172.5C666.811 171.5 669.144 170.467 671.344 169.4C673.544 168.267 675.511 167.167 677.244 166.1ZM692.644 105.5C689.311 105.5 686.011 106.233 682.744 107.7C679.544 109.1 676.577 110.967 673.844 113.3C671.111 115.633 668.744 118.3 666.744 121.3C664.744 124.3 663.311 127.333 662.444 130.4C662.311 130.933 662.211 131.4 662.144 131.8C662.144 132.2 662.511 132.467 663.244 132.6C664.177 132.067 665.644 131.233 667.644 130.1C669.711 128.9 671.911 127.533 674.244 126C676.644 124.4 679.077 122.7 681.544 120.9C684.011 119.033 686.144 117.2 687.944 115.4C689.811 113.533 691.211 111.767 692.144 110.1C693.077 108.367 693.244 106.833 692.644 105.5ZM808.889 134.2C806.223 134.067 803.223 134.067 799.889 134.2C796.556 134.267 793.123 134.333 789.589 134.4C786.123 134.467 782.723 134.433 779.389 134.3C776.056 134.1 773.089 133.7 770.489 133.1C768.023 132.5 766.389 131.533 765.589 130.2C764.856 128.867 764.323 127.033 763.989 124.7C764.656 122.9 766.123 121.167 768.389 119.5C770.723 117.767 773.589 116.133 776.989 114.6C780.456 113.067 784.289 111.667 788.489 110.4C792.756 109.067 797.156 107.867 801.689 106.8C806.289 105.733 810.856 104.833 815.389 104.1C819.923 103.367 824.189 102.8 828.189 102.4C832.189 102 835.756 101.833 838.889 101.9C842.089 101.9 844.589 102.133 846.389 102.6C847.323 102.867 848.023 103.1 848.489 103.3C848.956 103.5 849.289 103.8 849.489 104.2C849.689 104.533 849.823 105 849.889 105.6C849.956 106.133 850.056 106.867 850.189 107.8C849.723 108.733 848.623 109.833 846.889 111.1C845.156 112.3 843.056 113.567 840.589 114.9C838.189 116.167 835.523 117.467 832.589 118.8C829.723 120.133 826.923 121.4 824.189 122.6C821.523 123.733 819.056 124.767 816.789 125.7C814.589 126.633 812.889 127.333 811.689 127.8L810.789 124.7C812.456 122.9 814.756 121.333 817.689 120C820.623 118.6 823.689 117.267 826.889 116C830.089 114.733 833.223 113.433 836.289 112.1C839.423 110.7 842.056 109.133 844.189 107.4C844.056 107 843.689 106.6 843.089 106.2C842.489 105.8 841.489 105.5 840.089 105.3C838.756 105.1 836.956 105.033 834.689 105.1C832.489 105.167 829.689 105.467 826.289 106C824.089 106.333 821.323 106.833 817.989 107.5C814.656 108.1 811.056 108.867 807.189 109.8C803.389 110.667 799.489 111.7 795.489 112.9C791.489 114.033 787.689 115.267 784.089 116.6C780.489 117.933 777.256 119.367 774.389 120.9C771.589 122.433 769.489 124.033 768.089 125.7C767.956 126.767 768.789 127.633 770.589 128.3C772.389 128.9 774.689 129.367 777.489 129.7C780.356 130.033 783.489 130.267 786.889 130.4C790.356 130.533 793.689 130.6 796.889 130.6C800.089 130.6 802.923 130.6 805.389 130.6C807.923 130.533 809.689 130.5 810.689 130.5C811.956 130.5 813.123 130.7 814.189 131.1C815.256 131.433 815.889 132.367 816.089 133.9L815.689 135.2C813.623 136.8 811.356 138.033 808.889 138.9C806.423 139.7 803.956 140.533 801.489 141.4C799.156 142.2 796.356 143.2 793.089 144.4C789.823 145.533 786.356 146.867 782.689 148.4C779.089 149.867 775.423 151.5 771.689 153.3C767.956 155.1 764.489 157 761.289 159C758.089 161 755.289 163.133 752.889 165.4C750.423 167.6 748.689 169.867 747.689 172.2C748.223 174.267 749.589 175.667 751.789 176.4C753.989 177.2 756.756 177.5 760.089 177.3C763.423 177.167 767.189 176.567 771.389 175.5C775.656 174.5 780.056 173.267 784.589 171.8C789.189 170.267 793.789 168.533 798.389 166.6C803.056 164.667 807.456 162.7 811.589 160.7C815.789 158.7 819.589 156.733 822.989 154.8C826.389 152.8 829.156 151 831.289 149.4C832.289 150.2 832.723 151.067 832.589 152C832.456 152.867 831.989 153.767 831.189 154.7C830.389 155.567 829.356 156.433 828.089 157.3C826.823 158.167 825.523 159 824.189 159.8C822.923 160.533 821.689 161.2 820.489 161.8C819.356 162.333 818.523 162.733 817.989 163C810.056 167 802.023 170.5 793.889 173.5C785.756 176.5 777.289 178.7 768.489 180.1C762.823 181.033 758.189 181.3 754.589 180.9C750.923 180.5 748.223 179.667 746.489 178.4C744.689 177.133 743.756 175.5 743.689 173.5C743.623 171.5 744.323 169.333 745.789 167C747.256 164.667 749.456 162.267 752.389 159.8C755.256 157.333 758.756 155 762.889 152.8C766.023 151.133 769.523 149.433 773.389 147.7C777.323 145.967 781.356 144.3 785.489 142.7C789.623 141.033 793.689 139.5 797.689 138.1C801.756 136.633 805.489 135.333 808.889 134.2ZM846.79 144.4C846.99 144.733 847.457 145.167 848.19 145.7C848.924 146.167 849.457 146.933 849.79 148C848.924 149.133 848.157 150.167 847.49 151.1C846.824 151.967 846.224 152.867 845.69 153.8C845.224 154.667 844.79 155.6 844.39 156.6C843.99 157.533 843.657 158.633 843.39 159.9C843.19 160.9 843.09 161.767 843.09 162.5C843.424 163.633 844.124 164.267 845.19 164.4C846.324 164.467 847.557 164.233 848.89 163.7C852.624 162.433 856.157 160.8 859.49 158.8C862.824 156.8 865.99 154.633 868.99 152.3C872.057 149.9 875.024 147.4 877.89 144.8C880.757 142.2 883.59 139.633 886.39 137.1C886.857 137.567 887.257 138 887.59 138.4C887.99 138.8 888.524 139.467 889.19 140.4C887.257 142.467 884.857 144.8 881.99 147.4C879.19 150 876.09 152.567 872.69 155.1C869.357 157.633 865.857 160.033 862.19 162.3C858.524 164.567 854.924 166.433 851.39 167.9C850.19 168.367 848.99 168.733 847.79 169C846.59 169.267 845.49 169.333 844.49 169.2C843.49 169 842.59 168.6 841.79 168C840.99 167.4 840.357 166.433 839.89 165.1C839.624 164.5 839.457 163.833 839.39 163.1C839.057 161.7 839.024 160.067 839.29 158.2C839.49 156.333 839.957 154.5 840.69 152.7C841.357 150.9 842.224 149.267 843.29 147.8C844.357 146.267 845.524 145.133 846.79 144.4ZM934.8 144.7C934.533 145.633 933.7 146.567 932.3 147.5C930.966 148.433 929.3 149.333 927.3 150.2C925.3 151 923.133 151.767 920.8 152.5C918.466 153.167 916.166 153.767 913.9 154.3C911.7 154.833 909.666 155.267 907.8 155.6C906 155.867 904.633 156 903.7 156C902.566 156 901.466 156 900.4 156C899.333 155.933 898.233 155.933 897.1 156C896.166 156.733 895.5 157.667 895.1 158.8C894.7 159.867 894.333 160.933 894 162C894.466 162.333 894.866 162.7 895.2 163.1C895.6 163.5 896.066 163.767 896.6 163.9C898.6 164.367 901.1 164.6 904.1 164.6C907.1 164.533 910.366 164.333 913.9 164C917.433 163.6 921.1 163.1 924.9 162.5C928.7 161.9 932.4 161.267 936 160.6C939.6 159.933 943 159.3 946.2 158.7C949.4 158.1 952.133 157.633 954.4 157.3C957.466 156.833 960.633 156.167 963.9 155.3C967.166 154.433 970.333 153.867 973.4 153.6C974.133 153.533 974.766 153.633 975.3 153.9C975.9 154.1 976.266 154.6 976.4 155.4C975.6 155.867 974.333 156.367 972.6 156.9C970.866 157.367 968.9 157.867 966.7 158.4C964.5 158.933 962.133 159.467 959.6 160C957.133 160.467 954.733 160.9 952.4 161.3C950.066 161.7 947.9 162.1 945.9 162.5C943.966 162.833 942.4 163.1 941.2 163.3C939.466 163.633 937.366 164.067 934.9 164.6C932.433 165.067 929.766 165.567 926.9 166.1C924.1 166.567 921.166 167.033 918.1 167.5C915.1 167.9 912.2 168.2 909.4 168.4C906.666 168.533 904.1 168.5 901.7 168.3C899.366 168.1 897.466 167.633 896 166.9C893.466 165.633 891.833 164.1 891.1 162.3C890.3 160.433 890.533 158.233 891.8 155.7C892.8 153.633 894.5 151.7 896.9 149.9C899.3 148.1 902 146.533 905 145.2C908 143.8 911.133 142.7 914.4 141.9C917.733 141.033 920.8 140.567 923.6 140.5C926.466 140.367 928.9 140.633 930.9 141.3C932.966 141.967 934.266 143.1 934.8 144.7ZM900.8 152.4C902.666 152.4 904.866 152.233 907.4 151.9C910 151.567 912.6 151.067 915.2 150.4C917.8 149.667 920.266 148.8 922.6 147.8C925 146.8 926.9 145.667 928.3 144.4C925.966 144.4 923.566 144.533 921.1 144.8C918.633 145.067 916.2 145.533 913.8 146.2C911.466 146.8 909.166 147.633 906.9 148.7C904.7 149.7 902.666 150.933 900.8 152.4ZM1073.78 154.7L1072.48 156.5C1068.48 158.033 1064.45 159.5 1060.38 160.9C1056.32 162.3 1052.32 163.467 1048.38 164.4C1044.52 165.267 1040.82 165.833 1037.28 166.1C1033.75 166.3 1030.52 166 1027.58 165.2C1024.65 164.333 1022.12 162.867 1019.98 160.8C1017.85 158.733 1016.22 155.867 1015.08 152.2C1014.28 149.6 1012.98 147.933 1011.18 147.2C1009.38 146.4 1007.35 146.2 1005.08 146.6C1002.82 147 1000.45 147.833 997.985 149.1C995.518 150.3 993.218 151.533 991.085 152.8C989.818 153.533 988.151 154.733 986.085 156.4C984.018 158.067 981.918 159.767 979.785 161.5C977.718 163.233 975.785 164.8 973.985 166.2C972.118 167.6 970.818 168.433 970.085 168.7C969.485 168.367 968.885 168.033 968.285 167.7C967.685 167.367 967.085 167.033 966.485 166.7C966.351 165.967 966.685 165 967.485 163.8C968.218 162.533 969.218 161.167 970.485 159.7C971.685 158.233 973.051 156.7 974.585 155.1C976.118 153.433 977.585 151.867 978.985 150.4C980.385 148.867 981.651 147.467 982.785 146.2C983.918 144.933 984.718 143.9 985.185 143.1C986.985 142.833 988.585 143.433 989.985 144.9C989.851 145.3 989.585 145.667 989.185 146C988.785 146.333 988.385 146.667 987.985 147C987.651 147.267 987.351 147.6 987.085 148C986.885 148.333 986.851 148.767 986.985 149.3C988.051 148.767 989.418 148.067 991.085 147.2C992.818 146.333 994.685 145.467 996.685 144.6C998.685 143.733 1000.72 143 1002.78 142.4C1004.92 141.733 1006.92 141.4 1008.78 141.4C1010.72 141.333 1012.45 141.667 1013.98 142.4C1015.52 143.133 1016.72 144.433 1017.58 146.3C1018.12 147.567 1018.68 149 1019.28 150.6C1019.88 152.133 1020.55 153.667 1021.28 155.2C1022.08 156.667 1023.02 158 1024.08 159.2C1025.15 160.333 1026.42 161.1 1027.88 161.5C1030.42 162.233 1033.58 162.433 1037.38 162.1C1041.18 161.7 1045.15 161.033 1049.28 160.1C1053.48 159.1 1057.58 158 1061.58 156.8C1065.58 155.6 1069.05 154.5 1071.98 153.5L1073.78 154.7ZM1068.42 124.7C1068.62 124.767 1068.85 124.833 1069.12 124.9C1069.32 124.967 1069.52 124.967 1069.72 124.9C1073.65 124.367 1077.65 123.733 1081.72 123C1085.85 122.2 1089.82 121.333 1093.62 120.4C1095.69 119.933 1097.42 118.8 1098.82 117C1100.35 115.067 1101.92 113.1 1103.52 111.1C1105.12 109.1 1106.72 107.133 1108.32 105.2C1109.52 103.733 1110.75 102.267 1112.02 100.8C1113.35 99.3334 1114.72 97.9668 1116.12 96.7001C1117.12 96.6334 1117.95 96.8334 1118.62 97.3001C1119.29 97.7668 1119.59 98.5668 1119.52 99.7001C1116.99 102.433 1114.55 105.2 1112.22 108C1109.95 110.8 1107.75 113.7 1105.62 116.7C1108.02 117.3 1110.85 117.567 1114.12 117.5C1117.39 117.367 1120.85 117.1 1124.52 116.7C1128.25 116.3 1132.09 115.833 1136.02 115.3C1140.02 114.767 1143.89 114.367 1147.62 114.1C1151.35 113.833 1154.85 113.8 1158.12 114C1161.45 114.133 1164.35 114.7 1166.82 115.7V118.3C1164.29 118.1 1161.22 118 1157.62 118C1154.09 117.933 1150.29 118 1146.22 118.2C1142.15 118.333 1137.95 118.567 1133.62 118.9C1129.35 119.233 1125.19 119.633 1121.12 120.1C1117.05 120.567 1113.25 121.1 1109.72 121.7C1106.19 122.233 1103.19 122.833 1100.72 123.5C1098.72 125.7 1096.52 128.367 1094.12 131.5C1091.79 134.567 1089.39 137.933 1086.92 141.6C1084.45 145.2 1081.95 148.967 1079.42 152.9C1076.89 156.767 1074.49 160.6 1072.22 164.4C1069.89 168.133 1067.72 171.733 1065.72 175.2C1063.65 178.667 1061.85 181.733 1060.32 184.4C1059.72 185.467 1059.25 186.533 1058.92 187.6C1058.59 188.667 1058.79 189.767 1059.52 190.9C1057.99 193.233 1056.45 195.567 1054.92 197.9C1053.39 200.3 1051.85 202.7 1050.32 205.1C1049.85 204.967 1049.45 204.867 1049.12 204.8C1048.72 204.733 1048.39 204.633 1048.12 204.5C1047.79 204.367 1047.52 204.167 1047.32 203.9C1047.05 203.7 1046.82 203.333 1046.62 202.8V201.7C1049.42 194.833 1052.62 188.067 1056.22 181.4C1059.75 174.8 1063.55 168.3 1067.62 161.9C1071.62 155.5 1075.75 149.2 1080.02 143C1084.35 136.8 1088.69 130.7 1093.02 124.7C1091.82 124.633 1090.19 124.767 1088.12 125.1C1086.05 125.367 1083.75 125.767 1081.22 126.3C1078.69 126.833 1076.05 127.433 1073.32 128.1C1070.59 128.767 1067.95 129.433 1065.42 130.1C1062.89 130.767 1060.55 131.433 1058.42 132.1C1056.29 132.7 1054.55 133.2 1053.22 133.6C1052.35 133.867 1051.32 134.2 1050.12 134.6C1048.92 134.933 1047.85 135.1 1046.92 135.1C1044.85 135.1 1043.99 133.967 1044.32 131.7C1047.52 129.767 1050.75 128.033 1054.02 126.5C1057.29 124.9 1060.62 123.3 1064.02 121.7L1065.82 122L1068.42 124.7ZM369.361 205.7C364.827 206.767 360.527 208.267 356.461 210.2C352.394 212.133 348.561 214.6 344.961 217.6C345.494 217.8 346.027 217.9 346.561 217.9C347.161 217.833 347.694 217.867 348.161 218C348.694 218.067 349.127 218.267 349.461 218.6C349.794 218.867 349.994 219.433 350.061 220.3C349.261 220.833 348.061 221.233 346.461 221.5C344.861 221.7 343.361 221.733 341.961 221.6C340.627 221.4 339.627 220.967 338.961 220.3C338.361 219.567 338.561 218.5 339.561 217.1C341.361 214.567 343.827 212.267 346.961 210.2C350.094 208.133 353.627 206.333 357.561 204.8C361.494 203.267 365.761 202.033 370.361 201.1C374.961 200.1 379.627 199.4 384.361 199C389.094 198.533 393.794 198.367 398.461 198.5C403.194 198.633 407.661 199.1 411.861 199.9C416.061 200.633 419.894 201.667 423.361 203C426.827 204.333 429.727 206 432.061 208C434.394 210.067 435.727 212.467 436.061 215.2C436.394 217.933 435.494 220.5 433.361 222.9C432.027 224.433 430.461 225.833 428.661 227.1C426.927 228.3 425.161 229.4 423.361 230.4C416.961 234 410.461 236.967 403.861 239.3C397.327 241.567 390.661 243.467 383.861 245C377.127 246.467 370.261 247.7 363.261 248.7C356.327 249.633 349.327 250.533 342.261 251.4C339.927 255.133 337.627 258.867 335.361 262.6C333.094 266.333 330.794 270.067 328.461 273.8C327.661 273.8 327.027 273.533 326.561 273C326.027 272.533 325.627 271.933 325.361 271.2C325.961 269.533 326.727 267.867 327.661 266.2C328.527 264.467 329.461 262.767 330.461 261.1C331.394 259.433 332.294 257.833 333.161 256.3C334.094 254.7 334.861 253.133 335.461 251.6C335.061 251.067 334.427 250.667 333.561 250.4C332.761 250.067 331.961 249.733 331.161 249.4C330.361 249 329.694 248.567 329.161 248.1C328.627 247.567 328.461 246.833 328.661 245.9C329.661 245.767 330.594 245.8 331.461 246C332.327 246.2 333.194 246.433 334.061 246.7C334.927 246.9 335.794 247.033 336.661 247.1C337.594 247.167 338.627 246.967 339.761 246.5C344.627 239.5 349.494 232.667 354.361 226C359.294 219.267 364.294 212.5 369.361 205.7ZM373.561 207.3C371.627 209.833 369.361 212.733 366.761 216C364.227 219.2 361.661 222.567 359.061 226.1C356.461 229.567 354.027 233.033 351.761 236.5C349.561 239.967 347.861 243.167 346.661 246.1L348.261 246.5C351.794 246.033 355.894 245.433 360.561 244.7C365.227 243.967 370.127 243.067 375.261 242C380.461 240.867 385.727 239.567 391.061 238.1C396.394 236.633 401.461 235 406.261 233.2C411.127 231.4 415.561 229.433 419.561 227.3C423.627 225.167 426.927 222.833 429.461 220.3C431.727 218.033 432.761 216.033 432.561 214.3C432.361 212.567 431.494 211.067 429.961 209.8C428.427 208.533 426.494 207.5 424.161 206.7C421.894 205.833 419.861 205.133 418.061 204.6C412.394 203.067 406.494 202.267 400.361 202.2C394.227 202.133 388.227 202.433 382.361 203.1C380.827 203.233 379.261 203.467 377.661 203.8C376.127 204.067 374.594 204.4 373.061 204.8L373.561 207.3ZM457.486 211.6C457.152 212.333 456.752 212.967 456.286 213.5C454.886 215.167 453.219 217.1 451.286 219.3C449.352 221.433 447.352 223.733 445.286 226.2C443.286 228.667 441.319 231.267 439.386 234C437.452 236.667 435.752 239.367 434.286 242.1C432.819 244.767 431.652 247.433 430.786 250.1C429.986 252.7 429.686 255.133 429.886 257.4C431.019 258.933 432.719 260.033 434.986 260.7C437.319 261.3 440.052 261.6 443.186 261.6C446.319 261.533 449.719 261.233 453.386 260.7C457.119 260.167 460.919 259.5 464.786 258.7C468.652 257.9 472.486 257.033 476.286 256.1C480.152 255.1 483.752 254.2 487.086 253.4C490.486 252.533 493.552 251.833 496.286 251.3C499.019 250.7 501.186 250.333 502.786 250.2L504.186 252.1L503.186 253.4C499.652 254.733 496.119 255.9 492.586 256.9C489.052 257.9 485.486 258.8 481.886 259.6C478.286 260.333 474.652 261.033 470.986 261.7C467.386 262.367 463.752 263.067 460.086 263.8C458.086 264.2 455.686 264.6 452.886 265C450.086 265.333 447.219 265.5 444.286 265.5C441.419 265.5 438.619 265.267 435.886 264.8C433.152 264.267 430.886 263.333 429.086 262C427.286 260.667 426.119 258.867 425.586 256.6C424.986 254.267 425.352 251.3 426.686 247.7C427.886 244.567 429.486 241.233 431.486 237.7C433.552 234.167 435.819 230.667 438.286 227.2C440.752 223.733 443.319 220.467 445.986 217.4C448.719 214.333 451.352 211.7 453.886 209.5L455.886 208.9L457.486 211.6ZM499.962 264.9C499.495 264.367 498.995 263.867 498.462 263.4C497.929 262.867 497.495 262.333 497.162 261.8C496.762 261.2 496.562 260.6 496.562 260C496.495 259.333 496.729 258.6 497.262 257.8C498.129 256.467 499.262 255.167 500.662 253.9C502.062 252.567 503.629 251.267 505.362 250C507.695 248.267 510.129 246.7 512.662 245.3C515.195 243.9 517.429 242.733 519.362 241.8C520.962 241.067 522.262 240.833 523.262 241.1C524.262 241.3 525.162 242.233 525.962 243.9L525.462 245.5C523.595 245.7 521.829 246.167 520.162 246.9C518.495 247.567 516.895 248.4 515.362 249.4C513.829 250.4 512.329 251.467 510.862 252.6C509.395 253.733 507.929 254.833 506.462 255.9C506.929 256.433 507.962 256.4 509.562 255.8C511.229 255.133 513.029 254.267 514.962 253.2C516.895 252.133 518.762 251.067 520.562 250C522.362 248.933 523.629 248.233 524.362 247.9C525.629 247.367 526.595 247.367 527.262 247.9C527.995 248.367 528.695 249.167 529.362 250.3C529.229 251.433 528.895 252.467 528.362 253.4C527.829 254.333 527.262 255.3 526.662 256.3C526.129 257.233 525.629 258.2 525.162 259.2C524.762 260.133 524.595 261.167 524.662 262.3C525.462 263.033 526.362 263.4 527.362 263.4C528.429 263.333 529.462 263.2 530.462 263C539.395 261.267 548.195 259.267 556.862 257C565.529 254.733 574.295 252.633 583.162 250.7C583.495 251.167 583.795 251.633 584.062 252.1C584.329 252.5 584.629 252.933 584.962 253.4C583.695 254 581.562 254.767 578.562 255.7C575.629 256.633 572.229 257.633 568.362 258.7C564.495 259.767 560.395 260.833 556.062 261.9C551.795 262.967 547.695 263.933 543.762 264.8C539.829 265.6 536.295 266.267 533.162 266.8C530.095 267.333 527.862 267.567 526.462 267.5C524.595 267.433 523.229 266.967 522.362 266.1C521.495 265.233 520.962 264.167 520.762 262.9C520.562 261.567 520.595 260.2 520.862 258.8C521.129 257.333 521.429 256.033 521.762 254.9C519.962 255.7 518.162 256.633 516.362 257.7C514.629 258.7 512.895 259.7 511.162 260.7C509.429 261.633 507.629 262.5 505.762 263.3C503.895 264.033 501.962 264.567 499.962 264.9ZM682.418 251.7L681.118 253.5C677.118 255.033 673.084 256.5 669.018 257.9C664.951 259.3 660.951 260.467 657.018 261.4C653.151 262.267 649.451 262.833 645.918 263.1C642.384 263.3 639.151 263 636.218 262.2C633.284 261.333 630.751 259.867 628.618 257.8C626.484 255.733 624.851 252.867 623.718 249.2C622.918 246.6 621.618 244.933 619.818 244.2C618.018 243.4 615.984 243.2 613.718 243.6C611.451 244 609.084 244.833 606.618 246.1C604.151 247.3 601.851 248.533 599.718 249.8C598.451 250.533 596.784 251.733 594.718 253.4C592.651 255.067 590.551 256.767 588.418 258.5C586.351 260.233 584.418 261.8 582.618 263.2C580.751 264.6 579.451 265.433 578.718 265.7C578.118 265.367 577.518 265.033 576.918 264.7C576.318 264.367 575.718 264.033 575.118 263.7C574.984 262.967 575.318 262 576.118 260.8C576.851 259.533 577.851 258.167 579.118 256.7C580.318 255.233 581.684 253.7 583.218 252.1C584.751 250.433 586.218 248.867 587.618 247.4C589.018 245.867 590.284 244.467 591.418 243.2C592.551 241.933 593.351 240.9 593.818 240.1C595.618 239.833 597.218 240.433 598.618 241.9C598.484 242.3 598.218 242.667 597.818 243C597.418 243.333 597.018 243.667 596.618 244C596.284 244.267 595.984 244.6 595.718 245C595.518 245.333 595.484 245.767 595.618 246.3C596.684 245.767 598.051 245.067 599.718 244.2C601.451 243.333 603.318 242.467 605.318 241.6C607.318 240.733 609.351 240 611.418 239.4C613.551 238.733 615.551 238.4 617.418 238.4C619.351 238.333 621.084 238.667 622.618 239.4C624.151 240.133 625.351 241.433 626.218 243.3C626.751 244.567 627.318 246 627.918 247.6C628.518 249.133 629.184 250.667 629.918 252.2C630.718 253.667 631.651 255 632.718 256.2C633.784 257.333 635.051 258.1 636.518 258.5C639.051 259.233 642.218 259.433 646.018 259.1C649.818 258.7 653.784 258.033 657.918 257.1C662.118 256.1 666.218 255 670.218 253.8C674.218 252.6 677.684 251.5 680.618 250.5L682.418 251.7ZM779.754 251.7L778.454 253.5C774.454 255.033 770.42 256.5 766.354 257.9C762.287 259.3 758.287 260.467 754.354 261.4C750.487 262.267 746.787 262.833 743.254 263.1C739.72 263.3 736.487 263 733.554 262.2C730.62 261.333 728.087 259.867 725.954 257.8C723.82 255.733 722.187 252.867 721.054 249.2C720.254 246.6 718.954 244.933 717.154 244.2C715.354 243.4 713.32 243.2 711.054 243.6C708.787 244 706.42 244.833 703.954 246.1C701.487 247.3 699.187 248.533 697.054 249.8C695.787 250.533 694.12 251.733 692.054 253.4C689.987 255.067 687.887 256.767 685.754 258.5C683.687 260.233 681.754 261.8 679.954 263.2C678.087 264.6 676.787 265.433 676.054 265.7C675.454 265.367 674.854 265.033 674.254 264.7C673.654 264.367 673.054 264.033 672.454 263.7C672.32 262.967 672.654 262 673.454 260.8C674.187 259.533 675.187 258.167 676.454 256.7C677.654 255.233 679.02 253.7 680.554 252.1C682.087 250.433 683.554 248.867 684.954 247.4C686.354 245.867 687.62 244.467 688.754 243.2C689.887 241.933 690.687 240.9 691.154 240.1C692.954 239.833 694.554 240.433 695.954 241.9C695.82 242.3 695.554 242.667 695.154 243C694.754 243.333 694.354 243.667 693.954 244C693.62 244.267 693.32 244.6 693.054 245C692.854 245.333 692.82 245.767 692.954 246.3C694.02 245.767 695.387 245.067 697.054 244.2C698.787 243.333 700.654 242.467 702.654 241.6C704.654 240.733 706.687 240 708.754 239.4C710.887 238.733 712.887 238.4 714.754 238.4C716.687 238.333 718.42 238.667 719.954 239.4C721.487 240.133 722.687 241.433 723.554 243.3C724.087 244.567 724.654 246 725.254 247.6C725.854 249.133 726.52 250.667 727.254 252.2C728.054 253.667 728.987 255 730.054 256.2C731.12 257.333 732.387 258.1 733.854 258.5C736.387 259.233 739.554 259.433 743.354 259.1C747.154 258.7 751.12 258.033 755.254 257.1C759.454 256.1 763.554 255 767.554 253.8C771.554 252.6 775.02 251.5 777.954 250.5L779.754 251.7ZM820.889 241.7C820.623 242.633 819.789 243.567 818.389 244.5C817.056 245.433 815.389 246.333 813.389 247.2C811.389 248 809.223 248.767 806.889 249.5C804.556 250.167 802.256 250.767 799.989 251.3C797.789 251.833 795.756 252.267 793.889 252.6C792.089 252.867 790.723 253 789.789 253C788.656 253 787.556 253 786.489 253C785.423 252.933 784.323 252.933 783.189 253C782.256 253.733 781.589 254.667 781.189 255.8C780.789 256.867 780.423 257.933 780.089 259C780.556 259.333 780.956 259.7 781.289 260.1C781.689 260.5 782.156 260.767 782.689 260.9C784.689 261.367 787.189 261.6 790.189 261.6C793.189 261.533 796.456 261.333 799.989 261C803.523 260.6 807.189 260.1 810.989 259.5C814.789 258.9 818.489 258.267 822.089 257.6C825.689 256.933 829.089 256.3 832.289 255.7C835.489 255.1 838.223 254.633 840.489 254.3C843.556 253.833 846.723 253.167 849.989 252.3C853.256 251.433 856.423 250.867 859.489 250.6C860.223 250.533 860.856 250.633 861.389 250.9C861.989 251.1 862.356 251.6 862.489 252.4C861.689 252.867 860.423 253.367 858.689 253.9C856.956 254.367 854.989 254.867 852.789 255.4C850.589 255.933 848.223 256.467 845.689 257C843.223 257.467 840.823 257.9 838.489 258.3C836.156 258.7 833.989 259.1 831.989 259.5C830.056 259.833 828.489 260.1 827.289 260.3C825.556 260.633 823.456 261.067 820.989 261.6C818.523 262.067 815.856 262.567 812.989 263.1C810.189 263.567 807.256 264.033 804.189 264.5C801.189 264.9 798.289 265.2 795.489 265.4C792.756 265.533 790.189 265.5 787.789 265.3C785.456 265.1 783.556 264.633 782.089 263.9C779.556 262.633 777.923 261.1 777.189 259.3C776.389 257.433 776.623 255.233 777.889 252.7C778.889 250.633 780.589 248.7 782.989 246.9C785.389 245.1 788.089 243.533 791.089 242.2C794.089 240.8 797.223 239.7 800.489 238.9C803.823 238.033 806.889 237.567 809.689 237.5C812.556 237.367 814.989 237.633 816.989 238.3C819.056 238.967 820.356 240.1 820.889 241.7ZM786.889 249.4C788.756 249.4 790.956 249.233 793.489 248.9C796.089 248.567 798.689 248.067 801.289 247.4C803.889 246.667 806.356 245.8 808.689 244.8C811.089 243.8 812.989 242.667 814.389 241.4C812.056 241.4 809.656 241.533 807.189 241.8C804.723 242.067 802.289 242.533 799.889 243.2C797.556 243.8 795.256 244.633 792.989 245.7C790.789 246.7 788.756 247.933 786.889 249.4ZM870.575 238.8C871.108 239 871.741 239.233 872.475 239.5C873.208 239.7 873.841 239.867 874.375 240C873.241 241.667 872.075 243.333 870.875 245C869.741 246.667 868.675 248.433 867.675 250.3C867.541 250.567 867.475 250.7 867.475 250.7C871.208 247.433 875.408 244.667 880.075 242.4C880.741 242.133 881.375 241.833 881.975 241.5C882.575 241.167 883.241 240.9 883.975 240.7C885.575 240.3 887.008 240.3 888.275 240.7C889.608 241.033 890.508 241.767 890.975 242.9C891.241 243.5 891.441 244.133 891.575 244.8C891.775 245.467 891.908 246.1 891.975 246.7C892.108 247.3 892.241 247.9 892.375 248.5C892.575 249.1 892.841 249.667 893.175 250.2C894.308 251.733 895.908 252.867 897.975 253.6C900.108 254.333 902.475 254.8 905.075 255C907.675 255.133 910.375 255.1 913.175 254.9C916.041 254.7 918.808 254.4 921.475 254C924.208 253.533 926.708 253.067 928.975 252.6C931.241 252.067 933.075 251.6 934.475 251.2C935.275 250.933 935.875 250.933 936.275 251.2C936.675 251.4 936.875 251.733 936.875 252.2C936.875 252.6 936.675 253.067 936.275 253.6C935.875 254.133 935.308 254.533 934.575 254.8C932.508 255.6 930.008 256.367 927.075 257.1C924.208 257.767 921.175 258.3 917.975 258.7C914.841 259.033 911.675 259.167 908.475 259.1C905.275 259.033 902.275 258.667 899.475 258C896.741 257.333 894.341 256.333 892.275 255C890.275 253.667 888.841 251.9 887.975 249.7C887.641 248.7 887.341 247.8 887.075 247C886.875 246.133 886.608 245.467 886.275 245C885.941 244.533 885.441 244.333 884.775 244.4C884.175 244.4 883.308 244.767 882.175 245.5C880.441 246.367 878.775 247.333 877.175 248.4C875.575 249.4 874.008 250.433 872.475 251.5C870.941 252.767 869.541 253.967 868.275 255.1C867.008 256.167 865.808 257.267 864.675 258.4C863.541 259.467 862.441 260.6 861.375 261.8C860.308 263 859.208 264.3 858.075 265.7C857.875 266.033 857.641 266.367 857.375 266.7C857.108 267.033 856.775 267.4 856.375 267.8C856.375 267.933 855.975 268.067 855.175 268.2C854.841 268.133 854.475 268.033 854.075 267.9C853.608 267.7 853.208 267.5 852.875 267.3C852.541 266.567 852.675 265.733 853.275 264.8C853.808 263.8 854.308 263.067 854.775 262.6C855.975 260.8 857.208 258.8 858.475 256.6C859.741 254.333 861.041 252.1 862.375 249.9C863.708 247.633 865.041 245.533 866.375 243.6C867.775 241.6 869.175 240 870.575 238.8Z" fill="white" fill-opacity="0.33"/>
</svg>
