<svg xmlns="http://www.w3.org/2000/svg" viewBox="0 0 500 500"><g id="freepik--background-complete--inject-62"><path d="M437.53,92.48c-15.12-6.37-35.25,4.85-43.26,19.18s-7.29,32.12-2.56,47.83c3.87,12.9,12.05,26.41,25.3,28.79,10.21,1.84,20.35-3.59,28.31-10.23,13.78-11.51,24.19-28.28,24.08-46.24S455.3,95,437.53,92.48" style="fill:#e0e0e0"></path><path d="M414.42,187.09a47.56,47.56,0,0,0-5.29,7.75,4.79,4.79,0,0,0-.83,3.18c.4,1.9,2.93,2.65,4.73,1.91s3-2.42,4.08-4c2.1,2.41,4.31,4.9,7.29,6.05a3,3,0,0,0,2.4.11,2.37,2.37,0,0,0,1.13-2,7.07,7.07,0,0,0-.48-2.39q-1.95-6-3.91-11.92" style="fill:#e0e0e0"></path><path d="M393.82,142.46a1.85,1.85,0,0,1-.16-.56c-.08-.37-.22-.92-.32-1.64a40.43,40.43,0,0,1-.51-6.13,42.86,42.86,0,0,1,17.62-35,39.86,39.86,0,0,1,5.22-3.25c.64-.34,1.16-.56,1.51-.72a1.91,1.91,0,0,1,.54-.21s-.69.41-1.94,1.13a46,46,0,0,0-5.09,3.38,43.89,43.89,0,0,0-17.45,34.7,49,49,0,0,0,.32,6.1C393.74,141.66,393.86,142.45,393.82,142.46Z" style="fill:#fff"></path><path d="M395.74,153.57c-.15.06-.54-.57-.87-1.41s-.48-1.57-.33-1.63.54.57.87,1.41S395.89,153.51,395.74,153.57Z" style="fill:#fff"></path><path d="M404.89,352.13l.5.07,1.45.25a27.85,27.85,0,0,0,5.63.25A35,35,0,0,0,431.42,345c7-5.26,13.48-14,17.22-25a59.56,59.56,0,0,0,3.12-17.83A57.16,57.16,0,0,0,449,283a66.66,66.66,0,0,0-8.83-17.34c-3.56-5.22-7.36-10-10.82-14.69a97,97,0,0,1-8.92-13.93,70.84,70.84,0,0,1-5.16-13.46,55.11,55.11,0,0,1-1.92-11.73,33.09,33.09,0,0,1,.73-8.94,20.59,20.59,0,0,1,1-3.14,13.91,13.91,0,0,1,1-2.18l.75-1.28c.17-.28.27-.42.27-.42s-.07.16-.22.46l-.69,1.29a13.65,13.65,0,0,0-.94,2.2,19.64,19.64,0,0,0-.91,3.12,33,33,0,0,0-.64,8.87,55.3,55.3,0,0,0,2,11.64,71,71,0,0,0,5.19,13.36,97.55,97.55,0,0,0,8.92,13.82c3.46,4.68,7.28,9.45,10.86,14.69a67,67,0,0,1,8.91,17.48,57.55,57.55,0,0,1,2.74,19.4,59.83,59.83,0,0,1-3.18,18c-3.8,11.06-10.39,19.85-17.48,25.11a34.91,34.91,0,0,1-19.19,7.59,26.53,26.53,0,0,1-5.66-.36l-1.44-.31Z" style="fill:#e0e0e0"></path><path d="M85.11,37.24c18.55-7.82,43.25,5.95,53.07,23.53s8.94,39.41,3.15,58.69c-4.76,15.82-14.8,32.4-31.05,35.33-12.52,2.25-25-4.41-34.73-12.56C58.64,128.1,45.87,107.53,46,85.5s17.28-45.17,39.1-48.26" style="fill:#e0e0e0"></path><path d="M113.46,153.32a59.35,59.35,0,0,1,6.49,9.51,5.91,5.91,0,0,1,1,3.9c-.49,2.33-3.6,3.25-5.8,2.35s-3.67-3-5-4.93c-2.57,2.95-5.29,6-9,7.41a3.64,3.64,0,0,1-2.94.14,2.89,2.89,0,0,1-1.39-2.5,8.74,8.74,0,0,1,.59-2.93q2.4-7.31,4.79-14.63" style="fill:#e0e0e0"></path><path d="M138.74,98.57a3.13,3.13,0,0,0,.19-.69c.09-.46.27-1.13.39-2a48.1,48.1,0,0,0,.62-7.52,52.52,52.52,0,0,0-21.61-43,48.18,48.18,0,0,0-6.41-4c-.78-.43-1.42-.69-1.85-.89a2.81,2.81,0,0,0-.67-.26,26.09,26.09,0,0,0,2.39,1.39A58.36,58.36,0,0,1,118,45.77a53.78,53.78,0,0,1,21.41,42.57,58.51,58.51,0,0,1-.39,7.48A23.93,23.93,0,0,0,138.74,98.57Z" style="fill:#fff"></path><path d="M136.38,112.2c.18.07.66-.71,1.06-1.74s.59-1.92.41-2-.66.7-1.07,1.73S136.19,112.12,136.38,112.2Z" style="fill:#fff"></path><path d="M125.15,355.82s-.21,0-.61.09l-1.78.31a34.52,34.52,0,0,1-6.91.3c-6-.34-14.73-2.76-23.25-9.42-8.58-6.46-16.54-17.17-21.13-30.63a73.09,73.09,0,0,1-3.83-21.88A70.38,70.38,0,0,1,71,271a82.13,82.13,0,0,1,10.83-21.27c4.37-6.4,9-12.27,13.28-18a119.65,119.65,0,0,0,11-17.09,87,87,0,0,0,6.32-16.52,67.23,67.23,0,0,0,2.37-14.39,40.78,40.78,0,0,0-.91-11,24,24,0,0,0-1.2-3.84,16,16,0,0,0-1.22-2.68l-.91-1.56c-.21-.35-.33-.52-.33-.52s.08.19.27.55.48.92.85,1.6a18.62,18.62,0,0,1,1.15,2.69,26.86,26.86,0,0,1,1.12,3.82,41.18,41.18,0,0,1,.78,10.9A68.86,68.86,0,0,1,111.88,198a87.41,87.41,0,0,1-6.37,16.38,121,121,0,0,1-11,17c-4.24,5.73-8.93,11.59-13.33,18A82.36,82.36,0,0,0,70.3,270.8,70.57,70.57,0,0,0,67,294.61a73.36,73.36,0,0,0,3.9,22.07C75.51,330.25,83.59,341,92.3,347.5c8.63,6.67,17.52,9,23.54,9.3a32.71,32.71,0,0,0,6.94-.44l1.77-.38A6,6,0,0,0,125.15,355.82Z" style="fill:#e0e0e0"></path><path d="M314.82,57.62a9.89,9.89,0,0,1,2.23-5.54,9.58,9.58,0,0,1,4.79-3.36,7.86,7.86,0,0,1,6.1.83,7.76,7.76,0,0,1,2.62,2.63,7.9,7.9,0,0,1,2.15-2.62,7.82,7.82,0,0,1,6-1.53,9.45,9.45,0,0,1,5.15,2.76A9.93,9.93,0,0,1,346.68,56a12.11,12.11,0,0,1-1.06,7.52,17.09,17.09,0,0,1-5.57,5.87c-3.71,2.55-8.6,5.75-8.6,5.75s-4.48-3-8.47-5A17,17,0,0,1,316.77,65,12.06,12.06,0,0,1,314.82,57.62Z" style="fill:#ebebeb"></path><path d="M23.88,171.83a10,10,0,0,1,2.23-5.55,9.55,9.55,0,0,1,4.8-3.35,7.69,7.69,0,0,1,8.71,3.46,7.72,7.72,0,0,1,8.1-4.16A9.53,9.53,0,0,1,52.87,165a9.94,9.94,0,0,1,2.87,5.24,12.07,12.07,0,0,1-1.06,7.53,17.24,17.24,0,0,1-5.56,5.87c-3.72,2.54-8.61,5.75-8.61,5.75s-4.48-2.95-8.46-5a17.09,17.09,0,0,1-6.22-5.17A12.08,12.08,0,0,1,23.88,171.83Z" style="fill:#ebebeb"></path><path d="M367.57,37.11A6.35,6.35,0,0,1,369,33.55a6.16,6.16,0,0,1,3.08-2.16,4.95,4.95,0,0,1,5.59,2.22,5,5,0,0,1,1.38-1.68,5,5,0,0,1,3.82-1,6.05,6.05,0,0,1,3.31,1.77A6.41,6.41,0,0,1,388,36.09a7.79,7.79,0,0,1-.68,4.83,10.94,10.94,0,0,1-3.58,3.77c-2.38,1.64-5.53,3.7-5.53,3.7s-2.87-1.9-5.43-3.24a11,11,0,0,1-4-3.32A7.77,7.77,0,0,1,367.57,37.11Z" style="fill:#f5f5f5"></path><path d="M126.67,156.91a6.38,6.38,0,0,1,1.43-3.57,6.14,6.14,0,0,1,3.08-2.15,5,5,0,0,1,3.91.53,4.85,4.85,0,0,1,1.68,1.69,5,5,0,0,1,1.38-1.68,5,5,0,0,1,3.82-1,6.19,6.19,0,0,1,3.32,1.78,6.46,6.46,0,0,1,1.84,3.37,7.8,7.8,0,0,1-.68,4.83,11,11,0,0,1-3.58,3.77c-2.38,1.64-5.53,3.69-5.53,3.69s-2.87-1.89-5.43-3.23a11.06,11.06,0,0,1-4-3.33A7.74,7.74,0,0,1,126.67,156.91Z" style="fill:#f5f5f5"></path><path d="M455.41,233.32a6.45,6.45,0,0,1,1.43-3.56,6.12,6.12,0,0,1,3.08-2.15,5,5,0,0,1,5.6,2.22,5,5,0,0,1,1.38-1.68,5,5,0,0,1,3.82-1,6.13,6.13,0,0,1,3.31,1.78,6.32,6.32,0,0,1,1.84,3.37,7.73,7.73,0,0,1-.68,4.83,11,11,0,0,1-3.57,3.77c-2.39,1.63-5.53,3.69-5.53,3.69s-2.88-1.89-5.44-3.24a10.9,10.9,0,0,1-4-3.32A7.76,7.76,0,0,1,455.41,233.32Z" style="fill:#f5f5f5"></path><path d="M360.77,69.53a4.23,4.23,0,0,1,.94-2.35,4.13,4.13,0,0,1,2-1.42,3.3,3.3,0,0,1,3.7,1.46,3.13,3.13,0,0,1,.91-1.1,3.34,3.34,0,0,1,2.52-.66,4,4,0,0,1,2.18,1.18,4.18,4.18,0,0,1,1.22,2.22,5.23,5.23,0,0,1-.45,3.19,7.36,7.36,0,0,1-2.36,2.48c-1.57,1.08-3.65,2.44-3.65,2.44s-1.89-1.25-3.58-2.14a7.11,7.11,0,0,1-2.64-2.19A5.15,5.15,0,0,1,360.77,69.53Z" style="fill:#f5f5f5"></path><path d="M51,202.29a4.22,4.22,0,0,1,.94-2.35,4.1,4.1,0,0,1,2-1.42,3.33,3.33,0,0,1,2.58.35A3.22,3.22,0,0,1,57.69,200a3.27,3.27,0,0,1,.91-1.11,3.31,3.31,0,0,1,2.52-.65,4.09,4.09,0,0,1,2.19,1.17,4.14,4.14,0,0,1,1.21,2.22,5.08,5.08,0,0,1-.45,3.19,7.36,7.36,0,0,1-2.35,2.49c-1.58,1.07-3.65,2.43-3.65,2.43s-1.9-1.25-3.59-2.13a7.36,7.36,0,0,1-2.63-2.19A5.11,5.11,0,0,1,51,202.29Z" style="fill:#f5f5f5"></path><path d="M165.25,44.23a4.16,4.16,0,0,1,.94-2.34,4.06,4.06,0,0,1,2-1.43,3.26,3.26,0,0,1,3.69,1.47,3.37,3.37,0,0,1,.91-1.11,3.31,3.31,0,0,1,2.52-.65,4.09,4.09,0,0,1,2.19,1.17,4.17,4.17,0,0,1,1.21,2.22,5.08,5.08,0,0,1-.45,3.19,7.27,7.27,0,0,1-2.35,2.49c-1.58,1.08-3.65,2.43-3.65,2.43s-1.9-1.25-3.59-2.13a7.36,7.36,0,0,1-2.63-2.19A5.11,5.11,0,0,1,165.25,44.23Z" style="fill:#f5f5f5"></path><path d="M32.66,331s-8.4,1.86-2.13,20.08,11.09,27.48,11.09,27.48,1,4.16-2.43,4.3-10.55-2.05-12.61,1.8.37,8.41,6.09,12.77,17.88,14.39,19,15.3,2,2.89-.31,3.36-19-.13-18.81,7.8,18.1,17.48,20,18.56,2.31,2,2,3.12-5.91.37-10.67.39-10.26.88-9.77,5.45,10.37,15.43,37.16,21.93l12.61,2.19,8.41-9.72c16.72-21.92,17.56-36.57,15.06-40.43s-7.31-1.06-11,1.92-7.59,7.06-8.53,6.41-1.26-1.61-.43-3.67,8.74-20.75,3.88-27-17.43,4.7-19.52,5.79-2.63-1.05-2.35-2.43,3.42-16.84,5.11-23.83.86-12-3.31-13.75S63,373.3,60.25,375.33s-4.6-1.82-4.6-1.82S53.57,363.28,47,345.19s-14.48-14.13-14.48-14.13" style="fill:#ebebeb"></path><path d="M84.12,478.62c-4.8-13.31-12.92-37.12-20-57.52s-13.5-38.85-18.23-52.18c-2.37-6.65-4.28-12-5.61-15.79l-1.53-4.29-.38-1.12a3.39,3.39,0,0,1-.12-.39s.06.13.16.38l.42,1.1c.37,1,.91,2.43,1.59,4.27,1.38,3.71,3.34,9.09,5.74,15.74C51,382.14,57.42,400.58,64.49,421s15.16,44.22,19.89,57.55" style="fill:#e0e0e0"></path><path d="M36.46,388.15a4.87,4.87,0,0,1,.85.37c.53.26,1.3.66,2.24,1.16,1.87,1,4.42,2.46,7.21,4.11l7.13,4.27,2.16,1.28a3.05,3.05,0,0,1,.78.5,4.87,4.87,0,0,1-.85-.37c-.53-.26-1.3-.66-2.23-1.17-1.87-1-4.4-2.51-7.19-4.16s-5.25-3.09-7.15-4.21l-2.18-1.27A3.58,3.58,0,0,1,36.46,388.15Z" style="fill:#e0e0e0"></path><path d="M57.81,399.15c-.09,0,2.67-5.45,6.18-12.06s6.43-11.92,6.53-11.86-2.67,5.44-6.18,12S57.91,399.2,57.81,399.15Z" style="fill:#e0e0e0"></path><path d="M67.27,431a4.61,4.61,0,0,1,.63-.71l1.79-1.84c1.51-1.56,3.58-3.72,5.79-6.18s4.13-4.76,5.5-6.43l1.64-2a5.82,5.82,0,0,1,.63-.7,3.71,3.71,0,0,1-.51.8c-.35.49-.87,1.2-1.54,2.06-1.32,1.72-3.21,4.06-5.43,6.52s-4.32,4.61-5.88,6.12c-.79.75-1.43,1.35-1.89,1.75A3.89,3.89,0,0,1,67.27,431Z" style="fill:#e0e0e0"></path><path d="M45.77,425.27a3.44,3.44,0,0,1,.86.13l2.32.52c1.95.45,4.64,1.11,7.61,1.85s5.65,1.44,7.59,2l2.28.64a5,5,0,0,1,.83.28,3.43,3.43,0,0,1-.87-.13L64.08,430c-2-.45-4.65-1.11-7.62-1.85s-5.64-1.44-7.58-2l-2.29-.64A4.22,4.22,0,0,1,45.77,425.27Z" style="fill:#e0e0e0"></path><path d="M50.55,454.41a5.37,5.37,0,0,1,1.1.19l3,.65c2.5.57,6,1.38,9.77,2.29s7.26,1.78,9.75,2.41l2.94.78a5.16,5.16,0,0,1,1.07.34,8,8,0,0,1-1.1-.19l-3-.65c-2.5-.57-6-1.38-9.77-2.3s-7.26-1.77-9.75-2.41l-2.94-.77A5.16,5.16,0,0,1,50.55,454.41Z" style="fill:#e0e0e0"></path><path d="M77.54,460.72a7.86,7.86,0,0,1,.77-.92l2.19-2.41c1.84-2.05,4.38-4.88,7.09-8.08s5.1-6.16,6.81-8.32l2-2.55a7.86,7.86,0,0,1,.78-.91,5.92,5.92,0,0,1-.65,1c-.44.63-1.1,1.53-1.93,2.63-1.65,2.21-4,5.2-6.73,8.41s-5.29,6-7.19,8c-1,1-1.73,1.79-2.28,2.33A6.17,6.17,0,0,1,77.54,460.72Z" style="fill:#e0e0e0"></path><path d="M395.1,475.06c-18.54-14.45-21.6-39.63-19.66-62,.32-3.73.11-7.7,2.07-10.89s6.22-5.22,9.49-3.47c2.71,1.45,3.76,4.75,5.17,7.51a21.94,21.94,0,0,0,8.35,8.84c2.32,1.37,5.22,2.28,7.65,1.1,3.32-1.61,3.93-6.05,4.1-9.78l1-20.83c.17-3.72.36-7.52,1.71-11s4.07-6.62,7.66-7.43,7.87,1.47,8.43,5.15a34.36,34.36,0,0,1-.14,4.64c0,1.56.66,3.3,2.1,3.81s3-.46,4.18-1.49c4-3.56,6.9-8.27,9.59-13s5.31-9.5,9-13.41,8.69-6.92,14-6.94,10.86,3.56,11.93,8.87-2.26,10.48-5.82,14.56a82.75,82.75,0,0,1-18.17,15.59c-1.21.77-2.53,1.61-3.05,3-.94,2.44,1.28,5,3.69,6,2.73,1.06,5.75.93,8.64,1.43s6,1.94,6.92,4.74c1.32,3.88-2.07,7.71-5.34,10.16a71.32,71.32,0,0,1-21.71,11.06c-2.79.86-5.72,1.59-8,3.4s-3.81,5.08-2.62,7.77,4.58,3.72,7.48,3.34,5.55-1.81,8.34-2.7c5.21-1.66,11.8-1,14.85,3.63,2,3,2,7.08.71,10.49a27.28,27.28,0,0,1-6.13,8.9c-8.7,9.2-19.61,16.4-31.69,19.89s-23.15,4-34.72-.9" style="fill:#f5f5f5"></path><path d="M401.63,461.31a333,333,0,0,1,15.12-35.24c1.5-3,3-6.06,4.44-9s2.91-5.89,4.51-8.68a166.66,166.66,0,0,1,10.09-15.47c3.45-4.77,6.9-9.16,10.15-13.25s6.38-7.83,9.36-11.13A133.1,133.1,0,0,1,470.51,354c1.93-1.56,3.46-2.72,4.51-3.5l1.2-.87a2.11,2.11,0,0,1,.42-.28,2.44,2.44,0,0,1-.38.33l-1.16.93c-1,.81-2.52,2-4.42,3.6a140.46,140.46,0,0,0-15,14.61c-3,3.31-6,7.06-9.28,11.16s-6.65,8.5-10.08,13.27a170.45,170.45,0,0,0-10,15.43c-1.58,2.77-3,5.68-4.48,8.65l-4.44,9a344.49,344.49,0,0,0-15.14,35.14" style="fill:#e0e0e0"></path><path d="M425.9,408.35a7,7,0,0,1-.28-1.61c-.14-1-.3-2.55-.46-4.42-.34-3.73-.62-8.91-.91-14.61s-.65-10.87-1-14.59c-.19-1.86-.35-3.36-.48-4.4a7.89,7.89,0,0,1-.13-1.63,7.71,7.71,0,0,1,.39,1.59c.21,1,.45,2.53.7,4.38.52,3.72.95,8.89,1.24,14.61s.52,10.72.71,14.61c.09,1.76.18,3.24.24,4.43A7.15,7.15,0,0,1,425.9,408.35Z" style="fill:#e0e0e0"></path><path d="M474.24,401.9a10.26,10.26,0,0,1-1.92.13c-1.23.05-3,.1-5.22.24-4.41.24-10.49.79-17.17,1.7s-12.7,2-17,2.9c-2.17.44-3.91.84-5.12,1.11a11.38,11.38,0,0,1-1.89.37,9.94,9.94,0,0,1,1.82-.63c1.19-.35,2.92-.83,5.08-1.33,4.32-1,10.33-2.2,17-3.11a167.57,167.57,0,0,1,17.23-1.5c2.22-.08,4-.06,5.25,0A10.55,10.55,0,0,1,474.24,401.9Z" style="fill:#e0e0e0"></path><path d="M402.26,460.46a3.17,3.17,0,0,1-.3-.61c-.19-.48-.43-1.06-.72-1.77-.63-1.54-1.48-3.8-2.49-6.61-2-5.6-4.57-13.43-7.27-22.11s-5.17-16.53-7.07-22.17c-.94-2.74-1.71-5-2.28-6.67-.24-.73-.44-1.33-.61-1.82a2.79,2.79,0,0,1-.17-.65s.13.2.3.6l.73,1.78c.63,1.54,1.47,3.8,2.48,6.6,2,5.61,4.58,13.44,7.27,22.12s5.18,16.52,7.08,22.16c.94,2.74,1.7,5,2.27,6.67.25.73.45,1.33.61,1.82A2.28,2.28,0,0,1,402.26,460.46Z" style="fill:#e0e0e0"></path><path d="M467,443.28a2.57,2.57,0,0,1-.64.23l-1.88.52-6.93,1.85c-5.85,1.56-13.9,3.82-22.8,6.32s-17,4.69-22.87,6.13c-2.94.72-5.33,1.28-7,1.64l-1.91.39a2.63,2.63,0,0,1-.68.1,2.12,2.12,0,0,1,.65-.23l1.88-.52,6.92-1.86c5.85-1.56,13.91-3.81,22.81-6.32s17-4.68,22.86-6.13c2.94-.72,5.33-1.28,7-1.63l1.91-.4A2.79,2.79,0,0,1,467,443.28Z" style="fill:#e0e0e0"></path></g><g id="freepik--Characters--inject-62"><path d="M256.91,113.75c9.49-4.64,21.3,2.62,31.22-1,6-2.21,9.92-7.93,14.95-11.9,7.53-5.94,19.1-8.55,28.23-5.61s15.3,6.64,17.95,15.86c7-5.64,21.35,2,27.21,10.62s6.3,18.46,5.42,28.86A137.64,137.64,0,0,1,367.05,202c-.73,1.41-2,3-3.52,2.61-1.06-.31-1.58-1.48-1.92-2.52-2.93-8.91-3.26-18.43-3.95-27.79s-1.81-18.94-6.13-27.27S339,131.8,329.67,131.46c-6.93-.25-13.55,3-19,7.35s-10,9.62-15,14.35-10.94,9-17.73,10.34-14.63-.66-18.54-6.39-2-15.05,4.43-17.54a13.62,13.62,0,0,1-6.9-25.82Z" style="fill:#263238"></path><path d="M313.29,269.21l-2.19-20s-26.89-.83-30.49-27.16c-1.73-12.72-3.18-39.19-4.21-63.17a49.53,49.53,0,0,1,43.38-51.28l2.55-.31C350,105.53,366.94,128,368,155.67l10.61,106.69a32.82,32.82,0,0,1-29.2,35.89h0A32.83,32.83,0,0,1,313.29,269.21Z" style="fill:#ffbe9d"></path><path d="M311.06,249.24s16.84-.71,33.18-14c0,0-5.78,20-32.39,20.88Z" style="fill:#eb996e"></path><path d="M281.72,178.66c.53.43,3.12-2,7.17-2.52s7.28,1.16,7.66.61c.19-.24-.4-1.07-1.81-1.85a10.37,10.37,0,0,0-6.2-1.1,10,10,0,0,0-5.64,2.62C281.77,177.53,281.46,178.47,281.72,178.66Z" style="fill:#263238"></path><path d="M321.39,171.64c.53.43,3.12-2,7.18-2.52s7.27,1.16,7.65.61c.19-.24-.39-1.07-1.81-1.85a10.36,10.36,0,0,0-6.2-1.11,10,10,0,0,0-5.64,2.63C321.45,170.51,321.13,171.45,321.39,171.64Z" style="fill:#263238"></path><path d="M312.62,198.81c0-.23-2.58-.36-6.73-.37-1.05,0-2.05-.07-2.31-.75s-.05-1.89.31-3.15q1-3.94,2.08-8.26c2.86-11.75,4.79-21.36,4.32-21.47s-3.18,9.32-6,21.07l-1.95,8.29c-.24,1.22-.75,2.64,0,4.13a2.61,2.61,0,0,0,1.89,1.3,7.25,7.25,0,0,0,1.79,0C310.08,199.34,312.63,199,312.62,198.81Z" style="fill:#263238"></path><path d="M324.9,200.13c-.67.05-.13,4.45-3.51,8s-8.12,3.68-8.08,4.3c0,.28,1.15.73,3.14.53a11,11,0,0,0,6.77-3.34,9.64,9.64,0,0,0,2.66-6.7C325.82,201.1,325.19,200.07,324.9,200.13Z" style="fill:#263238"></path><path d="M320.59,149.71c.53,1,4.52,0,9.34,0s8.84.8,9.34-.27c.23-.5-.57-1.46-2.25-2.33a16.23,16.23,0,0,0-14.24.19C321.12,148.23,320.35,149.2,320.59,149.71Z" style="fill:#263238"></path><path d="M281.83,161.46c.83.84,3.5-.47,6.85-.93s6.28-.15,6.81-1.19c.23-.5-.33-1.37-1.68-2.09a10,10,0,0,0-11,1.71C281.73,160.06,281.46,161.05,281.83,161.46Z" style="fill:#263238"></path><path d="M368.24,175.47c.42-.25,17.46-7.61,19.12,10.49s-16.86,16-16.94,15.52S368.24,175.47,368.24,175.47Z" style="fill:#ffbe9d"></path><path d="M375.32,194.12c.08-.07.34.19.89.38a3.15,3.15,0,0,0,2.36-.16c1.85-.88,3.18-4.06,3-7.34a10.43,10.43,0,0,0-1.29-4.43,3.67,3.67,0,0,0-2.6-2.2,1.6,1.6,0,0,0-1.78,1c-.2.53-.05.88-.14.92s-.42-.27-.34-1a2,2,0,0,1,.61-1.2,2.4,2.4,0,0,1,1.7-.62,4.45,4.45,0,0,1,3.55,2.51,10.75,10.75,0,0,1,1.56,4.94c.22,3.66-1.34,7.25-3.89,8.24A3.39,3.39,0,0,1,376,195C375.39,194.55,375.26,194.16,375.32,194.12Z" style="fill:#eb996e"></path><path d="M270.13,154.09A38.41,38.41,0,0,0,303,142.27c5.74-6.24,9.72-14.67,17.45-18.15,5.21-2.33,11.36-1.91,16.66.21s9.83,5.81,13.84,9.88c-3.44,14,1.84,28.57,7,42,.57,1.49,1.24,3.09,2.61,3.9,2.34,1.38,5.37-.3,7-2.47,1.43-1.92,3.08-3.12,3.57-5.48.4-1.91-.24-4.94-.13-6.89a74.74,74.74,0,0,0-3.81-29.22,50.85,50.85,0,0,0-17-23.77c-9.92-7.38-22.89-10.23-35.13-8.52s-23.69,7.8-32.57,16.41c-4.11,4-7.78,8.65-9.49,14.13" style="fill:#263238"></path><path d="M250.13,121a3.93,3.93,0,0,0,.35,1.55,7.4,7.4,0,0,0,3,3.4,11.57,11.57,0,0,0,7,1.41,19.5,19.5,0,0,0,4.44-.83,9.66,9.66,0,0,0,4.33-2.7,6.41,6.41,0,0,0,1.62-5.37,5.65,5.65,0,0,0-4.4-4.13,7,7,0,0,0-3.29,0,5.93,5.93,0,0,0-2.93,1.78,8.23,8.23,0,0,0-1.9,6.63A9.59,9.59,0,0,0,262,129a14.62,14.62,0,0,0,7,2.89c5.17.76,10.55-.87,15.2-3.58a68.28,68.28,0,0,0,12.33-9.69,87.59,87.59,0,0,1,11.14-9.22,27,27,0,0,1,12-4.55,25.91,25.91,0,0,1,11.13,1.43,32.2,32.2,0,0,1,13.31,9.39,44.47,44.47,0,0,1,2.77,3.55,12.22,12.22,0,0,0,.92,1.27,1.4,1.4,0,0,0-.17-.36c-.13-.23-.32-.58-.6-1a35.59,35.59,0,0,0-2.65-3.68,31.88,31.88,0,0,0-13.36-9.76,26.15,26.15,0,0,0-11.42-1.57,27.38,27.38,0,0,0-12.4,4.6A86.21,86.21,0,0,0,296,118a68.63,68.63,0,0,1-12.19,9.56c-4.55,2.65-9.71,4.2-14.63,3.49a13.66,13.66,0,0,1-6.58-2.7,8.76,8.76,0,0,1-3.38-5.7,7.48,7.48,0,0,1,1.67-6,5.45,5.45,0,0,1,5.46-1.57,4.92,4.92,0,0,1,3.89,3.54,5.75,5.75,0,0,1-1.42,4.82,9.1,9.1,0,0,1-4,2.57,19.31,19.31,0,0,1-4.3.87,11.29,11.29,0,0,1-6.8-1.21,7.41,7.41,0,0,1-3-3.18A10.8,10.8,0,0,1,250.13,121Z" style="fill:#455a64"></path><path d="M382.44,150c-.05-.16-2.09.57-5.52.8a24.94,24.94,0,0,1-22.77-11.3c-1.88-2.87-2.54-4.94-2.69-4.88a4.08,4.08,0,0,0,.37,1.48,21,21,0,0,0,1.79,3.74A24,24,0,0,0,377,151.41a20.72,20.72,0,0,0,4.06-.84A4.31,4.31,0,0,0,382.44,150Z" style="fill:#e0e0e0"></path><path d="M339.21,182.49a.5.5,0,0,0,.07-1,.5.5,0,0,0-.07,1Z" style="fill:#eb996e"></path><path d="M331.24,181.69a.58.58,0,0,0,.09-1.13.52.52,0,0,0-.49.53A.51.51,0,0,0,331.24,181.69Z" style="fill:#eb996e"></path><path d="M326,182.21c.25,0,.46-.33.46-.74s-.2-.73-.45-.73-.45.33-.45.73S325.77,182.21,326,182.21Z" style="fill:#eb996e"></path><path d="M336,187.82c.25,0,.43-.18.41-.34s-.23-.26-.48-.23-.43.18-.41.34S335.76,187.85,336,187.82Z" style="fill:#eb996e"></path><path d="M328.7,187.05a.51.51,0,1,0-.47-.49A.48.48,0,0,0,328.7,187.05Z" style="fill:#eb996e"></path><path d="M291.19,187.23a.5.5,0,0,0,.49-.48.49.49,0,0,0-.42-.54.48.48,0,0,0-.48.47A.49.49,0,0,0,291.19,187.23Z" style="fill:#eb996e"></path><path d="M285.85,187.4a.58.58,0,0,0,0-1.14.52.52,0,0,0-.43.58A.53.53,0,0,0,285.85,187.4Z" style="fill:#eb996e"></path><path d="M295.87,186.78a.4.4,0,1,0,.05-.79.42.42,0,0,0-.47.36A.42.42,0,0,0,295.87,186.78Z" style="fill:#eb996e"></path><path d="M292.61,192.54a.48.48,0,0,0,.58-.37.45.45,0,1,0-.86-.26A.48.48,0,0,0,292.61,192.54Z" style="fill:#eb996e"></path><path d="M288,192.2a.42.42,0,0,0,.27-.52.41.41,0,0,0-.56-.18.42.42,0,0,0-.27.52A.43.43,0,0,0,288,192.2Z" style="fill:#eb996e"></path><path d="M381.11,199.7a2.61,2.61,0,0,1,0,2.29,3.64,3.64,0,0,1-1.72,1.89,3.64,3.64,0,0,1-5-2.53,3.73,3.73,0,0,1,.49-2.51c.81-1.28,1.84-1.43,1.82-1.38a4.65,4.65,0,0,0-1.5,1.57,3.45,3.45,0,0,0-.34,2.23,3.09,3.09,0,0,0,1.69,2.08,3.06,3.06,0,0,0,2.68.1,3.39,3.39,0,0,0,1.58-1.6A5,5,0,0,0,381.11,199.7Z" style="fill:#263238"></path><path d="M318.58,237.62a4,4,0,0,1-1.59-.57,10.22,10.22,0,0,1-5-6.29,3.62,3.62,0,0,1-.18-1.68,16.09,16.09,0,0,0,2.43,5A16.34,16.34,0,0,0,318.58,237.62Z" style="fill:#263238"></path><path d="M319.31,235.85a9.39,9.39,0,0,1-4.52-6.65c.15,0,.68,1.71,1.94,3.54S319.41,235.73,319.31,235.85Z" style="fill:#263238"></path><path d="M322.47,235.16a12.6,12.6,0,0,1-2.8-3.14,12.47,12.47,0,0,1-2.05-3.67,27.78,27.78,0,0,1,2.48,3.37A26.73,26.73,0,0,1,322.47,235.16Z" style="fill:#263238"></path><path d="M323.71,234.33c-.15,0-.39-1.56-1-3.41s-1.36-3.26-1.23-3.34a7.58,7.58,0,0,1,1.73,3.18A7.35,7.35,0,0,1,323.71,234.33Z" style="fill:#263238"></path><path d="M326.42,234.57c-.16,0,0-1.85-.42-4.06s-1.07-3.92-.93-4a11,11,0,0,1,1.35,8Z" style="fill:#263238"></path><path d="M380.68,236.82l8.26,12.26,52.78,34.5L392.4,435.14l9.53,42H239.16l11.14-56c5-27.87,15.8-66.08,23.35-95.56,0,0,8.47-23.35,11.55-31.28l11.53-6.35,5.17-13.1,10.5-15.4L317,279.76Z" style="fill:#EB6E5E"></path><g style="opacity:0.30000000000000004"><path d="M250.78,423.05c7.11,6.94,13.13,13.43,20.68,19.88,10.06,8.58,20.6,16.77,32.46,22.61a73.44,73.44,0,0,0,39.46,7c-7,2.2-61.3-34.89-92.14-53"></path></g><path d="M254.57,363.71c.52,1,83,44.68,82.93,44.8L408,301.73s23.58-21.67,31.54-19,17.82,22.71,12.23,57.53c-3.83,23.85-11.19,31.49-22,48.32-5.75,9-25.32,41.17-38.5,62.89a46.45,46.45,0,0,1-63.77,15.66l-.22-.13c-7-4.23-46.54-29.3-76.1-47.48C232.62,408.05,218,399.76,218,399.76Z" style="fill:#EB6E5E"></path><polygon points="312.17 258.94 303.79 278.27 295.44 369.18 335.52 292.28 378.88 238.02 376.56 230.96 325.07 263.69 316.81 275.89 312.17 258.94" style="fill:#fafafa"></polygon><path d="M337.5,408.51s-.08,0-.23-.07l-.67-.27-2.53-1.07c-1.1-.46-2.43-1.06-4-1.77s-3.29-1.52-5.21-2.45c-7.71-3.69-18.15-9.17-29.51-15.54S273.85,375,266.47,370.72l-8.73-5.09-2.36-1.4-.61-.37a1.18,1.18,0,0,1-.2-.15l.23.1.63.33,2.41,1.31c2.1,1.15,5.11,2.85,8.82,4.95,7.42,4.21,17.62,10.12,29,16.49s21.77,11.89,29.42,15.65c1.9,1,3.64,1.8,5.17,2.52s2.85,1.36,3.94,1.85l2.49,1.17.64.31Z" style="fill:#263238"></path><path d="M352,438.66a6.09,6.09,0,0,1-.07-.63c0-.45-.07-1.06-.13-1.85,0-.41-.05-.86-.08-1.35l-.24-1.62c-.08-.58-.17-1.2-.27-1.87s-.31-1.36-.48-2.09a36.78,36.78,0,0,0-4-10.1,32.71,32.71,0,0,0-9.34-10.45l-.19-.13.12-.18c5.92-9,13-19.65,20.48-31.07l28.09-42.39,8.57-12.82c1-1.49,1.79-2.65,2.35-3.47l.62-.89a2,2,0,0,1,.23-.3,2.93,2.93,0,0,1-.19.33l-.58.92-2.27,3.52c-2,3.08-4.88,7.48-8.42,12.91l-28,42.48c-7.54,11.4-14.6,22.05-20.53,31l-.07-.32A33,33,0,0,1,347,419,37.12,37.12,0,0,1,351,429.19c.15.74.31,1.45.45,2.11s.16,1.3.24,1.89.14,1.12.2,1.62,0,.95.06,1.36q0,1.18.06,1.86C352,438.44,352,438.66,352,438.66Z" style="fill:#263238"></path><path d="M440,283.27a9.38,9.38,0,0,1-1.53.21c-.49,0-1.09.11-1.78.23s-1.49.2-2.35.41-1.82.36-2.82.65-2.06.61-3.17,1A45,45,0,0,0,415.07,293c-.9.75-1.77,1.44-2.51,2.17s-1.45,1.38-2.06,2-1.14,1.25-1.6,1.77-.85,1-1.15,1.39a9.16,9.16,0,0,1-1,1.18,8.5,8.5,0,0,1,.83-1.3,17.09,17.09,0,0,1,1.09-1.45c.45-.55.94-1.2,1.56-1.84s1.26-1.38,2-2.09,1.61-1.46,2.5-2.22a42.57,42.57,0,0,1,13.39-7.37c1.12-.35,2.19-.7,3.22-.93s2-.44,2.85-.6,1.68-.24,2.38-.33a17,17,0,0,1,1.81-.14A8.27,8.27,0,0,1,440,283.27Z" style="fill:#263238"></path><path d="M392.4,253.45s0,.09-.11.24l-.35.69c-.33.6-.76,1.51-1.43,2.64a75,75,0,0,1-6.37,9.26,77.34,77.34,0,0,1-30.95,23.14l.07-.42a8,8,0,0,1,2.66,5.41,12.29,12.29,0,0,1-1.07,6.18,36.28,36.28,0,0,1-3.14,5.64c-1.19,1.81-2.35,3.68-3.61,5.51a284.51,284.51,0,0,1-18.57,24.74c-6.14,7.26-12,13.48-17.19,18.51a203.18,203.18,0,0,1-17.43,15.4s.09-.1.29-.28l.91-.79,3.51-3c3-2.64,7.36-6.53,12.46-11.58s11-11.28,17.08-18.55a289.67,289.67,0,0,0,18.51-24.72c1.25-1.83,2.41-3.69,3.6-5.5a36.37,36.37,0,0,0,3.11-5.55,12,12,0,0,0,1-5.94,7.54,7.54,0,0,0-2.48-5.08l-.31-.26L353,289a77.92,77.92,0,0,0,30.89-22.87,77.71,77.71,0,0,0,6.46-9.16c.69-1.11,1.15-2,1.5-2.59l.39-.67A1.48,1.48,0,0,1,392.4,253.45Z" style="fill:#263238"></path><path d="M292.53,291.34a3.81,3.81,0,0,1-.09.78c-.09.56-.2,1.3-.35,2.24-.32,1.93-.74,4.74-1.2,8.22s-.92,7.63-1.31,12.25-.65,9.71-.77,15.06,0,10.46.19,15.09.5,8.8.84,12.29.64,6.32.89,8.26c.11.94.19,1.69.26,2.25a4.25,4.25,0,0,1,.05.79,6.15,6.15,0,0,1-.16-.77c-.08-.56-.2-1.31-.35-2.24-.32-1.94-.68-4.76-1.06-8.25s-.71-7.67-1-12.31-.32-9.75-.23-15.12.42-10.46.81-15.09.91-8.79,1.42-12.26,1-6.28,1.37-8.21q.28-1.38.45-2.22A4.26,4.26,0,0,1,292.53,291.34Z" style="fill:#263238"></path><path d="M339.62,284.56a26.45,26.45,0,0,1-1.78-2.79c-1.06-1.74-2.57-4.12-4.35-6.67s-3.5-4.78-4.77-6.37a25,25,0,0,1-2-2.62,16.9,16.9,0,0,1,2.3,2.38,77.62,77.62,0,0,1,4.92,6.31,75.8,75.8,0,0,1,4.24,6.78A17.18,17.18,0,0,1,339.62,284.56Z" style="fill:#263238"></path><path d="M317.6,276.23a5.49,5.49,0,0,1,.74-1.72,21.82,21.82,0,0,1,2.55-3.72,22.62,22.62,0,0,1,3.23-3.15,5.61,5.61,0,0,1,1.57-1c.1.13-2.17,1.85-4.4,4.51S317.74,276.3,317.6,276.23Z" style="fill:#263238"></path><path d="M307.63,272.34a15.55,15.55,0,0,1,1.35-2.52l1.59-2.66.95-1.56a3.62,3.62,0,0,1,.29-.43.71.71,0,0,1,.66-.27c.57.17.64.64.76.94.83,2.56,1.56,4.89,2.06,6.58a15.81,15.81,0,0,1,.7,2.77,15.57,15.57,0,0,1-1.06-2.66c-.58-1.66-1.36-4-2.19-6.53-.08-.3-.26-.59-.36-.59s-.26.17-.43.46l-1,1.55c-.6.94-1.17,1.81-1.68,2.6A13.87,13.87,0,0,1,307.63,272.34Z" style="fill:#263238"></path><path d="M334.53,267.73c-1.7-.63-3.56.29-5.11,1.24a82.7,82.7,0,0,0-12.32,9.24,3.24,3.24,0,0,0-3-2.76,3.27,3.27,0,0,0-2.84,1.65,33.2,33.2,0,0,0-9-9.41,7.13,7.13,0,0,0-3.69-1.56c-2.87-.09-4.86,2.77-6,5.4a45.1,45.1,0,0,0-3.39,11.77c-.34,2.35-.35,5.11,1.44,6.66s4.18,1.2,6.3.61a26,26,0,0,0,13.57-9.24,3.07,3.07,0,1,0,5.53,1.42c.63,3.39,1.42,6.86,3.53,9.57,2.23,2.87,6.42,4.57,9.63,2.85,2.23-1.19,3.44-3.66,4.34-6A58.45,58.45,0,0,0,337,274.56C337.31,272,337,268.63,334.53,267.73Z" style="fill:#EB6E5E"></path><g style="opacity:0.30000000000000004"><path d="M334.53,267.73c-1.7-.63-3.56.29-5.11,1.24a82.7,82.7,0,0,0-12.32,9.24,3.24,3.24,0,0,0-3-2.76,3.27,3.27,0,0,0-2.84,1.65,33.2,33.2,0,0,0-9-9.41,7.13,7.13,0,0,0-3.69-1.56c-2.87-.09-4.86,2.77-6,5.4a45.1,45.1,0,0,0-3.39,11.77c-.34,2.35-.35,5.11,1.44,6.66s4.18,1.2,6.3.61a26,26,0,0,0,13.57-9.24,3.07,3.07,0,1,0,5.53,1.42c.63,3.39,1.42,6.86,3.53,9.57,2.23,2.87,6.42,4.57,9.63,2.85,2.23-1.19,3.44-3.66,4.34-6A58.45,58.45,0,0,0,337,274.56C337.31,272,337,268.63,334.53,267.73Z"></path></g><path d="M285.2,294.28l-14.88,15,3.33,17C273.4,327.05,285.2,294.28,285.2,294.28Z" style="fill:#EB6E5E"></path><g style="opacity:0.30000000000000004"><path d="M337.5,408.51c3.39,4.13,6,9.25,6.25,14.77s-.89,11-1.4,16.53c-.17,1.93-.07,4.26,1.6,5.24a3.34,3.34,0,0,0,2.91.11,6.13,6.13,0,0,0,2.34-1.86,10.4,10.4,0,0,0,2.51-8.51c-1-9.75-5.38-20.7-14.21-26.28"></path></g><g style="opacity:0.30000000000000004"><path d="M295.72,369.46a98.87,98.87,0,0,0,61.21-58.32c1.78-4.72,3.19-9.93,1.69-14.74-.52-1.69-1.41-3.45-.91-5.15.62-2.14,3.05-3.07,5.12-3.92,8.7-3.54,17.28-11.67,20.67-20.43-.19-.4-16,17.45-30.4,22.29,0,0,2.44,4.44-.88,15.75C348.54,317.49,302.49,364.81,295.72,369.46Z"></path></g><path d="M346.92,334.16a13.42,13.42,0,0,1-7.55-9.45,18,18,0,0,1,1.89-12.15,12,12,0,0,1,4.36-4.93,6.48,6.48,0,0,1,6.36-.29,4.5,4.5,0,0,1,1.91,5.72,24.14,24.14,0,0,1,6.34-4.45,8.11,8.11,0,0,1,7.46.3,8.57,8.57,0,0,1,3.35,6.16c.77,6-2.53,12.15-7.57,15.52a21.61,21.61,0,0,1-16.73,3.57" style="fill:#fafafa"></path><path d="M361,320.17a2.49,2.49,0,0,1-.31.76,19.56,19.56,0,0,1-1.07,1.95,29.13,29.13,0,0,1-10.57,10,21.1,21.1,0,0,1-2,1,2.53,2.53,0,0,1-.78.26c0-.08,1-.58,2.59-1.55a34.52,34.52,0,0,0,5.75-4.38,35,35,0,0,0,4.7-5.5C360.36,321.15,360.92,320.13,361,320.17Z" style="fill:#263238"></path><path d="M348.64,311.34c.74-1.62,5.22-6.32,6.69-7.32a5.77,5.77,0,0,1,2.55-1,3.24,3.24,0,0,1,2.6.75,3.42,3.42,0,0,1,1,2.61c0,1-3.15,7.48-3.52,8.36" style="fill:#fff"></path><path d="M346.27,335.08a4.53,4.53,0,0,1,.84,0c.55,0,1.36,0,2.39-.1a29.67,29.67,0,0,0,8.56-1.85,21.33,21.33,0,0,0,10.1-7.82,17.26,17.26,0,0,0,2.82-7,12.14,12.14,0,0,0,0-4,8.34,8.34,0,0,0-1.57-3.73,6.08,6.08,0,0,0-3.33-2.16,8.16,8.16,0,0,0-3.93,0,15.54,15.54,0,0,0-6.53,3.76,27,27,0,0,0-7.32,10.59,27.86,27.86,0,0,0-1.87,8.55c0,1-.05,1.85,0,2.39a4.9,4.9,0,0,1,0,.84,4.91,4.91,0,0,1-.1-.83c-.06-.55-.07-1.36-.07-2.41a27.55,27.55,0,0,1,9.07-19.49,16.06,16.06,0,0,1,6.73-3.9,8.82,8.82,0,0,1,4.18,0,6.59,6.59,0,0,1,3.61,2.34,8.78,8.78,0,0,1,1.67,4,12.36,12.36,0,0,1,0,4.16,17.71,17.71,0,0,1-2.92,7.21,20.93,20.93,0,0,1-4.94,5,22.68,22.68,0,0,1-5.43,2.87,28.61,28.61,0,0,1-8.67,1.7c-1,0-1.86,0-2.41,0A5.06,5.06,0,0,1,346.27,335.08Z" style="fill:#263238"></path><path d="M354.07,313.71a6.37,6.37,0,0,0-.08-2.84,5.41,5.41,0,0,0-1.66-2.53,5.72,5.72,0,0,0-3.43-1.29,7.05,7.05,0,0,0-3.63.82,8.89,8.89,0,0,0-2.42,1.93,26.05,26.05,0,0,0-1.7,2.36,1.86,1.86,0,0,1,.26-.76,9.21,9.21,0,0,1,1.15-1.84,8.55,8.55,0,0,1,2.48-2.11,7.23,7.23,0,0,1,3.88-.92,6.09,6.09,0,0,1,3.73,1.44,5.56,5.56,0,0,1,1.69,2.8,4.61,4.61,0,0,1,0,2.19A1.69,1.69,0,0,1,354.07,313.71Z" style="fill:#263238"></path><path d="M345.91,333.85a10.39,10.39,0,0,1-1.11-2.46,29.41,29.41,0,0,1-1.52-12.89,10.15,10.15,0,0,1,.5-2.66,19,19,0,0,1-.13,2.69,37.62,37.62,0,0,0,.19,6.44,38.69,38.69,0,0,0,1.31,6.3A21.92,21.92,0,0,1,345.91,333.85Z" style="fill:#263238"></path><path d="M358.41,304.94c.11.1-1.1,1.52-2.24,3.49s-1.8,3.72-1.95,3.67a12.81,12.81,0,0,1,4.19-7.16Z" style="fill:#263238"></path><path d="M344.87,339.87c3.54-3.39,8.42-5.13,13.29-5.65a55.34,55.34,0,0,1,14.63.87,21,21,0,0,1-12.05,7.24c-4.68.93-11.66.16-15.87-2.1" style="fill:#455a64"></path><path d="M364.3,337.87a23.15,23.15,0,0,1-2.94,0,66,66,0,0,0-7.05.38,65.08,65.08,0,0,0-7,1.19,24.66,24.66,0,0,1-2.87.62,12.52,12.52,0,0,1,2.78-1,45.09,45.09,0,0,1,14.12-1.58A13.48,13.48,0,0,1,364.3,337.87Z" style="fill:#263238"></path><path d="M441.56,370.39s-.11.24-.35.68l-1.08,2c-1,1.74-2.41,4.27-4.24,7.54-3.72,6.53-9.16,16-16.12,27.45-3.49,5.75-7.35,12-11.63,18.66s-8.95,13.69-14.11,20.92l-4,5.43-4.31,5.41c-.74.9-1.54,1.75-2.32,2.64s-1.54,1.79-2.4,2.62a33.56,33.56,0,0,1-12.14,7.91,38.43,38.43,0,0,1-7.23,1.89,49.08,49.08,0,0,1-15.2-.17,69.36,69.36,0,0,1-19.21-6.15h0l-77.51-48.46L226.4,404.86l-6.27-3.77-1.62-1-.54-.35.57.31,1.64.94,6.31,3.69,23.37,13.74c19.61,12.06,46.8,29.11,77.61,48.32h0a68.57,68.57,0,0,0,19,6.08,48.69,48.69,0,0,0,15,.18,38.91,38.91,0,0,0,7.13-1.86,35.28,35.28,0,0,0,6.46-3.27,35.94,35.94,0,0,0,5.51-4.52c.84-.82,1.58-1.74,2.38-2.6s1.57-1.73,2.31-2.62l4.3-5.38,4-5.42c5.16-7.22,9.88-14.22,14.14-20.87s8.16-12.89,11.67-18.62c7-11.47,12.49-20.86,16.26-27.36L440,373l1.12-1.95C441.42,370.61,441.56,370.39,441.56,370.39Z" style="fill:#263238"></path><path d="M289.81,385.77a70.67,70.67,0,0,1,2-8.42,72.32,72.32,0,0,1,2.47-8.29,70.67,70.67,0,0,1-2,8.42A70,70,0,0,1,289.81,385.77Z" style="fill:#263238"></path><path d="M264.52,477.1c-.14,0,1.4-9.69,3.45-21.58s3.82-21.52,4-21.49-1.4,9.68-3.45,21.58S264.66,477.13,264.52,477.1Z" style="fill:#263238"></path><path d="M168.89,186.5l8.54,42.43,18.79,38.13,24.53-17.26,8-23.1,6.68-19.38s27,5.22,36.47-20.2c4.59-12.27,12-38.31,18.41-62A50.59,50.59,0,0,0,258.6,64.32l-2.47-.88C229,55.43,207.05,74,199.8,101.32L168.89,186.5" style="fill:#aa6550"></path><path d="M235.42,207.31s-16.6-4.49-29.88-21.44c0,0,1.26,21.21,27.56,28.08Z" style="fill:#723c31"></path><path d="M278.31,141.25a3.87,3.87,0,0,1-4.84,2.41,3.71,3.71,0,0,1-2.58-4.64,3.89,3.89,0,0,1,4.84-2.42A3.72,3.72,0,0,1,278.31,141.25Z" style="fill:#263238"></path><path d="M281.15,134.46c-.62.31-2.65-2.73-6.58-4.13s-7.51-.48-7.76-1.11c-.13-.29.64-1,2.22-1.44a10.61,10.61,0,0,1,6.43.3,10.21,10.21,0,0,1,5,3.88C281.35,133.32,281.45,134.32,281.15,134.46Z" style="fill:#263238"></path><path d="M241,127a3.88,3.88,0,0,1-4.84,2.41,3.71,3.71,0,0,1-2.58-4.64,3.89,3.89,0,0,1,4.84-2.42A3.72,3.72,0,0,1,241,127Z" style="fill:#263238"></path><path d="M242.45,119.28c-.59.38-2.93-2.42-7-3.39s-7.51.34-7.83-.26c-.17-.28.52-1,2.05-1.68a10.64,10.64,0,0,1,6.42-.4,10.23,10.23,0,0,1,5.41,3.32C242.52,118.12,242.73,119.11,242.45,119.28Z" style="fill:#263238"></path><path d="M245.22,156.73c.06-.23,2.65.23,6.79,1.15,1,.25,2.05.4,2.47-.23s.47-1.87.4-3.21q-.1-4.14-.22-8.69c-.2-12.35,0-22.35.53-22.35s1.07,10,1.27,22.34q0,4.55.08,8.69c0,1.28.16,2.81-.9,4.12a2.68,2.68,0,0,1-2.17.88,7.47,7.47,0,0,1-1.79-.38C247.63,157.83,245.15,157,245.22,156.73Z" style="fill:#263238"></path><path d="M232.7,155.29c.65.19-.88,4.46,1.68,8.79s7.26,5.5,7.08,6.11c0,.28-1.31.46-3.25-.18a11.24,11.24,0,0,1-6-4.85,9.84,9.84,0,0,1-1.14-7.28C231.56,156.05,232.41,155.16,232.7,155.29Z" style="fill:#263238"></path><path d="M246.62,106.19c-.69,1-4.57-.61-9.45-1.31s-9-.43-9.41-1.58c-.15-.54.79-1.39,2.61-2a15.91,15.91,0,0,1,7.44-.56,15.74,15.74,0,0,1,6.93,2.76C246.29,104.62,246.93,105.71,246.62,106.19Z" style="fill:#263238"></path><path d="M282.93,123.79c-1,.64-3.38-1.26-6.61-2.47s-6.22-1.56-6.52-2.73c-.11-.55.64-1.28,2.15-1.7a10.25,10.25,0,0,1,10.58,4.19C283.35,122.41,283.39,123.46,282.93,123.79Z" style="fill:#263238"></path><path d="M195.08,121c-.37-.35-15.68-11.51-21.41,6.15s13.19,19.76,13.38,19.27S195.08,121,195.08,121Z" style="fill:#aa6550"></path><path d="M183.83,138c-.06-.08-.38.11-1,.18a3.19,3.19,0,0,1-2.31-.7c-1.65-1.29-2.26-4.76-1.31-8a10.71,10.71,0,0,1,2.29-4.12,3.72,3.72,0,0,1,3.08-1.61,1.64,1.64,0,0,1,1.54,1.43c.08.57-.15.89-.07,1s.48-.18.57-1a2.07,2.07,0,0,0-.33-1.33,2.44,2.44,0,0,0-1.56-1c-1.39-.35-3,.5-4.1,1.69a11,11,0,0,0-2.66,4.58c-1,3.59-.3,7.51,2,9.08a3.47,3.47,0,0,0,3,.44C183.66,138.37,183.88,138,183.83,138Z" style="fill:#723c31"></path><path d="M303.83,96.38c.45-3.65-.89-7.79-4.14-9.54a8.44,8.44,0,0,0-9.09-13.72c2.13-5.24-2.86-11.89-8.49-11.3a7.32,7.32,0,0,0-11.54-8.39c-1.39-7.58-11.31-12.09-17.94-8.16-6.07-5-16-4.3-21.33,1.5a15.34,15.34,0,0,0-16.25,5.33,11.19,11.19,0,0,0-13.73,13.67c-5.18.54-8.61,7.2-6,11.73a8.15,8.15,0,0,0-4.78,13.93c-2.69-.61-4.94,2.41-5.06,5.16s1,5.41,1.17,8.16c.13,2.26-.41,4.51-.42,6.78a14.72,14.72,0,0,0,5.27,11.19l-.64.36c-1.27,2.07,1.3,4.73,3.72,4.6s4.4-1.87,6.32-3.36c2.18-1.72,4.59-3.27,6.14-5.58s2-5.69.07-7.73c3.38.09,6.43-2.28,8.13-5.2s2.29-6.33,2.86-9.65q1.26-7.36,2.51-14.73A18.54,18.54,0,0,0,239.2,77c3.26,5.12,11.51,6,15.77,1.67-.23,7,5.94,13.54,12.92,13.74-2,3.36,3.29,9.06,6.5,11.29S283,105,283,105s4.81,5.81,8.64,5.69,9.7-2.75,8.78-7C300.37,103.7,303.38,100,303.83,96.38Z" style="fill:#263238"></path><path d="M194.41,77.13c.19,0-.16,1.3.92,2.88A3.54,3.54,0,0,0,198,81.55a3.72,3.72,0,0,0,3.36-1.7l.59-1,.55,1a4.82,4.82,0,0,0,8.9-1.17l.25-1.07.81.73a4.85,4.85,0,0,0,6.36.14c1.37-1.15,1.64-2.31,1.81-2.24s.13,1.3-1.28,2.81a5.46,5.46,0,0,1-3.26,1.61,5.9,5.9,0,0,1-4.49-1.36l1.05-.33a6.06,6.06,0,0,1-11.31,1.49l1.14,0a4.81,4.81,0,0,1-4.59,2.11,4.31,4.31,0,0,1-3.24-2.21C193.59,78.4,194.34,77,194.41,77.13Z" style="fill:#455a64"></path><path d="M185.75,92.91c.12-.08.45.71,1.6,1.4a4.44,4.44,0,0,0,5.06-.28l.56-.48.3.69a5,5,0,0,0,4,2.84A4.79,4.79,0,0,0,202,94.19l.47-1.13.74,1a3.45,3.45,0,0,0,.67.65,3.4,3.4,0,0,0,4,.1,3.59,3.59,0,0,0,1.4-3.43L209,90.05l1.16.63a5.83,5.83,0,0,0,7.31-1.48,12.84,12.84,0,0,0,1.49-2.9c.09,0,.34,1.38-.89,3.34a6.36,6.36,0,0,1-3.22,2.5,6.81,6.81,0,0,1-5.27-.35l.9-.68a4.7,4.7,0,0,1-8.36,3.76l1.21-.15a5.95,5.95,0,0,1-11-.07l.86.2a4.74,4.74,0,0,1-3.56,1,5.11,5.11,0,0,1-2.55-1C185.8,93.85,185.68,92.91,185.75,92.91Z" style="fill:#455a64"></path><path d="M280,60.5a6.88,6.88,0,0,0-1.56-1.84,4,4,0,0,0-2.6-.78,4,4,0,0,0-3,1.76l-.6.91-.2-1.08a6.8,6.8,0,0,0-4.29-5,6.58,6.58,0,0,0-7.34,2.31l-.75,1-.38-1.22a8.24,8.24,0,0,0-5-5.07,8,8,0,0,0-9.56,3.66l-.38.66-.62-.42a7.92,7.92,0,0,0-9.73.89,8.09,8.09,0,0,0-1.71,8.6l.41,1-1-.18a8.75,8.75,0,0,0-6.44,1.46,8.57,8.57,0,0,0-3.12,4.1,12.85,12.85,0,0,0-.61,4.56s-.22-.39-.33-1.21a8.64,8.64,0,0,1,.33-3.55,9,9,0,0,1,3.2-4.64,9.65,9.65,0,0,1,7.16-1.83l-.61.78a9,9,0,0,1,13.25-11.09l-1,.24A9,9,0,0,1,246,51.68a9.22,9.22,0,0,1,8.76-1.41,9.45,9.45,0,0,1,5.74,6l-1.13-.19a7.55,7.55,0,0,1,13.54,3.26l-.8-.17a4.7,4.7,0,0,1,3.73-1.95,4.34,4.34,0,0,1,2.93,1.09,4.17,4.17,0,0,1,1.12,1.56C280,60.26,280,60.49,280,60.5Z" style="fill:#455a64"></path><path d="M234.37,233.12c.24.89,7.49,13.61,7.49,13.61L261.19,261l14.07,60.21-12.33,47.18-8.36-4.65L218,399.76,239,418.53l10.12,17.23-39.55-16.34,10.87-161.91Z" style="fill:#263238"></path><path d="M238.08,286.93l-7.88-44.54,7.88,4.34-5.19-19-3.3-3.53-4.84,14.67-2.29-7-52-53.92s-5.45,6-5.72,6.47l-2.6,3.93,24.27,50.11L229.64,348l10.14-38.65Z" style="fill:#fafafa"></path><path d="M96.35,229.66l54.47-26.45L160.31,184l3.81,3.76h0s28.53,32.2,35.79,45.84,23,40.73,24.9,65.39c1,12.17-6.84,100.79-6.84,100.79l33.27,19.74-7.36,57.6H85.4l15.08-58.56Z" style="fill:#263238"></path><path d="M223.81,340.43c-1-1-53.07-96.54-59-107.43l-.19-.35,9.42-8.28-15.33-7.75L151.29,203l.88-.48,7.27,13.39,16.37,8.27-9.93,8.74c19.88,36.5,57.47,105.32,58.66,106.87Z" style="fill:#263238"></path><path d="M224.16,238.69a13.5,13.5,0,0,1-1.11-1.82l-2.75-4.93.39-.05c-.7,2.84-1.55,6.22-2.45,9.87l-2.58,10-.08.34-.26-.23c-1.69-1.47-3.11-2.72-4.19-3.67a14.65,14.65,0,0,1-1.52-1.44,13.53,13.53,0,0,1,1.68,1.26l4.3,3.53-.34.11,2.48-10c.94-3.65,1.82-7,2.55-9.86l.14-.54.25.49c1.05,2,1.92,3.73,2.59,5A13.58,13.58,0,0,1,224.16,238.69Z" style="fill:#263238"></path><path d="M100.52,228.35s26.12,3.87,33.61,11.33,13.55,44.53,13.55,44.53L125.31,367.3l41.27-23.08,21.72,37.2-83.65,69.21L56,435.34l-4.6-14S72.23,277,74.65,269.7s7.25-23.46,7.25-23.46S91.09,229.07,100.52,228.35Z" style="fill:#263238"></path><path d="M231.63,292c-.14,0-1.69-11.95-3.45-26.71s-3.07-26.76-2.93-26.77,1.69,11.94,3.45,26.71S231.77,292,231.63,292Z" style="fill:#263238"></path><path d="M235.85,245.39a4.45,4.45,0,0,1-.38-1c-.2-.66-.49-1.62-.84-2.8-.68-2.37-1.6-5.66-2.58-9.29-.21-.79-.42-1.56-.62-2.3l.45.1c-2,2.47-3.82,4.64-5.13,6.17-.65.77-1.18,1.38-1.55,1.8s-.58.62-.61.6a3.28,3.28,0,0,1,.47-.72c.33-.45.82-1.09,1.43-1.89,1.24-1.59,3-3.8,5-6.29l.32-.39.13.49.62,2.29c1,3.64,1.84,6.94,2.44,9.33.3,1.2.53,2.17.68,2.85A3.9,3.9,0,0,1,235.85,245.39Z" style="fill:#263238"></path><path d="M246.23,272.51a13.84,13.84,0,0,1-7.77-9.72,18.45,18.45,0,0,1,1.95-12.51,12.39,12.39,0,0,1,4.49-5.07,6.7,6.7,0,0,1,6.54-.3,4.64,4.64,0,0,1,2,5.89,24.29,24.29,0,0,1,6.52-4.57,8.3,8.3,0,0,1,7.67.3,8.8,8.8,0,0,1,3.45,6.34c.8,6.19-2.6,12.5-7.79,16a22.29,22.29,0,0,1-17.21,3.67" style="fill:#EB6E5E"></path><path d="M260.71,258.12s-.08.29-.31.78a20.21,20.21,0,0,1-1.11,2,29.8,29.8,0,0,1-10.87,10.29,21.16,21.16,0,0,1-2.06,1c-.5.2-.78.3-.8.26s1-.59,2.67-1.58a35.76,35.76,0,0,0,5.92-4.51A36.23,36.23,0,0,0,259,260.7C260.06,259.12,260.64,258.08,260.71,258.12Z" style="fill:#263238"></path><path d="M248,249c.75-1.67,5.36-6.5,6.88-7.53a6.06,6.06,0,0,1,2.62-1.09,3.37,3.37,0,0,1,2.67.77,3.53,3.53,0,0,1,1,2.7c0,1-3.24,7.69-3.63,8.6" style="fill:#EB6E5E"></path><path d="M245.56,273.46a5.32,5.32,0,0,1,.87,0c.56,0,1.39,0,2.46-.1a30.7,30.7,0,0,0,8.81-1.89,23.69,23.69,0,0,0,5.46-3,21.19,21.19,0,0,0,4.93-5.09,17.8,17.8,0,0,0,2.9-7.23,12.27,12.27,0,0,0,0-4.1,8.53,8.53,0,0,0-1.61-3.85A6.28,6.28,0,0,0,266,246a8.54,8.54,0,0,0-4.05,0,16.06,16.06,0,0,0-6.72,3.88,27.74,27.74,0,0,0-7.54,10.9,28.75,28.75,0,0,0-1.91,8.8c0,1.06-.06,1.9,0,2.46a5.16,5.16,0,0,1,0,.86,6.35,6.35,0,0,1-.09-.85,23.21,23.21,0,0,1-.08-2.48,28.42,28.42,0,0,1,9.34-20,16.35,16.35,0,0,1,6.92-4,9.06,9.06,0,0,1,4.3,0,6.86,6.86,0,0,1,3.71,2.41A9,9,0,0,1,271.5,252a12.75,12.75,0,0,1,0,4.27,18.4,18.4,0,0,1-3,7.42,21.19,21.19,0,0,1-5.08,5.17,23.22,23.22,0,0,1-5.58,2.95,29.34,29.34,0,0,1-8.93,1.76c-1.07,0-1.91,0-2.48,0A5.36,5.36,0,0,1,245.56,273.46Z" style="fill:#263238"></path><path d="M253.58,251.46a6.24,6.24,0,0,0-.07-2.92,5.61,5.61,0,0,0-1.7-2.61,6,6,0,0,0-3.54-1.32,7.15,7.15,0,0,0-3.74.84,9.48,9.48,0,0,0-2.5,2c-1.21,1.38-1.65,2.48-1.74,2.43a2.08,2.08,0,0,1,.27-.77,9.39,9.39,0,0,1,1.19-1.9A8.76,8.76,0,0,1,244.3,245a7.42,7.42,0,0,1,4-.94,6.19,6.19,0,0,1,3.83,1.48,5.71,5.71,0,0,1,1.74,2.87,4.8,4.8,0,0,1,0,2.26C253.77,251.22,253.61,251.47,253.58,251.46Z" style="fill:#263238"></path><path d="M245.19,272.19a10.65,10.65,0,0,1-1.13-2.53,30.51,30.51,0,0,1-1.57-13.26,11,11,0,0,1,.51-2.74,21.41,21.41,0,0,1-.14,2.77,37.84,37.84,0,0,0,.2,6.62,38.28,38.28,0,0,0,1.35,6.49A23.51,23.51,0,0,1,245.19,272.19Z" style="fill:#263238"></path><path d="M258.05,242.44c.11.1-1.14,1.56-2.31,3.59s-1.85,3.83-2,3.78a9.67,9.67,0,0,1,1.54-4A9.77,9.77,0,0,1,258.05,242.44Z" style="fill:#263238"></path><path d="M244.12,278.38c3.65-3.48,8.66-5.27,13.68-5.8a57.23,57.23,0,0,1,15.05.88,21.65,21.65,0,0,1-12.39,7.46c-4.83,1-12,.16-16.34-2.17" style="fill:#455a64"></path><path d="M264.11,276.33a24.42,24.42,0,0,1-3,0A61.87,61.87,0,0,0,246.66,278a26.76,26.76,0,0,1-2.95.64,13.73,13.73,0,0,1,2.86-1,46.45,46.45,0,0,1,7.2-1.38,45.72,45.72,0,0,1,7.32-.24A12.67,12.67,0,0,1,264.11,276.33Z" style="fill:#263238"></path><path d="M139.56,281.31a3.81,3.81,0,0,1,0-.74c0-.53,0-1.23,0-2.11a75.47,75.47,0,0,0-.59-7.75,62.54,62.54,0,0,0-2.59-11.2,54.39,54.39,0,0,0-6.15-12.64,44.93,44.93,0,0,0-9.44-10.35,38.2,38.2,0,0,0-9.92-5.73,35.55,35.55,0,0,0-7.47-2c-.9-.19-1.62-.22-2.1-.3a3.64,3.64,0,0,1-.73-.12,3.77,3.77,0,0,1,.74,0,18.87,18.87,0,0,1,2.12.2,33.51,33.51,0,0,1,7.58,1.87,38,38,0,0,1,10.07,5.7,44.46,44.46,0,0,1,9.59,10.44,53.83,53.83,0,0,1,6.16,12.77,59.86,59.86,0,0,1,2.5,11.31,62.27,62.27,0,0,1,.43,7.8c0,.92-.06,1.63-.09,2.12A4.45,4.45,0,0,1,139.56,281.31Z" style="fill:#455a64"></path><path d="M95.82,381.82c.07.09-1.37,1-3.33,2.86a28.6,28.6,0,0,0-3.13,3.57,28.58,28.58,0,0,0-4.81,10.49,28.36,28.36,0,0,0-.66,4.7c-.14,2.7.11,4.38,0,4.39a4.94,4.94,0,0,1-.22-1.17,9.84,9.84,0,0,1-.13-1.39,18.23,18.23,0,0,1,0-1.85,25.87,25.87,0,0,1,.56-4.79A27.34,27.34,0,0,1,89,388a26.38,26.38,0,0,1,3.26-3.55,18,18,0,0,1,1.42-1.18,9.24,9.24,0,0,1,1.14-.81A5.21,5.21,0,0,1,95.82,381.82Z" style="fill:#455a64"></path><path d="M56,435.34l.7.19,2,.61,7.8,2.4,12.33,3.83,7.69,2.4,4.2,1.31a37.33,37.33,0,0,0,4.45,1.23,23.68,23.68,0,0,0,19.32-4.81l18.54-14.88c13-10.53,27.27-22.21,41.9-34.84,4.48-3.88,8.87-7.75,13.14-11.56l0,.33L166.74,345l.32.08c-20.66,11.75-38.52,20.88-51.14,27.17-6.32,3.13-11.34,5.55-14.78,7.17l-4,1.83-1,.47a3.27,3.27,0,0,1-.35.14,3.58,3.58,0,0,1,.34-.18l1-.49,3.91-1.91c3.42-1.66,8.42-4.11,14.72-7.28,12.59-6.36,30.41-15.55,51-27.32l.2-.12.12.2c6.57,11.24,13.78,23.56,21.38,36.57l.11.18-.16.14c-4.26,3.81-8.65,7.68-13.14,11.56-14.63,12.64-28.89,24.31-41.94,34.82l-18.58,14.85a23.94,23.94,0,0,1-19.65,4.83,37.11,37.11,0,0,1-4.48-1.25l-4.2-1.33-7.68-2.44-12.3-3.91-7.77-2.5-2-.66Z" style="fill:#455a64"></path><path d="M139.56,290.62c.14,0-3.21,17.1-7.47,38.13s-7.83,38.07-8,38,3.21-17.1,7.47-38.14S139.42,290.59,139.56,290.62Z" style="fill:#455a64"></path><path d="M196,289.09a3.1,3.1,0,0,1-.18-.69c-.1-.5-.25-1.17-.43-2-.36-1.83-.89-4.42-1.55-7.7l.22.11c-2.21,1.05-4.81,2.46-8.07,2.75a9.32,9.32,0,0,1-5-1,6.36,6.36,0,0,1-3.34-4.33,26.07,26.07,0,0,1-.33-5.88c0-2,0-4.07-.17-6.17a94.12,94.12,0,0,0-1.64-13.07,101.9,101.9,0,0,0-6.24-20.33,99.65,99.65,0,0,0-8.18-15.34l-1-1.52c-.33-.49-.68-.95-1-1.41l-1.83-2.57c-1.22-1.54-2.25-2.89-3.13-4l-2.08-2.43-.53-.64c-.11-.15-.17-.22-.16-.23a1.37,1.37,0,0,1,.2.2l.57.6,2.16,2.37c.9,1.05,2,2.39,3.21,3.92l1.86,2.55c.33.46.68.92,1,1.4s.65,1,1,1.52a97.27,97.27,0,0,1,8.31,15.35A100.66,100.66,0,0,1,176.06,251a92.24,92.24,0,0,1,1.63,13.14c.16,2.11.15,4.19.16,6.2a25.35,25.35,0,0,0,.29,5.77,6,6,0,0,0,3.09,4.06,8.89,8.89,0,0,0,4.74.95c3.15-.25,5.75-1.61,8-2.62l.18-.09,0,.2c.59,3.28,1.07,5.89,1.4,7.71.15.87.27,1.55.35,2.05,0,.22.06.39.08.53S196,289.09,196,289.09Z" style="fill:#455a64"></path><path d="M230.71,478a5.92,5.92,0,0,1,0-.69c0-.51.12-1.17.2-2,.18-1.72.42-4.22.7-7.31.56-6.19,1.15-14.74,1.38-24.21s0-18-.25-24.25c-.13-3.1-.26-5.61-.36-7.34,0-.83-.08-1.49-.1-2a3.1,3.1,0,0,1,0-.7,3.57,3.57,0,0,1,.1.69c.05.51.12,1.17.2,2,.16,1.73.35,4.24.53,7.34.36,6.2.62,14.79.4,24.28S232.66,461.83,232,468c-.33,3.09-.63,5.59-.87,7.31-.12.82-.22,1.47-.29,2A2.77,2.77,0,0,1,230.71,478Z" style="fill:#455a64"></path><path d="M237.19,302.35s16.45-3.68,21-3.48c5.05.23,7.09,6,2.64,9.38-2.95,2.26-12.27,7.49-12.27,7.49l-11.37-13.39" style="fill:#aa6550"></path><path d="M191.8,293.23s22.29-11.42,23.5-10.78c2.43,1.29,17.55,7.33,17.55,7.33L256,323.71s-6.53,34.77-6.33,35.64,3.13,6.08,3.13,6.08l-28.5,28.07-13.87-17.67a12,12,0,0,1-1.93-11.27c4.09-12.07,12.77-37.69,12.82-37.57s-16.1-31.87-16.1-31.87l-9.92,7S188,298.64,191.8,293.23Z" style="fill:#ffbe9d"></path><path d="M169.59,349.38c1.22-.61,18.36-11.48,18.36-11.48l7.38-35.66L209.65,291a6.57,6.57,0,0,1,4.85-1.36L234.57,292c8.76,1.45,9.7,5.17,8,10.8l5.91,1.89a6.24,6.24,0,0,1,2.72,8.07l-.91,2-23.56-.58a5.19,5.19,0,0,0-4.13,1.88l-4.24,5.08,26.44,3.76s10.88,1,9.74,7.09c-.74,4-9.58,3.15-9.58,3.15s1.54,4.61-1.48,6.83-20.07,1.26-20.07,1.26L215.46,356l-7,13.46a2.52,2.52,0,0,1-2,1.35h0L199.33,372l-11.63,8.42Z" style="fill:#aa6550"></path><path d="M204.61,347a1.69,1.69,0,0,1-.3-.25,10.83,10.83,0,0,1-.76-.8,16.08,16.08,0,0,1-2.2-3.43,26.38,26.38,0,0,1-1.91-5.72c-.5-2.22-.81-4.7-1.14-7.28a57.75,57.75,0,0,0-1.27-7.21c-.54-2.17-1.43-4-2-5.64a9,9,0,0,1-.58-4,4.51,4.51,0,0,1,.27-1.08c.1-.24.16-.36.18-.35s-.17.51-.25,1.45a9.43,9.43,0,0,0,.73,3.89,54.83,54.83,0,0,1,2.09,5.64,52.58,52.58,0,0,1,1.32,7.26c.34,2.59.63,5.05,1.1,7.24a26.94,26.94,0,0,0,1.78,5.67A22.15,22.15,0,0,0,204.61,347Z" style="fill:#723c31"></path><path d="M227.15,322.39c0,.07-1.2-.18-3.13-.48-1-.15-2.11-.32-3.39-.42a9.07,9.07,0,0,0-4,.35,11.19,11.19,0,0,0-3.14,2.61l-2.39,2.48a18.24,18.24,0,0,1-2.29,2.2,20.33,20.33,0,0,1,2-2.45l2.3-2.55a11.16,11.16,0,0,1,3.28-2.76,5.93,5.93,0,0,1,2.22-.44,17.09,17.09,0,0,1,2.06.09,30.69,30.69,0,0,1,3.42.53A13.56,13.56,0,0,1,227.15,322.39Z" style="fill:#723c31"></path><path d="M244.75,334.87a9,9,0,0,1-1.4-.1l-3.77-.35c-3.19-.28-7.61-.54-12.49-.48a37.32,37.32,0,0,0-6.82.53,14.42,14.42,0,0,0-5.14,2,11.46,11.46,0,0,0-3.51,3.67s0-.12.11-.34a6.46,6.46,0,0,1,.5-.92,9.81,9.81,0,0,1,2.69-2.72,14.37,14.37,0,0,1,5.25-2.16,35.13,35.13,0,0,1,6.91-.58,100.76,100.76,0,0,1,12.53.63c1.6.18,2.88.37,3.77.52A7.18,7.18,0,0,1,244.75,334.87Z" style="fill:#723c31"></path><path d="M241.86,302.86a9.81,9.81,0,0,1-1.59-.13l-4.33-.46c-3.66-.36-8.73-.72-14.34-.74a15.35,15.35,0,0,0-4,.41,8.31,8.31,0,0,0-3.25,1.71,21.49,21.49,0,0,0-3.93,5c-1.06,1.52-2,2.68-2.66,3.47a8.22,8.22,0,0,1-1.07,1.19,11.79,11.79,0,0,1,.91-1.31c.61-.83,1.5-2,2.51-3.56a20.69,20.69,0,0,1,3.93-5.17,8.76,8.76,0,0,1,3.43-1.85,15.71,15.71,0,0,1,4.13-.43,122.07,122.07,0,0,1,14.38.89c1.83.23,3.3.45,4.32.63A10.11,10.11,0,0,1,241.86,302.86Z" style="fill:#723c31"></path><path d="M211.62,325.88s-2.83,7.46,3.84,10.16l3.24-1.42s-8.27-3.6-3.31-12.64Z" style="fill:#fafafa"></path><path d="M250.24,314.75s0-.26.25-.69a8.89,8.89,0,0,0,.67-1.84,11.46,11.46,0,0,0,.3-2.89,5.88,5.88,0,0,0-1.13-3.23,6.27,6.27,0,0,0-2.87-1.91,22.88,22.88,0,0,0-2.85-.72,9,9,0,0,1-2.64-.74c0-.07,1,.16,2.71.38a17.52,17.52,0,0,1,2.93.63,6.44,6.44,0,0,1,3.13,2,6.17,6.17,0,0,1,1.2,3.53,10.3,10.3,0,0,1-.42,3,6.9,6.9,0,0,1-.85,1.85C250.42,314.55,250.27,314.77,250.24,314.75Z" style="fill:#723c31"></path><path d="M242.11,302.75a5.92,5.92,0,0,0,1.06-2.74,6.4,6.4,0,0,0-.39-3.12,6.18,6.18,0,0,0-2.57-2.82,15,15,0,0,0-3.67-1.44,24.52,24.52,0,0,0-3.23-.46,9.52,9.52,0,0,1-3-.59c0-.07,1.15.14,3,.22a19.88,19.88,0,0,1,3.31.37,13.65,13.65,0,0,1,3.83,1.46,6.39,6.39,0,0,1,2.74,3.08,6.47,6.47,0,0,1,.32,3.35,5,5,0,0,1-.83,2.11C242.38,302.61,242.12,302.77,242.11,302.75Z" style="fill:#723c31"></path><path d="M179.36,146.49a4.78,4.78,0,0,0-4,1.69,12.28,12.28,0,0,0-2.17,3.93,6.1,6.1,0,0,0-.56,3,6.27,6.27,0,0,0,1,2.27c1,1.59,2,3.13,3.11,4.64a12.84,12.84,0,0,0,3.53,3.59,5,5,0,0,0,4.83.38c2-1.08,2.59-3.8,2.06-6s-1.89-4.13-3-6.15-1.86-4.4-1.14-6.57" style="fill:#ffbe9d"></path><path d="M173.3,157a5.76,5.76,0,0,0-4.07,4.44,17,17,0,0,0,.05,6.32c.32,2.41.65,4.83,1,7.24.23,1.76.53,3.65,1.76,4.92,1.68,1.73,4.69,1.64,6.61.2a8.33,8.33,0,0,0,3-6.34,23.32,23.32,0,0,0-1.13-7.1,28.8,28.8,0,0,1-1.37-7.08" style="fill:#ffbe9d"></path><path d="M169.41,170.65a8.52,8.52,0,0,0-6.76,6.52,3.42,3.42,0,0,0,.38,2.77,2.77,2.77,0,0,0,2.5.92,6.58,6.58,0,0,0,2.58-1,9.05,9.05,0,0,0,3-2.68,4.25,4.25,0,0,0,.52-3.88c-.52-1.25-.65-2.82-1.94-2.41" style="fill:#ffbe9d"></path><path d="M185.58,165.77s-.18.23-.62.47a4.58,4.58,0,0,1-2.06.5,6.46,6.46,0,0,1-3.06-.75,9.55,9.55,0,0,1-2.91-2.52,24.89,24.89,0,0,1-2.06-3.21c-.56-1-1-2-1.39-2.77a8.79,8.79,0,0,1-.89-2.71c.07,0,.43,1,1.23,2.56.39.78.89,1.69,1.47,2.69a25.93,25.93,0,0,0,2.05,3.11,9.34,9.34,0,0,0,2.72,2.43,6.56,6.56,0,0,0,2.84.8A6.15,6.15,0,0,0,185.58,165.77Z" style="fill:#eb996e"></path><path d="M169.52,166.92c.16,0,.28,2.71.69,6s1,6,.81,6A22.22,22.22,0,0,1,169.7,173,22.79,22.79,0,0,1,169.52,166.92Z" style="fill:#eb996e"></path></g><g id="freepik--Desk--inject-62"><path d="M460.1,478c0,.15-94.07.27-210.09.27S39.9,478.13,39.9,478s94-.26,210.11-.26S460.1,477.84,460.1,478Z" style="fill:#263238"></path></g></svg>