<svg width="1400" height="242" viewBox="0 0 1400 242" fill="none" xmlns="http://www.w3.org/2000/svg">
<path d="M-88.5704 229.482C-89.8354 230.978 -90.5006 232.906 -90.3872 234.873C-90.2742 236.839 -89.3974 238.676 -87.9434 239.987C-86.4895 241.298 -84.571 241.98 -82.6038 241.89C-80.6364 241.799 -78.7867 240.938 -77.4296 239.526C-77.4296 239.526 -77.4296 239.526 -77.4296 239.526C-59.6013 221.149 -39.2098 204.422 -18.279 189.159C66.8379 127.743 168.34 85.819 271.245 85.9396C400.126 82.3264 512.297 151.999 642.083 190.084C690.244 203.652 740.787 210.842 791.141 210.084C896.693 214.96 978.761 138.136 1055.35 94.0992C1135 47.9612 1227.47 27.9856 1321.1 20.1301C1347.09 17.9306 1373 16.6167 1399.94 16.0035C1401.9 15.9578 1403.78 15.1762 1405.18 13.787C1406.57 12.3983 1407.37 10.523 1407.38 8.56554C1407.4 6.60807 1406.64 4.71979 1405.26 3.30789C1403.89 1.89557 1402.02 1.08252 1400.06 1.00407C1400.06 1.00407 1400.06 1.00407 1400.06 1.00407C1372.85 -0.0515041 1346.55 -0.317645 1320 0.410934C1224.61 2.98835 1126.53 19.0725 1039.7 65.422C953.277 112.138 883.266 176.362 790.859 170.924C744.155 171.062 698.008 164.257 652.828 151.554C532.718 117.079 409.368 44.0989 270.755 52.068C158.223 55.6241 53.8319 105.303 -30.3475 173.526C-51.0915 190.551 -71.0205 208.945 -88.5704 229.482Z" fill="#303B22"/>
</svg>
