<svg width="1400" height="267" viewBox="0 0 1400 267" fill="none" xmlns="http://www.w3.org/2000/svg">
<path d="M-52.55 67.7301C-54.4567 68.9434 -56.4067 70.1134 -58.4 71.2401C-60.3934 72.3667 -62.3 73.5801 -64.12 74.8801C-65.68 76.0067 -67.11 77.3934 -68.41 79.0401C-69.71 80.6867 -70.62 82.4634 -71.14 84.3701C-71.66 86.1901 -71.66 88.0101 -71.14 89.8301C-70.7067 91.6501 -69.5367 93.2534 -67.63 94.6401C-64.8567 96.7201 -61.0434 98.1934 -56.19 99.0601C-51.3367 99.8401 -45.92 100.1 -39.94 99.8401C-33.8734 99.6667 -27.4167 99.0601 -20.57 98.0201C-13.6367 96.8934 -6.70336 95.4201 0.229973 93.6001C7.16331 91.7801 13.88 89.6567 20.38 87.2301C26.9666 84.8034 32.9033 82.2034 38.19 79.4301C43.5633 76.6567 48.1133 73.7534 51.84 70.7201C55.6533 67.6001 58.2533 64.4367 59.64 61.2301C59.64 59.4967 59.2066 58.2834 58.34 57.5901C57.4733 56.8101 56.39 56.0734 55.09 55.3801C50.41 52.6934 45.21 50.8734 39.49 49.9201C33.8566 48.8801 28.3533 48.3167 22.98 48.2301C11.1933 48.0567 -0.550023 47.9701 -12.25 47.9701C-23.8634 47.9701 -35.5634 48.2734 -47.35 48.8801C-49.6034 49.0534 -51.8567 49.0534 -54.11 48.8801C-56.2767 48.7067 -58.4434 48.3601 -60.61 47.8401C-62.43 47.4067 -63.6867 46.7134 -64.38 45.7601C-65.0734 44.7201 -65.3767 43.5934 -65.29 42.3801C-65.1167 41.1667 -64.6834 39.9534 -63.99 38.7401C-63.21 37.4401 -62.3 36.3134 -61.26 35.3601C-57.9667 32.3267 -53.72 29.4234 -48.52 26.6501C-43.2334 23.8767 -37.4267 21.2767 -31.1 18.8501C-24.6867 16.3367 -17.97 14.0401 -10.95 11.9601C-3.93003 9.88008 2.91664 8.06008 9.58998 6.50008C16.35 4.85341 22.72 3.51008 28.7 2.47007C34.7666 1.34341 40.01 0.563405 44.43 0.130072C45.5566 0.0434067 46.9866 0.0434067 48.72 0.130072C50.54 0.130072 52.3166 0.303406 54.05 0.650073C55.87 0.996741 57.56 1.47341 59.12 2.08007C60.68 2.60007 61.85 3.29341 62.63 4.16007C63.5833 5.20007 64.19 6.2834 64.45 7.41007C64.71 8.53674 64.71 9.66341 64.45 10.7901C64.19 11.9167 63.7133 13.0001 63.02 14.0401C62.4133 15.0801 61.6766 16.0334 60.81 16.9001C59.25 18.3734 57.17 19.8901 54.57 21.4501C51.97 22.9234 49.0233 24.3534 45.73 25.7401C42.5233 27.1267 39.1 28.4701 35.46 29.7701C31.9066 30.9834 28.3966 32.1101 24.93 33.1501C21.55 34.1034 18.3 34.9267 15.18 35.6201C12.1466 36.2267 9.58998 36.6601 7.50998 36.9201L6.85997 34.9701L6.98998 32.8901C9.15664 32.2834 11.7566 31.5467 14.79 30.6801C17.91 29.8134 21.2033 28.8601 24.67 27.8201C28.1366 26.6934 31.6466 25.4801 35.2 24.1801C38.7533 22.8801 42.09 21.4934 45.21 20.0201C48.4166 18.5467 51.2766 17.0301 53.79 15.4701C56.39 13.8234 58.3833 12.1334 59.77 10.4001C59.0766 8.75341 58.0366 7.80007 56.65 7.54008C55.2633 7.19341 53.8333 6.97674 52.36 6.89007C44.56 6.63007 36.2833 7.19341 27.53 8.58007C18.8633 9.96674 10.1533 11.8734 1.39997 14.3001C-7.26669 16.7267 -15.7167 19.5867 -23.95 22.8801C-32.1834 26.0867 -39.7234 29.4234 -46.57 32.8901C-47.35 33.3234 -48.3467 33.8434 -49.56 34.4501C-50.7734 35.0567 -52.03 35.7501 -53.33 36.5301C-54.5434 37.3101 -55.7134 38.0901 -56.84 38.8701C-57.88 39.6501 -58.66 40.3434 -59.18 40.9501C-59.18 41.9034 -58.79 42.4234 -58.01 42.5101C-57.23 42.5101 -56.5367 42.5101 -55.93 42.5101C-48.0434 42.3367 -40.2867 42.1634 -32.66 41.9901C-24.9467 41.8167 -17.1467 41.6001 -9.26002 41.3401C-6.57336 41.2534 -3.23669 41.1667 0.749974 41.0801C4.73664 40.9934 8.98331 41.0367 13.49 41.2101C17.9966 41.2967 22.59 41.5567 27.27 41.9901C32.0366 42.3367 36.5433 42.9001 40.79 43.6801C45.0366 44.4601 48.8933 45.5001 52.36 46.8001C55.8266 48.1001 58.5133 49.7467 60.42 51.7401C61.98 53.3001 63.02 54.9901 63.54 56.8101C64.06 58.6301 64.19 60.4934 63.93 62.4001C63.67 64.2201 63.0633 65.9967 62.11 67.7301C61.1566 69.4634 59.9866 71.0667 58.6 72.5401C54.3533 77.1334 48.8933 81.2934 42.22 85.0201C35.6333 88.7467 28.57 92.0401 21.03 94.9001C13.5766 97.6734 6.07998 100.013 -1.46002 101.92C-8.91336 103.913 -15.63 105.343 -21.61 106.21C-28.1967 107.25 -34.6967 107.683 -41.11 107.51C-47.5234 107.423 -53.9367 106.427 -60.35 104.52C-65.4634 102.96 -69.2767 100.75 -71.79 97.8901C-74.3034 95.0301 -75.6034 91.9101 -75.69 88.5301C-75.8634 85.1501 -74.8234 81.7267 -72.57 78.2601C-70.4034 74.7067 -67.1534 71.5001 -62.82 68.6401C-61.4334 67.6867 -60.09 66.9067 -58.79 66.3001C-57.49 65.6934 -56.0167 65.2601 -54.37 65.0001L-52.55 67.7301ZM118.062 83.5901C114.162 85.9301 110.305 88.2267 106.492 90.4801C102.765 92.7334 98.6917 94.5534 94.2717 95.9401C89.8517 97.2401 86.2984 97.4134 83.6117 96.4601C81.0117 95.4201 79.2351 93.7301 78.2817 91.3901C77.2417 89.0501 77.0251 86.3201 77.6317 83.2001C78.1517 79.9934 79.4084 76.9601 81.4017 74.1001C82.3551 72.7134 83.4817 71.4134 84.7817 70.2001C86.0817 68.9001 87.5117 67.7734 89.0717 66.8201L92.9717 70.5901C91.7584 71.6301 90.5017 72.8867 89.2017 74.3601C87.9884 75.8334 86.9051 77.4367 85.9517 79.1701C84.9984 80.9034 84.2184 82.7234 83.6117 84.6301C83.0051 86.4501 82.7884 88.2701 82.9617 90.0901C84.7817 90.9567 86.9051 91.2167 89.3317 90.8701C91.7584 90.4367 94.1851 89.7434 96.6117 88.7901C99.1251 87.7501 101.465 86.5801 103.632 85.2801C105.885 83.8934 107.748 82.6367 109.222 81.5101C104.108 79.1701 100.512 76.6567 98.4317 73.9701C96.4384 71.1967 95.5284 68.5101 95.7017 65.9101C95.9617 63.2234 97.0451 60.7534 98.9517 58.5001C100.945 56.2467 103.328 54.4267 106.102 53.0401C108.962 51.6534 111.995 50.8734 115.202 50.7001C118.495 50.4401 121.528 51.0034 124.302 52.3901C127.768 54.2101 130.022 56.2034 131.062 58.3701C132.102 60.4501 132.362 62.6601 131.842 65.0001C131.322 67.2534 130.238 69.5501 128.592 71.8901C127.032 74.1434 125.428 76.3101 123.782 78.3901C129.328 78.3901 134.962 78.3467 140.682 78.2601C146.402 78.0867 152.122 77.8267 157.842 77.4801C163.562 77.0467 169.238 76.4401 174.872 75.6601C180.505 74.8801 186.052 73.7967 191.512 72.4101L190.862 76.7001C189.908 77.5667 188.175 78.3467 185.662 79.0401C183.148 79.6467 180.202 80.2534 176.822 80.8601C173.442 81.3801 169.802 81.8567 165.902 82.2901C162.088 82.6367 158.362 82.9401 154.722 83.2001C151.168 83.4601 147.875 83.7201 144.842 83.9801C141.895 84.1534 139.598 84.2834 137.952 84.3701C134.745 84.6301 131.408 84.6301 127.942 84.3701C124.562 84.1101 121.268 83.8501 118.062 83.5901ZM114.552 77.2201C115.938 76.2667 117.368 75.1834 118.842 73.9701C120.315 72.7567 121.615 71.4134 122.742 69.9401C123.955 68.4667 124.908 66.9067 125.602 65.2601C126.382 63.6134 126.815 61.8801 126.902 60.0601C126.122 58.3267 124.865 57.2001 123.132 56.6801C121.485 56.0734 119.622 55.9001 117.542 56.1601C115.548 56.4201 113.512 57.0267 111.432 57.9801C109.352 58.9334 107.488 60.0601 105.842 61.3601C104.195 62.6601 102.938 64.0901 102.072 65.6501C101.292 67.2101 101.118 68.7267 101.552 70.2001C101.985 71.6734 103.198 73.0601 105.192 74.3601C107.272 75.5734 110.392 76.5267 114.552 77.2201ZM186.573 92.1701C185.966 91.4767 185.316 90.8267 184.623 90.2201C183.929 89.5267 183.366 88.8334 182.933 88.1401C182.413 87.3601 182.153 86.5801 182.153 85.8001C182.066 84.9334 182.369 83.9801 183.063 82.9401C184.189 81.2067 185.663 79.5167 187.483 77.8701C189.303 76.1367 191.339 74.4467 193.593 72.8001C196.626 70.5467 199.789 68.5101 203.083 66.6901C206.376 64.8701 209.279 63.3534 211.793 62.1401C213.873 61.1867 215.563 60.8834 216.863 61.2301C218.163 61.4901 219.333 62.7034 220.373 64.8701L219.723 66.9501C217.296 67.2101 214.999 67.8167 212.833 68.7701C210.666 69.6367 208.586 70.7201 206.593 72.0201C204.599 73.3201 202.649 74.7067 200.743 76.1801C198.836 77.6534 196.929 79.0834 195.023 80.4701C195.629 81.1634 196.973 81.1201 199.053 80.3401C201.219 79.4734 203.559 78.3467 206.073 76.9601C208.586 75.5734 211.013 74.1867 213.353 72.8001C215.693 71.4134 217.339 70.5034 218.293 70.0701C219.939 69.3767 221.196 69.3767 222.063 70.0701C223.016 70.6767 223.926 71.7167 224.793 73.1901C224.619 74.6634 224.186 76.0067 223.493 77.2201C222.799 78.4334 222.063 79.6901 221.283 80.9901C220.589 82.2034 219.939 83.4601 219.333 84.7601C218.813 85.9734 218.596 87.3167 218.683 88.7901C219.723 89.7434 220.893 90.2201 222.193 90.2201C223.579 90.1334 224.923 89.9601 226.223 89.7001C237.836 87.4467 249.276 84.8467 260.543 81.9001C271.809 78.9534 283.206 76.2234 294.733 73.7101C295.166 74.3167 295.556 74.9234 295.903 75.5301C296.249 76.0501 296.639 76.6134 297.073 77.2201C295.426 78.0001 292.653 78.9967 288.753 80.2101C284.939 81.4234 280.519 82.7234 275.493 84.1101C270.466 85.4967 265.136 86.8834 259.503 88.2701C253.956 89.6567 248.626 90.9134 243.513 92.0401C238.399 93.0801 233.806 93.9467 229.733 94.6401C225.746 95.3334 222.843 95.6367 221.023 95.5501C218.596 95.4634 216.819 94.8567 215.693 93.7301C214.566 92.6034 213.873 91.2167 213.613 89.5701C213.353 87.8367 213.396 86.0601 213.743 84.2401C214.089 82.3334 214.479 80.6434 214.913 79.1701C212.573 80.2101 210.233 81.4234 207.893 82.8101C205.639 84.1101 203.386 85.4101 201.133 86.7101C198.879 87.9234 196.539 89.0501 194.113 90.0901C191.686 91.0434 189.173 91.7367 186.573 92.1701ZM304.685 61.6201C304.945 62.0534 305.552 62.6167 306.505 63.3101C307.458 63.9167 308.152 64.9134 308.585 66.3001C307.458 67.7734 306.462 69.1167 305.595 70.3301C304.728 71.4567 303.948 72.6267 303.255 73.8401C302.648 74.9667 302.085 76.1801 301.565 77.4801C301.045 78.6934 300.612 80.1234 300.265 81.7701C300.005 83.0701 299.875 84.1967 299.875 85.1501C300.308 86.6234 301.218 87.4467 302.605 87.6201C304.078 87.7067 305.682 87.4034 307.415 86.7101C312.268 85.0634 316.862 82.9401 321.195 80.3401C325.528 77.7401 329.645 74.9234 333.545 71.8901C337.532 68.7701 341.388 65.5201 345.115 62.1401C348.842 58.7601 352.525 55.4234 356.165 52.1301C356.772 52.7367 357.292 53.3001 357.725 53.8201C358.245 54.3401 358.938 55.2067 359.805 56.4201C357.292 59.1067 354.172 62.1401 350.445 65.5201C346.805 68.9001 342.775 72.2367 338.355 75.5301C334.022 78.8234 329.472 81.9434 324.705 84.8901C319.938 87.8367 315.258 90.2634 310.665 92.1701C309.105 92.7767 307.545 93.2534 305.985 93.6001C304.425 93.9467 302.995 94.0334 301.695 93.8601C300.395 93.6001 299.225 93.0801 298.185 92.3001C297.145 91.5201 296.322 90.2634 295.715 88.5301C295.368 87.7501 295.152 86.8834 295.065 85.9301C294.632 84.1101 294.588 81.9867 294.935 79.5601C295.195 77.1334 295.802 74.7501 296.755 72.4101C297.622 70.0701 298.748 67.9467 300.135 66.0401C301.522 64.0467 303.038 62.5734 304.685 61.6201ZM419.097 62.0101C418.75 63.2234 417.667 64.4367 415.847 65.6501C414.114 66.8634 411.947 68.0334 409.347 69.1601C406.747 70.2001 403.93 71.1967 400.897 72.1501C397.864 73.0167 394.874 73.7967 391.927 74.4901C389.067 75.1834 386.424 75.7467 383.997 76.1801C381.657 76.5267 379.88 76.7001 378.667 76.7001C377.194 76.7001 375.764 76.7001 374.377 76.7001C372.99 76.6134 371.56 76.6134 370.087 76.7001C368.874 77.6534 368.007 78.8667 367.487 80.3401C366.967 81.7267 366.49 83.1134 366.057 84.5001C366.664 84.9334 367.184 85.4101 367.617 85.9301C368.137 86.4501 368.744 86.7967 369.437 86.9701C372.037 87.5767 375.287 87.8801 379.187 87.8801C383.087 87.7934 387.334 87.5334 391.927 87.1001C396.52 86.5801 401.287 85.9301 406.227 85.1501C411.167 84.3701 415.977 83.5467 420.657 82.6801C425.337 81.8134 429.757 80.9901 433.917 80.2101C438.077 79.4301 441.63 78.8234 444.577 78.3901C448.564 77.7834 452.68 76.9167 456.927 75.7901C461.174 74.6634 465.29 73.9267 469.277 73.5801C470.23 73.4934 471.054 73.6234 471.747 73.9701C472.527 74.2301 473.004 74.8801 473.177 75.9201C472.137 76.5267 470.49 77.1767 468.237 77.8701C465.984 78.4767 463.427 79.1267 460.567 79.8201C457.707 80.5134 454.63 81.2067 451.337 81.9001C448.13 82.5067 445.01 83.0701 441.977 83.5901C438.944 84.1101 436.127 84.6301 433.527 85.1501C431.014 85.5834 428.977 85.9301 427.417 86.1901C425.164 86.6234 422.434 87.1867 419.227 87.8801C416.02 88.4867 412.554 89.1367 408.827 89.8301C405.187 90.4367 401.374 91.0434 397.387 91.6501C393.487 92.1701 389.717 92.5601 386.077 92.8201C382.524 92.9934 379.187 92.9501 376.067 92.6901C373.034 92.4301 370.564 91.8234 368.657 90.8701C365.364 89.2234 363.24 87.2301 362.287 84.8901C361.247 82.4634 361.55 79.6034 363.197 76.3101C364.497 73.6234 366.707 71.1101 369.827 68.7701C372.947 66.4301 376.457 64.3934 380.357 62.6601C384.257 60.8401 388.33 59.4101 392.577 58.3701C396.91 57.2434 400.897 56.6367 404.537 56.5501C408.264 56.3767 411.427 56.7234 414.027 57.5901C416.714 58.4567 418.404 59.9301 419.097 62.0101ZM374.897 72.0201C377.324 72.0201 380.184 71.8034 383.477 71.3701C386.857 70.9367 390.237 70.2867 393.617 69.4201C396.997 68.4667 400.204 67.3401 403.237 66.0401C406.357 64.7401 408.827 63.2667 410.647 61.6201C407.614 61.6201 404.494 61.7934 401.287 62.1401C398.08 62.4867 394.917 63.0934 391.797 63.9601C388.764 64.7401 385.774 65.8234 382.827 67.2101C379.967 68.5101 377.324 70.1134 374.897 72.0201ZM608.286 55.5101C600.659 57.6767 593.032 59.8001 585.406 61.8801C577.779 63.8734 570.152 65.9101 562.526 67.9901C557.326 74.7501 552.386 81.6834 547.706 88.7901C543.112 95.8101 539.559 103.567 537.046 112.06C534.966 112.493 533.709 111.497 533.276 109.07C532.842 106.037 533.146 102.873 534.186 99.5801C535.312 96.3734 536.786 93.2101 538.606 90.0901C540.426 86.9701 542.332 83.9367 544.326 80.9901C546.406 77.9567 548.139 75.1834 549.526 72.6701C543.459 74.6634 537.392 76.6134 531.326 78.5201C525.346 80.4267 519.496 82.8101 513.776 85.6701L513.646 90.0901C511.912 90.6101 510.396 90.6101 509.096 90.0901C507.709 89.5701 506.409 88.5734 505.196 87.1001C505.196 86.1467 505.716 85.1501 506.756 84.1101C507.709 83.0701 509.052 82.0301 510.786 80.9901C512.432 79.9501 514.382 78.9534 516.636 78.0001C518.802 76.9601 521.142 75.9634 523.656 75.0101C526.429 73.9701 529.246 72.9734 532.106 72.0201C534.966 71.0667 537.652 70.2001 540.166 69.4201C542.679 68.6401 544.889 67.9901 546.796 67.4701C548.789 66.8634 550.262 66.4301 551.216 66.1701C554.509 65.0434 557.456 62.9634 560.056 59.9301C564.476 54.8167 568.939 49.9201 573.446 45.2401C578.039 40.4734 582.806 36.0101 587.746 31.8501C592.686 27.6034 597.842 23.6601 603.216 20.0201C608.589 16.3801 614.266 13.1301 620.246 10.2701C623.192 8.71007 626.529 7.71341 630.256 7.28007C631.902 7.10674 633.332 7.28008 634.546 7.80007C635.846 8.23341 636.886 8.92674 637.666 9.88007C638.446 10.8334 638.966 12.0034 639.226 13.3901C639.572 14.7767 639.572 16.2934 639.226 17.9401C638.879 19.5001 638.099 21.6234 636.886 24.3101C635.759 26.9101 634.459 29.6401 632.986 32.5001C631.512 35.2734 629.996 37.9167 628.436 40.4301C626.962 42.9434 625.706 44.8501 624.666 46.1501C625.792 46.1501 627.309 46.1501 629.216 46.1501C631.122 46.0634 633.072 46.0634 635.066 46.1501C637.146 46.2367 639.096 46.4101 640.916 46.6701C642.736 46.9301 644.122 47.2767 645.076 47.7101C645.769 48.0567 646.462 48.6634 647.156 49.5301C647.849 50.3101 648.456 50.9601 648.976 51.4801C648.022 51.9134 647.156 52.1301 646.376 52.1301C645.596 52.0434 644.816 51.9134 644.036 51.7401C643.256 51.4801 642.476 51.3067 641.696 51.2201C641.002 51.0467 640.266 51.0034 639.486 51.0901C636.192 51.6967 632.899 52.1301 629.606 52.3901C626.312 52.5634 622.976 52.9101 619.596 53.4301C611.622 64.2634 603.649 75.0534 595.676 85.8001C587.702 96.5467 579.686 107.337 571.626 118.17L568.766 115.57C568.852 114.357 569.719 112.277 571.366 109.33C573.099 106.383 575.266 103.047 577.866 99.3201C580.552 95.5067 583.456 91.4767 586.576 87.2301C589.782 82.9834 592.859 78.9101 595.806 75.0101C598.752 71.0234 601.396 67.4267 603.736 64.2201C606.076 60.9267 607.766 58.3701 608.806 56.5501L608.286 55.5101ZM634.416 12.7401C631.989 12.0467 628.956 12.4367 625.316 13.9101C621.762 15.2967 617.906 17.3767 613.746 20.1501C609.672 22.8367 605.469 25.9567 601.136 29.5101C596.802 33.0634 592.686 36.6167 588.786 40.1701C584.886 43.7234 581.376 47.0601 578.256 50.1801C575.222 53.3001 572.926 55.7267 571.366 57.4601L570.846 59.6701C575.786 58.4567 580.639 57.0267 585.406 55.3801C590.172 53.7334 595.026 52.3901 599.966 51.3501C602.306 50.7434 604.646 50.2667 606.986 49.9201C609.412 49.4867 611.796 49.0101 614.136 48.4901C615.956 46.2367 617.949 43.6801 620.116 40.8201C622.282 37.9601 624.362 34.9701 626.356 31.8501C628.436 28.7301 630.212 25.5667 631.686 22.3601C633.159 19.0667 634.069 15.8601 634.416 12.7401ZM673.357 22.8801C672.923 23.8334 672.403 24.6567 671.797 25.3501C669.977 27.5167 667.81 30.0301 665.297 32.8901C662.783 35.6634 660.183 38.6534 657.497 41.8601C654.897 45.0667 652.34 48.4467 649.827 52.0001C647.313 55.4667 645.103 58.9767 643.197 62.5301C641.29 65.9967 639.773 69.4634 638.647 72.9301C637.607 76.3101 637.217 79.4734 637.477 82.4201C638.95 84.4134 641.16 85.8434 644.107 86.7101C647.14 87.4901 650.693 87.8801 654.767 87.8801C658.84 87.7934 663.26 87.4034 668.027 86.7101C672.88 86.0167 677.82 85.1501 682.847 84.1101C687.873 83.0701 692.857 81.9434 697.797 80.7301C702.823 79.4301 707.503 78.2601 711.837 77.2201C716.257 76.0934 720.243 75.1834 723.797 74.4901C727.35 73.7101 730.167 73.2334 732.247 73.0601L734.067 75.5301L732.767 77.2201C728.173 78.9534 723.58 80.4701 718.987 81.7701C714.393 83.0701 709.757 84.2401 705.077 85.2801C700.397 86.2334 695.673 87.1434 690.907 88.0101C686.227 88.8767 681.503 89.7867 676.737 90.7401C674.137 91.2601 671.017 91.7801 667.377 92.3001C663.737 92.7334 660.01 92.9501 656.197 92.9501C652.47 92.9501 648.83 92.6467 645.277 92.0401C641.723 91.3467 638.777 90.1334 636.437 88.4001C634.097 86.6667 632.58 84.3267 631.887 81.3801C631.107 78.3467 631.583 74.4901 633.317 69.8101C634.877 65.7367 636.957 61.4034 639.557 56.8101C642.243 52.2167 645.19 47.6667 648.397 43.1601C651.603 38.6534 654.94 34.4067 658.407 30.4201C661.96 26.4334 665.383 23.0101 668.677 20.1501L671.277 19.3701L673.357 22.8801ZM788.896 62.0101C788.55 63.2234 787.466 64.4367 785.646 65.6501C783.913 66.8634 781.746 68.0334 779.146 69.1601C776.546 70.2001 773.73 71.1967 770.696 72.1501C767.663 73.0167 764.673 73.7967 761.726 74.4901C758.866 75.1834 756.223 75.7467 753.796 76.1801C751.456 76.5267 749.68 76.7001 748.466 76.7001C746.993 76.7001 745.563 76.7001 744.176 76.7001C742.79 76.6134 741.36 76.6134 739.886 76.7001C738.673 77.6534 737.806 78.8667 737.286 80.3401C736.766 81.7267 736.29 83.1134 735.856 84.5001C736.463 84.9334 736.983 85.4101 737.416 85.9301C737.936 86.4501 738.543 86.7967 739.236 86.9701C741.836 87.5767 745.086 87.8801 748.986 87.8801C752.886 87.7934 757.133 87.5334 761.726 87.1001C766.32 86.5801 771.086 85.9301 776.026 85.1501C780.966 84.3701 785.776 83.5467 790.456 82.6801C795.136 81.8134 799.556 80.9901 803.716 80.2101C807.876 79.4301 811.43 78.8234 814.376 78.3901C818.363 77.7834 822.48 76.9167 826.726 75.7901C830.973 74.6634 835.09 73.9267 839.076 73.5801C840.03 73.4934 840.853 73.6234 841.546 73.9701C842.326 74.2301 842.803 74.8801 842.976 75.9201C841.936 76.5267 840.29 77.1767 838.036 77.8701C835.783 78.4767 833.226 79.1267 830.366 79.8201C827.506 80.5134 824.43 81.2067 821.136 81.9001C817.93 82.5067 814.81 83.0701 811.776 83.5901C808.743 84.1101 805.926 84.6301 803.326 85.1501C800.813 85.5834 798.776 85.9301 797.216 86.1901C794.963 86.6234 792.233 87.1867 789.026 87.8801C785.82 88.4867 782.353 89.1367 778.626 89.8301C774.986 90.4367 771.173 91.0434 767.186 91.6501C763.286 92.1701 759.516 92.5601 755.876 92.8201C752.323 92.9934 748.986 92.9501 745.866 92.6901C742.833 92.4301 740.363 91.8234 738.456 90.8701C735.163 89.2234 733.04 87.2301 732.086 84.8901C731.046 82.4634 731.35 79.6034 732.996 76.3101C734.296 73.6234 736.506 71.1101 739.626 68.7701C742.746 66.4301 746.256 64.3934 750.156 62.6601C754.056 60.8401 758.13 59.4101 762.376 58.3701C766.71 57.2434 770.696 56.6367 774.336 56.5501C778.063 56.3767 781.226 56.7234 783.826 57.5901C786.513 58.4567 788.203 59.9301 788.896 62.0101ZM744.696 72.0201C747.123 72.0201 749.983 71.8034 753.276 71.3701C756.656 70.9367 760.036 70.2867 763.416 69.4201C766.796 68.4667 770.003 67.3401 773.036 66.0401C776.156 64.7401 778.626 63.2667 780.446 61.6201C777.413 61.6201 774.293 61.7934 771.086 62.1401C767.88 62.4867 764.716 63.0934 761.596 63.9601C758.563 64.7401 755.573 65.8234 752.626 67.2101C749.766 68.5101 747.123 70.1134 744.696 72.0201ZM995.447 76.0501C993.627 77.2634 990.984 78.4767 987.517 79.6901C984.05 80.9034 980.15 82.0301 975.817 83.0701C971.484 84.1101 966.934 85.0634 962.167 85.9301C957.4 86.7967 952.764 87.5334 948.257 88.1401C943.837 88.7467 939.764 89.2234 936.037 89.5701C932.31 89.8301 929.364 89.9167 927.197 89.8301C923.73 89.6567 920.914 89.0934 918.747 88.1401C916.58 87.1867 914.76 85.8434 913.287 84.1101C911.294 81.7701 909.82 79.6901 908.867 77.8701C908 75.9634 907.004 74.5767 905.877 73.7101C904.837 72.7567 903.277 72.4534 901.197 72.8001C899.204 73.0601 896.084 74.1867 891.837 76.1801C889.584 77.2201 887.287 78.3901 884.947 79.6901C882.694 80.9034 880.527 82.1167 878.447 83.3301C876.454 84.5434 874.634 85.6701 872.987 86.7101C871.427 87.6634 870.214 88.4434 869.347 89.0501C867.094 88.0101 865.62 87.1001 864.927 86.3201C864.234 85.4534 863.974 84.5867 864.147 83.7201C864.407 82.7667 864.84 81.7267 865.447 80.6001C866.14 79.3867 866.747 77.8701 867.267 76.0501C867.527 75.1834 867.614 74.3167 867.527 73.4501C867.44 72.4967 867.484 71.5434 867.657 70.5901C864.104 71.7167 860.94 73.1467 858.167 74.8801C855.48 76.6134 852.88 78.5201 850.367 80.6001C847.94 82.6801 845.557 84.8901 843.217 87.2301C840.79 89.5701 838.234 91.8667 835.547 94.1201C834.854 93.7734 834.16 93.3834 833.467 92.9501C832.774 92.5167 832.037 92.1267 831.257 91.7801C831.43 91.1734 832.08 89.9601 833.207 88.1401C834.247 86.2334 835.59 84.0667 837.237 81.6401C838.797 79.1267 840.53 76.4834 842.437 73.7101C844.257 70.9367 846.034 68.3367 847.767 65.9101C849.5 63.3967 851.017 61.2734 852.317 59.5401C853.704 57.8067 854.7 56.6801 855.307 56.1601C856 56.5934 856.694 57.1134 857.387 57.7201C858.08 58.2401 858.774 58.7167 859.467 59.1501C859.034 60.0167 858.514 60.8834 857.907 61.7501C857.3 62.5301 856.694 63.3534 856.087 64.2201C855.48 65.0001 854.917 65.8234 854.397 66.6901C853.877 67.5567 853.574 68.4667 853.487 69.4201C856.954 68.0334 860.16 66.9934 863.107 66.3001C866.14 65.5201 868.654 65.3467 870.647 65.7801C872.727 66.1267 874.157 67.2101 874.937 69.0301C875.717 70.8501 875.717 73.6234 874.937 77.3501C877.19 76.8301 879.444 76.0501 881.697 75.0101C884.037 73.9701 886.29 72.8867 888.457 71.7601C890.71 70.6334 892.92 69.5501 895.087 68.5101C897.254 67.4701 899.334 66.7767 901.327 66.4301C903.32 65.9967 905.184 66.0401 906.917 66.5601C908.65 66.9934 910.254 68.0767 911.727 69.8101C914.067 72.7567 915.757 75.2267 916.797 77.2201C917.924 79.1267 919.18 80.6001 920.567 81.6401C922.04 82.6801 924.034 83.3734 926.547 83.7201C929.06 83.9801 932.917 83.8934 938.117 83.4601C943.23 83.0267 948.43 82.3767 953.717 81.5101C959.004 80.6434 964.117 79.7334 969.057 78.7801C973.997 77.8267 978.59 76.8734 982.837 75.9201C987.17 74.9667 990.897 74.1434 994.017 73.4501L995.447 76.0501ZM990.156 92.1701C989.549 91.4767 988.899 90.8267 988.206 90.2201C987.512 89.5267 986.949 88.8334 986.516 88.1401C985.996 87.3601 985.736 86.5801 985.736 85.8001C985.649 84.9334 985.952 83.9801 986.646 82.9401C987.772 81.2067 989.246 79.5167 991.066 77.8701C992.886 76.1367 994.922 74.4467 997.176 72.8001C1000.21 70.5467 1003.37 68.5101 1006.67 66.6901C1009.96 64.8701 1012.86 63.3534 1015.38 62.1401C1017.46 61.1867 1019.15 60.8834 1020.45 61.2301C1021.75 61.4901 1022.92 62.7034 1023.96 64.8701L1023.31 66.9501C1020.88 67.2101 1018.58 67.8167 1016.42 68.7701C1014.25 69.6367 1012.17 70.7201 1010.18 72.0201C1008.18 73.3201 1006.23 74.7067 1004.33 76.1801C1002.42 77.6534 1000.51 79.0834 998.606 80.4701C999.212 81.1634 1000.56 81.1201 1002.64 80.3401C1004.8 79.4734 1007.14 78.3467 1009.66 76.9601C1012.17 75.5734 1014.6 74.1867 1016.94 72.8001C1019.28 71.4134 1020.92 70.5034 1021.88 70.0701C1023.52 69.3767 1024.78 69.3767 1025.65 70.0701C1026.6 70.6767 1027.51 71.7167 1028.38 73.1901C1028.2 74.6634 1027.77 76.0067 1027.08 77.2201C1026.38 78.4334 1025.65 79.6901 1024.87 80.9901C1024.17 82.2034 1023.52 83.4601 1022.92 84.7601C1022.4 85.9734 1022.18 87.3167 1022.27 88.7901C1023.31 89.7434 1024.48 90.2201 1025.78 90.2201C1027.16 90.1334 1028.51 89.9601 1029.81 89.7001C1041.42 87.4467 1052.86 84.8467 1064.13 81.9001C1075.39 78.9534 1086.79 76.2234 1098.32 73.7101C1098.75 74.3167 1099.14 74.9234 1099.49 75.5301C1099.83 76.0501 1100.22 76.6134 1100.66 77.2201C1099.01 78.0001 1096.24 78.9967 1092.34 80.2101C1088.52 81.4234 1084.1 82.7234 1079.08 84.1101C1074.05 85.4967 1068.72 86.8834 1063.09 88.2701C1057.54 89.6567 1052.21 90.9134 1047.1 92.0401C1041.98 93.0801 1037.39 93.9467 1033.32 94.6401C1029.33 95.3334 1026.43 95.6367 1024.61 95.5501C1022.18 95.4634 1020.4 94.8567 1019.28 93.7301C1018.15 92.6034 1017.46 91.2167 1017.2 89.5701C1016.94 87.8367 1016.98 86.0601 1017.33 84.2401C1017.67 82.3334 1018.06 80.6434 1018.5 79.1701C1016.16 80.2101 1013.82 81.4234 1011.48 82.8101C1009.22 84.1101 1006.97 85.4101 1004.72 86.7101C1002.46 87.9234 1000.12 89.0501 997.696 90.0901C995.269 91.0434 992.756 91.7367 990.156 92.1701ZM1227.35 75.0101L1225.66 77.3501C1220.46 79.3434 1215.21 81.2501 1209.93 83.0701C1204.64 84.8901 1199.44 86.4067 1194.33 87.6201C1189.3 88.7467 1184.49 89.4834 1179.9 89.8301C1175.3 90.0901 1171.1 89.7001 1167.29 88.6601C1163.47 87.5334 1160.18 85.6267 1157.41 82.9401C1154.63 80.2534 1152.51 76.5267 1151.04 71.7601C1150 68.3801 1148.31 66.2134 1145.97 65.2601C1143.63 64.2201 1140.98 63.9601 1138.04 64.4801C1135.09 65.0001 1132.01 66.0834 1128.81 67.7301C1125.6 69.2901 1122.61 70.8934 1119.84 72.5401C1118.19 73.4934 1116.02 75.0534 1113.34 77.2201C1110.65 79.3867 1107.92 81.5967 1105.15 83.8501C1102.46 86.1034 1099.95 88.1401 1097.61 89.9601C1095.18 91.7801 1093.49 92.8634 1092.54 93.2101C1091.76 92.7767 1090.98 92.3434 1090.2 91.9101C1089.42 91.4767 1088.64 91.0434 1087.86 90.6101C1087.68 89.6567 1088.12 88.4001 1089.16 86.8401C1090.11 85.1934 1091.41 83.4167 1093.06 81.5101C1094.62 79.6034 1096.39 77.6101 1098.39 75.5301C1100.38 73.3634 1102.29 71.3267 1104.11 69.4201C1105.93 67.4267 1107.57 65.6067 1109.05 63.9601C1110.52 62.3134 1111.56 60.9701 1112.17 59.9301C1114.51 59.5834 1116.59 60.3634 1118.41 62.2701C1118.23 62.7901 1117.89 63.2667 1117.37 63.7001C1116.85 64.1334 1116.33 64.5667 1115.81 65.0001C1115.37 65.3467 1114.98 65.7801 1114.64 66.3001C1114.38 66.7334 1114.33 67.2967 1114.51 67.9901C1115.89 67.2967 1117.67 66.3867 1119.84 65.2601C1122.09 64.1334 1124.52 63.0067 1127.12 61.8801C1129.72 60.7534 1132.36 59.8001 1135.05 59.0201C1137.82 58.1534 1140.42 57.7201 1142.85 57.7201C1145.36 57.6334 1147.61 58.0667 1149.61 59.0201C1151.6 59.9734 1153.16 61.6634 1154.29 64.0901C1154.98 65.7367 1155.72 67.6001 1156.5 69.6801C1157.28 71.6734 1158.14 73.6667 1159.1 75.6601C1160.14 77.5667 1161.35 79.3001 1162.74 80.8601C1164.12 82.3334 1165.77 83.3301 1167.68 83.8501C1170.97 84.8034 1175.09 85.0634 1180.03 84.6301C1184.97 84.1101 1190.12 83.2434 1195.5 82.0301C1200.96 80.7301 1206.29 79.3001 1211.49 77.7401C1216.69 76.1801 1221.19 74.7501 1225.01 73.4501L1227.35 75.0101ZM1353.88 75.0101L1352.19 77.3501C1346.99 79.3434 1341.75 81.2501 1336.46 83.0701C1331.18 84.8901 1325.98 86.4067 1320.86 87.6201C1315.84 88.7467 1311.03 89.4834 1306.43 89.8301C1301.84 90.0901 1297.64 89.7001 1293.82 88.6601C1290.01 87.5334 1286.72 85.6267 1283.94 82.9401C1281.17 80.2534 1279.05 76.5267 1277.57 71.7601C1276.53 68.3801 1274.84 66.2134 1272.5 65.2601C1270.16 64.2201 1267.52 63.9601 1264.57 64.4801C1261.63 65.0001 1258.55 66.0834 1255.34 67.7301C1252.14 69.2901 1249.15 70.8934 1246.37 72.5401C1244.73 73.4934 1242.56 75.0534 1239.87 77.2201C1237.19 79.3867 1234.46 81.5967 1231.68 83.8501C1229 86.1034 1226.48 88.1401 1224.14 89.9601C1221.72 91.7801 1220.03 92.8634 1219.07 93.2101C1218.29 92.7767 1217.51 92.3434 1216.73 91.9101C1215.95 91.4767 1215.17 91.0434 1214.39 90.6101C1214.22 89.6567 1214.65 88.4001 1215.69 86.8401C1216.65 85.1934 1217.95 83.4167 1219.59 81.5101C1221.15 79.6034 1222.93 77.6101 1224.92 75.5301C1226.92 73.3634 1228.82 71.3267 1230.64 69.4201C1232.46 67.4267 1234.11 65.6067 1235.58 63.9601C1237.06 62.3134 1238.1 60.9701 1238.7 59.9301C1241.04 59.5834 1243.12 60.3634 1244.94 62.2701C1244.77 62.7901 1244.42 63.2667 1243.9 63.7001C1243.38 64.1334 1242.86 64.5667 1242.34 65.0001C1241.91 65.3467 1241.52 65.7801 1241.17 66.3001C1240.91 66.7334 1240.87 67.2967 1241.04 67.9901C1242.43 67.2967 1244.21 66.3867 1246.37 65.2601C1248.63 64.1334 1251.05 63.0067 1253.65 61.8801C1256.25 60.7534 1258.9 59.8001 1261.58 59.0201C1264.36 58.1534 1266.96 57.7201 1269.38 57.7201C1271.9 57.6334 1274.15 58.0667 1276.14 59.0201C1278.14 59.9734 1279.7 61.6634 1280.82 64.0901C1281.52 65.7367 1282.25 67.6001 1283.03 69.6801C1283.81 71.6734 1284.68 73.6667 1285.63 75.6601C1286.67 77.5667 1287.89 79.3001 1289.27 80.8601C1290.66 82.3334 1292.31 83.3301 1294.21 83.8501C1297.51 84.8034 1301.62 85.0634 1306.56 84.6301C1311.5 84.1101 1316.66 83.2434 1322.03 82.0301C1327.49 80.7301 1332.82 79.3001 1338.02 77.7401C1343.22 76.1801 1347.73 74.7501 1351.54 73.4501L1353.88 75.0101ZM1390.72 83.5901C1386.82 85.9301 1382.96 88.2267 1379.15 90.4801C1375.42 92.7334 1371.35 94.5534 1366.93 95.9401C1362.51 97.2401 1358.96 97.4134 1356.27 96.4601C1353.67 95.4201 1351.89 93.7301 1350.94 91.3901C1349.9 89.0501 1349.68 86.3201 1350.29 83.2001C1350.81 79.9934 1352.07 76.9601 1354.06 74.1001C1355.01 72.7134 1356.14 71.4134 1357.44 70.2001C1358.74 68.9001 1360.17 67.7734 1361.73 66.8201L1365.63 70.5901C1364.42 71.6301 1363.16 72.8867 1361.86 74.3601C1360.65 75.8334 1359.56 77.4367 1358.61 79.1701C1357.66 80.9034 1356.88 82.7234 1356.27 84.6301C1355.66 86.4501 1355.45 88.2701 1355.62 90.0901C1357.44 90.9567 1359.56 91.2167 1361.99 90.8701C1364.42 90.4367 1366.84 89.7434 1369.27 88.7901C1371.78 87.7501 1374.12 86.5801 1376.29 85.2801C1378.54 83.8934 1380.41 82.6367 1381.88 81.5101C1376.77 79.1701 1373.17 76.6567 1371.09 73.9701C1369.1 71.1967 1368.19 68.5101 1368.36 65.9101C1368.62 63.2234 1369.7 60.7534 1371.61 58.5001C1373.6 56.2467 1375.99 54.4267 1378.76 53.0401C1381.62 51.6534 1384.65 50.8734 1387.86 50.7001C1391.15 50.4401 1394.19 51.0034 1396.96 52.3901C1400.43 54.2101 1402.68 56.2034 1403.72 58.3701C1404.76 60.4501 1405.02 62.6601 1404.5 65.0001C1403.98 67.2534 1402.9 69.5501 1401.25 71.8901C1399.69 74.1434 1398.09 76.3101 1396.44 78.3901C1401.99 78.3901 1407.62 78.3467 1413.34 78.2601C1419.06 78.0867 1424.78 77.8267 1430.5 77.4801C1436.22 77.0467 1441.9 76.4401 1447.53 75.6601C1453.16 74.8801 1458.71 73.7967 1464.17 72.4101L1463.52 76.7001C1462.57 77.5667 1460.83 78.3467 1458.32 79.0401C1455.81 79.6467 1452.86 80.2534 1449.48 80.8601C1446.1 81.3801 1442.46 81.8567 1438.56 82.2901C1434.75 82.6367 1431.02 82.9401 1427.38 83.2001C1423.83 83.4601 1420.53 83.7201 1417.5 83.9801C1414.55 84.1534 1412.26 84.2834 1410.61 84.3701C1407.4 84.6301 1404.07 84.6301 1400.6 84.3701C1397.22 84.1101 1393.93 83.8501 1390.72 83.5901ZM1387.21 77.2201C1388.6 76.2667 1390.03 75.1834 1391.5 73.9701C1392.97 72.7567 1394.27 71.4134 1395.4 69.9401C1396.61 68.4667 1397.57 66.9067 1398.26 65.2601C1399.04 63.6134 1399.47 61.8801 1399.56 60.0601C1398.78 58.3267 1397.52 57.2001 1395.79 56.6801C1394.14 56.0734 1392.28 55.9001 1390.2 56.1601C1388.21 56.4201 1386.17 57.0267 1384.09 57.9801C1382.01 58.9334 1380.15 60.0601 1378.5 61.3601C1376.85 62.6601 1375.6 64.0901 1374.73 65.6501C1373.95 67.2101 1373.78 68.7267 1374.21 70.2001C1374.64 71.6734 1375.86 73.0601 1377.85 74.3601C1379.93 75.5734 1383.05 76.5267 1387.21 77.2201ZM130.726 220.51C132.459 218.95 134.106 217.217 135.666 215.31C137.226 213.403 138.742 211.41 140.216 209.33C141.776 207.25 143.249 205.17 144.636 203.09C146.022 201.01 147.366 199.017 148.666 197.11C151.352 193.383 154.299 189.353 157.506 185.02C160.799 180.6 164.309 176.18 168.036 171.76C171.762 167.253 175.619 162.79 179.606 158.37C183.679 153.95 187.839 149.79 192.086 145.89C196.332 141.99 200.622 138.48 204.956 135.36C209.289 132.153 213.622 129.51 217.956 127.43C219.949 126.477 222.029 125.523 224.196 124.57C226.449 123.53 228.659 122.837 230.826 122.49C233.079 122.143 235.159 122.36 237.066 123.14C239.059 123.833 240.792 125.393 242.266 127.82L240.576 128.99C238.149 128.037 235.766 127.82 233.426 128.34C231.172 128.773 228.919 129.553 226.666 130.68C221.206 133.367 215.876 136.487 210.676 140.04C205.476 143.593 200.579 147.363 195.986 151.35C190.179 156.377 184.762 161.75 179.736 167.47C174.709 173.103 169.899 178.91 165.306 184.89C160.712 190.87 156.206 196.98 151.786 203.22C147.366 209.46 142.902 215.613 138.396 221.68C137.182 223.327 136.012 224.843 134.886 226.23C133.759 227.617 132.112 228.527 129.946 228.96C127.692 228.44 126.002 227.27 124.876 225.45C123.749 223.63 123.186 221.637 123.186 219.47C123.186 215.483 123.489 211.54 124.096 207.64C124.702 203.653 125.482 199.71 126.436 195.81C127.389 191.823 128.386 187.88 129.426 183.98C130.552 180.08 131.636 176.223 132.676 172.41C132.936 171.37 133.152 170.373 133.326 169.42C133.586 168.38 133.152 167.47 132.026 166.69C130.292 167.73 128.689 169.03 127.216 170.59C125.829 172.063 124.442 173.537 123.056 175.01C118.982 179.257 115.039 183.59 111.226 188.01C107.412 192.43 103.556 196.85 99.6556 201.27C95.8423 205.603 91.8556 209.85 87.6956 214.01C83.6223 218.083 79.2456 221.94 74.5656 225.58C72.8323 226.793 71.4023 227.53 70.2756 227.79C69.1489 228.05 67.6756 227.487 65.8556 226.1C64.1223 224.8 62.9956 223.413 62.4756 221.94C61.8689 220.38 61.7389 218.56 62.0856 216.48C62.5189 214.313 63.0389 212.233 63.6456 210.24C64.3389 208.247 65.1189 206.253 65.9856 204.26C68.3256 198.627 70.6656 193.253 73.0056 188.14C75.4323 182.94 78.3789 177.783 81.8456 172.67C82.3656 171.89 83.1023 170.763 84.0556 169.29C85.0956 167.73 86.2656 166.083 87.5656 164.35C88.8656 162.53 90.2089 160.753 91.5956 159.02C93.0689 157.2 94.5423 155.64 96.0156 154.34C97.4889 152.953 98.8756 151.957 100.176 151.35C101.562 150.743 102.776 150.7 103.816 151.22C104.249 151.393 104.682 151.827 105.116 152.52C105.549 153.127 105.896 153.603 106.156 153.95C101.822 157.417 97.9656 161.36 94.5856 165.78C91.2056 170.2 88.1723 174.837 85.4856 179.69C82.7989 184.543 80.3289 189.57 78.0756 194.77C75.8223 199.883 73.6556 204.91 71.5756 209.85C70.8823 211.323 70.2323 212.71 69.6256 214.01C69.1056 215.223 69.0189 216.697 69.3656 218.43C69.9723 219.123 70.4923 219.47 70.9256 219.47C71.4456 219.383 72.0089 219.08 72.6156 218.56C75.9089 215.613 79.1589 212.623 82.3656 209.59C85.5723 206.557 88.6923 203.437 91.7256 200.23C93.1123 198.757 94.9323 196.72 97.1856 194.12C99.4389 191.52 101.909 188.703 104.596 185.67C107.282 182.55 110.056 179.387 112.916 176.18C115.862 172.973 118.722 170.027 121.496 167.34C124.269 164.653 126.869 162.4 129.296 160.58C131.722 158.673 133.759 157.547 135.406 157.2C137.746 158.153 139.176 159.453 139.696 161.1C140.302 162.66 140.389 164.567 139.956 166.82C139.002 171.153 137.962 175.53 136.836 179.95C135.709 184.283 134.626 188.66 133.586 193.08C132.546 197.5 131.636 201.92 130.856 206.34C130.076 210.76 129.599 215.18 129.426 219.6L130.726 220.51ZM240.916 188.01C240.569 189.223 239.486 190.437 237.666 191.65C235.933 192.863 233.766 194.033 231.166 195.16C228.566 196.2 225.749 197.197 222.716 198.15C219.683 199.017 216.693 199.797 213.746 200.49C210.886 201.183 208.243 201.747 205.816 202.18C203.476 202.527 201.699 202.7 200.486 202.7C199.013 202.7 197.583 202.7 196.196 202.7C194.809 202.613 193.379 202.613 191.906 202.7C190.693 203.653 189.826 204.867 189.306 206.34C188.786 207.727 188.309 209.113 187.876 210.5C188.483 210.933 189.003 211.41 189.436 211.93C189.956 212.45 190.563 212.797 191.256 212.97C193.856 213.577 197.106 213.88 201.006 213.88C204.906 213.793 209.153 213.533 213.746 213.1C218.339 212.58 223.106 211.93 228.046 211.15C232.986 210.37 237.796 209.547 242.476 208.68C247.156 207.813 251.576 206.99 255.736 206.21C259.896 205.43 263.449 204.823 266.396 204.39C270.383 203.783 274.499 202.917 278.746 201.79C282.993 200.663 287.109 199.927 291.096 199.58C292.049 199.493 292.873 199.623 293.566 199.97C294.346 200.23 294.823 200.88 294.996 201.92C293.956 202.527 292.309 203.177 290.056 203.87C287.803 204.477 285.246 205.127 282.386 205.82C279.526 206.513 276.449 207.207 273.156 207.9C269.949 208.507 266.829 209.07 263.796 209.59C260.763 210.11 257.946 210.63 255.346 211.15C252.833 211.583 250.796 211.93 249.236 212.19C246.983 212.623 244.253 213.187 241.046 213.88C237.839 214.487 234.373 215.137 230.646 215.83C227.006 216.437 223.193 217.043 219.206 217.65C215.306 218.17 211.536 218.56 207.896 218.82C204.343 218.993 201.006 218.95 197.886 218.69C194.853 218.43 192.383 217.823 190.476 216.87C187.183 215.223 185.059 213.23 184.106 210.89C183.066 208.463 183.369 205.603 185.016 202.31C186.316 199.623 188.526 197.11 191.646 194.77C194.766 192.43 198.276 190.393 202.176 188.66C206.076 186.84 210.149 185.41 214.396 184.37C218.729 183.243 222.716 182.637 226.356 182.55C230.083 182.377 233.246 182.723 235.846 183.59C238.533 184.457 240.223 185.93 240.916 188.01ZM196.716 198.02C199.143 198.02 202.003 197.803 205.296 197.37C208.676 196.937 212.056 196.287 215.436 195.42C218.816 194.467 222.023 193.34 225.056 192.04C228.176 190.74 230.646 189.267 232.466 187.62C229.433 187.62 226.313 187.793 223.106 188.14C219.899 188.487 216.736 189.093 213.616 189.96C210.583 190.74 207.593 191.823 204.646 193.21C201.786 194.51 199.143 196.113 196.716 198.02ZM293.417 249.63C296.97 242.09 301 234.897 305.507 228.05C310.1 221.203 314.607 214.27 319.027 207.25C317.033 207.25 314.867 207.943 312.527 209.33C310.273 210.717 307.977 212.06 305.637 213.36C303.297 214.573 301 215.353 298.747 215.7C296.493 215.96 294.37 215.05 292.377 212.97C290.383 210.803 289.603 208.593 290.037 206.34C290.383 204 291.51 201.747 293.417 199.58C295.323 197.413 297.75 195.333 300.697 193.34C303.643 191.347 306.633 189.57 309.667 188.01C312.787 186.363 315.733 184.977 318.507 183.85C321.28 182.723 323.447 181.943 325.007 181.51C327 180.903 329.037 180.6 331.117 180.6C333.197 180.6 335.277 180.513 337.357 180.34C339.35 177.48 341.733 174.1 344.507 170.2C347.367 166.213 350.357 162.227 353.477 158.24C356.597 154.167 359.717 150.397 362.837 146.93C366.043 143.377 368.947 140.603 371.547 138.61C373.107 137.483 374.493 136.963 375.707 137.05C377.007 137.05 378.003 137.483 378.697 138.35C379.39 139.217 379.737 140.387 379.737 141.86C379.823 143.333 379.347 144.893 378.307 146.54C375.273 151.653 371.72 156.42 367.647 160.84C363.573 165.173 359.37 169.463 355.037 173.71C350.79 177.957 346.587 182.247 342.427 186.58C338.267 190.913 334.583 195.593 331.377 200.62C325.657 209.46 319.807 218.17 313.827 226.75C307.933 235.417 302.343 244.3 297.057 253.4L293.417 249.63ZM331.377 186.06C329.47 186.58 326.61 187.663 322.797 189.31C319.07 190.87 315.3 192.733 311.487 194.9C307.673 196.98 304.337 199.233 301.477 201.66C298.617 204.087 297.143 206.427 297.057 208.68C299.917 208.42 302.95 207.51 306.157 205.95C309.45 204.303 312.657 202.353 315.777 200.1C318.897 197.847 321.8 195.463 324.487 192.95C327.26 190.437 329.557 188.14 331.377 186.06ZM358 249.63C361.553 242.09 365.583 234.897 370.09 228.05C374.683 221.203 379.19 214.27 383.61 207.25C381.617 207.25 379.45 207.943 377.11 209.33C374.857 210.717 372.56 212.06 370.22 213.36C367.88 214.573 365.583 215.353 363.33 215.7C361.077 215.96 358.953 215.05 356.96 212.97C354.967 210.803 354.187 208.593 354.62 206.34C354.967 204 356.093 201.747 358 199.58C359.907 197.413 362.333 195.333 365.28 193.34C368.227 191.347 371.217 189.57 374.25 188.01C377.37 186.363 380.317 184.977 383.09 183.85C385.863 182.723 388.03 181.943 389.59 181.51C391.583 180.903 393.62 180.6 395.7 180.6C397.78 180.6 399.86 180.513 401.94 180.34C403.933 177.48 406.317 174.1 409.09 170.2C411.95 166.213 414.94 162.227 418.06 158.24C421.18 154.167 424.3 150.397 427.42 146.93C430.627 143.377 433.53 140.603 436.13 138.61C437.69 137.483 439.077 136.963 440.29 137.05C441.59 137.05 442.587 137.483 443.28 138.35C443.973 139.217 444.32 140.387 444.32 141.86C444.407 143.333 443.93 144.893 442.89 146.54C439.857 151.653 436.303 156.42 432.23 160.84C428.157 165.173 423.953 169.463 419.62 173.71C415.373 177.957 411.17 182.247 407.01 186.58C402.85 190.913 399.167 195.593 395.96 200.62C390.24 209.46 384.39 218.17 378.41 226.75C372.517 235.417 366.927 244.3 361.64 253.4L358 249.63ZM395.96 186.06C394.053 186.58 391.193 187.663 387.38 189.31C383.653 190.87 379.883 192.733 376.07 194.9C372.257 196.98 368.92 199.233 366.06 201.66C363.2 204.087 361.727 206.427 361.64 208.68C364.5 208.42 367.533 207.51 370.74 205.95C374.033 204.303 377.24 202.353 380.36 200.1C383.48 197.847 386.383 195.463 389.07 192.95C391.843 190.437 394.14 188.14 395.96 186.06ZM438.184 186.58C439.31 187.273 440.09 188.097 440.524 189.05C441.044 190.003 440.827 191.087 439.874 192.3C439.007 193.34 438.357 194.163 437.924 194.77C437.577 195.29 437.23 195.81 436.884 196.33C436.537 196.85 436.104 197.37 435.584 197.89C435.15 198.41 434.457 199.103 433.504 199.97C429.604 203.523 427.09 206.383 425.964 208.55C424.924 210.63 424.794 212.277 425.574 213.49C426.44 214.617 428 215.31 430.254 215.57C432.507 215.83 435.064 215.873 437.924 215.7C440.87 215.527 443.86 215.18 446.894 214.66C449.927 214.14 452.657 213.663 455.084 213.23C459.85 212.363 464.357 211.323 468.604 210.11C472.85 208.897 477.184 207.64 481.604 206.34C486.024 205.04 490.704 203.783 495.644 202.57C500.584 201.27 506.087 200.187 512.154 199.32L513.584 201.4L512.804 203.09C512.024 203.523 511.244 203.827 510.464 204C509.684 204.173 508.904 204.347 508.124 204.52C499.11 206.773 490.357 209.243 481.864 211.93C473.37 214.617 464.79 216.783 456.124 218.43C454.564 218.69 452.44 219.08 449.754 219.6C447.154 220.033 444.294 220.38 441.174 220.64C438.14 220.9 435.064 221.03 431.944 221.03C428.824 220.943 426.094 220.553 423.754 219.86C422.02 219.34 420.59 218.603 419.464 217.65C418.25 216.697 417.514 215.483 417.254 214.01C416.907 212.537 417.124 210.803 417.904 208.81C418.684 206.817 420.157 204.563 422.324 202.05C425.357 198.497 428.13 195.463 430.644 192.95C433.157 190.437 435.67 188.313 438.184 186.58ZM458.594 173.58C458.594 173.84 458.074 174.403 457.034 175.27C455.994 176.05 454.824 176.917 453.524 177.87C452.224 178.823 450.967 179.733 449.754 180.6C448.54 181.38 447.674 181.9 447.154 182.16C446.287 181.033 445.94 179.82 446.114 178.52C446.374 177.22 446.894 176.007 447.674 174.88C448.454 173.667 449.45 172.627 450.664 171.76C451.877 170.893 453.047 170.33 454.174 170.07C455.3 169.81 456.297 169.94 457.164 170.46C458.03 170.98 458.507 172.02 458.594 173.58ZM641.627 201.01L639.937 203.35C634.737 205.343 629.493 207.25 624.207 209.07C618.92 210.89 613.72 212.407 608.607 213.62C603.58 214.747 598.77 215.483 594.177 215.83C589.583 216.09 585.38 215.7 581.567 214.66C577.753 213.533 574.46 211.627 571.687 208.94C568.913 206.253 566.79 202.527 565.317 197.76C564.277 194.38 562.587 192.213 560.247 191.26C557.907 190.22 555.263 189.96 552.317 190.48C549.37 191 546.293 192.083 543.087 193.73C539.88 195.29 536.89 196.893 534.117 198.54C532.47 199.493 530.303 201.053 527.617 203.22C524.93 205.387 522.2 207.597 519.427 209.85C516.74 212.103 514.227 214.14 511.887 215.96C509.46 217.78 507.77 218.863 506.817 219.21C506.037 218.777 505.257 218.343 504.477 217.91C503.697 217.477 502.917 217.043 502.137 216.61C501.963 215.657 502.397 214.4 503.437 212.84C504.39 211.193 505.69 209.417 507.337 207.51C508.897 205.603 510.673 203.61 512.667 201.53C514.66 199.363 516.567 197.327 518.387 195.42C520.207 193.427 521.853 191.607 523.327 189.96C524.8 188.313 525.84 186.97 526.447 185.93C528.787 185.583 530.867 186.363 532.687 188.27C532.513 188.79 532.167 189.267 531.647 189.7C531.127 190.133 530.607 190.567 530.087 191C529.653 191.347 529.263 191.78 528.917 192.3C528.657 192.733 528.613 193.297 528.787 193.99C530.173 193.297 531.95 192.387 534.117 191.26C536.37 190.133 538.797 189.007 541.397 187.88C543.997 186.753 546.64 185.8 549.327 185.02C552.1 184.153 554.7 183.72 557.127 183.72C559.64 183.633 561.893 184.067 563.887 185.02C565.88 185.973 567.44 187.663 568.567 190.09C569.26 191.737 569.997 193.6 570.777 195.68C571.557 197.673 572.423 199.667 573.377 201.66C574.417 203.567 575.63 205.3 577.017 206.86C578.403 208.333 580.05 209.33 581.957 209.85C585.25 210.803 589.367 211.063 594.307 210.63C599.247 210.11 604.403 209.243 609.777 208.03C615.237 206.73 620.567 205.3 625.767 203.74C630.967 202.18 635.473 200.75 639.287 199.45L641.627 201.01ZM681.583 188.01C683.317 187.057 685.007 186.19 686.653 185.41C688.3 184.543 689.99 183.633 691.723 182.68C692.417 183.373 693.11 184.067 693.803 184.76C694.583 185.367 695.32 186.017 696.013 186.71C692.893 192.083 689.167 198.15 684.833 204.91C680.5 211.583 675.777 218.213 670.663 224.8C665.637 231.3 660.35 237.453 654.803 243.26C649.343 249.067 643.97 253.747 638.683 257.3C634.35 260.16 629.887 262.37 625.293 263.93C620.7 265.49 616.193 266.14 611.773 265.88C607.353 265.707 603.15 264.493 599.163 262.24C595.09 259.987 591.45 256.52 588.243 251.84C587.03 250.107 586.423 248.547 586.423 247.16C586.423 245.773 586.64 244.083 587.073 242.09C588.373 241.917 589.327 242.09 589.933 242.61C590.54 243.217 590.93 244.127 591.103 245.34C591.623 248.373 592.75 250.973 594.483 253.14C596.217 255.307 598.297 256.953 600.723 258.08C603.063 259.293 605.707 259.987 608.653 260.16C611.513 260.42 614.417 260.16 617.363 259.38C624.123 257.473 630.45 254.267 636.343 249.76C642.15 245.253 647.61 240.14 652.723 234.42C657.923 228.787 662.777 222.893 667.283 216.74C671.79 210.5 676.037 204.737 680.023 199.45C679.157 198.93 677.553 199.32 675.213 200.62C672.96 201.833 670.317 203.437 667.283 205.43C664.25 207.423 661 209.46 657.533 211.54C654.153 213.62 650.86 215.223 647.653 216.35C644.447 217.477 641.543 217.823 638.943 217.39C636.343 216.957 634.35 215.223 632.963 212.19C632.877 210.283 633.527 208.247 634.913 206.08C636.3 203.913 638.12 201.747 640.373 199.58C642.627 197.413 645.183 195.333 648.043 193.34C650.903 191.26 653.763 189.397 656.623 187.75C659.57 186.103 662.343 184.717 664.943 183.59C667.63 182.463 669.883 181.727 671.703 181.38C673.003 181.12 674.39 181.12 675.863 181.38C677.337 181.64 678.593 182.073 679.633 182.68C680.76 183.287 681.54 184.067 681.973 185.02C682.493 185.887 682.363 186.883 681.583 188.01ZM659.483 193.47C655.583 196.07 651.943 198.973 648.563 202.18C645.183 205.387 642.627 208.507 640.893 211.54L641.543 211.8C644.49 211.02 647.523 209.893 650.643 208.42C653.85 206.86 657.013 205.127 660.133 203.22C663.253 201.313 666.243 199.363 669.103 197.37C672.05 195.29 674.693 193.34 677.033 191.52C676.773 189.267 675.95 187.923 674.563 187.49C673.263 187.057 671.703 187.143 669.883 187.75C668.15 188.357 666.33 189.267 664.423 190.48C662.517 191.607 660.87 192.603 659.483 193.47ZM839.466 215.31C840.593 216.35 841.85 217.043 843.236 217.39C844.623 217.737 846.01 218.04 847.396 218.3C848.87 218.473 850.3 218.733 851.686 219.08C853.16 219.34 854.503 219.903 855.716 220.77C853.55 221.463 851.556 221.767 849.736 221.68C848.003 221.593 846.313 221.377 844.666 221.03C843.02 220.683 841.33 220.293 839.596 219.86C837.95 219.427 836.13 219.123 834.136 218.95C828.936 221.637 823.736 224.193 818.536 226.62C813.423 229.133 807.963 230.997 802.156 232.21C799.296 232.817 796.22 233.293 792.926 233.64C789.72 233.987 786.513 233.987 783.306 233.64C780.186 233.38 777.153 232.687 774.206 231.56C771.26 230.52 768.66 228.873 766.406 226.62C763.373 223.673 761.856 220.597 761.856 217.39C761.77 214.183 762.636 210.977 764.456 207.77C766.276 204.477 768.79 201.313 771.996 198.28C775.29 195.16 778.67 192.3 782.136 189.7C785.69 187.013 789.113 184.63 792.406 182.55C795.7 180.383 798.343 178.693 800.336 177.48C800.596 171.5 801.983 165.997 804.496 160.97C807.01 155.943 810.26 151.48 814.246 147.58C818.233 143.68 822.783 140.473 827.896 137.96C833.096 135.36 838.513 133.583 844.146 132.63C848.133 133.497 850.776 134.797 852.076 136.53C853.376 138.177 853.723 140.083 853.116 142.25C852.51 144.33 851.08 146.583 848.826 149.01C846.573 151.437 843.93 153.907 840.896 156.42C837.95 158.933 834.743 161.403 831.276 163.83C827.81 166.257 824.473 168.467 821.266 170.46C818.146 172.453 815.33 174.187 812.816 175.66C810.39 177.133 808.7 178.217 807.746 178.91C808.353 186.623 810.91 193.427 815.416 199.32C819.923 205.213 825.686 209.677 832.706 212.71C834.7 211.583 837.213 209.98 840.246 207.9C843.28 205.733 846.14 203.307 848.826 200.62C851.6 197.933 853.853 195.16 855.586 192.3C857.406 189.353 858.143 186.58 857.796 183.98C856.93 182.68 855.586 181.9 853.766 181.64C852.033 181.38 850.04 181.467 847.786 181.9C845.533 182.333 843.15 183.07 840.636 184.11C838.123 185.063 835.696 186.103 833.356 187.23C831.103 188.27 829.023 189.353 827.116 190.48C825.296 191.52 823.953 192.387 823.086 193.08C822.653 193.427 822.22 193.73 821.786 193.99C821.353 194.163 820.92 194.337 820.486 194.51L818.146 192.82C818.406 191.26 819.36 189.743 821.006 188.27C822.74 186.71 824.82 185.28 827.246 183.98C829.673 182.593 832.36 181.423 835.306 180.47C838.34 179.43 841.33 178.65 844.276 178.13C847.223 177.61 849.996 177.437 852.596 177.61C855.283 177.783 857.493 178.39 859.226 179.43C860.96 180.383 862.13 181.857 862.736 183.85C863.43 185.843 863.213 188.4 862.086 191.52C861.653 192.907 861.003 194.207 860.136 195.42C859.356 196.633 858.49 197.803 857.536 198.93C854.763 202.05 851.86 204.91 848.826 207.51C845.793 210.11 842.673 212.71 839.466 215.31ZM827.636 215.83C823.563 213.49 820.14 211.323 817.366 209.33C814.68 207.25 812.34 204.997 810.346 202.57C808.353 200.143 806.62 197.413 805.146 194.38C803.673 191.26 802.113 187.49 800.466 183.07C799.08 183.85 797.26 184.977 795.006 186.45C792.753 187.837 790.326 189.483 787.726 191.39C785.213 193.21 782.7 195.247 780.186 197.5C777.673 199.667 775.42 201.877 773.426 204.13C771.52 206.383 770.003 208.593 768.876 210.76C767.836 212.927 767.49 214.963 767.836 216.87C767.49 219.123 767.75 221.117 768.616 222.85C769.483 224.583 770.913 225.97 772.906 227.01C775.42 228.31 778.193 229.133 781.226 229.48C784.346 229.827 787.553 229.783 790.846 229.35C794.14 229.003 797.476 228.353 800.856 227.4C804.323 226.447 807.66 225.363 810.866 224.15C814.073 222.85 817.106 221.507 819.966 220.12C822.826 218.647 825.383 217.217 827.636 215.83ZM847.656 137.05C843.323 137.05 839.033 138.003 834.786 139.91C830.626 141.73 826.77 144.157 823.216 147.19C819.663 150.223 816.586 153.69 813.986 157.59C811.386 161.49 809.523 165.433 808.396 169.42C808.223 170.113 808.093 170.72 808.006 171.24C808.006 171.76 808.483 172.107 809.436 172.28C810.65 171.587 812.556 170.503 815.156 169.03C817.843 167.47 820.703 165.693 823.736 163.7C826.856 161.62 830.02 159.41 833.226 157.07C836.433 154.643 839.206 152.26 841.546 149.92C843.973 147.493 845.793 145.197 847.006 143.03C848.22 140.777 848.436 138.783 847.656 137.05ZM998.775 174.36C995.309 174.187 991.409 174.187 987.075 174.36C982.742 174.447 978.279 174.533 973.685 174.62C969.179 174.707 964.759 174.663 960.425 174.49C956.092 174.23 952.235 173.71 948.855 172.93C945.649 172.15 943.525 170.893 942.485 169.16C941.532 167.427 940.839 165.043 940.405 162.01C941.272 159.67 943.179 157.417 946.125 155.25C949.159 152.997 952.885 150.873 957.305 148.88C961.812 146.887 966.795 145.067 972.255 143.42C977.802 141.687 983.522 140.127 989.415 138.74C995.395 137.353 1001.33 136.183 1007.23 135.23C1013.12 134.277 1018.67 133.54 1023.87 133.02C1029.07 132.5 1033.7 132.283 1037.78 132.37C1041.94 132.37 1045.19 132.673 1047.53 133.28C1048.74 133.627 1049.65 133.93 1050.26 134.19C1050.86 134.45 1051.3 134.84 1051.56 135.36C1051.82 135.793 1051.99 136.4 1052.08 137.18C1052.16 137.873 1052.29 138.827 1052.47 140.04C1051.86 141.253 1050.43 142.683 1048.18 144.33C1045.92 145.89 1043.19 147.537 1039.99 149.27C1036.87 150.917 1033.4 152.607 1029.59 154.34C1025.86 156.073 1022.22 157.72 1018.67 159.28C1015.2 160.753 1011.99 162.097 1009.05 163.31C1006.19 164.523 1003.98 165.433 1002.42 166.04L1001.25 162.01C1003.41 159.67 1006.4 157.633 1010.22 155.9C1014.03 154.08 1018.02 152.347 1022.18 150.7C1026.34 149.053 1030.41 147.363 1034.4 145.63C1038.47 143.81 1041.89 141.773 1044.67 139.52C1044.49 139 1044.02 138.48 1043.24 137.96C1042.46 137.44 1041.16 137.05 1039.34 136.79C1037.6 136.53 1035.26 136.443 1032.32 136.53C1029.46 136.617 1025.82 137.007 1021.4 137.7C1018.54 138.133 1014.94 138.783 1010.61 139.65C1006.27 140.43 1001.59 141.427 996.565 142.64C991.625 143.767 986.555 145.11 981.355 146.67C976.155 148.143 971.215 149.747 966.535 151.48C961.855 153.213 957.652 155.077 953.925 157.07C950.285 159.063 947.555 161.143 945.735 163.31C945.562 164.697 946.645 165.823 948.985 166.69C951.325 167.47 954.315 168.077 957.955 168.51C961.682 168.943 965.755 169.247 970.175 169.42C974.682 169.593 979.015 169.68 983.175 169.68C987.335 169.68 991.019 169.68 994.225 169.68C997.519 169.593 999.815 169.55 1001.12 169.55C1002.76 169.55 1004.28 169.81 1005.67 170.33C1007.05 170.763 1007.88 171.977 1008.14 173.97L1007.62 175.66C1004.93 177.74 1001.98 179.343 998.775 180.47C995.569 181.51 992.362 182.593 989.155 183.72C986.122 184.76 982.482 186.06 978.235 187.62C973.989 189.093 969.482 190.827 964.715 192.82C960.035 194.727 955.269 196.85 950.415 199.19C945.562 201.53 941.055 204 936.895 206.6C932.735 209.2 929.095 211.973 925.975 214.92C922.769 217.78 920.515 220.727 919.215 223.76C919.909 226.447 921.685 228.267 924.545 229.22C927.405 230.26 931.002 230.65 935.335 230.39C939.669 230.217 944.565 229.437 950.025 228.05C955.572 226.75 961.292 225.147 967.185 223.24C973.165 221.247 979.145 218.993 985.125 216.48C991.192 213.967 996.912 211.41 1002.29 208.81C1007.75 206.21 1012.69 203.653 1017.11 201.14C1021.53 198.54 1025.12 196.2 1027.9 194.12C1029.2 195.16 1029.76 196.287 1029.59 197.5C1029.41 198.627 1028.81 199.797 1027.77 201.01C1026.73 202.137 1025.38 203.263 1023.74 204.39C1022.09 205.517 1020.4 206.6 1018.67 207.64C1017.02 208.593 1015.42 209.46 1013.86 210.24C1012.38 210.933 1011.3 211.453 1010.61 211.8C1000.29 217 989.849 221.55 979.275 225.45C968.702 229.35 957.695 232.21 946.255 234.03C938.889 235.243 932.865 235.59 928.185 235.07C923.419 234.55 919.909 233.467 917.655 231.82C915.315 230.173 914.102 228.05 914.015 225.45C913.929 222.85 914.839 220.033 916.745 217C918.652 213.967 921.512 210.847 925.325 207.64C929.052 204.433 933.602 201.4 938.975 198.54C943.049 196.373 947.599 194.163 952.625 191.91C957.739 189.657 962.982 187.49 968.355 185.41C973.729 183.243 979.015 181.25 984.215 179.43C989.502 177.523 994.355 175.833 998.775 174.36ZM1048.05 187.62C1048.31 188.053 1048.91 188.617 1049.87 189.31C1050.82 189.917 1051.51 190.913 1051.95 192.3C1050.82 193.773 1049.82 195.117 1048.96 196.33C1048.09 197.457 1047.31 198.627 1046.62 199.84C1046.01 200.967 1045.45 202.18 1044.93 203.48C1044.41 204.693 1043.97 206.123 1043.63 207.77C1043.37 209.07 1043.24 210.197 1043.24 211.15C1043.67 212.623 1044.58 213.447 1045.97 213.62C1047.44 213.707 1049.04 213.403 1050.78 212.71C1055.63 211.063 1060.22 208.94 1064.56 206.34C1068.89 203.74 1073.01 200.923 1076.91 197.89C1080.89 194.77 1084.75 191.52 1088.48 188.14C1092.2 184.76 1095.89 181.423 1099.53 178.13C1100.13 178.737 1100.65 179.3 1101.09 179.82C1101.61 180.34 1102.3 181.207 1103.17 182.42C1100.65 185.107 1097.53 188.14 1093.81 191.52C1090.17 194.9 1086.14 198.237 1081.72 201.53C1077.38 204.823 1072.83 207.943 1068.07 210.89C1063.3 213.837 1058.62 216.263 1054.03 218.17C1052.47 218.777 1050.91 219.253 1049.35 219.6C1047.79 219.947 1046.36 220.033 1045.06 219.86C1043.76 219.6 1042.59 219.08 1041.55 218.3C1040.51 217.52 1039.68 216.263 1039.08 214.53C1038.73 213.75 1038.51 212.883 1038.43 211.93C1037.99 210.11 1037.95 207.987 1038.3 205.56C1038.56 203.133 1039.16 200.75 1040.12 198.41C1040.98 196.07 1042.11 193.947 1043.5 192.04C1044.88 190.047 1046.4 188.573 1048.05 187.62ZM1162.46 188.01C1162.11 189.223 1161.03 190.437 1159.21 191.65C1157.48 192.863 1155.31 194.033 1152.71 195.16C1150.11 196.2 1147.29 197.197 1144.26 198.15C1141.23 199.017 1138.24 199.797 1135.29 200.49C1132.43 201.183 1129.79 201.747 1127.36 202.18C1125.02 202.527 1123.24 202.7 1122.03 202.7C1120.56 202.7 1119.13 202.7 1117.74 202.7C1116.35 202.613 1114.92 202.613 1113.45 202.7C1112.24 203.653 1111.37 204.867 1110.85 206.34C1110.33 207.727 1109.85 209.113 1109.42 210.5C1110.03 210.933 1110.55 211.41 1110.98 211.93C1111.5 212.45 1112.11 212.797 1112.8 212.97C1115.4 213.577 1118.65 213.88 1122.55 213.88C1126.45 213.793 1130.7 213.533 1135.29 213.1C1139.88 212.58 1144.65 211.93 1149.59 211.15C1154.53 210.37 1159.34 209.547 1164.02 208.68C1168.7 207.813 1173.12 206.99 1177.28 206.21C1181.44 205.43 1184.99 204.823 1187.94 204.39C1191.93 203.783 1196.04 202.917 1200.29 201.79C1204.54 200.663 1208.65 199.927 1212.64 199.58C1213.59 199.493 1214.42 199.623 1215.11 199.97C1215.89 200.23 1216.37 200.88 1216.54 201.92C1215.5 202.527 1213.85 203.177 1211.6 203.87C1209.35 204.477 1206.79 205.127 1203.93 205.82C1201.07 206.513 1197.99 207.207 1194.7 207.9C1191.49 208.507 1188.37 209.07 1185.34 209.59C1182.31 210.11 1179.49 210.63 1176.89 211.15C1174.38 211.583 1172.34 211.93 1170.78 212.19C1168.53 212.623 1165.8 213.187 1162.59 213.88C1159.38 214.487 1155.92 215.137 1152.19 215.83C1148.55 216.437 1144.74 217.043 1140.75 217.65C1136.85 218.17 1133.08 218.56 1129.44 218.82C1125.89 218.993 1122.55 218.95 1119.43 218.69C1116.4 218.43 1113.93 217.823 1112.02 216.87C1108.73 215.223 1106.6 213.23 1105.65 210.89C1104.61 208.463 1104.91 205.603 1106.56 202.31C1107.86 199.623 1110.07 197.11 1113.19 194.77C1116.31 192.43 1119.82 190.393 1123.72 188.66C1127.62 186.84 1131.69 185.41 1135.94 184.37C1140.27 183.243 1144.26 182.637 1147.9 182.55C1151.63 182.377 1154.79 182.723 1157.39 183.59C1160.08 184.457 1161.77 185.93 1162.46 188.01ZM1118.26 198.02C1120.69 198.02 1123.55 197.803 1126.84 197.37C1130.22 196.937 1133.6 196.287 1136.98 195.42C1140.36 194.467 1143.57 193.34 1146.6 192.04C1149.72 190.74 1152.19 189.267 1154.01 187.62C1150.98 187.62 1147.86 187.793 1144.65 188.14C1141.44 188.487 1138.28 189.093 1135.16 189.96C1132.13 190.74 1129.14 191.823 1126.19 193.21C1123.33 194.51 1120.69 196.113 1118.26 198.02ZM1343.14 201.01L1341.45 203.35C1336.25 205.343 1331.01 207.25 1325.72 209.07C1320.43 210.89 1315.23 212.407 1310.12 213.62C1305.09 214.747 1300.28 215.483 1295.69 215.83C1291.1 216.09 1286.89 215.7 1283.08 214.66C1279.27 213.533 1275.97 211.627 1273.2 208.94C1270.43 206.253 1268.3 202.527 1266.83 197.76C1265.79 194.38 1264.1 192.213 1261.76 191.26C1259.42 190.22 1256.78 189.96 1253.83 190.48C1250.88 191 1247.81 192.083 1244.6 193.73C1241.39 195.29 1238.4 196.893 1235.63 198.54C1233.98 199.493 1231.82 201.053 1229.13 203.22C1226.44 205.387 1223.71 207.597 1220.94 209.85C1218.25 212.103 1215.74 214.14 1213.4 215.96C1210.97 217.78 1209.28 218.863 1208.33 219.21C1207.55 218.777 1206.77 218.343 1205.99 217.91C1205.21 217.477 1204.43 217.043 1203.65 216.61C1203.48 215.657 1203.91 214.4 1204.95 212.84C1205.9 211.193 1207.2 209.417 1208.85 207.51C1210.41 205.603 1212.19 203.61 1214.18 201.53C1216.17 199.363 1218.08 197.327 1219.9 195.42C1221.72 193.427 1223.37 191.607 1224.84 189.96C1226.31 188.313 1227.35 186.97 1227.96 185.93C1230.3 185.583 1232.38 186.363 1234.2 188.27C1234.03 188.79 1233.68 189.267 1233.16 189.7C1232.64 190.133 1232.12 190.567 1231.6 191C1231.17 191.347 1230.78 191.78 1230.43 192.3C1230.17 192.733 1230.13 193.297 1230.3 193.99C1231.69 193.297 1233.46 192.387 1235.63 191.26C1237.88 190.133 1240.31 189.007 1242.91 187.88C1245.51 186.753 1248.15 185.8 1250.84 185.02C1253.61 184.153 1256.21 183.72 1258.64 183.72C1261.15 183.633 1263.41 184.067 1265.4 185.02C1267.39 185.973 1268.95 187.663 1270.08 190.09C1270.77 191.737 1271.51 193.6 1272.29 195.68C1273.07 197.673 1273.94 199.667 1274.89 201.66C1275.93 203.567 1277.14 205.3 1278.53 206.86C1279.92 208.333 1281.56 209.33 1283.47 209.85C1286.76 210.803 1290.88 211.063 1295.82 210.63C1300.76 210.11 1305.92 209.243 1311.29 208.03C1316.75 206.73 1322.08 205.3 1327.28 203.74C1332.48 202.18 1336.99 200.75 1340.8 199.45L1343.14 201.01ZM1336.17 162.01C1336.43 162.097 1336.73 162.183 1337.08 162.27C1337.34 162.357 1337.6 162.357 1337.86 162.27C1342.97 161.577 1348.17 160.753 1353.46 159.8C1358.83 158.76 1363.99 157.633 1368.93 156.42C1371.61 155.813 1373.87 154.34 1375.69 152C1377.68 149.487 1379.72 146.93 1381.8 144.33C1383.88 141.73 1385.96 139.173 1388.04 136.66C1389.6 134.753 1391.2 132.847 1392.85 130.94C1394.58 129.033 1396.36 127.257 1398.18 125.61C1399.48 125.523 1400.56 125.783 1401.43 126.39C1402.29 126.997 1402.68 128.037 1402.6 129.51C1399.3 133.063 1396.14 136.66 1393.11 140.3C1390.16 143.94 1387.3 147.71 1384.53 151.61C1387.65 152.39 1391.33 152.737 1395.58 152.65C1399.82 152.477 1404.33 152.13 1409.1 151.61C1413.95 151.09 1418.93 150.483 1424.05 149.79C1429.25 149.097 1434.27 148.577 1439.13 148.23C1443.98 147.883 1448.53 147.84 1452.78 148.1C1457.11 148.273 1460.88 149.01 1464.09 150.31V153.69C1460.79 153.43 1456.81 153.3 1452.13 153.3C1447.53 153.213 1442.59 153.3 1437.31 153.56C1432.02 153.733 1426.56 154.037 1420.93 154.47C1415.38 154.903 1409.96 155.423 1404.68 156.03C1399.39 156.637 1394.45 157.33 1389.86 158.11C1385.26 158.803 1381.36 159.583 1378.16 160.45C1375.56 163.31 1372.7 166.777 1369.58 170.85C1366.54 174.837 1363.42 179.213 1360.22 183.98C1357.01 188.66 1353.76 193.557 1350.47 198.67C1347.17 203.697 1344.05 208.68 1341.11 213.62C1338.07 218.473 1335.26 223.153 1332.66 227.66C1329.97 232.167 1327.63 236.153 1325.64 239.62C1324.86 241.007 1324.25 242.393 1323.82 243.78C1323.38 245.167 1323.64 246.597 1324.6 248.07C1322.6 251.103 1320.61 254.137 1318.62 257.17C1316.62 260.29 1314.63 263.41 1312.64 266.53C1312.03 266.357 1311.51 266.227 1311.08 266.14C1310.56 266.053 1310.12 265.923 1309.78 265.75C1309.34 265.577 1309 265.317 1308.74 264.97C1308.39 264.71 1308.09 264.233 1307.83 263.54V262.11C1311.47 253.183 1315.63 244.387 1320.31 235.72C1324.9 227.14 1329.84 218.69 1335.13 210.37C1340.33 202.05 1345.7 193.86 1351.25 185.8C1356.88 177.74 1362.51 169.81 1368.15 162.01C1366.59 161.923 1364.46 162.097 1361.78 162.53C1359.09 162.877 1356.1 163.397 1352.81 164.09C1349.51 164.783 1346.09 165.563 1342.54 166.43C1338.98 167.297 1335.56 168.163 1332.27 169.03C1328.97 169.897 1325.94 170.763 1323.17 171.63C1320.39 172.41 1318.14 173.06 1316.41 173.58C1315.28 173.927 1313.94 174.36 1312.38 174.88C1310.82 175.313 1309.43 175.53 1308.22 175.53C1305.53 175.53 1304.4 174.057 1304.84 171.11C1309 168.597 1313.2 166.343 1317.45 164.35C1321.69 162.27 1326.03 160.19 1330.45 158.11L1332.79 158.5L1336.17 162.01Z" fill="white" fill-opacity="0.33"/>
</svg>
