<svg xmlns="http://www.w3.org/2000/svg" viewBox="0 0 500 500"><g id="freepik--background-complete--inject-105"><rect y="382.4" width="500" height="0.25" style="fill:#ebebeb"></rect><rect x="416.78" y="398.49" width="33.12" height="0.25" style="fill:#ebebeb"></rect><rect x="322.53" y="401.21" width="8.69" height="0.25" style="fill:#ebebeb"></rect><rect x="396.59" y="389.21" width="19.19" height="0.25" style="fill:#ebebeb"></rect><rect x="52.46" y="390.89" width="43.19" height="0.25" style="fill:#ebebeb"></rect><rect x="104.56" y="390.89" width="6.33" height="0.25" style="fill:#ebebeb"></rect><rect x="131.47" y="395.11" width="93.68" height="0.25" style="fill:#ebebeb"></rect><path d="M237,337.8H43.91a5.71,5.71,0,0,1-5.7-5.71V60.66A5.71,5.71,0,0,1,43.91,55H237a5.71,5.71,0,0,1,5.71,5.71V332.09A5.71,5.71,0,0,1,237,337.8ZM43.91,55.2a5.46,5.46,0,0,0-5.45,5.46V332.09a5.46,5.46,0,0,0,5.45,5.46H237a5.47,5.47,0,0,0,5.46-5.46V60.66A5.47,5.47,0,0,0,237,55.2Z" style="fill:#ebebeb"></path><path d="M453.31,337.8H260.21a5.72,5.72,0,0,1-5.71-5.71V60.66A5.72,5.72,0,0,1,260.21,55h193.1A5.71,5.71,0,0,1,459,60.66V332.09A5.71,5.71,0,0,1,453.31,337.8ZM260.21,55.2a5.47,5.47,0,0,0-5.46,5.46V332.09a5.47,5.47,0,0,0,5.46,5.46h193.1a5.47,5.47,0,0,0,5.46-5.46V60.66a5.47,5.47,0,0,0-5.46-5.46Z" style="fill:#ebebeb"></path><polygon points="71.9 157.58 72.64 157.58 72.64 151.49 72.27 150.77 71.9 151.49 71.9 157.58" style="fill:#f0f0f0"></polygon><polygon points="141.55 224.86 142.29 224.86 142.29 220.17 141.92 219.62 141.55 220.17 141.55 224.86" style="fill:#f0f0f0"></polygon><path d="M83.63,312.93,79.83,167c3-3.57-1.84-7-7.49-10.35-7.48,3.53-10.54,7.25-7.34,11.38L60.17,312.93Z" style="fill:#ebebeb"></path><path d="M59.19,272h25.7c.76-1.57,1-3,0-4.18H59.19A3.31,3.31,0,0,0,59.19,272Z" style="fill:#f0f0f0"></path><path d="M59.19,230.79h25.7c.76-1.57,1-3,0-4.18H59.19A3.31,3.31,0,0,0,59.19,230.79Z" style="fill:#f0f0f0"></path><path d="M60.82,171.81H83.25c.67-1.57.9-3,0-4.18H60.82A3.67,3.67,0,0,0,60.82,171.81Z" style="fill:#f0f0f0"></path><path d="M146.06,231l1.38,78H134l3.11-78c-.88-2.23,1-4.6,4.83-7.07C145.93,227.25,146.79,229.42,146.06,231Z" style="fill:#f0f0f0"></path><path d="M134,269.13h14.84a2.51,2.51,0,0,0,0-2.68H134A2.31,2.31,0,0,0,134,269.13Z" style="fill:#f0f0f0"></path><path d="M135.49,241.45H147.3a3,3,0,0,0,0-2.68H135.49A2.77,2.77,0,0,0,135.49,241.45Z" style="fill:#f0f0f0"></path><path d="M135.49,232.65H147.3c.35-.59.48-1.15,0-1.58H135.49A1.08,1.08,0,0,0,135.49,232.65Z" style="fill:#f0f0f0"></path><path d="M59.19,186h25.7c.76-1.57,1-3,0-4.18H59.19A3.31,3.31,0,0,0,59.19,186Z" style="fill:#f0f0f0"></path><polygon points="425.33 157.58 424.59 157.58 424.59 151.49 424.96 150.77 425.33 151.49 425.33 157.58" style="fill:#f0f0f0"></polygon><polygon points="355.68 224.86 354.93 224.86 354.93 220.17 355.31 219.62 355.68 220.17 355.68 224.86" style="fill:#f0f0f0"></polygon><polygon points="299.29 204.16 298.54 204.16 298.54 196.32 298.92 195.4 299.29 196.32 299.29 204.16" style="fill:#f0f0f0"></polygon><path d="M316,226.61H281.79c-1-2.62-1.37-5.06,0-7H316A6.66,6.66,0,0,1,316,226.61Z" style="fill:#f0f0f0"></path><path d="M305.12,206.87l-6.2-3.8-6.21,3.8c-6.61,3.39-8.53,8.74-8.28,15v14.66h29V221.87C313.66,215.61,311.73,210.26,305.12,206.87Z" style="fill:#f0f0f0"></path><path d="M413.6,312.93,417.4,167c-3-3.57,1.84-7,7.49-10.35,7.48,3.53,10.54,7.25,7.34,11.38l4.83,144.87Z" style="fill:#ebebeb"></path><path d="M438,272h-25.7c-.76-1.57-1-3,0-4.18H438A3.31,3.31,0,0,1,438,272Z" style="fill:#f0f0f0"></path><path d="M438,230.79h-25.7c-.76-1.57-1-3,0-4.18H438A3.31,3.31,0,0,1,438,230.79Z" style="fill:#f0f0f0"></path><path d="M438,186h-25.7c-.76-1.57-1-3,0-4.18H438A3.31,3.31,0,0,1,438,186Z" style="fill:#f0f0f0"></path><path d="M436.41,171.81H414c-.67-1.57-.91-3,0-4.18h22.43A3.67,3.67,0,0,1,436.41,171.81Z" style="fill:#f0f0f0"></path><path d="M351.17,231l-1.38,78h13.45l-3.1-78c.88-2.23-1-4.6-4.83-7.07C351.3,227.25,350.44,229.42,351.17,231Z" style="fill:#f0f0f0"></path><path d="M363.24,269.13H348.41a2.51,2.51,0,0,1,0-2.68h14.83A2.28,2.28,0,0,1,363.24,269.13Z" style="fill:#f0f0f0"></path><path d="M361.74,241.45H349.93a3,3,0,0,1,0-2.68h11.81A2.77,2.77,0,0,1,361.74,241.45Z" style="fill:#f0f0f0"></path><path d="M361.74,232.65H349.93c-.35-.59-.48-1.15,0-1.58h11.81A1.08,1.08,0,0,1,361.74,232.65Z" style="fill:#f0f0f0"></path><polygon points="197.94 204.16 198.69 204.16 198.69 196.32 198.31 195.4 197.94 196.32 197.94 204.16" style="fill:#f0f0f0"></polygon><path d="M181.28,226.61h34.16c1-2.62,1.37-5.06,0-7H181.28A6.66,6.66,0,0,0,181.28,226.61Z" style="fill:#f5f5f5"></path><path d="M192.1,206.87l6.21-3.8,6.21,3.8c6.61,3.39,8.53,8.74,8.28,15v14.66h-29V221.87C183.57,215.61,185.5,210.26,192.1,206.87Z" style="fill:#f5f5f5"></path><path d="M320.86,234.94H289.3V206.48c5.27-20.81-2.38-37.66-25.87-49.67l-13.74-10.35L236,156.81c-23.48,12-31.14,28.86-25.87,49.67v28.46H178.52l-21.21,4.14v69.84H342.08V239.08Z" style="fill:#f0f0f0"></path><polygon points="247.94 148.65 249.28 148.65 249.28 126.82 248.61 124.26 247.94 126.82 247.94 148.65" style="fill:#f0f0f0"></polygon><path d="M250.82,138.88a2.43,2.43,0,1,1-2.42-2.43A2.42,2.42,0,0,1,250.82,138.88Z" style="fill:#f0f0f0"></path><path d="M246.3,142.35a2.26,2.26,0,1,1,2.26,2.26A2.26,2.26,0,0,1,246.3,142.35Z" style="fill:#f0f0f0"></path><path d="M246.67,131.68a2.08,2.08,0,1,0,2.08-2.08A2.08,2.08,0,0,0,246.67,131.68Z" style="fill:#f0f0f0"></path><path d="M270.63,276.63c.25-16-5.43-26.22-21.73-30.53-16.29,4.31-21.47,14.58-21.63,30.53V309h43.36Z" style="fill:#ebebeb"></path><path d="M312.8,296.11c.1-6.35-2.34-10.42-9.35-12.13-7,1.71-9.24,5.79-9.31,12.13V309H312.8Z" style="fill:#ebebeb"></path><path d="M312.8,263.5c.1-6.36-2.34-10.42-9.35-12.14-7,1.72-9.24,5.8-9.31,12.14v12.85H312.8Z" style="fill:#ebebeb"></path><path d="M204.66,296.11c.11-6.35-2.34-10.42-9.35-12.13-7,1.71-9.24,5.79-9.31,12.13V309h18.66Z" style="fill:#ebebeb"></path><path d="M204.66,263.5c.11-6.36-2.34-10.42-9.35-12.14-7,1.72-9.24,5.8-9.31,12.14v12.85h18.66Z" style="fill:#ebebeb"></path><path d="M334.79,263.5c.06-6.36-1.34-10.42-5.34-12.14-4,1.72-5.26,5.8-5.3,12.14v12.85l10.32,1.12Z" style="fill:#ebebeb"></path><path d="M334.79,297.47c.06-6.36-1.34-10.42-5.34-12.13-4,1.71-5.26,5.79-5.3,12.13v12.85l10.32,1.12Z" style="fill:#ebebeb"></path><path d="M163.93,263.5c-.06-6.36,1.33-10.42,5.33-12.14,4,1.72,5.27,5.8,5.31,12.14v12.85l-10.32,1.12Z" style="fill:#ebebeb"></path><path d="M163.93,297.47c-.06-6.36,1.33-10.42,5.33-12.13,4,1.71,5.27,5.79,5.31,12.13v12.85l-10.32,1.12Z" style="fill:#ebebeb"></path><rect x="56.13" y="308.97" width="386.45" height="28.34" style="fill:#f0f0f0"></rect><circle cx="301.45" cy="94.45" r="14.14" transform="translate(21.51 240.82) rotate(-45)" style="fill:#fafafa"></circle><path d="M427.7,138.21h0a7.51,7.51,0,0,0-7.14-6l-20.2-.57.62-1.46a7.88,7.88,0,0,0-8-10.91l-8.23.81a13.41,13.41,0,0,0-21.17-9.26l-.88-2.16a9.82,9.82,0,0,0-.68-1.38A13.6,13.6,0,1,0,337.1,118l0,.18-3.27-1a9,9,0,0,0-7.85,1.24h0a9,9,0,0,0-3.6,8.91l.46,2.45-3.13,1.44a8.17,8.17,0,0,0-2.88,12.61l.5.59a8.17,8.17,0,0,0,6.35,3H419.4a9.57,9.57,0,0,0,4.36-1.05h0A7.51,7.51,0,0,0,427.7,138.21Z" style="fill:#f5f5f5"></path><path d="M236,114.33a8.46,8.46,0,0,0-7.57-8.42v0H206.85l.07-.43A11.73,11.73,0,0,0,192,87.77a17.91,17.91,0,0,0-12.94-14,12.09,12.09,0,0,0-4.17-.61c-.17,0-.33,0-.5,0a17.93,17.93,0,0,0-17.83,16l-1.17,1.77-7.91-3.53a11,11,0,0,0-15.09,7l-1.09,3.77A9,9,0,1,0,114,103.33a6.62,6.62,0,0,0,.5,1.93l.89,2.11L98,107.12a7.52,7.52,0,0,0-7.13,6h0a7.51,7.51,0,0,0,3.94,8.15l.45.22a7.46,7.46,0,0,0,3.41.82l98.56.37v0h29.45a9.92,9.92,0,0,0,1.78,0h0A8.46,8.46,0,0,0,236,114.33Z" style="fill:#f5f5f5"></path><g id="freepik--group--inject-105"><polygon points="121.07 378.42 125.89 378.93 126.8 368.52 121.97 368.01 121.07 378.42" style="fill:#e0e0e0"></polygon><polygon points="96.99 378.07 101.66 378.07 102.05 367.24 97.37 367.24 96.99 378.07" style="fill:#e0e0e0"></polygon><path d="M102.31,377.53H96.63a.41.41,0,0,0-.4.32L95.31,382a.69.69,0,0,0,.53.82l.15,0c1.84,0,3.18-.15,5.49-.15,1.42,0,5.71.15,7.67.15s2.22-1.94,1.42-2.12c-3.61-.78-6.32-1.87-7.47-2.91A1.15,1.15,0,0,0,102.31,377.53Z" style="fill:#e0e0e0"></path><path d="M102.63,378.18a.12.12,0,0,1-.08-.1.1.1,0,0,1,0-.11c.17-.1,1.68-1,2.2-.76a.32.32,0,0,1,.19.31.66.66,0,0,1-.23.59,1.44,1.44,0,0,1-.9.24A5.61,5.61,0,0,1,102.63,378.18ZM103,378a2.25,2.25,0,0,0,1.67-.08.46.46,0,0,0,.15-.4c0-.09,0-.13-.07-.13a.21.21,0,0,0-.15,0A4.64,4.64,0,0,0,103,378Z" style="fill:#e0e0e0"></path><path d="M102.6,378.2a.12.12,0,0,1,0-.1c0-.07.12-1.41.66-1.85a.58.58,0,0,1,.47-.14.36.36,0,0,1,.36.29c.09.49-.84,1.52-1.32,1.78h-.06Zm.75-1.82a2.6,2.6,0,0,0-.55,1.46c.48-.36,1.08-1.14,1-1.44a.14.14,0,0,0-.16-.12h-.06A.39.39,0,0,0,103.35,376.38Z" style="fill:#e0e0e0"></path><path d="M126.41,377.38h-5.69a.42.42,0,0,0-.4.32l-.92,4.16a.69.69,0,0,0,.54.82l.15,0c1.84,0,3.17-.15,5.48-.15,1.42,0,5.71.15,7.68.15s2.22-1.94,1.41-2.11c-3.6-.79-6.32-1.88-7.47-2.91A1.08,1.08,0,0,0,126.41,377.38Z" style="fill:#e0e0e0"></path><path d="M126.73,378a.12.12,0,0,1-.09-.1.13.13,0,0,1,.06-.11c.16-.1,1.67-1,2.19-.76a.32.32,0,0,1,.19.31.64.64,0,0,1-.23.59,1.37,1.37,0,0,1-.9.24A5.6,5.6,0,0,1,126.73,378Zm.32-.16a2.22,2.22,0,0,0,1.66-.08.44.44,0,0,0,.15-.4c0-.09,0-.13-.07-.13a.32.32,0,0,0-.14,0A4.64,4.64,0,0,0,127.05,377.87Z" style="fill:#e0e0e0"></path><path d="M126.7,378.05a.11.11,0,0,1-.06-.1c0-.07.12-1.41.66-1.85a.58.58,0,0,1,.47-.14.36.36,0,0,1,.36.29c.1.49-.84,1.52-1.32,1.78h0A.07.07,0,0,1,126.7,378.05Zm.75-1.82a2.61,2.61,0,0,0-.56,1.46c.48-.36,1.08-1.14,1-1.44,0,0,0-.11-.16-.11h0A.37.37,0,0,0,127.45,376.23Z" style="fill:#e0e0e0"></path><path d="M99.3,272.21h24.82c2.36,12.89,9.75,58.49,4.45,99.13l-8.41-1s.78-53.95-6.64-73.89c-.85,10.67-1.86,22-2.74,28.07-2.16,14.88-6.79,47.38-6.79,47.38H95.44s1.75-31.11,2.56-45.73C98.88,310.26,99.26,275.47,99.3,272.21Z" style="fill:#e0e0e0"></path><path d="M131.85,232.21s9.43-.06,11.41-.94,7-20.68,7-20.68-1.37-1.66-1.22-2.57,1.83-10,2.74-10,5.08,2.43,5.39,2.89-.91,8.95-1.52,9.72a5.92,5.92,0,0,1-1.44,1.26s-3.34,24.67-5.32,25.94-22.67,4.3-22.67,4.3Z" style="fill:#e0e0e0"></path><polygon points="121.86 229.21 136.57 231.26 134.74 244.34 121.86 246.36 121.86 229.21" style="fill:#e0e0e0"></polygon><polygon points="129.53 373.3 119.13 371.75 119.45 368.87 130.26 370.29 129.53 373.3" style="fill:#e0e0e0"></polygon><polygon points="105.02 371.93 94.93 371.93 94.93 368.91 105.4 368.72 105.02 371.93" style="fill:#e0e0e0"></polygon><path d="M121.86,229.21s-15.79-.76-27.56,2.2a414.23,414.23,0,0,1,2.16,54.85l30.92-2.13S126,244.56,121.86,229.21Z" style="fill:#e0e0e0"></path><path d="M103.28,229.82c2.28,2.07,7.86,1.31,7.86,1.31s3.49-1,2.75-2c-2-.33-3-1.29-3.45-2.52a5.83,5.83,0,0,1-.21-2.34,11.44,11.44,0,0,1,.17-1.31l-6.9-5.11C104.4,221.17,105.51,227.38,103.28,229.82Z" style="fill:#e0e0e0"></path><path d="M115,207.11s1.91,6.23-1.11,9.18-4.78-8.92-4.78-8.92Z" style="fill:#e0e0e0"></path><path d="M104.81,222.81a5.85,5.85,0,0,0,7,1.26,6.51,6.51,0,0,0,3.23-3.54,4.64,4.64,0,0,0,.22-.66c1.09-4.14.61-11-3.88-13a6.35,6.35,0,0,0-8.89,6.14C102.64,217.66,102.52,220.39,104.81,222.81Z" style="fill:#e0e0e0"></path><path d="M109.47,214.49c0,.37.18.68.43.69s.46-.3.47-.68-.19-.68-.44-.69S109.48,214.11,109.47,214.49Z" style="fill:#e0e0e0"></path><path d="M113.74,214.58c0,.38.18.69.43.69s.45-.29.46-.67-.19-.69-.43-.69S113.74,214.23,113.74,214.58Z" style="fill:#e0e0e0"></path><path d="M108.18,213.08a.24.24,0,0,0,.22-.09,1.78,1.78,0,0,1,1.43-.7.22.22,0,0,0,0-.44h0a2.17,2.17,0,0,0-1.82.87.22.22,0,0,0,0,.31h0Z" style="fill:#e0e0e0"></path><path d="M115.6,213.15a.2.2,0,0,0,.13,0,.22.22,0,0,0,.11-.29h0a2.22,2.22,0,0,0-1.56-1.28.22.22,0,0,0-.25.19h0a.22.22,0,0,0,.18.25h0a1.8,1.8,0,0,1,1.23,1A.17.17,0,0,0,115.6,213.15Z" style="fill:#e0e0e0"></path><path d="M106,207.33v.07a5.34,5.34,0,0,1-.44,2.78,1.41,1.41,0,0,0,0,1.12,5.56,5.56,0,0,1-1.5,5.48s-.06-.74-.68-.55-.36,4.06.91,5.88c0,0-1.89-1.62-3-5.66-1.06-3.74-1.26-6.87-.52-8.35Z" style="fill:#e0e0e0"></path><path d="M100.36,216.78a4.43,4.43,0,0,0,2.48,2.29c1.45.52,2.29-.75,2-2.18-.28-1.28-1.37-3.12-2.88-3A2,2,0,0,0,100.36,216.78Z" style="fill:#e0e0e0"></path><path d="M112.86,219.12a12.78,12.78,0,0,0-.48,1.74h-.32c-1.43-.07-2.08-.58-2.36-1.12a1.86,1.86,0,0,1-.19-.85,1.74,1.74,0,0,1,.07-.5,6.78,6.78,0,0,0,2.79.71C112.67,219.12,112.86,219.12,112.86,219.12Z" style="fill:#e0e0e0"></path><path d="M112.06,220.85c-1.43-.07-2.08-.58-2.36-1.12a4.88,4.88,0,0,1,1.58.39A1.74,1.74,0,0,1,112.06,220.85Z" style="fill:#e0e0e0"></path><path d="M109.92,204c3.27-.74,6.63.37,6.9,2.77.33,3-3.66,4.82-6.45,3.74,0,0,1.78.45,2.71-.46,0,0-3.51.46-5.08-.63a2.51,2.51,0,0,0,1.47-.06s-4.18-2-5.1,2.25l-3.93.79s-1-2.79-.29-4.2a5.33,5.33,0,0,0-.62,2.48,5.67,5.67,0,0,1,1.37-5.42C103.24,202.73,109.92,204,109.92,204Z" style="fill:#e0e0e0"></path><path d="M94.3,231.42s-11.21,5.16-16,8.75l5.66,10.46,14-1.47Z" style="fill:#e0e0e0"></path><path d="M78.44,240.5s-9,5.17-10.33,8.36.48,5.8,5.67,6.47,15,1.3,15,1.3,1.18,1.55,1.79,1.55,6,.34,7,0,1.91-5.14,2-6.05-6.84-1.93-8.1-2-2.62,1.37-2.62,1.37-11.93-1.68-12-2,5.33-2,5.33-2Z" style="fill:#e0e0e0"></path><path d="M110.44,226.56l11.42,2.65s22.85,36.27,42,39.62L158.7,277S118.15,260.66,110.44,226.56Z" style="fill:#e0e0e0"></path><path d="M103.28,229.82s-2.12,46-15.18,68.52L76,294.69s18.45-44.4,18.35-63.27Z" style="fill:#e0e0e0"></path><path d="M104.32,222.11s-6.6-7.91-8.88-14.08c-3.37-9.14,3.89-12.56,14.26-11.91,6,.37,11.37,4.34,6.14,16.75A14.9,14.9,0,0,1,104.32,222.11Z" style="fill:#e0e0e0"></path></g><path d="M260,274.08l3.22,3.09s1.68,0,2.21.59,2.57,4.67,2.28,5.23-3.67,1.69-4.39,1-2-4.48-1.95-4.89L257.79,276Z" style="fill:#e0e0e0"></path><path d="M213.08,212.91l-.88-4.58a12.75,12.75,0,0,0,.77-2.28c.09-.69-4-3.13-4.34-3a12.31,12.31,0,0,0-1.85,3.11c-.09.54,3.2,2.55,3.2,2.55l-.07,4.44Z" style="fill:#e0e0e0"></path><polygon points="251.35 371.6 253.72 368.5 249.71 364.63 246.05 361.11 242.62 364.31 247.24 368.17 251.35 371.6" style="fill:#e0e0e0"></polygon><path d="M253.86,367.55c-.35-.25-3.29,4.15-3.29,4.15s.65,4.59-.67,7.55,1.25,2.71,3.39-.09l5.3-6.94C260.11,370.23,257.46,370.18,253.86,367.55Z" style="fill:#e0e0e0"></path><path d="M249.48,375a.56.56,0,0,1-.43-.25.53.53,0,0,1-.11-.44,2.09,2.09,0,0,1,.61-1c-.44.2-.89.33-1.12.17s-.2-.28-.14-.54a.78.78,0,0,1,.4-.56,3,3,0,0,1,2,0l.05,0h0l0,0h0l0,0h0a.13.13,0,0,1,0,.06c-.08.38-.51,2.28-1.18,2.44Zm.91-2.12c-.46.39-1.12,1-1.18,1.46a.29.29,0,0,0,.06.23c.13.17.21.15.24.15C249.82,374.68,250.18,373.74,250.39,372.92Zm-.93-.41a1.27,1.27,0,0,0-.63.13.53.53,0,0,0-.27.37c0,.08,0,.22,0,.26s1-.22,1.7-.66A3.83,3.83,0,0,0,249.46,372.51Z" style="fill:#e0e0e0"></path><polygon points="227.63 376.51 231.53 376.51 232.17 371.07 232.75 366.09 228.12 365.34 227.86 371.25 227.63 376.51" style="fill:#e0e0e0"></polygon><path d="M232.37,376.26c0-.43-5.3-.1-5.3-.1s-3.25,3.31-6.41,4-1.39,2.64,2.14,2.64h8.73C234,382.85,232.47,380.72,232.37,376.26Z" style="fill:#e0e0e0"></path><path d="M224.29,377.52a.75.75,0,0,1-.47-.13.51.51,0,0,1-.12-.56.56.56,0,0,1,.28-.36,2.2,2.2,0,0,1,1.18-.13c-.43-.23-.8-.51-.82-.79s.11-.33.35-.44a.81.81,0,0,1,.68,0c.72.3,1.16,1.52,1.18,1.58a.13.13,0,0,1,0,.06h0s0,0,0,0h0l0,0h0l-.05,0A6.69,6.69,0,0,1,224.29,377.52Zm.45-.92a1.35,1.35,0,0,0-.62.11.31.31,0,0,0-.15.19c-.06.2,0,.26,0,.27.25.21,1.22-.08,2-.41A6.39,6.39,0,0,0,224.74,376.6Zm.31-1.3a.53.53,0,0,0-.24.06c-.07,0-.19.1-.19.18,0,.24.77.65,1.55.94a2.27,2.27,0,0,0-.9-1.13A.63.63,0,0,0,225.05,375.3Z" style="fill:#e0e0e0"></path><path d="M217.89,282.64s-11.53,27.25-13.34,39.21,39.14,44,39.14,44l4.19-4.46s-30.47-31.32-30.47-36.71,11.88-30,11.88-30S230.44,284.79,217.89,282.64Z" style="fill:#e0e0e0"></path><path d="M238.67,220.09a10.26,10.26,0,0,0-9.26-3.39c-5.75,1-4.71,11.59-4.71,11.59a7.65,7.65,0,0,0-2.44,7.57c1.12,4.81,14.18,7.59,19.18,4.25s1.13-13.94-1.27-15.44S238.67,220.09,238.67,220.09Z" style="fill:#e0e0e0"></path><path d="M227.49,290.79l-.75,38.38v39.26h6.65c15.6-74.4,4.9-93.06,4.9-93.06h0l0-.08c-2.51-5.58-18.95-1.47-18.95-1.47-1.18,4.62-1.94,14-1.94,14Z" style="fill:#e0e0e0"></path><polygon points="238.28 272.5 238.28 275.29 219.24 273.83 219.24 270.53 238.28 272.5" style="fill:#e0e0e0"></polygon><rect x="231.87" y="271.35" width="0.95" height="4.82" transform="translate(450.4 559.03) rotate(-177.07)" style="fill:#e0e0e0"></rect><rect x="220.24" y="270.07" width="0.95" height="4.82" transform="translate(427.25 555.87) rotate(-177.08)" style="fill:#e0e0e0"></rect><path d="M219.27,270.87l19,1.64c.45-7.07.9-11.64,5.09-24.25.36-1.1.76-2.27,1.19-3.51a56.46,56.46,0,0,0-7.9-1.91,61.21,61.21,0,0,0-8.55-.9c-3.7,0-8,.39-8,.39s-.6.14-1,4.07C218.85,250.09,218.51,257.46,219.27,270.87Z" style="fill:#e0e0e0"></path><path d="M229.71,246.15c4.69-.6,6.1-2.61,6.1-2.61-3-2.81-.5-7.68-.5-7.68l-5.65,1.06a16.52,16.52,0,0,1,.22,2.38c.05,3.42-1.5,3.46-1.5,3.46C227.38,244.62,229.71,246.15,229.71,246.15Z" style="fill:#e0e0e0"></path><path d="M234.7,221.29c-4.79-1.14-6.93,1.06-8.45,5.91-1.9,6.06-1.57,10.76,4.72,10.86C239.52,238.2,242.64,223.17,234.7,221.29Z" style="fill:#e0e0e0"></path><path d="M232.42,228c-.1.39,0,.76.29.83s.56-.2.66-.59,0-.76-.29-.83S232.53,227.58,232.42,228Z" style="fill:#e0e0e0"></path><path d="M233.18,227.43l-.76-.56S232.66,227.7,233.18,227.43Z" style="fill:#e0e0e0"></path><path d="M227.59,226.61c-.11.39,0,.77.28.83s.56-.19.66-.58,0-.76-.29-.83S227.69,226.22,227.59,226.61Z" style="fill:#e0e0e0"></path><path d="M228.35,226.08l-.77-.56S227.82,226.35,228.35,226.08Z" style="fill:#e0e0e0"></path><path d="M228.93,232.21a13.77,13.77,0,0,1,.16,1.79l.31,0c1.43.19,2.15-.19,2.52-.67a1.79,1.79,0,0,0,.34-.81,2.09,2.09,0,0,0,0-.5,6.81,6.81,0,0,1-2.88.2C229.11,232.24,228.93,232.21,228.93,232.21Z" style="fill:#e0e0e0"></path><path d="M229.4,234c1.43.19,2.15-.19,2.52-.67a4.51,4.51,0,0,0-1.62.1A1.76,1.76,0,0,0,229.4,234Z" style="fill:#e0e0e0"></path><path d="M238,230.59s-1.3-4.46-.24-7.41c0,0-8.57-6.12-11.31,3.39,0,0,1.09-8.77,9.36-7s5.39,13.79.29,16.36C236.11,235.92,238.82,233.38,238,230.59Z" style="fill:#e0e0e0"></path><path d="M237,231.42a2.17,2.17,0,0,1,2.72-1.39c1.44.52,1.43,3.73-2.43,3.59C236.72,233.6,236.55,233,237,231.42Z" style="fill:#e0e0e0"></path><path d="M219.2,246.4c7.15,3.54,18.1,2.71,24.2,1.86.36-1.1.76-2.27,1.19-3.51a56.46,56.46,0,0,0-7.9-1.91,61.21,61.21,0,0,0-8.55-.9c-3.7,0-8,.39-8,.39S219.58,242.47,219.2,246.4Z" style="fill:#e0e0e0"></path><path d="M234.7,221.29s-1.77,6,3.62,8.75c6.52,3.3,5.9,10.43-.46,11.33,0,0,6.42-.64,7.67-4.83s-2.3-10.65-2.3-10.65,2-3.55-3.31-6.33C237,218,234.7,221.29,234.7,221.29Z" style="fill:#e0e0e0"></path><polygon points="234.22 367.49 226.06 366.29 226.74 369.56 233.48 370.46 234.22 367.49" style="fill:#e0e0e0"></polygon><polygon points="247.88 359.91 242.4 365.87 245.14 367.43 249.36 362.95 247.88 359.91" style="fill:#e0e0e0"></polygon><path d="M209.06,211.94l5.26-2.17s1.38,18.14,11.66,31.6l-7.17,8.47A59.07,59.07,0,0,1,209.06,211.94Z" style="fill:#e0e0e0"></path><path d="M244.59,244.75s7.6,22.32,18.2,29.89L259,279.15s-17.16-11.08-19.75-23.69Z" style="fill:#e0e0e0"></path><path d="M219.24,228.28s-26.17,28.43-39.41,69l12.83,9.26,14.12-32.8s2.41,35.67,37.09,56l4-40.72s-19.66-30.37-19.5-46.27Z" style="fill:#e0e0e0"></path><path d="M235.82,219.56s8-3.4,10,2.55,4.92,31.42,12,35.12c0,0-27,5.54-39-3.79C218.84,253.44,215.3,221.1,235.82,219.56Z" style="fill:#e0e0e0"></path><path d="M391.41,212.9l4.67-7.56s1.59-.58,1.91-1.28-.13-4.49-.59-4.93-4.83-1.4-5.29-.54,1.42,5.13,1.58,5.51l-6.39,8.48Z" style="fill:#e0e0e0"></path><path d="M396.74,220.54s-3.23,4.24-2.29,7.29.69,7.93-1.52,9.61-2.68,3.36-2.22,5.12-1.52,4.2-3,3.51v2.1a3.25,3.25,0,0,0,3.89-.77c1.77-1.92,1.45-3,1.68-5.16a3.11,3.11,0,0,1,2.38-2.58,4.81,4.81,0,0,0-1.31,2.58c0,1.27.84,6.71-.23,7.48,0,0,11.26,5.3,16.09,4.3s8.41-6.62,8.41-6.62.76-4.17-2-5.16-6.26-1.59-4.81-3.88.72-5.57.72-5.57-2.27-10-8.41-12.25S396.74,220.54,396.74,220.54Z" style="fill:#e0e0e0"></path><path d="M399.86,243.6s-10.68-7.87-12.67-15,7-19,7-19l-4.64-3s-11.59,14.73-9.82,22.89,10.66,16.83,10.66,16.83Z" style="fill:#e0e0e0"></path><polygon points="372.36 374.83 376.21 375.51 377.8 370.26 379.24 365.43 374.79 363.88 373.5 369.68 372.36 374.83" style="fill:#e0e0e0"></polygon><path d="M377.09,375.41c.06-.42-5.22-1-5.22-1s-3.79,2.7-7,2.88-1.84,2.36,1.65,3l8.63,1.52C377.59,382.22,376.41,379.84,377.09,375.41Z" style="fill:#e0e0e0"></path><path d="M368.45,375a.51.51,0,0,1,0-.58.57.57,0,0,1,.34-.3,2.17,2.17,0,0,1,1.19.08c-.38-.3-.7-.65-.67-.92s.16-.31.42-.38a.82.82,0,0,1,.68.1c.65.42.88,1.71.89,1.77a.13.13,0,0,1,0,.06h0s0,0,0,0h0s0,0,0,0h0l0,0a8.19,8.19,0,0,1-1.9.31A1.08,1.08,0,0,1,368.45,375Zm.41-.62a.31.31,0,0,0-.19.16c-.08.19,0,.26,0,.28.21.25,1.22.13,2-.06A3.39,3.39,0,0,0,368.86,374.42Zm.91-1.21c-.07,0-.21.07-.21.14,0,.24.64.78,1.37,1.21a2.47,2.47,0,0,0-.7-1.29.55.55,0,0,0-.3-.09Z" style="fill:#e0e0e0"></path><polygon points="398.1 376.49 402.01 376.49 402.66 371.03 403.24 366.03 398.59 365.27 398.33 371.21 398.1 376.49" style="fill:#e0e0e0"></polygon><path d="M402.85,376.23c0-.43-5.31-.09-5.31-.09s-3.26,3.32-6.43,4.06-1.4,2.65,2.14,2.65H402C404.53,382.85,403,380.71,402.85,376.23Z" style="fill:#e0e0e0"></path><path d="M394.28,377.37a.5.5,0,0,1-.13-.56.55.55,0,0,1,.29-.36,2,2,0,0,1,1.19-.13c-.43-.23-.81-.51-.83-.79s.11-.33.35-.45a.87.87,0,0,1,.69,0c.72.3,1.16,1.54,1.18,1.59a.14.14,0,0,1,0,.11l0,0h0s0,0,0,0a6.76,6.76,0,0,1-2.2.67A.75.75,0,0,1,394.28,377.37Zm.3-.68a.3.3,0,0,0-.16.18c-.05.21,0,.27,0,.28.25.21,1.22-.08,2-.41A3.37,3.37,0,0,0,394.58,376.69Zm.69-1.35c-.07,0-.19.1-.19.17,0,.24.77.65,1.56.95a2.32,2.32,0,0,0-.91-1.14.54.54,0,0,0-.22,0A.53.53,0,0,0,395.27,375.34Z" style="fill:#e0e0e0"></path><path d="M373.12,366.74l6.34,1.11c6.39-15.93,10.94-29.23,14.16-40.27,1.73-6,3.07-11.25,4.11-15.95L397.44,329v39.4h6.44c15.65-74.67,4.56-91.73,4.56-91.73l-18.73-3.2a85.3,85.3,0,0,0-1.57,10.48l-.85,6.19L380,327.93Z" style="fill:#e0e0e0"></path><polygon points="380.45 367.07 372.59 364.46 372.69 367.81 379.2 369.88 380.45 367.07" style="fill:#e0e0e0"></polygon><polygon points="404.72 367.44 396.52 366.24 397.21 369.51 403.97 370.42 404.72 367.44" style="fill:#e0e0e0"></polygon><polygon points="408.44 273.85 408.44 276.65 389.34 275.18 389.34 271.88 408.44 273.85" style="fill:#e0e0e0"></polygon><rect x="401.9" y="272.7" width="0.95" height="4.83" transform="translate(790.19 570.4) rotate(-177.08)" style="fill:#e0e0e0"></rect><rect x="390.23" y="271.41" width="0.95" height="4.83" transform="translate(766.96 567.2) rotate(-177.08)" style="fill:#e0e0e0"></rect><path d="M389.26,272.21l19.1,1.65a67.83,67.83,0,0,1,2-14c.45-1.83,1-3.87,1.76-6.23.39-1.27.83-2.62,1.31-4.08.37-1.11.76-2.28,1.2-3.52a55.81,55.81,0,0,0-7.93-1.91,60.16,60.16,0,0,0-8.58-.91c-3.72,0-8,.39-8,.39s-.61.15-1,4.09C388.83,251.36,388.49,258.75,389.26,272.21Z" style="fill:#e0e0e0"></path><path d="M399.74,247.4c4.7-.6,6.12-2.61,6.12-2.61-3-2.82-.51-7.71-.51-7.71l-5.66,1.06a18.22,18.22,0,0,1,.22,2.39c0,3.44-1.52,3.47-1.52,3.47C397.4,245.87,399.74,247.4,399.74,247.4Z" style="fill:#e0e0e0"></path><path d="M402.82,222.3c-4.93-.27-6.66,2.28-7.3,7.33-.8,6.32.36,10.91,6.6,9.89C410.59,238.14,411,222.74,402.82,222.3Z" style="fill:#e0e0e0"></path><path d="M401.76,229.29c0,.41.16.75.43.77s.51-.28.55-.69-.16-.75-.43-.77S401.79,228.89,401.76,229.29Z" style="fill:#e0e0e0"></path><path d="M402.42,228.63l-.86-.41S401.94,229,402.42,228.63Z" style="fill:#e0e0e0"></path><path d="M396.74,228.82c0,.4.16.75.43.77s.52-.29.55-.7-.16-.74-.43-.77S396.77,228.41,396.74,228.82Z" style="fill:#e0e0e0"></path><path d="M397.4,228.15l-.85-.41S396.93,228.51,397.4,228.15Z" style="fill:#e0e0e0"></path><path d="M399.06,234.1a12.78,12.78,0,0,1,.48,1.75l.32,0c1.44-.06,2.09-.57,2.37-1.11a1.92,1.92,0,0,0,.19-.86,1.74,1.74,0,0,0-.07-.5,6.82,6.82,0,0,1-2.8.71C399.25,234.1,399.06,234.1,399.06,234.1Z" style="fill:#e0e0e0"></path><path d="M399.86,235.83c1.44-.06,2.09-.57,2.37-1.11a4.52,4.52,0,0,0-1.59.39A1.67,1.67,0,0,0,399.86,235.83Z" style="fill:#e0e0e0"></path><path d="M407.75,230.89s-2.08-4.17-1.56-7.28c0,0-9.55-4.52-10.57,5.36,0,0-.47-8.85,8-8.58s7.76,12.66,3.18,16.11C406.81,236.5,409,233.5,407.75,230.89Z" style="fill:#e0e0e0"></path><path d="M406.89,231.89a2.16,2.16,0,0,1,2.43-1.85c1.52.25,2.08,3.43-1.76,4C407,234.09,406.73,233.54,406.89,231.89Z" style="fill:#e0e0e0"></path><path d="M406.19,223.61s-5.23-1-7.76.86c0,0,2.53-3.18,8-1.52Z" style="fill:#e0e0e0"></path><path d="M414.07,231.1a1.62,1.62,0,1,0,2.14-.84A1.61,1.61,0,0,0,414.07,231.1Z" style="fill:#e0e0e0"></path><path d="M412.5,232.79s-9.76-17.4-15.76-12.25a2.46,2.46,0,0,1,1.21-2.28c3.81-2.26,9.35,1.18,14.81,10.89C414.36,232,412.5,232.79,412.5,232.79Z" style="fill:#e0e0e0"></path><polygon points="388.98 207.31 389.97 205.55 395.24 209.29 393.9 210.54 388.98 207.31" style="fill:#e0e0e0"></polygon><path d="M412.53,208l-2.82-6.72s-1.84-.42-2.08-1.15-1.31-7-.81-7.4,4.06-1.86,4.43-.95a41.83,41.83,0,0,1,.87,7.93l4.53,8.38Z" style="fill:#e0e0e0"></path><path d="M404.09,243.69s9.49-9.05,12.51-14.69-6.83-23.65-6.83-23.65l4.61-2.46s12.61,17,10.11,26.7-12.32,19.91-12.32,19.91Z" style="fill:#e0e0e0"></path><polygon points="409.83 206.5 408.62 204.89 414.18 201.58 414.77 203.32 409.83 206.5" style="fill:#e0e0e0"></polygon><path d="M388.8,232.15s-3.54,56.21,33.66,90.79c0,0,5.8-2.91,7-26.12a17.86,17.86,0,0,1-10.82-6.41l2.51-9.46-18.44-38.71Z" style="fill:#e0e0e0"></path><path d="M396.74,220.54s1.93-5,8.33-4.36,14.93,6.15,18.15,30.12,16.65,37.57,16.65,37.57-34.55,16.62-64.07-5.09C375.8,278.78,383.65,234.58,396.74,220.54Z" style="fill:#e0e0e0"></path><g id="freepik--group--inject-105"><polygon points="314.53 371.79 319.05 374.4 324.48 364.56 319.95 361.95 314.53 371.79" style="fill:#e0e0e0"></polygon><path d="M319.6,373.81l-5-3.19a.42.42,0,0,0-.54,0l-3,3.15a.77.77,0,0,0,.08,1.07l.13.09c1.75,1.07,2.7,1.56,4.89,2.94,1.35.85,7,3.92,9.14,4.07s2.34-1.85,1.49-2.17c-4.33-1.61-6-3.67-6.56-5.29A1.47,1.47,0,0,0,319.6,373.81Z" style="fill:#e0e0e0"></path><path d="M334,261.73s13.4,43.72,12.59,58.3c-.89,16-22.39,49.63-22.39,49.63l-8.1-5.11s15.18-33.15,15.75-45.42c-.84-17.75-17.27-56-17.27-56Z" style="fill:#e0e0e0"></path><polygon points="325.08 370.44 315.53 364.39 317.09 361.7 327.11 367.81 325.08 370.44" style="fill:#e0e0e0"></polygon><path d="M319.58,374.58a.11.11,0,0,1,0-.13.1.1,0,0,1,.1-.07c.22,0,2.13.09,2.48.64a.39.39,0,0,1,0,.39.64.64,0,0,1-.51.39,1.7,1.7,0,0,1-1-.33A6.94,6.94,0,0,1,319.58,374.58Zm.38.06a2.69,2.69,0,0,0,1.61.92.4.4,0,0,0,.35-.27.14.14,0,0,0,0-.15.34.34,0,0,0-.12-.12A5,5,0,0,0,320,374.64Z" style="fill:#e0e0e0"></path><path d="M319.55,374.56a.11.11,0,0,1,0-.13c0-.07.84-1.2,1.59-1.27a.64.64,0,0,1,.51.16.39.39,0,0,1,.19.46c-.18.53-1.6.88-2.19.83h-.06Zm1.92-1.08a.51.51,0,0,0-.3-.07c-.47,0-1,.66-1.27,1,.63,0,1.61-.37,1.71-.68,0,0,0-.09-.1-.2l0,0Z" style="fill:#e0e0e0"></path><polygon points="304.67 377.71 309.7 377.71 310.12 366.06 305.08 366.06 304.67 377.71" style="fill:#e0e0e0"></polygon><path d="M310.4,377.13h-6.11a.43.43,0,0,0-.43.34l-1,4.48a.74.74,0,0,0,.57.88l.16,0c2,0,3.42-.16,5.9-.16,1.53,0,6.14.16,8.25.16s2.39-2.08,1.52-2.28c-3.87-.84-6.79-2-8-3.12A1.19,1.19,0,0,0,310.4,377.13Z" style="fill:#e0e0e0"></path><path d="M324.47,262.39s-2.85,43.06-5,57.64c-2.32,16-7.29,50.88-7.29,50.88H303s1.88-33.39,2.75-49.1c1-17.91,1.4-58.21,1.4-58.21Z" style="fill:#e0e0e0"></path><polygon points="313.31 371.11 302.46 371.11 302.46 367.87 313.72 367.65 313.31 371.11" style="fill:#e0e0e0"></polygon><path d="M310.74,377.82a.12.12,0,0,1-.09-.1.11.11,0,0,1,.06-.11c.18-.12,1.8-1.12,2.36-.83a.34.34,0,0,1,.2.33.69.69,0,0,1-.24.64,1.47,1.47,0,0,1-1,.26A5.92,5.92,0,0,1,310.74,377.82Zm.35-.16a2.46,2.46,0,0,0,1.79-.09.5.5,0,0,0,.16-.43c0-.1-.05-.14-.08-.14a.21.21,0,0,0-.15,0A4.86,4.86,0,0,0,311.09,377.66Z" style="fill:#e0e0e0"></path><path d="M310.71,377.85a.13.13,0,0,1-.06-.11c0-.07.13-1.51.71-2a.64.64,0,0,1,.51-.15.39.39,0,0,1,.38.31c.1.53-.9,1.64-1.42,1.92h-.06Zm.81-2a2.75,2.75,0,0,0-.6,1.58c.52-.39,1.16-1.23,1.09-1.56,0,0,0-.12-.17-.12h-.06A.42.42,0,0,0,311.52,375.89Z" style="fill:#e0e0e0"></path><path d="M305.83,265.84l30,2.25s.11-1.68.46-4.15c.16-1.08.36-2.32.63-3.64.17-.9.37-1.83.6-2.77a77,77,0,0,1,4.58-12.24,114.64,114.64,0,0,1,9-14.24,63.82,63.82,0,0,0-5.78-3.79c-.61-.37-1.25-.74-1.88-1.08a98.72,98.72,0,0,0-10.35-4.89c-.43-.17-.87-.29-1.31-.46-1.13-.36-2.23-.67-3.18-.91a5.13,5.13,0,0,0-5.24,1.74c-2.74,3.37-7.43,10.44-12.78,25.86-.56,1.64-1.11,3.33-1.63,5.06-.16.52-.31,1-.46,1.56-.66,2.27-1.25,4.61-1.77,7C306.42,262.68,306.1,264.25,305.83,265.84Z" style="fill:#e0e0e0"></path><path d="M341.59,211.84c-1.28,3.53-4.12,9.69-7.59,10.47a11.41,11.41,0,0,0,5.76,7.54c2.75,1.56,4-.25,4.05-1.66-3-2.95-1.37-5.51.72-7.6Z" style="fill:#e0e0e0"></path><path d="M352.82,206.72s4.27,6.79-2.74,9.51-2-11.29-2-11.29Z" style="fill:#e0e0e0"></path><path d="M338.94,209.41c-1.18,4.84-2.11,7.62-.45,10.8,2.49,4.79,9,4.42,11.65,0,2.34-4,3.87-11.24-.21-14.56a6.81,6.81,0,0,0-9.59.89A6.92,6.92,0,0,0,338.94,209.41Z" style="fill:#e0e0e0"></path><path d="M345.75,213a.63.63,0,0,0,.25.84c.26.08.55-.18.67-.56s0-.77-.24-.85S345.88,212.57,345.75,213Z" style="fill:#e0e0e0"></path><path d="M350.13,214.31a.65.65,0,0,0,.25.85c.25.07.55-.18.68-.56s0-.77-.25-.85S350.25,214,350.13,214.31Z" style="fill:#e0e0e0"></path><path d="M344.83,211.13a.25.25,0,0,0,.25,0,1.93,1.93,0,0,1,1.69-.32.24.24,0,0,0,.31-.13.25.25,0,0,0-.14-.31h0a2.38,2.38,0,0,0-2.14.37.25.25,0,0,0-.06.33h0Z" style="fill:#e0e0e0"></path><path d="M345.19,219h0a3.65,3.65,0,0,1-2.18-2.57.14.14,0,0,1,.1-.15.13.13,0,0,1,.15.1h0a3.49,3.49,0,0,0,2,2.37.14.14,0,0,1,.07.16h0a.12.12,0,0,1-.16.07Z" style="fill:#e0e0e0"></path><path d="M352.48,213.38a.21.21,0,0,0,.34-.21h0a2.37,2.37,0,0,0-1.25-1.78.23.23,0,0,0-.31.12h0a.23.23,0,0,0,.12.31h0a2,2,0,0,1,1,1.43A.22.22,0,0,0,352.48,213.38Z" style="fill:#e0e0e0"></path><path d="M345,206.46a7.37,7.37,0,0,1-4.41,4.9l-1.43,3.1s-1.11-.72-1.53,3.13c0,0-1.59-1.21-1.34-7.35s4.67-8,6.93-7.07c0,0,2.45-1.63,6.83-.22s6.73,6,4.88,8.91a4.57,4.57,0,0,0-2.14-3,4,4,0,0,1-.79,2.33,19.82,19.82,0,0,0-3.5-3.41,1.47,1.47,0,0,1,0,1.59S347.41,206.72,345,206.46Z" style="fill:#e0e0e0"></path><path d="M335.17,214a4.73,4.73,0,0,0,2.21,2.87c1.45.82,2.57-.38,2.51-2-.07-1.4-.89-3.55-2.51-3.71A2.11,2.11,0,0,0,335.17,214Z" style="fill:#e0e0e0"></path><path d="M328.64,219.92s-15.42-3.11-23.8-23.58l-6.36,1.45s3.5,24.83,21.15,32.66Z" style="fill:#e0e0e0"></path><path d="M351.14,231.05s18,11.3,19.75,36.4l-6,1.55s-4.34-22.51-23.75-28.3Z" style="fill:#e0e0e0"></path><path d="M304.67,198.94l-1.11-5.45s1.09-1.78.86-2.71-3.19-5.82-4-5.9-4.23,2.74-4,3.94,3.39,5.06,3.83,5.3l.83,5.87Z" style="fill:#e0e0e0"></path><path d="M366.16,266.16l1.36,5.38s-1,1.84-.73,2.75S370.25,280,371,280s4.09-2.93,3.82-4.12-3.62-4.9-4.08-5.12l-1.11-5.83Z" style="fill:#e0e0e0"></path><path d="M327.19,218.38s-24.86,45.07-52.23,43.5l8.34,14s46.5-19.52,49.83-54.58Z" style="fill:#e0e0e0"></path><path d="M343.48,226.18s-8.17,32,0,46.29,10.27,32.19,10.27,32.19l10.72-1.35s0-11.95-9.09-27.57-9.81-33.62-4.24-44.69Z" style="fill:#e0e0e0"></path></g></g><g id="freepik--Shadow--inject-105"><ellipse id="freepik--path--inject-105" cx="250" cy="416.24" rx="193.89" ry="11.32" style="fill:#f5f5f5"></ellipse></g><g id="freepik--Flowers--inject-105"><path d="M419.16,292.78s-3.9-12.82-.81-15.28,3,11.55,3,11.55,2.54-13.84,5.9-13-1.62,13-1.62,13,3-6.79,5.95-4.25-11,15.25-11,15.25-10.23-8.8-9.17-11.52S419.16,292.78,419.16,292.78Z" style="fill:#F27BD2"></path><path d="M419.16,292.78s-3.9-12.82-.81-15.28,3,11.55,3,11.55,2.54-13.84,5.9-13-1.62,13-1.62,13,3-6.79,5.95-4.25-11,15.25-11,15.25-10.23-8.8-9.17-11.52S419.16,292.78,419.16,292.78Z" style="fill:#fff;opacity:0.4"></path><path d="M391.25,291.19s3.9-12.82.81-15.28-3,11.54-3,11.54-2.55-13.84-5.91-13,1.63,13,1.63,13-3-6.79-6-4.25,11,15.25,11,15.25,10.23-8.8,9.17-11.52S391.25,291.19,391.25,291.19Z" style="fill:#F27BD2"></path><path d="M391.25,291.19s3.9-12.82.81-15.28-3,11.54-3,11.54-2.55-13.84-5.91-13,1.63,13,1.63,13-3-6.79-6-4.25,11,15.25,11,15.25,10.23-8.8,9.17-11.52S391.25,291.19,391.25,291.19Z" style="fill:#fff;opacity:0.4"></path><path d="M379.87,311.43S367.23,307,367.06,303s11.09,4.41,11.09,4.41-9.65-10.24-7-12.44,9.48,9,9.48,9-3.72-6.4.1-7.31,5.78,17.91,5.78,17.91-13.15,3-14.71.58S379.87,311.43,379.87,311.43Z" style="fill:#F27BD2"></path><path d="M431,311.43S443.59,307,443.76,303s-11.09,4.41-11.09,4.41,9.65-10.24,7-12.44-9.49,9-9.49,9,3.72-6.4-.1-7.31-5.78,17.91-5.78,17.91,13.15,3,14.71.58S431,311.43,431,311.43Z" style="fill:#F27BD2"></path><path d="M386.83,316.09s-9.88-3-3.42-12.47c0,0-4.93-14.3,8-12.13,0,0,2.12-12.5,14.1-3.46,0,0,11.5-11.18,12.27,4.07,0,0,14.32-1.43,8.29,12,0,0,6.89,8.41-2.62,11.11Z" style="fill:#F27BD2"></path><path d="M386.83,316.09s-9.88-3-3.42-12.47c0,0-4.93-14.3,8-12.13,0,0,2.12-12.5,14.1-3.46,0,0,11.5-11.18,12.27,4.07,0,0,14.32-1.43,8.29,12,0,0,6.89,8.41-2.62,11.11Z" style="fill:#fff;opacity:0.6000000000000001"></path><path d="M425,316.43a1.42,1.42,0,0,1-1.42,1.43h-5.7a1.7,1.7,0,0,0-1.71,1.7v0h1.31a2.69,2.69,0,0,1,2.69,2.8,2.57,2.57,0,0,1-.87,1.81,3,3,0,0,1-2,.77h-1.1s0,0,0,0v2.46a11,11,0,0,1-3.81,8.34l.08.12a1.46,1.46,0,0,1,.16.66,1.43,1.43,0,0,1-1.42,1.43H411a2.11,2.11,0,0,0,1.2,1.92l.42.2h.85a.82.82,0,1,1,0,1.63h-.85l-.42.21a2.11,2.11,0,0,0-1.2,1.91v.52a4.83,4.83,0,0,1,.61,7.27,4,4,0,0,1-.61.55V388a2.53,2.53,0,0,1,.26.22,4.8,4.8,0,0,1,1.72,3.68,4.86,4.86,0,0,1-1.49,3.5,1.67,1.67,0,0,0-.5,1.19,1.73,1.73,0,0,0,1,1.55l.65.31s0,0,0,0h.84a.82.82,0,0,1,.83.81.87.87,0,0,1-.17.48h.58v1h1.46v5.94c.16.15.31.31.45.47a11.73,11.73,0,0,1,3,7.79,0,0,0,0,1,0,0H390.53a0,0,0,0,1,0,0,11.78,11.78,0,0,1,3-7.79c.14-.16.29-.32.44-.47v-5.94h1.48v-1H396a.8.8,0,0,1-.17-.48.81.81,0,0,1,.81-.81h.86l.66-.31a1.72,1.72,0,0,0,1-1.55,1.63,1.63,0,0,0-.5-1.19,4.89,4.89,0,0,1-1.48-3.5,4.79,4.79,0,0,1,1.71-3.68,2.53,2.53,0,0,1,.26-.22V352.24s0,0,0,0a4,4,0,0,1-.61-.55,4.81,4.81,0,0,1-1.36-3.36,4.9,4.9,0,0,1,2-3.91v-.52a2.13,2.13,0,0,0-1.2-1.91l-.42-.21h-.86a.82.82,0,0,1,0-1.63h.86l.42-.2a2.13,2.13,0,0,0,1.2-1.92H399a1.43,1.43,0,0,1-1.42-1.43,1.35,1.35,0,0,1,.17-.66.75.75,0,0,1,.07-.12,11,11,0,0,1-3.81-8.34V325H392.7a2.69,2.69,0,0,1-2.68-2.82,2.79,2.79,0,0,1,2.86-2.56H394s0,0,0,0a1.7,1.7,0,0,0-1.7-1.7h-5.7a1.43,1.43,0,1,1,0-2.86h36.92A1.42,1.42,0,0,1,425,316.43Z" style="fill:#F27BD2"></path><path d="M425,316.43a1.42,1.42,0,0,1-1.42,1.43h-5.7a1.7,1.7,0,0,0-1.71,1.7v0h1.31a2.69,2.69,0,0,1,2.69,2.8,2.57,2.57,0,0,1-.87,1.81,3,3,0,0,1-2,.77h-1.1s0,0,0,0v2.46a11,11,0,0,1-3.81,8.34l.08.12a1.46,1.46,0,0,1,.16.66,1.43,1.43,0,0,1-1.42,1.43H411a2.11,2.11,0,0,0,1.2,1.92l.42.2h.85a.82.82,0,1,1,0,1.63h-.85l-.42.21a2.11,2.11,0,0,0-1.2,1.91v.52a4.83,4.83,0,0,1,.61,7.27,4,4,0,0,1-.61.55V388a2.53,2.53,0,0,1,.26.22,4.8,4.8,0,0,1,1.72,3.68,4.86,4.86,0,0,1-1.49,3.5,1.67,1.67,0,0,0-.5,1.19,1.73,1.73,0,0,0,1,1.55l.65.31s0,0,0,0h.84a.82.82,0,0,1,.83.81.87.87,0,0,1-.17.48h.58v1h1.46v5.94c.16.15.31.31.45.47a11.73,11.73,0,0,1,3,7.79,0,0,0,0,1,0,0H390.53a0,0,0,0,1,0,0,11.78,11.78,0,0,1,3-7.79c.14-.16.29-.32.44-.47v-5.94h1.48v-1H396a.8.8,0,0,1-.17-.48.81.81,0,0,1,.81-.81h.86l.66-.31a1.72,1.72,0,0,0,1-1.55,1.63,1.63,0,0,0-.5-1.19,4.89,4.89,0,0,1-1.48-3.5,4.79,4.79,0,0,1,1.71-3.68,2.53,2.53,0,0,1,.26-.22V352.24s0,0,0,0a4,4,0,0,1-.61-.55,4.81,4.81,0,0,1-1.36-3.36,4.9,4.9,0,0,1,2-3.91v-.52a2.13,2.13,0,0,0-1.2-1.91l-.42-.21h-.86a.82.82,0,0,1,0-1.63h.86l.42-.2a2.13,2.13,0,0,0,1.2-1.92H399a1.43,1.43,0,0,1-1.42-1.43,1.35,1.35,0,0,1,.17-.66.75.75,0,0,1,.07-.12,11,11,0,0,1-3.81-8.34V325H392.7a2.69,2.69,0,0,1-2.68-2.82,2.79,2.79,0,0,1,2.86-2.56H394s0,0,0,0a1.7,1.7,0,0,0-1.7-1.7h-5.7a1.43,1.43,0,1,1,0-2.86h36.92A1.42,1.42,0,0,1,425,316.43Z" style="fill:#fff;opacity:0.4"></path><path d="M394,325v2.42a11,11,0,0,0,3.81,8.34.75.75,0,0,0-.07.12h14.64l-.08-.12a11,11,0,0,0,3.81-8.34V325Z" style="opacity:0.2"></path><path d="M411,352.24V388a2.53,2.53,0,0,1,.26.22H398.83a2.53,2.53,0,0,1,.26-.22V352.24s0,0,0,0a4,4,0,0,1-.61-.55h13.17a4,4,0,0,1-.61.55Z" style="opacity:0.2"></path><path d="M416.65,407.14H393.48c.14-.16.29-.32.44-.47v-5.94H416.2v5.94C416.36,406.82,416.51,407,416.65,407.14Z" style="opacity:0.2"></path><path d="M424.24,300.6s-2.29-6.56,0-6.57,2,6.57,2,6.57,2.55-6.14,4.24-5.24-2,6-2,6,6.27-.36,6.71,1-6,1.5-6,1.5,6.31,2.27,6,3.49-6.07-.6-6.07-.6,2.82,3.69,1.7,4.31-3.85-3.1-3.85-3.1,1.58,5.21-.76,5.21-1.34-4.72-1.34-4.72-2.35,3.62-4.3,2.74,2.38-5.23,2.38-5.23-4.3,2.8-5.17.79,5.17-3.13,5.17-3.13-4.34-1.25-4.32-4.23S424.24,300.6,424.24,300.6Z" style="fill:#F27BD2"></path><path d="M424.24,300.6s-2.29-6.56,0-6.57,2,6.57,2,6.57,2.55-6.14,4.24-5.24-2,6-2,6,6.27-.36,6.71,1-6,1.5-6,1.5,6.31,2.27,6,3.49-6.07-.6-6.07-.6,2.82,3.69,1.7,4.31-3.85-3.1-3.85-3.1,1.58,5.21-.76,5.21-1.34-4.72-1.34-4.72-2.35,3.62-4.3,2.74,2.38-5.23,2.38-5.23-4.3,2.8-5.17.79,5.17-3.13,5.17-3.13-4.34-1.25-4.32-4.23S424.24,300.6,424.24,300.6Z" style="fill:#fff;opacity:0.2"></path><path d="M427.87,304.13a1.8,1.8,0,1,1-1.8-1.8A1.8,1.8,0,0,1,427.87,304.13Z" style="fill:#fff;opacity:0.4"></path><path d="M385.38,307.07s2.56,6.46.24,6.56-2.29-6.47-2.29-6.47-2.31,6.24-4,5.41,1.74-6.07,1.74-6.07-6.26.63-6.75-.7,5.95-1.75,5.95-1.75-6.39-2-6.17-3.24,6.08.36,6.08.36-3-3.58-1.87-4.25,4,2.95,4,2.95-1.79-5.15.55-5.25,1.53,4.66,1.53,4.66,2.2-3.71,4.18-2.9-2.16,5.32-2.16,5.32,4.18-3,5.14-1-5.05,3.34-5.05,3.34,4.4,1.07,4.5,4S385.38,307.07,385.38,307.07Z" style="fill:#F27BD2"></path><path d="M385.38,307.07s2.56,6.46.24,6.56-2.29-6.47-2.29-6.47-2.31,6.24-4,5.41,1.74-6.07,1.74-6.07-6.26.63-6.75-.7,5.95-1.75,5.95-1.75-6.39-2-6.17-3.24,6.08.36,6.08.36-3-3.58-1.87-4.25,4,2.95,4,2.95-1.79-5.15.55-5.25,1.53,4.66,1.53,4.66,2.2-3.71,4.18-2.9-2.16,5.32-2.16,5.32,4.18-3,5.14-1-5.05,3.34-5.05,3.34,4.4,1.07,4.5,4S385.38,307.07,385.38,307.07Z" style="fill:#fff;opacity:0.2"></path><path d="M381.61,303.7a1.8,1.8,0,1,1,1.87,1.72A1.8,1.8,0,0,1,381.61,303.7Z" style="fill:#fff;opacity:0.4"></path><path d="M403.89,284.91s-2-5.8,0-5.81,1.79,5.81,1.79,5.81,2.26-5.43,3.75-4.64-1.76,5.3-1.76,5.3,5.55-.32,5.93.87-5.32,1.33-5.32,1.33,5.58,2,5.34,3.09-5.36-.54-5.36-.54,2.49,3.27,1.5,3.82-3.4-2.75-3.4-2.75,1.39,4.62-.68,4.62-1.19-4.18-1.19-4.18-2.08,3.21-3.8,2.42,2.11-4.63,2.11-4.63-3.81,2.49-4.58.7,4.58-2.77,4.58-2.77-3.84-1.1-3.83-3.74S403.89,284.91,403.89,284.91Z" style="fill:#F27BD2"></path><path d="M403.89,284.91s-2-5.8,0-5.81,1.79,5.81,1.79,5.81,2.26-5.43,3.75-4.64-1.76,5.3-1.76,5.3,5.55-.32,5.93.87-5.32,1.33-5.32,1.33,5.58,2,5.34,3.09-5.36-.54-5.36-.54,2.49,3.27,1.5,3.82-3.4-2.75-3.4-2.75,1.39,4.62-.68,4.62-1.19-4.18-1.19-4.18-2.08,3.21-3.8,2.42,2.11-4.63,2.11-4.63-3.81,2.49-4.58.7,4.58-2.77,4.58-2.77-3.84-1.1-3.83-3.74S403.89,284.91,403.89,284.91Z" style="fill:#fff;opacity:0.2"></path><path d="M407.1,288a1.59,1.59,0,1,1-1.59-1.59A1.59,1.59,0,0,1,407.1,288Z" style="fill:#fff;opacity:0.4"></path><path d="M417.62,287.21s-1.84-5.29,0-5.29,1.63,5.29,1.63,5.29,2.07-4.95,3.42-4.23-1.6,4.83-1.6,4.83,5.06-.29,5.41.8-4.85,1.21-4.85,1.21,5.08,1.83,4.87,2.82-4.9-.49-4.9-.49,2.28,3,1.37,3.48-3.1-2.5-3.1-2.5,1.27,4.2-.62,4.2-1.08-3.8-1.08-3.8-1.9,2.92-3.46,2.2,1.92-4.22,1.92-4.22-3.48,2.27-4.18.64,4.18-2.53,4.18-2.53-3.51-1-3.49-3.41S417.62,287.21,417.62,287.21Z" style="fill:#F27BD2"></path><path d="M420.55,290.06a1.45,1.45,0,1,1-1.45-1.45A1.45,1.45,0,0,1,420.55,290.06Z" style="fill:#fff;opacity:0.4"></path><path d="M388.32,291.6s-5.36-.59-4.59-2.22,5.28.77,5.28.77-3.45-3.84-2.26-4.72,3.53,3.39,3.53,3.39,1.85-4.52,2.94-4.37-1,4.72-1,4.72,3.7-3.66,4.47-3.07-2.46,4-2.46,4,3.54-.73,3.6.26-3.47,1.66-3.47,1.66,4.19.63,3.41,2.28-3.76-.64-3.76-.64,1.75,2.86.48,3.92-2.87-3.41-2.87-3.41.53,3.95-1.18,3.89-.46-4.68-.46-4.68-2.33,2.63-4.41,1.62S388.32,291.6,388.32,291.6Z" style="fill:#F27BD2"></path><path d="M392,290.23a1.4,1.4,0,1,1-1.86.66A1.39,1.39,0,0,1,392,290.23Z" style="fill:#fff;opacity:0.4"></path><path d="M407.25,301.89s5.95-8,7.82-5.22-6.17,7.66-6.17,7.66,9.34-1.89,9.62.83-8.7,2.44-8.7,2.44,5.46,7.16,4.21,8.75-6.6-5.93-6.6-5.93,2.35,9.29.68,10-4.13-7.69-4.13-7.69-2.13,6.3-3.77,5.47.61-7.05.61-7.05-4.93,6.05-6.81,3.27,4.53-5.37,4.53-5.37-6.18.11-6.69-2.91,8.12-1.36,8.12-1.36-6.78-2.86-5.09-5.51,7.86,3.64,7.86,3.64-2-6.16,1.56-8.53S407.25,301.89,407.25,301.89Z" style="fill:#F27BD2"></path><path d="M406,309a2.58,2.58,0,1,1,.7-3.58A2.57,2.57,0,0,1,406,309Z" style="fill:#fff;opacity:0.4"></path><path d="M75.84,292.78s3.9-12.82.81-15.28-3,11.55-3,11.55-2.54-13.84-5.9-13,1.62,13,1.62,13-3-6.79-6-4.25,11,15.25,11,15.25,10.23-8.8,9.17-11.52S75.84,292.78,75.84,292.78Z" style="fill:#F27BD2"></path><path d="M75.84,292.78s3.9-12.82.81-15.28-3,11.55-3,11.55-2.54-13.84-5.9-13,1.62,13,1.62,13-3-6.79-6-4.25,11,15.25,11,15.25,10.23-8.8,9.17-11.52S75.84,292.78,75.84,292.78Z" style="fill:#fff;opacity:0.4"></path><path d="M103.75,291.19s-3.9-12.82-.81-15.28,3,11.54,3,11.54,2.55-13.84,5.91-13-1.63,13-1.63,13,3-6.79,6-4.25-11,15.25-11,15.25-10.23-8.8-9.17-11.52S103.75,291.19,103.75,291.19Z" style="fill:#F27BD2"></path><path d="M103.75,291.19s-3.9-12.82-.81-15.28,3,11.54,3,11.54,2.55-13.84,5.91-13-1.63,13-1.63,13,3-6.79,6-4.25-11,15.25-11,15.25-10.23-8.8-9.17-11.52S103.75,291.19,103.75,291.19Z" style="fill:#fff;opacity:0.4"></path><path d="M115.13,311.43S127.77,307,127.94,303s-11.09,4.41-11.09,4.41,9.65-10.24,7-12.44-9.48,9-9.48,9,3.72-6.4-.1-7.31-5.78,17.91-5.78,17.91,13.15,3,14.71.58S115.13,311.43,115.13,311.43Z" style="fill:#F27BD2"></path><path d="M64.05,311.43S51.41,307,51.24,303s11.09,4.41,11.09,4.41-9.65-10.24-7-12.44,9.49,9,9.49,9-3.72-6.4.1-7.31,5.78,17.91,5.78,17.91-13.15,3-14.71.58S64.05,311.43,64.05,311.43Z" style="fill:#F27BD2"></path><path d="M108.17,316.09s9.88-3,3.42-12.47c0,0,4.93-14.3-8-12.13,0,0-2.12-12.5-14.1-3.46,0,0-11.5-11.18-12.27,4.07,0,0-14.32-1.43-8.29,12,0,0-6.89,8.41,2.62,11.11Z" style="fill:#F27BD2"></path><path d="M108.17,316.09s9.88-3,3.42-12.47c0,0,4.93-14.3-8-12.13,0,0-2.12-12.5-14.1-3.46,0,0-11.5-11.18-12.27,4.07,0,0-14.32-1.43-8.29,12,0,0-6.89,8.41,2.62,11.11Z" style="fill:#fff;opacity:0.6000000000000001"></path><path d="M70.05,316.43a1.42,1.42,0,0,0,1.42,1.43h5.7a1.7,1.7,0,0,1,1.71,1.7v0H77.57a2.69,2.69,0,0,0-2.69,2.8,2.57,2.57,0,0,0,.87,1.81,3,3,0,0,0,2,.77h1.1s0,0,0,0v2.46a11,11,0,0,0,3.81,8.34l-.08.12a1.46,1.46,0,0,0-.16.66A1.43,1.43,0,0,0,83.87,338H84a2.11,2.11,0,0,1-1.2,1.92l-.42.2H81.5a.82.82,0,1,0,0,1.63h.85l.42.21a2.11,2.11,0,0,1,1.2,1.91v.52a4.83,4.83,0,0,0-.61,7.27,4,4,0,0,0,.61.55V388a2.53,2.53,0,0,0-.26.22A4.8,4.8,0,0,0,82,391.85a4.86,4.86,0,0,0,1.49,3.5,1.67,1.67,0,0,1,.5,1.19,1.73,1.73,0,0,1-1,1.55l-.65.31s0,0,0,0H81.5a.82.82,0,0,0-.83.81.87.87,0,0,0,.17.48h-.58v1H78.8v5.94c-.16.15-.31.31-.45.47a11.73,11.73,0,0,0-3,7.79,0,0,0,0,0,0,0h29.07a0,0,0,0,0,0,0,11.78,11.78,0,0,0-3-7.79c-.14-.16-.29-.32-.44-.47v-5.94H99.6v-1H99a.8.8,0,0,0,.17-.48.81.81,0,0,0-.81-.81h-.86l-.66-.31a1.72,1.72,0,0,1-1-1.55,1.63,1.63,0,0,1,.5-1.19,4.89,4.89,0,0,0,1.48-3.5,4.79,4.79,0,0,0-1.71-3.68,2.53,2.53,0,0,0-.26-.22V352.24s0,0,0,0a4,4,0,0,0,.61-.55,4.81,4.81,0,0,0,1.36-3.36,4.9,4.9,0,0,0-2-3.91v-.52A2.13,2.13,0,0,1,97.1,342l.42-.21h.86a.82.82,0,0,0,0-1.63h-.86l-.42-.2A2.13,2.13,0,0,1,95.9,338H96a1.43,1.43,0,0,0,1.42-1.43,1.35,1.35,0,0,0-.17-.66.75.75,0,0,0-.07-.12,11,11,0,0,0,3.81-8.34V325h1.31a2.69,2.69,0,0,0,2.68-2.82,2.79,2.79,0,0,0-2.86-2.56H101s0,0,0,0a1.7,1.7,0,0,1,1.7-1.7h5.7a1.43,1.43,0,0,0,0-2.86H71.47A1.42,1.42,0,0,0,70.05,316.43Z" style="fill:#F27BD2"></path><path d="M70.05,316.43a1.42,1.42,0,0,0,1.42,1.43h5.7a1.7,1.7,0,0,1,1.71,1.7v0H77.57a2.69,2.69,0,0,0-2.69,2.8,2.57,2.57,0,0,0,.87,1.81,3,3,0,0,0,2,.77h1.1s0,0,0,0v2.46a11,11,0,0,0,3.81,8.34l-.08.12a1.46,1.46,0,0,0-.16.66A1.43,1.43,0,0,0,83.87,338H84a2.11,2.11,0,0,1-1.2,1.92l-.42.2H81.5a.82.82,0,1,0,0,1.63h.85l.42.21a2.11,2.11,0,0,1,1.2,1.91v.52a4.83,4.83,0,0,0-.61,7.27,4,4,0,0,0,.61.55V388a2.53,2.53,0,0,0-.26.22A4.8,4.8,0,0,0,82,391.85a4.86,4.86,0,0,0,1.49,3.5,1.67,1.67,0,0,1,.5,1.19,1.73,1.73,0,0,1-1,1.55l-.65.31s0,0,0,0H81.5a.82.82,0,0,0-.83.81.87.87,0,0,0,.17.48h-.58v1H78.8v5.94c-.16.15-.31.31-.45.47a11.73,11.73,0,0,0-3,7.79,0,0,0,0,0,0,0h29.07a0,0,0,0,0,0,0,11.78,11.78,0,0,0-3-7.79c-.14-.16-.29-.32-.44-.47v-5.94H99.6v-1H99a.8.8,0,0,0,.17-.48.81.81,0,0,0-.81-.81h-.86l-.66-.31a1.72,1.72,0,0,1-1-1.55,1.63,1.63,0,0,1,.5-1.19,4.89,4.89,0,0,0,1.48-3.5,4.79,4.79,0,0,0-1.71-3.68,2.53,2.53,0,0,0-.26-.22V352.24s0,0,0,0a4,4,0,0,0,.61-.55,4.81,4.81,0,0,0,1.36-3.36,4.9,4.9,0,0,0-2-3.91v-.52A2.13,2.13,0,0,1,97.1,342l.42-.21h.86a.82.82,0,0,0,0-1.63h-.86l-.42-.2A2.13,2.13,0,0,1,95.9,338H96a1.43,1.43,0,0,0,1.42-1.43,1.35,1.35,0,0,0-.17-.66.75.75,0,0,0-.07-.12,11,11,0,0,0,3.81-8.34V325h1.31a2.69,2.69,0,0,0,2.68-2.82,2.79,2.79,0,0,0-2.86-2.56H101s0,0,0,0a1.7,1.7,0,0,1,1.7-1.7h5.7a1.43,1.43,0,0,0,0-2.86H71.47A1.42,1.42,0,0,0,70.05,316.43Z" style="fill:#fff;opacity:0.4"></path><path d="M101,325v2.42a11,11,0,0,1-3.81,8.34.75.75,0,0,1,.07.12H82.61l.08-.12a11,11,0,0,1-3.81-8.34V325Z" style="opacity:0.2"></path><path d="M84,352.24V388a2.53,2.53,0,0,0-.26.22H96.17a2.53,2.53,0,0,0-.26-.22V352.24s0,0,0,0a4,4,0,0,0,.61-.55H83.35a4,4,0,0,0,.61.55Z" style="opacity:0.2"></path><path d="M78.35,407.14h23.17c-.14-.16-.29-.32-.44-.47v-5.94H78.8v5.94C78.64,406.82,78.49,407,78.35,407.14Z" style="opacity:0.2"></path><path d="M70.76,300.6s2.29-6.56,0-6.57-2,6.57-2,6.57-2.55-6.14-4.24-5.24,2,6,2,6-6.27-.36-6.71,1,6,1.5,6,1.5-6.31,2.27-6,3.49,6.07-.6,6.07-.6S63,310.41,64.09,311s3.85-3.1,3.85-3.1-1.58,5.21.76,5.21S70,308.42,70,308.42s2.35,3.62,4.3,2.74S72,305.93,72,305.93s4.3,2.8,5.17.79S72,303.59,72,303.59s4.34-1.25,4.32-4.23S70.76,300.6,70.76,300.6Z" style="fill:#F27BD2"></path><path d="M70.76,300.6s2.29-6.56,0-6.57-2,6.57-2,6.57-2.55-6.14-4.24-5.24,2,6,2,6-6.27-.36-6.71,1,6,1.5,6,1.5-6.31,2.27-6,3.49,6.07-.6,6.07-.6S63,310.41,64.09,311s3.85-3.1,3.85-3.1-1.58,5.21.76,5.21S70,308.42,70,308.42s2.35,3.62,4.3,2.74S72,305.93,72,305.93s4.3,2.8,5.17.79S72,303.59,72,303.59s4.34-1.25,4.32-4.23S70.76,300.6,70.76,300.6Z" style="fill:#fff;opacity:0.2"></path><path d="M67.13,304.13a1.8,1.8,0,1,0,1.8-1.8A1.8,1.8,0,0,0,67.13,304.13Z" style="fill:#fff;opacity:0.4"></path><path d="M109.62,307.07s-2.56,6.46-.24,6.56,2.29-6.47,2.29-6.47,2.31,6.24,4,5.41S114,306.5,114,306.5s6.26.63,6.75-.7-6-1.75-6-1.75,6.39-2,6.17-3.24-6.08.36-6.08.36,3-3.58,1.87-4.25-4,2.95-4,2.95,1.79-5.15-.55-5.25-1.53,4.66-1.53,4.66-2.2-3.71-4.18-2.9,2.16,5.32,2.16,5.32-4.18-3-5.14-1,5,3.34,5,3.34-4.4,1.07-4.5,4S109.62,307.07,109.62,307.07Z" style="fill:#F27BD2"></path><path d="M109.62,307.07s-2.56,6.46-.24,6.56,2.29-6.47,2.29-6.47,2.31,6.24,4,5.41S114,306.5,114,306.5s6.26.63,6.75-.7-6-1.75-6-1.75,6.39-2,6.17-3.24-6.08.36-6.08.36,3-3.58,1.87-4.25-4,2.95-4,2.95,1.79-5.15-.55-5.25-1.53,4.66-1.53,4.66-2.2-3.71-4.18-2.9,2.16,5.32,2.16,5.32-4.18-3-5.14-1,5,3.34,5,3.34-4.4,1.07-4.5,4S109.62,307.07,109.62,307.07Z" style="fill:#fff;opacity:0.2"></path><path d="M113.39,303.7a1.8,1.8,0,1,0-1.87,1.72A1.8,1.8,0,0,0,113.39,303.7Z" style="fill:#fff;opacity:0.4"></path><path d="M91.11,284.91s2-5.8,0-5.81-1.79,5.81-1.79,5.81-2.26-5.43-3.75-4.64,1.76,5.3,1.76,5.3-5.55-.32-5.93.87,5.32,1.33,5.32,1.33-5.58,2-5.34,3.09,5.36-.54,5.36-.54-2.49,3.27-1.5,3.82,3.4-2.75,3.4-2.75-1.39,4.62.68,4.62,1.19-4.18,1.19-4.18,2.08,3.21,3.8,2.42-2.11-4.63-2.11-4.63,3.81,2.49,4.58.7-4.58-2.77-4.58-2.77,3.84-1.1,3.83-3.74S91.11,284.91,91.11,284.91Z" style="fill:#F27BD2"></path><path d="M91.11,284.91s2-5.8,0-5.81-1.79,5.81-1.79,5.81-2.26-5.43-3.75-4.64,1.76,5.3,1.76,5.3-5.55-.32-5.93.87,5.32,1.33,5.32,1.33-5.58,2-5.34,3.09,5.36-.54,5.36-.54-2.49,3.27-1.5,3.82,3.4-2.75,3.4-2.75-1.39,4.62.68,4.62,1.19-4.18,1.19-4.18,2.08,3.21,3.8,2.42-2.11-4.63-2.11-4.63,3.81,2.49,4.58.7-4.58-2.77-4.58-2.77,3.84-1.1,3.83-3.74S91.11,284.91,91.11,284.91Z" style="fill:#fff;opacity:0.2"></path><path d="M87.9,288a1.59,1.59,0,1,0,1.59-1.59A1.59,1.59,0,0,0,87.9,288Z" style="fill:#fff;opacity:0.4"></path><path d="M77.38,287.21s1.84-5.29,0-5.29-1.63,5.29-1.63,5.29-2.07-4.95-3.42-4.23,1.6,4.83,1.6,4.83-5.06-.29-5.41.8,4.85,1.21,4.85,1.21-5.08,1.83-4.87,2.82,4.9-.49,4.9-.49-2.28,3-1.37,3.48,3.1-2.5,3.1-2.5-1.27,4.2.62,4.2,1.08-3.8,1.08-3.8,1.9,2.92,3.46,2.2-1.92-4.22-1.92-4.22,3.48,2.27,4.18.64-4.18-2.53-4.18-2.53,3.51-1,3.49-3.41S77.38,287.21,77.38,287.21Z" style="fill:#F27BD2"></path><path d="M74.45,290.06a1.45,1.45,0,1,0,1.45-1.45A1.45,1.45,0,0,0,74.45,290.06Z" style="fill:#fff;opacity:0.4"></path><path d="M106.68,291.6s5.36-.59,4.59-2.22-5.28.77-5.28.77,3.45-3.84,2.26-4.72-3.53,3.39-3.53,3.39-1.85-4.52-2.94-4.37,1,4.72,1,4.72-3.7-3.66-4.47-3.07,2.46,4,2.46,4-3.54-.73-3.6.26,3.47,1.66,3.47,1.66-4.19.63-3.41,2.28,3.76-.64,3.76-.64-1.75,2.86-.48,3.92,2.87-3.41,2.87-3.41-.53,3.95,1.18,3.89.46-4.68.46-4.68,2.33,2.63,4.41,1.62S106.68,291.6,106.68,291.6Z" style="fill:#F27BD2"></path><path d="M103,290.23a1.4,1.4,0,1,0,1.86.66A1.39,1.39,0,0,0,103,290.23Z" style="fill:#fff;opacity:0.4"></path><path d="M87.75,301.89s-6-8-7.82-5.22,6.17,7.66,6.17,7.66-9.34-1.89-9.62.83,8.7,2.44,8.7,2.44-5.46,7.16-4.21,8.75,6.6-5.93,6.6-5.93-2.35,9.29-.68,10S91,312.69,91,312.69s2.13,6.3,3.77,5.47-.61-7.05-.61-7.05,4.93,6.05,6.81,3.27S96.46,309,96.46,309s6.18.11,6.69-2.91S95,304.74,95,304.74s6.78-2.86,5.09-5.51-7.86,3.64-7.86,3.64,2-6.16-1.56-8.53S87.75,301.89,87.75,301.89Z" style="fill:#F27BD2"></path><path d="M89,309a2.58,2.58,0,1,0-.7-3.58A2.57,2.57,0,0,0,89,309Z" style="fill:#fff;opacity:0.4"></path></g><g id="freepik--character-2--inject-105"><polygon points="317.99 408.3 310.49 409.09 310.1 404.57 310.23 404.49 309.36 392.96 309.36 392.91 316.72 392.12 316.67 392.21 317.69 404.49 317.69 404.57 317.99 408.3" style="fill:#b77964"></polygon><polygon points="355.42 407.35 348.15 407.35 348.07 405.13 348.06 404.93 347.73 395.57 347.72 395.36 347.55 390.7 354.68 390.7 354.68 390.92 354.82 391.11 355.61 404.45 355.61 404.67 355.42 407.35" style="fill:#b77964"></polygon><path d="M347.14,406.91H356a.65.65,0,0,1,.62.5l1.43,6.48a1.08,1.08,0,0,1-.83,1.27l-.23,0c-2.86-.05-4.94-.22-8.53-.22-2.21,0-8.88.23-11.93.23s-3.45-3-2.2-3.29c5.6-1.22,9.82-2.92,11.61-4.53A1.78,1.78,0,0,1,347.14,406.91Z" style="fill:#263238"></path><path d="M309.69,406.68h8.83a.64.64,0,0,1,.62.5l1.43,6.47a1.09,1.09,0,0,1-.83,1.28l-.23,0c-2.86-.05-4.94-.22-8.53-.22-2.21,0-8.88.23-11.93.23s-3.45-3-2.2-3.29c5.6-1.22,9.82-2.92,11.61-4.53A1.79,1.79,0,0,1,309.69,406.68Z" style="fill:#263238"></path><polygon points="317.66 404.57 310.08 404.57 309.07 392.96 316.58 392.18 316.58 392.21 317.65 404.49 317.66 404.57" style="opacity:0.2;isolation:isolate"></polygon><polygon points="355.18 404.85 348.07 405.5 348.06 405.5 347.72 395.76 347.73 395.66 354.54 391.15 355.16 404.57 355.18 404.85" style="opacity:0.2;isolation:isolate"></polygon><path d="M357,403.19l-11.15,1.3s-8.24-55.16-11.71-78.94c-.06-.38-.1-.75-.16-1.11-1.37-9.38-2.94-27-4.27-43.63-.76,2-1.45,4.28-2.1,6.73-.14.51-.28,1-.41,1.55s-.3,1.25-.45,1.89-.28,1.22-.42,1.85c-.24,1.13-.48,2.29-.71,3.48C318.13,334.72,318,402.57,318,402.57l-10.54.64c-7.68-58.85.79-129.53,5-155.13a.49.49,0,0,0,0,.12c.08-.48.16-1,.24-1.44a.38.38,0,0,1,0-.1c.21-1.25.4-2.09.58-3h38.52s0,.33,0,.56,0,.55,0,.87,0,.48,0,.76,0,.31,0,.48,0,.34,0,.53c0,.83,0,1.8,0,2.89,0,.39,0,.8,0,1.22v.72c0,.34,0,.69,0,1,.12,9.8.37,25.92.75,41.6,0,.62,0,1.24.05,1.86s0,1,0,1.47c.13,5.52.29,10.93.48,15.93s.38,9.56.59,13.42c0,.35,0,.72,0,1.09s.06,1.07.1,1.63C355.25,353.73,357,403.19,357,403.19Z" style="fill:#F27BD2"></path><g style="opacity:0.2"><path d="M357,403.19l-11.15,1.3s-8.24-55.16-11.71-78.94c-.06-.38-.1-.75-.16-1.11-1.37-9.38-2.94-27-4.27-43.63-.76,2-1.45,4.28-2.1,6.73-.14.51-.28,1-.41,1.55s-.3,1.25-.45,1.89-.28,1.22-.42,1.85c-.24,1.13-.48,2.29-.71,3.48C318.13,334.72,318,402.57,318,402.57l-10.54.64c-7.68-58.85.79-129.53,5-155.13a.49.49,0,0,0,0,.12c.08-.48.16-1,.24-1.44a.38.38,0,0,1,0-.1c.21-1.25.4-2.09.58-3h38.52s0,.33,0,.56,0,.55,0,.87,0,.48,0,.76,0,.31,0,.48,0,.34,0,.53c0,.83,0,1.8,0,2.89,0,.39,0,.8,0,1.22v.72c0,.34,0,.69,0,1,.12,9.8.37,25.92.75,41.6,0,.62,0,1.24.05,1.86s0,1,0,1.47c.13,5.52.29,10.93.48,15.93s.38,9.56.59,13.42c0,.35,0,.72,0,1.09s.06,1.07.1,1.63C355.25,353.73,357,403.19,357,403.19Z"></path></g><path d="M279.73,200.18l-16.63-.29a6.15,6.15,0,0,0-3.8-1.92c-2.31-.19-9.06,2.82-9,3.54s4.15,6.12,5.17,6.07,8.17-2.73,8.17-2.73l15.21,2.66Z" style="fill:#b77964"></path><path d="M313.94,177.92c-2.95.39-23.53,20-39.44,21.18l4,13.5s22.28-1.13,36.12-10.53S313.94,177.92,313.94,177.92Z" style="fill:#F27BD2"></path><path d="M314.62,202.07c-7.82,5.31-18.34,8-26,9.3l-1,.17c-1.43.23-2.75.42-3.91.56s-2.21.25-3,.33c-1.39.13-2.19.17-2.19.17l-4-13.5a22.35,22.35,0,0,0,2.63-.35,29.39,29.39,0,0,0,2.92-.7,43.16,43.16,0,0,0,4.25-1.5c.31-.13.62-.26.93-.41,13.24-5.77,26.4-17.91,28.71-18.22C313.94,177.92,328.45,192.67,314.62,202.07Z" style="opacity:0.1;isolation:isolate"></path><g style="opacity:0.4"><path d="M283.71,212.1c-1.19.15-2.21.25-3,.33l-3.56-13.68a29.39,29.39,0,0,0,2.92-.7Z" style="fill:#fff"></path></g><path d="M288.61,211.37l-1,.17-3.32-15c.31-.13.62-.26.93-.41Z" style="fill:#fff;opacity:0.4"></path><polygon points="312.11 309.78 325.96 311.08 327.08 296.67 327.62 311.08 345.64 309.78 343.56 231.71 316.83 236 312.11 309.78" style="fill:#F27BD2"></polygon><polygon points="312.11 309.78 325.96 311.08 327.08 296.67 327.62 311.08 345.64 309.78 343.56 231.71 316.83 236 312.11 309.78" style="fill:#fff;opacity:0.2"></polygon><path d="M363.27,333.46s-12.88,3.36-32.14,3.37c-1.06-15.63-5-74.14-5.17-91.4,0,0-5,51.75-2.85,91.21a158.2,158.2,0,0,1-25-3.18s1.62-27.85,7.47-89.7c1.29-13.74,2.8-27.51,4.55-40.62,1.17-8.76,2.43-17.23,3.82-25.22a75.7,75.7,0,0,1,45,2.05s-.73,18.78-1.09,45.36c-.07,4.6-.13,9.43-.15,14.44C357.39,280.72,358.21,299.94,363.27,333.46Z" style="fill:#F27BD2"></path><path d="M345.64,177.29c-3.55,3.21-12.23,2-12.23,2s-5.41-1.48-4.27-3.17c3.19-.53,4.73-2,5.37-3.92a9.33,9.33,0,0,0,.32-3.65,17.61,17.61,0,0,0-.26-2l10.72-7.95C343.89,163.84,342.17,173.48,345.64,177.29Z" style="fill:#b77964"></path><path d="M342.82,163.64c-.43,6.44-5.72,8.22-8.31,8.58a9.33,9.33,0,0,0,.32-3.65Z" style="opacity:0.2;isolation:isolate"></path><path d="M334.52,179.53s1.61-4.28,2.49-5.17,8.08-2.68,8.08-2.68,0,4.13,2.65,5.35C347.74,177,340.06,182.32,334.52,179.53Z" style="fill:#F27BD2"></path><path d="M334.52,179.53s.78-5.2.17-5.77l-1.61-1.54s-.7,2.49-5.46,3.59C327.62,175.81,327.4,178.48,334.52,179.53Z" style="fill:#F27BD2"></path><path d="M355.63,178.43s-5.48,31-8,62.47c0,.3-.05.6-.08.9-.26,3.41-.49,6.81-.67,10.18,0,.65-.06,1.3-.1,2-.12,2.66-.22,5.28-.28,7.86,0,1.12-.05,2.24-.06,3.34s0,2.44,0,3.64q0,3.33.12,6.47c0,1.05.08,2.07.14,3.08l-14.46,1.13s0-1.32.12-3.67c.05-1.58.13-3.64.24-6.09.05-1.39.12-2.92.2-4.55.05-1.07.11-2.19.17-3.35.12-2.44.27-5.08.43-7.86q.06-1,.12-2c.2-3.24.43-6.66.7-10.18,0-.3,0-.6.06-.9,1.85-24.54,5.24-54,11.25-66.54C345.56,174.36,348.45,176.85,355.63,178.43Z" style="fill:#263238"></path><path d="M355.63,178.43s-5.48,31-8,62.47c0,.3-.05.6-.08.9-.26,3.41-.49,6.81-.67,10.18,0,.65-.06,1.3-.1,2-.12,2.66-.22,5.28-.28,7.86,0,1.12-.05,2.24-.06,3.34s0,2.44,0,3.64q0,3.33.12,6.47c0,1.05.08,2.07.14,3.08l-14.46,1.13s0-1.32.12-3.67c.05-1.58.13-3.64.24-6.09.05-1.39.12-2.92.2-4.55.05-1.07.11-2.19.17-3.35.12-2.44.27-5.08.43-7.86q.06-1,.12-2c.2-3.24.43-6.66.7-10.18,0-.3,0-.6.06-.9,1.85-24.54,5.24-54,11.25-66.54C345.56,174.36,348.45,176.85,355.63,178.43Z" style="fill:#fff;opacity:0.2"></path><path d="M346.59,275.24l-14.2.54c.05-1.58.13-3.64.24-6.09l13.84-.92Q346.47,272.1,346.59,275.24Z" style="fill:#fff;opacity:0.2"></path><path d="M346.54,261.79c0,1.12-.05,2.24-.06,3.34H332.83c.05-1.07.11-2.19.17-3.35Z" style="fill:#fff;opacity:0.2"></path><path d="M346.92,252c0,.65-.06,1.3-.1,2H333.43q.06-1,.12-2Z" style="fill:#fff;opacity:0.2"></path><path d="M347.67,240.9c0,.3-.05.6-.08.9H334.25c0-.3,0-.6.06-.9Z" style="fill:#fff;opacity:0.2"></path><path d="M329.13,174.77a455.81,455.81,0,0,0-31.44,55.28c-.12.27-.25.54-.38.82-1.43,3-2.84,6.16-4.18,9.3-.26.59-.52,1.2-.77,1.8-1,2.42-2,4.85-2.95,7.28-.41,1.05-.8,2.09-1.19,3.13-.44,1.2-.87,2.39-1.29,3.58-.71,2-1.38,4.06-2,6.07-.43,1.35-.83,2.69-1.21,4l-9.21-4.26s.33-1,.95-2.88c.49-1.46,1.17-3.42,2-5.79q.69-1.92,1.53-4.17c.37-1,.76-2,1.18-3.14.86-2.27,1.82-4.73,2.86-7.31l.74-1.82c1.22-3,2.56-6.14,4-9.37l.36-.83c8.12-18.22,19.31-39,32-50.47Z" style="fill:#263238"></path><path d="M329.13,174.77a455.81,455.81,0,0,0-31.44,55.28c-.12.27-.25.54-.38.82-1.43,3-2.84,6.16-4.18,9.3-.26.59-.52,1.2-.77,1.8-1,2.42-2,4.85-2.95,7.28-.41,1.05-.8,2.09-1.19,3.13-.44,1.2-.87,2.39-1.29,3.58-.71,2-1.38,4.06-2,6.07-.43,1.35-.83,2.69-1.21,4l-9.21-4.26s.33-1,.95-2.88c.49-1.46,1.17-3.42,2-5.79q.69-1.92,1.53-4.17c.37-1,.76-2,1.18-3.14.86-2.27,1.82-4.73,2.86-7.31l.74-1.82c1.22-3,2.56-6.14,4-9.37l.36-.83c8.12-18.22,19.31-39,32-50.47Z" style="fill:#fff;opacity:0.2"></path><path d="M286.93,256c-.71,2-1.38,4.06-2,6.07l-9.47-3.12c.49-1.46,1.17-3.42,2-5.79Z" style="fill:#fff;opacity:0.2"></path><path d="M289.41,249.25c-.41,1.05-.8,2.09-1.19,3.13L279,249c.37-1,.76-2,1.18-3.14Z" style="fill:#fff;opacity:0.2"></path><path d="M293.13,240.17c-.26.59-.52,1.2-.77,1.8L283,238.5l.74-1.82Z" style="fill:#fff;opacity:0.2"></path><path d="M297.69,230.05c-.12.27-.25.54-.38.82l-9.55-3.56.36-.83Z" style="fill:#fff;opacity:0.2"></path><path d="M313.84,246.38a5.17,5.17,0,0,0-3.15-1.71c-1.72,0-1.42,6.64-1.42,6.64l2.28.67S313.88,248.58,313.84,246.38Z" style="fill:#fff"></path><path d="M308,253.15a2.07,2.07,0,1,0,2.06-2.07A2.07,2.07,0,0,0,308,253.15Z" style="fill:#F27BD2"></path><path d="M308,253.15a2.07,2.07,0,1,0,2.06-2.07A2.07,2.07,0,0,0,308,253.15Z" style="fill:#fff;opacity:0.6000000000000001"></path><path d="M307.6,261.2c1.92-1.76,2.44-6,2.44-6a2.29,2.29,0,0,0-1.77-1s-3.33,3.62-5,3.62a4,4,0,0,0,3.4-1.06,11.41,11.41,0,0,1-2.12,2.75,4,4,0,0,0,1.76,1.17,6.43,6.43,0,0,0,2-2.34,4.56,4.56,0,0,1-.29,1.72A5.06,5.06,0,0,0,307.6,261.2Z" style="fill:#fff"></path><path d="M308.42,254.45a9.38,9.38,0,0,1-5.17,1.91" style="fill:none;stroke:#fff;stroke-linecap:round;stroke-linejoin:round;stroke-width:0.5px"></path><circle cx="333.39" cy="184.37" r="1.12" style="fill:#fff;opacity:0.5"></circle><circle cx="327.08" cy="230.6" r="1.12" style="fill:#fff;opacity:0.5"></circle><path d="M350.45,177.12S341.64,231.2,319,244s-4.37-61.33,8.62-68.15" style="fill:none;stroke:#F27BD2;stroke-linecap:round;stroke-linejoin:round;stroke-width:3px;stroke-dasharray:0.009999999776482582,3"></path><path d="M347.74,175.45s-10.5,43.28-28.74,56.78.45-48.75,10.13-57.46" style="fill:none;stroke:#fff;stroke-linecap:round;stroke-linejoin:round;stroke-width:2px;stroke-dasharray:0.009999999776482582,2"></path><path d="M350.45,177.12S341.64,231.2,319,244s-4.37-61.33,8.62-68.15" style="fill:none;stroke:#fff;stroke-linecap:round;stroke-linejoin:round;stroke-width:3px;stroke-dasharray:0.009999999776482582,3;opacity:0.6000000000000001"></path><circle cx="330.27" cy="204.11" r="1.12" style="fill:#fff;opacity:0.5"></circle><polygon points="338.42 129.06 345.24 140.36 356.68 144.5 357.71 138.12 357.62 131.28 354.29 124.53 348.58 122.14 342.19 124.69 338.42 129.06" style="fill:#F27BD2"></polygon><polygon points="338.42 129.06 345.24 140.36 356.68 144.5 357.71 138.12 357.62 131.28 354.29 124.53 348.58 122.14 342.19 124.69 338.42 129.06" style="fill:#fff;opacity:0.2"></polygon><polygon points="342.19 124.69 341.17 128 345.24 140.36 342.19 124.69" style="opacity:0.2"></polygon><polygon points="348.58 122.14 346.88 124.48 345.24 140.36 348.58 122.14" style="opacity:0.2"></polygon><polygon points="354.29 124.53 352.15 125.16 345.24 140.36 354.29 124.53" style="opacity:0.2"></polygon><polygon points="357.62 131.28 355.31 130.61 345.24 140.36 357.62 131.28" style="opacity:0.2"></polygon><polygon points="357.71 138.12 356.34 136.73 345.24 140.36 357.71 138.12" style="opacity:0.2"></polygon><path d="M324,144.68c-1.7,3.55.11,11,4.11,12.49,6.15,2.3,5.31-14.8,5.31-14.8S326,140.41,324,144.68Z" style="fill:#263238"></path><path d="M343.54,165.13a9.11,9.11,0,0,1-10.45,3.53,10.18,10.18,0,0,1-5.78-4.71q-.26-.47-.48-1c-2.61-6.13-3.45-16.84,3-20.85a9.83,9.83,0,0,1,13.57,3.09,9.57,9.57,0,0,1,1.48,4.34C345.71,156.73,346.51,160.9,343.54,165.13Z" style="fill:#b77964"></path><path d="M334.48,153.39c.14.57-.12,1.1-.51,1.16s-.76-.35-.86-.93.13-1.1.5-1.16S334.37,152.81,334.48,153.39Z" style="fill:#263238"></path><path d="M327.94,154.51c.14.56-.13,1.1-.5,1.16s-.77-.36-.87-.93.13-1.1.51-1.16S327.85,154,327.94,154.51Z" style="fill:#263238"></path><path d="M330.07,154.44a20.77,20.77,0,0,1-1.92,5.41,3.39,3.39,0,0,0,2.87.05Z" style="fill:#a04e3f"></path><path d="M336.14,150.93a.35.35,0,0,1-.35-.08,2.75,2.75,0,0,0-2.36-.76.35.35,0,1,1-.17-.67h0a3.43,3.43,0,0,1,3,.93.34.34,0,0,1,0,.48h0A.34.34,0,0,1,336.14,150.93Z" style="fill:#263238"></path><path d="M332.47,162.73h0a5.27,5.27,0,0,0,4.28-2.33.18.18,0,0,0-.31-.2v0a5.08,5.08,0,0,1-4,2.14.18.18,0,0,0-.18.18v0a.18.18,0,0,0,.18.17Z" style="fill:#263238"></path><path d="M325.71,153.14a.29.29,0,0,1-.2.05.34.34,0,0,1-.24-.42h0a3.38,3.38,0,0,1,2.12-2.32.33.33,0,0,1,.42.23h0a.35.35,0,0,1-.23.43h0a2.79,2.79,0,0,0-1.65,1.86A.33.33,0,0,1,325.71,153.14Z" style="fill:#263238"></path><path d="M342.43,137.28c5.89,1.55,6.66,9.72,5.84,17.16-.73,6.49-4.14,9.51-4.14,9.51,1.54-3.08,1.08-9.09.08-9.25s-.93,1-.93,1c-2.23-1.39-5.48-3.62-3-10.32.29-.8.52-2.66-.56-3.36-2.08-1.34-5-.05-5-.05s-7.23,9.07-10.69,1.56C322.33,139.8,336,135.59,342.43,137.28Z" style="fill:#263238"></path><path d="M349,154.86a6.84,6.84,0,0,1-3.29,4.07c-2.12,1.14-3.7-.63-3.55-2.9.14-2,1.4-5.11,3.74-5.29A3.07,3.07,0,0,1,349,154.86Z" style="fill:#b77964"></path><path d="M330.58,149.36a.8.8,0,1,1-.8-.8A.8.8,0,0,1,330.58,149.36Z" style="fill:#a04e3f"></path><path d="M333.65,160.13s-.27-1.13,1.38-1.66c1.43-.46,4,.68,4.26-.78,0,0,.32,1.27-.69,1.68-1.49.6-3.58.32-4.56,2Z" style="fill:#263238"></path><path d="M334,161.35l-1-1a1.6,1.6,0,0,0-1.84.08c-.71.62-1.29,2.77-2.72,2.44a1.76,1.76,0,0,0,1.82.6C331.37,163.11,332.6,161.06,334,161.35Z" style="fill:#263238"></path><path d="M332.05,164.46s-.54,3,1.59,3.47a2,2,0,0,0,1.88-3.22l1-.5s0,1.93,1.7,2.13,1.89-3.37.47-4.5A23.82,23.82,0,0,1,341.9,164c.79.76,2,4.22-4,5.7S330.46,169.18,332.05,164.46Z" style="fill:#263238"></path><path d="M325,155.67s-1.59-5.15,8.07-10.89c0,0,6.47,11.38,15.46,14.74,0,0,4-8.56,4.25-10.91s-5.05-10.82-5.05-10.82v-.89s-4.48-5.44-9.08-5.77-18.57,3.28-18.57,7.52S321.16,151.49,325,155.67Z" style="fill:#F27BD2"></path><path d="M334,144.09s5.95-6.43,13.7-6.3v-.89S340.76,135.38,334,144.09Z" style="opacity:0.2"></path><path d="M330.69,139.14s.19-7.21,3.35-7.61" style="fill:none;stroke:#fff;stroke-linecap:round;stroke-linejoin:round;stroke-dasharray:0.009999999776482582,2"></path><path d="M352.41,150.16c-5.36,7.85-21.83-9.53-21.83-9.53s-9.8,5.11-8.71,10.32" style="fill:none;stroke:#fff;stroke-linecap:round;stroke-linejoin:round;stroke-dasharray:0.009999999776482582,2"></path><path d="M330.69,139.14s3.56,4.65-.11,5.34S328.72,141,330.69,139.14Z" style="fill:#F27BD2"></path><path d="M330.69,139.14s3.56,4.65-.11,5.34S328.72,141,330.69,139.14Z" style="fill:#fff;opacity:0.5"></path><path d="M330.58,140.63s1.65,3.15-.23,2.86S330.58,140.63,330.58,140.63Z" style="fill:#fff"></path><path d="M394.43,172l7-15.08a6.14,6.14,0,0,1-.07-4.26c.84-2.16,6.49-6.92,7.12-6.57s3.69,6.41,3.2,7.3-6,6.16-6,6.16l-4.25,14.85Z" style="fill:#b77964"></path><path d="M358.93,180c9.42,2.69,27.62-.66,35.93-12l9.88,6.68S400.06,193.79,384,199.5s-25.81,5.7-25.81,5.7-3.2-2.43-3-12.53C355.42,184.25,358.93,180,358.93,180Z" style="fill:#F27BD2"></path><path d="M404.74,174.62s-.2.82-.67,2.18c-.26.8-.63,1.78-1.1,2.9-.35.85-.77,1.78-1.26,2.76-.14.29-.3.59-.46.89-3.06,5.85-8.44,13-17.24,16.15-16,5.69-25.74,5.7-25.81,5.7s-3.2-2.43-3-12.53c.19-8.42,3.7-12.7,3.7-12.7,7.41,2.12,20.25.49,29.44-5.84.29-.19.58-.4.86-.61a26.5,26.5,0,0,0,2.31-1.9,25.65,25.65,0,0,0,2.12-2.18c.42-.49.82-1,1.2-1.51Z" style="opacity:0.1;isolation:isolate"></path><g style="opacity:0.4"><path d="M404.07,176.8c-.26.8-.63,1.78-1.1,2.9l-11.43-8.08a25.65,25.65,0,0,0,2.12-2.18Z" style="fill:#fff"></path></g><path d="M401.71,182.46c-.14.29-.3.59-.46.89l-12.88-9.22c.29-.19.58-.4.86-.61Z" style="fill:#fff;opacity:0.4"></path></g><g id="freepik--character-1--inject-105"><path d="M195.21,415.39a9.19,9.19,0,0,0-3.07-1.14h0s-3.53-2.64-6.34-11.68l-4.2-.48a3.5,3.5,0,0,0-3.49,2,1.84,1.84,0,0,0-.18.56,24.2,24.2,0,0,0,0,3.07,84.8,84.8,0,0,0,1.39,10.17l.73-.1-.61-6.42c-.2-2.18,1.81.12,2.62,2.38s2.17,4.61,6.93,4C194.53,417.09,196.8,416.55,195.21,415.39Z" style="fill:#2e353a"></path><path d="M184.64,399.36s1.5,4.1,3.5,8.6a19.58,19.58,0,0,0,4,6.29s-3.47,1.12-5.35-1.05-5.08-10.05-8.68-9.14a8.8,8.8,0,0,1,.8-1.83C179.45,401.33,184.64,399.36,184.64,399.36Z" style="fill:#b97964"></path><path d="M178.44,403.16c-.74-1.9-3.29-8-3.29-8l8.11-1s1.05,4.21,2.93,9.27C181.81,403.46,178.44,403.16,178.44,403.16Z" style="fill:#b97964"></path><path d="M243,410a9.11,9.11,0,0,0-3.24-.45h0s-4-1.8-8.72-10l-4.21.44a3.49,3.49,0,0,0-3,2.68,1.94,1.94,0,0,0-.05.59,22,22,0,0,0,.66,3A85.5,85.5,0,0,0,228,415.9l.7-.26-2-6.13c-.66-2.09,1.81-.27,3.09,1.76s3.11,4,7.64,2.45C242.67,411.85,244.77,410.83,243,410Z" style="fill:#2e353a"></path><path d="M229.17,396.69s2.35,3.67,5.28,7.63a19.53,19.53,0,0,0,5.27,5.27s-3.15,1.86-5.45.14-7.14-8.71-10.46-7a8.6,8.6,0,0,1,.39-2C224.53,399.74,229.17,396.69,229.17,396.69Z" style="fill:#b97964"></path><path d="M223.94,401.75c-1.14-1.7-4.94-7.07-4.94-7.07l7.7-2.71s1.94,3.88,4.88,8.42C227.29,401.31,223.94,401.75,223.94,401.75Z" style="fill:#b97964"></path><path d="M179,165.65c6-1.49,19.81,2.46,21.5,37s45.76,109.41,71,124.4c0,0-59.25,37-121.44,21.24C150.06,348.33,141.93,174.82,179,165.65Z" style="fill:#F27BD2"></path><path d="M179,165.65c6-1.49,19.81,2.46,21.5,37s45.76,109.41,71,124.4c0,0-59.25,37-121.44,21.24C150.06,348.33,141.93,174.82,179,165.65Z" style="opacity:0.2"></path><path d="M161.36,217.45s-20.9,32.9-3.71,154.7c0,0-17.17-10.16-19.54-19.91s-6.36-86.65,17.79-139.39Z" style="fill:#F27BD2"></path><path d="M161.36,217.45s-20.9,32.9-3.71,154.7c0,0-17.17-10.16-19.54-19.91s-6.36-86.65,17.79-139.39Z" style="fill:#fff;opacity:0.30000000000000004"></path><g style="opacity:0.7000000000000001"><path d="M153.66,369.54c-1.29-.9-2.79-2-4.34-3.24-1.8-17-9.76-103.34,7.61-152.65l1.78,1.38C155,224.58,143,264.9,153.66,369.54Z" style="fill:#fff"></path></g><g style="opacity:0.7000000000000001"><path d="M145.4,362.87c-.37-.33-.73-.69-1.08-1-5.94-80.49,3-123.75,8.68-142.21.92-2.29,1.88-4.55,2.9-6.77l.4.31C151.35,225.82,138.36,269.24,145.4,362.87Z" style="fill:#fff"></path></g><polygon points="172.51 233.52 171.78 251.31 201.02 246.86 201.02 230.5 172.51 233.52" style="fill:#b77964"></polygon><path d="M201.81,239l33.94,158.7s-46.56,5.55-62.34,2.3c0,0-18.57-126.55-2.1-158.48Z" style="fill:#F27BD2"></path><path d="M235.75,397.73s-16.41,2-33.05,2.87c-1.67.09-3.35.17-5,.23-8.44.35-16.51.34-22.06-.42-.76-.11-1.48-.23-2.14-.36l-.08,0s-1.75-11.93-3.69-29.38c-.29-2.53-.58-5.19-.86-7.94-.08-.75-.16-1.5-.24-2.27-.88-8.7-1.76-18.29-2.47-28.18q-.22-3.24-.44-6.52h0c-2.14-33.67-2.1-69.26,5.6-84.18l30.5-2.52,16.37,76.55,1.56,7.29,7.21,33.7.42,2,2.29,10.72.54,2.49h0l.47,2.2h0Z" style="fill:#fff;opacity:0.4;isolation:isolate"></path><path d="M228.7,367.13s5.17,19.32,15.64,26.47c0,0-.34,10.7-15.64,8.49s-24.4,11.85-34.73,5.38-14.29,5.32-23,.49-9.6-10.38-9.6-10.38,3.14-2.32,6.32-11.09a40.7,40.7,0,0,0,2-15.84S208.12,377.81,228.7,367.13Z" style="fill:#F27BD2"></path><path d="M244.34,393.6s-.34,10.7-15.64,8.49-24.4,11.85-34.73,5.38-14.29,5.32-23,.49-9.6-10.38-9.6-10.38,3.14-2.32,6.32-11.09a35,35,0,0,0,1.16-4c.3-1.35.51-2.66.66-3.89a40.22,40.22,0,0,0,.21-8h0c.73.14,38.6,7.06,59-3.52,0,0,.26,1,.78,2.55.2.61.44,1.3.72,2.08h0c.16.45.33.92.52,1.41C233.11,379.47,237.64,389,244.34,393.6Z" style="fill:#fff;opacity:0.2"></path><g style="opacity:0.2"><path d="M227.37,358.55c-3.16.05-4.56,2.62-6,5.91-.73,1.7-1.31,3-2.37,3.57-1.8.89-3.59-1.27-5.86-4-2-2.39-4.41-5.34-6.27-5.24s-3.48,3.71-4.72,6.34c-1.39,3-2.59,5.54-4.51,4.65-1-.44-1.9-1.67-3.21-3.36-2.44-3.15-5.78-7.47-10.07-7.63-3.48-.13-5,5.43-5.93,8.76-.66,2.35-.95,3.42-2,3.45h0c-1,0-1.33-1.09-1.48-1.55-1-3.13-4.31-5.6-6-6.73-.08-.75-.16-1.5-.24-2.27l.09-.16c.24.13,5.48,3,7.61,7.41.06-.23.13-.47.19-.69,1.08-3.89,2.9-10.45,7.93-10.22,5.23.2,9.05,5.14,11.58,8.41a17,17,0,0,0,2.33,2.68,16.22,16.22,0,0,0,2-3.6c1.61-3.43,3.43-7.31,6.41-7.49s5.55,3.09,7.93,6c1.14,1.38,2.86,3.46,3.48,3.48a8.41,8.41,0,0,0,1.38-2.55c1.15-2.65,2.94-6.8,7.4-7.1Z" style="fill:#fff"></path></g><g style="opacity:0.2"><path d="M219.74,322.87c-.59,6-1.72,11.05-3.82,12.21a2.62,2.62,0,0,1-2.9-.26c-6.13-4.16-16.92-30.21-20.46-39.06-3,11.56-11.75,42.1-20.32,42.1a3.27,3.27,0,0,1-.54,0c-2.14-.33-4-2.44-5.55-5.56q-.22-3.24-.44-6.52c1.8,5.71,3.92,9.73,6.29,10.1,6.09.94,15.12-26.23,19.38-43.58a1,1,0,0,1,1.91-.12c3.9,10.12,15.26,37.23,20.86,41,.5.34.71.23.8.18,1.9-1.06,2.88-8.89,3.23-17.76Z" style="fill:#fff"></path></g><g style="opacity:0.2"><path d="M232.3,396.36a2.3,2.3,0,0,1-1.75.85h-.11c-3.29,0-6.72-4.57-10.36-9.41-3.27-4.34-7-9.26-9.68-9.28h0c-2.48,0-3.83,7-4.82,12.16-.8,4.15-1.53,7.93-2.87,9.92A2.66,2.66,0,0,1,200,402a4.36,4.36,0,0,1-2.28-1.21c-2.21-2-4-6.29-5.84-10.73-1.7-4.1-3.47-8.33-5.39-10.26-.48-.48-.74-.43-.83-.41-1.62.35-3.73,6-5.43,10.51a66.4,66.4,0,0,1-4.57,10.47,15.26,15.26,0,0,1-1,1.51c-.94,1.2-2.13,2.48-3.39,2.48a1.86,1.86,0,0,1-.68-.13c-2.28-.89-2.12-5.86-1.25-16.19a16.43,16.43,0,0,0-.45-5.58c.3-1.35.51-2.66.66-3.89a17.74,17.74,0,0,1,1.78,9.63c-.38,4.57-1.09,13,0,14.14.16-.05.71-.34,1.77-1.69.16-.2.31-.41.46-.64,1.75-2.56,3.31-6.75,4.84-10.82,2.6-6.93,4.32-11.2,6.88-11.75a2.8,2.8,0,0,1,2.66.95c2.21,2.21,4,6.63,5.83,10.9,2,4.87,4.32,10.38,6.58,10.73,1.39.23,2.56-5.78,3.33-9.76,1.3-6.77,2.65-13.78,6.78-13.78h0c3.7,0,7.38,4.91,11.26,10.08,3.07,4.07,6.52,8.64,8.82,8.61a.3.3,0,0,0,.26-.11c.8-1,0-5.39-.71-9.26-1-5.6-2.22-12.15-.56-16.16a3,3,0,0,1,.18-.41l.54,2.49h0c.16.45.33.92.52,1.41,0,.26,0,.52-.05.79h0c-.15,3.39.64,7.69,1.34,11.5C233.08,391.33,233.62,394.73,232.3,396.36Z" style="fill:#fff"></path></g><path d="M227.06,215.83l16.42-8a31.21,31.21,0,0,0,6.09-.53c3.28-.61,4-.67,3.56-2.73s0-4.86-1-5.1-7.9,2.44-9.06,4.09l-20.84,6.57Z" style="fill:#b77964"></path><path d="M235,212.25l-2.06-7a.57.57,0,0,1,.38-.69h0a.56.56,0,0,1,.7.38l2,7a.56.56,0,0,1-.38.7h0A.56.56,0,0,1,235,212.25Z" style="fill:#F27BD2"></path><path d="M235,212.25l-2.06-7a.57.57,0,0,1,.38-.69h0a.56.56,0,0,1,.7.38l2,7a.56.56,0,0,1-.38.7h0A.56.56,0,0,1,235,212.25Z" style="fill:#fff;opacity:0.5"></path><path d="M240.75,210.19l-1.16-5.26a.42.42,0,0,1,.32-.5h0a.41.41,0,0,1,.49.32l1.16,5.27a.42.42,0,0,1-.32.49h0A.41.41,0,0,1,240.75,210.19Z" style="fill:#F27BD2"></path><path d="M240.75,210.19l-1.16-5.26a.42.42,0,0,1,.32-.5h0a.41.41,0,0,1,.49.32l1.16,5.27a.42.42,0,0,1-.32.49h0A.41.41,0,0,1,240.75,210.19Z" style="fill:#fff;opacity:0.5"></path><path d="M239.52,211l-1.92-6.23a.49.49,0,0,1,.33-.62h0a.51.51,0,0,1,.63.33l1.92,6.23a.51.51,0,0,1-.33.63h0A.5.5,0,0,1,239.52,211Z" style="fill:#F27BD2"></path><path d="M239.52,211l-1.92-6.23a.49.49,0,0,1,.33-.62h0a.51.51,0,0,1,.63.33l1.92,6.23a.51.51,0,0,1-.33.63h0A.5.5,0,0,1,239.52,211Z" style="fill:#fff;opacity:0.30000000000000004"></path><path d="M244.28,208.57l-2.2-5.2a.71.71,0,0,0-.92-.37h0a.7.7,0,0,0-.37.92l2.2,5.2a.7.7,0,0,0,.92.37h0A.69.69,0,0,0,244.28,208.57Z" style="fill:#F27BD2"></path><path d="M244.28,208.57l-2.2-5.2a.71.71,0,0,0-.92-.37h0a.7.7,0,0,0-.37.92l2.2,5.2a.7.7,0,0,0,.92.37h0A.69.69,0,0,0,244.28,208.57Z" style="fill:#fff;opacity:0.2"></path><path d="M239.08,210.44l-2.2-5.2a.71.71,0,0,0-.92-.37h0a.7.7,0,0,0-.37.92l2.2,5.2a.7.7,0,0,0,.92.37h0A.7.7,0,0,0,239.08,210.44Z" style="fill:#F27BD2"></path><path d="M239.08,210.44l-2.2-5.2a.71.71,0,0,0-.92-.37h0a.7.7,0,0,0-.37.92l2.2,5.2a.7.7,0,0,0,.92.37h0A.7.7,0,0,0,239.08,210.44Z" style="fill:#fff;opacity:0.5"></path><path d="M234.72,211.93l-2.2-5.19a.7.7,0,0,0-.92-.38h0a.69.69,0,0,0-.37.92l2.2,5.2a.69.69,0,0,0,.92.37h0A.71.71,0,0,0,234.72,211.93Z" style="fill:#F27BD2"></path><path d="M234.72,211.93l-2.2-5.19a.7.7,0,0,0-.92-.38h0a.69.69,0,0,0-.37.92l2.2,5.2a.69.69,0,0,0,.92.37h0A.71.71,0,0,0,234.72,211.93Z" style="fill:#fff;opacity:0.2"></path><path d="M228.67,218.25c-.41.7-3,.39-3,.39a12.92,12.92,0,0,1-1.56.44c-.65.15-1.51.33-2.57.48a45.74,45.74,0,0,1-5.27.46l-1.47,0c-2,0-4.16-.06-6.64-.28-.82-.07-1.66-.16-2.54-.27s-1.73-.23-2.64-.37-1.87-.3-2.85-.48l-.54-5-1.12-10.48a137.41,137.41,0,0,0,15.24,4.36l1.5.35c1.51.34,2.87.62,4,.83s1.79.32,2.33.38a2.75,2.75,0,0,0,.4,0c1.12,0,2.1-.56,2.75.55C224.67,209.61,229.09,217.55,228.67,218.25Z" style="fill:#263238"></path><path d="M224.11,219.08c-.65.15-1.51.33-2.57.48l-2.35-10.9c1,.19,1.79.32,2.33.38a2.75,2.75,0,0,0,.4,0Z" style="fill:#F27BD2"></path><path d="M216.27,220l-1.47,0-1.09-12.56,1.5.35Z" style="fill:#F27BD2"></path><path d="M202,233.87,171.43,236c-.48-6.12-1-5.14-3.25-12.45-.73-2.36-1.64-5-2.82-8-.63-1.63-1.32-3.38-2.1-5.26q-.87-2.15-1.9-4.54A107.42,107.42,0,0,1,174,203.24a120.33,120.33,0,0,1,13.71-1.17c5.93,0,12.76.5,12.76.5s1,.19,1.58,5.28C202.64,212.62,203.18,216.51,202,233.87Z" style="fill:#263238"></path><path d="M185.22,208.81c-7.53-1-9.79-4.17-9.79-4.17,4.78-4.51.81-12.31.81-12.31L185.3,194a27.29,27.29,0,0,0-.36,3.81c-.07,5.5,2.42,5.55,2.42,5.55C189,206.36,185.22,208.81,185.22,208.81Z" style="fill:#b77964"></path><path d="M185.3,194a27.29,27.29,0,0,0-.36,3.81c-6.11,0-8.7-5.5-8.7-5.5Z" style="opacity:0.2;isolation:isolate"></path><path d="M191.57,184.36c3.39-.38,5.62,8.13.89,8-3.52-.12-3.45-6.23-1.92-7.3" style="fill:none;stroke:#fff;stroke-linecap:round;stroke-linejoin:round;stroke-width:0.5px"></path><path d="M180.29,168.7c7.87-.43,10.64,3.64,11.66,11.72,1.27,10.1-.58,17.43-10.54,15.8C167.88,194,167.22,169.41,180.29,168.7Z" style="fill:#b77964"></path><path d="M186.83,180.26a16.86,16.86,0,0,0,2.47,3.14,2.16,2.16,0,0,1-2,1Z" style="fill:#a04e3f"></path><path d="M182,179.88c.05.65-.26,1.2-.69,1.23s-.82-.46-.87-1.11.26-1.19.69-1.23S181.93,179.24,182,179.88Z" style="fill:#263238"></path><path d="M180.93,178.82l1.36-.66S181.69,179.4,180.93,178.82Z" style="fill:#263238"></path><path d="M190,179.12c.05.65-.26,1.2-.69,1.23s-.82-.46-.87-1.11.26-1.19.69-1.23S190,178.47,190,179.12Z" style="fill:#263238"></path><path d="M189,178.06l1.36-.66S189.71,178.63,189,178.06Z" style="fill:#263238"></path><path d="M178.25,176.16a.35.35,0,0,1-.19-.06.35.35,0,0,1-.08-.47,4.41,4.41,0,0,1,3.65-1.51.34.34,0,0,1,.31.36.36.36,0,0,1-.36.31,3.77,3.77,0,0,0-3.05,1.23A.32.32,0,0,1,178.25,176.16Z" style="fill:#263238"></path><path d="M190.48,174.61a.33.33,0,0,1-.17,0,3.35,3.35,0,0,0-2.87-.46.33.33,0,0,1-.44-.17.34.34,0,0,1,.17-.44,4,4,0,0,1,3.48.49.34.34,0,0,1,.12.46A.32.32,0,0,1,190.48,174.61Z" style="fill:#263238"></path><path d="M186.3,187.57a20.34,20.34,0,0,0-.77,2.78l-.51,0c-2.3-.11-3.34-.92-3.78-1.78a3,3,0,0,1-.31-1.38,2.86,2.86,0,0,1,.11-.8,10.94,10.94,0,0,0,4.47,1.15Z" style="fill:#263238"></path><path d="M185.51,187.52l-.24.81c-2.17-.1-3.69-.47-4.34-1.16a2.86,2.86,0,0,1,.11-.8A10.94,10.94,0,0,0,185.51,187.52Z" style="fill:#fff"></path><path d="M185,190.33c-2.3-.11-3.34-.92-3.78-1.78a7.27,7.27,0,0,1,2.53.62A2.74,2.74,0,0,1,185,190.33Z" style="fill:#dc5753"></path><path d="M172.41,182.44s6.81-7.06,8.36-13.21c0,2.21,9.38-2.89,11,10.14,0,0,.75-14.14-12.8-13.72s-12.41,20.23-5.09,25.74C173.91,191.39,170.36,186.61,172.41,182.44Z" style="fill:#263238"></path><path d="M173.79,184a3.45,3.45,0,0,0-3.89-2.95c-2.43.4-3.31,5.47,2.82,6.34C173.6,187.55,174,186.67,173.79,184Z" style="fill:#b77964"></path><line x1="168.63" y1="179.94" x2="168.63" y2="179.94" style="fill:none;stroke:#F27BD2;stroke-linecap:round;stroke-linejoin:round"></line><path d="M169,179c1.11-2.89,5-11.49,12.64-12.46,5.79-.74,9.09,4.42,10,6" style="fill:none;stroke:#F27BD2;stroke-linecap:round;stroke-linejoin:round;stroke-dasharray:0.010053000412881374,1.0052599906921387"></path><line x1="191.8" y1="173" x2="191.8" y2="173" style="fill:none;stroke:#F27BD2;stroke-linecap:round;stroke-linejoin:round"></line><g style="opacity:0.5"><line x1="168.63" y1="179.94" x2="168.63" y2="179.94" style="fill:none;stroke:#fff;stroke-linecap:round;stroke-linejoin:round"></line><path d="M169,179c1.11-2.89,5-11.49,12.64-12.46,5.79-.74,9.09,4.42,10,6" style="fill:none;stroke:#fff;stroke-linecap:round;stroke-linejoin:round;stroke-dasharray:0.010053000412881374,1.0052599906921387"></path><line x1="191.8" y1="173" x2="191.8" y2="173" style="fill:none;stroke:#fff;stroke-linecap:round;stroke-linejoin:round"></line></g><line x1="168.76" y1="181.11" x2="168.76" y2="181.11" style="fill:none;stroke:#fff;stroke-linecap:round;stroke-linejoin:round;stroke-width:0.75px"></line><path d="M169.5,180.46A151.34,151.34,0,0,0,182,168.1" style="fill:none;stroke:#fff;stroke-linecap:round;stroke-linejoin:round;stroke-width:0.75px;stroke-dasharray:0,0.993153989315033"></path><line x1="182.29" y1="167.71" x2="182.29" y2="167.71" style="fill:none;stroke:#fff;stroke-linecap:round;stroke-linejoin:round;stroke-width:0.75px"></line><path d="M183.25,167.8c1.55.29,4.8,1.4,8.25,5.76" style="fill:none;stroke:#fff;stroke-linecap:round;stroke-linejoin:round;stroke-width:0.75px;stroke-dasharray:0,0.9671900272369385"></path><line x1="191.8" y1="173.96" x2="191.8" y2="173.96" style="fill:none;stroke:#fff;stroke-linecap:round;stroke-linejoin:round;stroke-width:0.75px"></line><path d="M182,166.1a.24.24,0,0,0-.36.1c-.26.78-.83,2.94.6,3.62C183.92,170.64,185.5,168.67,182,166.1Z" style="fill:#F27BD2"></path><path d="M182,166.1a.24.24,0,0,0-.36.1c-.26.78-.83,2.94.6,3.62C183.92,170.64,185.5,168.67,182,166.1Z" style="fill:#fff;opacity:0.6000000000000001"></path><path d="M182.15,167s2.14,2,.86,2.27S182.15,167,182.15,167Z" style="fill:#F27BD2"></path><path d="M171.56,186.37c3.41,0,4.68,8.71,0,8-3.49-.51-2.74-6.58-1.1-7.47" style="fill:none;stroke:#fff;stroke-linecap:round;stroke-linejoin:round;stroke-width:0.5px"></path><path d="M164.5,206.34s12.79,10.06,21,9.94,13-13.16,13-13.16S179.55,197.87,164.5,206.34Z" style="fill:#b77964"></path><path d="M185.05,171.89a.8.8,0,1,1-.8-.8A.8.8,0,0,1,185.05,171.89Z" style="fill:#a04e3f"></path><path d="M208.16,219.76c-.82-.07-1.66-.16-2.54-.27s-1.73-.23-2.64-.37l-.28-.48v-6.48S207.22,215.66,208.16,219.76Z" style="opacity:0.1;isolation:isolate"></path><path d="M190.31,201.51s19.8,98.05,57.78,124.52l25-29.36s-62.82-53.3-70.44-94.6Z" style="fill:#F27BD2"></path><path d="M273.14,296.67l-25,29.36c-1-.7-2-1.46-3-2.27a59.89,59.89,0,0,1-4.78-4.34c-1.21-1.22-2.39-2.51-3.56-3.86-.3-.35-.6-.7-.89-1.06-1.64-2-3.23-4-4.79-6.23l-.56-.8c-26.49-38-40.21-106-40.21-106l12.39.56c4.82,26.13,31.73,57.05,50.86,76.25l.66.66c1.79,1.8,3.51,3.48,5.14,5l1.79,1.72c1.59,1.51,3.06,2.89,4.39,4.12,1.79,1.65,3.31,3,4.52,4.11C272,295.72,273.14,296.67,273.14,296.67Z" style="fill:#fff;opacity:0.2"></path><g style="opacity:0.2"><path d="M238.73,286.45c.51.88.48,1.85,0,2.16s-1.39-.16-1.9-1-.48-1.85.05-2.16S238.22,285.57,238.73,286.45Z" style="fill:#fff"></path><path d="M249.48,275.4c.51.88.49,1.85,0,2.15s-1.38-.15-1.89-1-.49-1.85.05-2.16S249,274.51,249.48,275.4Z" style="fill:#fff"></path><path d="M228.49,296.11c.51.89.49,1.85-.05,2.16s-1.38-.15-1.89-1-.49-1.84,0-2.15S228,295.23,228.49,296.11Z" style="fill:#fff"></path><path d="M234.71,269.42c.51.88.48,1.85-.05,2.16s-1.39-.16-1.9-1-.48-1.85.05-2.16S234.2,268.53,234.71,269.42Z" style="fill:#fff"></path><path d="M219.53,276c.51.88.49,1.85-.05,2.16s-1.38-.16-1.89-1-.49-1.85,0-2.16S219,275.12,219.53,276Z" style="fill:#fff"></path><path d="M213.19,238.65c.51.88.49,1.85-.05,2.16s-1.38-.16-1.89-1-.49-1.85.05-2.16S212.68,237.76,213.19,238.65Z" style="fill:#fff"></path><path d="M199.57,205.78c.18,1-.18,1.9-.79,2s-1.24-.63-1.42-1.63.18-1.9.79-2S199.4,204.77,199.57,205.78Z" style="fill:#fff"></path><path d="M217.49,259.49c.51.88.49,1.84-.05,2.15s-1.38-.15-1.89-1-.49-1.85,0-2.16S217,258.6,217.49,259.49Z" style="fill:#fff"></path><path d="M227.35,251.66c.51.88.49,1.85,0,2.16s-1.38-.16-1.89-1-.49-1.85,0-2.16S226.84,250.78,227.35,251.66Z" style="fill:#fff"></path><path d="M200.85,225.4c.35.95.17,1.9-.41,2.12s-1.34-.39-1.69-1.35-.17-1.91.41-2.12S200.5,224.44,200.85,225.4Z" style="fill:#fff"></path><path d="M208.62,222.54c.36,1,.17,1.91-.41,2.12s-1.34-.39-1.69-1.35-.17-1.9.41-2.12S208.27,221.58,208.62,222.54Z" style="fill:#fff"></path><path d="M270.06,294l-25,29.78a59.89,59.89,0,0,1-4.78-4.34l25.22-29.55C267.33,291.52,268.85,292.9,270.06,294Z" style="fill:#fff"></path><path d="M261.15,285.75l-24.39,29.81c-.3-.35-.6-.7-.89-1.06L259.36,284Z" style="fill:#fff"></path><path d="M254.22,279l-23.14,29.29-.56-.8,23-29.15Z" style="fill:#fff"></path></g><path d="M184.3,209.76v1.58s-1,1.78,0,2.37,1.53-1.58.44-2.37Z" style="fill:#F27BD2"></path><path d="M188.4,205.06l.94,2s-.24,1,.4,1.43.79-1.38,0-1.7Z" style="fill:#F27BD2"></path><path d="M177.23,205.71v2.37s-.65,1.53.39,1.68,0-1.68,0-1.68Z" style="fill:#F27BD2"></path><path d="M176.24,201.7s.06-.95.74-1.13,3.21,3.06,5.79,3c2.82-.06,3-3,3.53-3s.53,1.14.53,1.14l2.1,3.56s-3.91,2-3.91,4.7h-1.4s-2.69-4-5.9-3.71l-.81-.28S176.79,202.35,176.24,201.7Z" style="fill:#F27BD2"></path><path d="M176.24,201.7s.06-.95.74-1.13,3.21,3.06,5.79,3c2.82-.06,3-3,3.53-3s.53,1.14.53,1.14l2.1,3.56s-3.91,2-3.91,4.7h-1.4s-2.69-4-5.9-3.71l-.81-.28S176.79,202.35,176.24,201.7Z" style="fill:#fff;opacity:0.2"></path><path d="M171.78,202.77s5.93,48.53,26.28,60,3.93-55.14-7.75-61.26" style="fill:none;stroke:#F27BD2;stroke-linecap:round;stroke-linejoin:round;stroke-width:3px;stroke-dasharray:0.009999999776482582,3"></path><path d="M174.61,201.51s7.06,38.58,23.45,50.71-.4-43.82-9.11-51.65" style="fill:none;stroke:#fff;stroke-linecap:round;stroke-linejoin:round;stroke-width:2px;stroke-dasharray:0.009999999776482582,2"></path><path d="M171.78,202.77s5.93,48.53,26.28,60,3.93-55.14-7.75-61.26" style="fill:none;stroke:#fff;stroke-linecap:round;stroke-linejoin:round;stroke-width:3px;stroke-dasharray:0.009999999776482582,3;opacity:0.6000000000000001"></path><path d="M202.7,265a4.64,4.64,0,0,1,2.83-1.54c1.55-.05,1.28,6,1.28,6l-2.05.61S202.67,266.92,202.7,265Z" style="fill:#fff"></path><path d="M208,271a1.86,1.86,0,1,1-1.86-1.86A1.86,1.86,0,0,1,208,271Z" style="fill:#F27BD2"></path><path d="M208,271a1.86,1.86,0,1,1-1.86-1.86A1.86,1.86,0,0,1,208,271Z" style="fill:#fff;opacity:0.6000000000000001"></path><path d="M208.31,278.26c-1.73-1.58-2.2-5.37-2.2-5.37a2,2,0,0,1,1.59-.91s3,3.25,4.52,3.25a3.6,3.6,0,0,1-3.05-1,10.27,10.27,0,0,0,1.9,2.48,3.6,3.6,0,0,1-1.59,1.05,6,6,0,0,1-1.78-2.11,4.38,4.38,0,0,0,.27,1.55A5,5,0,0,1,208.31,278.26Z" style="fill:#fff"></path><path d="M207.57,272.2a8.45,8.45,0,0,0,4.65,1.71" style="fill:none;stroke:#fff;stroke-linecap:round;stroke-linejoin:round;stroke-width:0.5px"></path><path d="M185,207.5c.14.85-.16,1.61-.68,1.7s-1.06-.53-1.21-1.37.16-1.61.68-1.7S184.84,206.65,185,207.5Z" style="fill:#fff;opacity:0.4"></path><path d="M187.74,204.35c.17.63,0,1.22-.39,1.33s-.83-.32-1-1,0-1.22.39-1.32S187.56,203.72,187.74,204.35Z" style="fill:#fff;opacity:0.4"></path><path d="M178.77,204.69c-.13.64-.56,1.09-1,1s-.59-.67-.46-1.31.56-1.08.95-1S178.91,204.05,178.77,204.69Z" style="fill:#fff;opacity:0.4"></path><path d="M159.47,211.14s3.13-12.23,5-19.76,6.26-24.65,16.74-25.74c0,0,15-.29,18.87,31.55,0,0-.48-36-21.45-32.1,0,0-17.3-2-24.73,49.71Z" style="fill:#F27BD2"></path><path d="M200.11,197.19c-3.84-31.84-18.87-31.55-18.87-31.55-10.48,1.09-14.84,18.21-16.74,25.74s-5,19.76-5,19.76l-.45.3-1.92,1.26-1.64,1.09-1.19.78-.34.23c3.14-21.87,8-34.13,12.67-41a28.25,28.25,0,0,1,4-4.84,16.71,16.71,0,0,1,4-2.85,8,8,0,0,1,4.06-1,16.18,16.18,0,0,1,3.39-.29h.24C199.69,165.45,200.11,197.19,200.11,197.19Z" style="fill:#fff;opacity:0.30000000000000004"></path><path d="M182.05,164.8c-15.4,0-21.66,36.93-23,46.64l-1.92,1.26c5.62-30.71,12.64-42.28,17.5-46.59a8,8,0,0,1,4.06-1A16.18,16.18,0,0,1,182.05,164.8Z" style="fill:#fff;opacity:0.7000000000000001"></path><g style="opacity:0.7000000000000001"><path d="M170.61,169c-7.77,10.67-13.55,37-15.15,44.83l-1.19.78c1.11-5.65,5.66-27.53,12.33-40.77A28.25,28.25,0,0,1,170.61,169Z" style="fill:#fff"></path></g><path d="M144.76,232.53l-18.22,1A32,32,0,0,1,121,236c-3.16,1.05-3.84,1.35-4.43-.68s-2.37-4.24-1.62-4.93,8.1-1.68,9.91-.8l21.43-4.3Z" style="fill:#b77964"></path><path d="M134.43,226.8l.85,7.26a.55.55,0,0,1-.49.62h0a.55.55,0,0,1-.62-.49l-.85-7.26a.56.56,0,0,1,.49-.62h0A.55.55,0,0,1,134.43,226.8Z" style="fill:#263238"></path><path d="M134.43,226.8l.85,7.26a.55.55,0,0,1-.49.62h0a.55.55,0,0,1-.62-.49l-.85-7.26a.56.56,0,0,1,.49-.62h0A.55.55,0,0,1,134.43,226.8Z" style="fill:#fff;opacity:0.5"></path><path d="M128.45,227.88l.26,5.39a.42.42,0,0,1-.4.43h0a.41.41,0,0,1-.43-.39l-.26-5.39a.42.42,0,0,1,.39-.44h0A.42.42,0,0,1,128.45,227.88Z" style="fill:#263238"></path><path d="M128.45,227.88l.26,5.39a.42.42,0,0,1-.4.43h0a.41.41,0,0,1-.43-.39l-.26-5.39a.42.42,0,0,1,.39-.44h0A.42.42,0,0,1,128.45,227.88Z" style="fill:#fff;opacity:0.5"></path><path d="M129.79,227.29l.85,6.47a.5.5,0,0,1-.43.56h0a.5.5,0,0,1-.56-.43l-.86-6.46a.51.51,0,0,1,.44-.57h0A.51.51,0,0,1,129.79,227.29Z" style="fill:#263238"></path><path d="M129.79,227.29l.85,6.47a.5.5,0,0,1-.43.56h0a.5.5,0,0,1-.56-.43l-.86-6.46a.51.51,0,0,1,.44-.57h0A.51.51,0,0,1,129.79,227.29Z" style="fill:#fff;opacity:0.30000000000000004"></path><path d="M124.69,228.89l1.3,5.49a.7.7,0,0,0,.84.52h0a.71.71,0,0,0,.53-.85l-1.3-5.49a.7.7,0,0,0-.85-.52h0A.7.7,0,0,0,124.69,228.89Z" style="fill:#F27BD2"></path><path d="M124.69,228.89l1.3,5.49a.7.7,0,0,0,.84.52h0a.71.71,0,0,0,.53-.85l-1.3-5.49a.7.7,0,0,0-.85-.52h0A.7.7,0,0,0,124.69,228.89Z" style="fill:#fff;opacity:0.2"></path><path d="M130.13,227.91l1.3,5.49a.71.71,0,0,0,.85.53h0a.71.71,0,0,0,.52-.85l-1.3-5.49a.7.7,0,0,0-.85-.52h0A.69.69,0,0,0,130.13,227.91Z" style="fill:#F27BD2"></path><path d="M130.13,227.91l1.3,5.49a.71.71,0,0,0,.85.53h0a.71.71,0,0,0,.52-.85l-1.3-5.49a.7.7,0,0,0-.85-.52h0A.69.69,0,0,0,130.13,227.91Z" style="fill:#fff;opacity:0.5"></path><path d="M134.68,227.17l1.3,5.49a.7.7,0,0,0,.84.53h0a.71.71,0,0,0,.53-.85l-1.3-5.49a.7.7,0,0,0-.85-.52h0A.69.69,0,0,0,134.68,227.17Z" style="fill:#F27BD2"></path><path d="M134.68,227.17l1.3,5.49a.7.7,0,0,0,.84.53h0a.71.71,0,0,0,.53-.85l-1.3-5.49a.7.7,0,0,0-.85-.52h0A.69.69,0,0,0,134.68,227.17Z" style="fill:#fff;opacity:0.2"></path><path d="M167.37,221.31c-.77.64-1.52,1.23-2.26,1.8s-1.44,1.1-2.13,1.6-1.41,1-2.1,1.46a65.43,65.43,0,0,1-8.35,4.82l-1.06.48a35.93,35.93,0,0,1-3.61,1.41,17.61,17.61,0,0,1-2.85.76s-.35.25-.81.52c-.67.4-1.59.84-2,.59-.71-.41-.67-9.5-.67-9.5,0-1.22,1-1.28,2-1.73a2.82,2.82,0,0,0,.5-.29,29.05,29.05,0,0,0,2.47-2.11c.71-.65,1.51-1.41,2.38-2.25l.9-.89c3.76-3.71,8.4-8.58,11.6-12.27,0,0,3.85,1.95,6,7.94C169.32,219,167.37,221.31,167.37,221.31Z" style="fill:#263238"></path><path d="M147.86,232.88a17.61,17.61,0,0,1-2.85.76s-.35.25-.81.52l-.69-10.64a2.82,2.82,0,0,0,.5-.29,29.05,29.05,0,0,0,2.47-2.11Z" style="fill:#F27BD2"></path><path d="M152.53,231l-1.06.48-2.61-12.6.9-.89Z" style="fill:#F27BD2"></path></g></svg>