<svg width="1400" height="811" viewBox="0 0 1400 811" fill="none" xmlns="http://www.w3.org/2000/svg">
<rect x="1576" y="597" width="1723" height="597" transform="rotate(-180 1576 597)" fill="white"/>
<path d="M610.5 696.372C484 751.372 350 841.872 175 799.872C35 766.272 -50 733.538 -75 721.372V604.372H0V425.372C26.6666 486.705 211.5 606.872 377 547.872C542.5 488.872 660.5 525.372 757.5 547.872C876.955 575.58 1026 579.372 1130.5 525.372C1249.37 463.948 1373.5 400.372 1481 437.372L1467 606.872H1447.5L1425 629.372C1338.5 661.372 1215 719.872 1028 696.372C841 672.872 737 641.372 610.5 696.372Z" fill="white"/>
</svg>
